%TF.GenerationSoftware,KiCad,Pcbnew,9.0.0*%
%TF.CreationDate,2025-03-11T13:16:13+01:00*%
%TF.ProjectId,SergiMarsol_projecte_MISE,53657267-694d-4617-9273-6f6c5f70726f,rev?*%
%TF.SameCoordinates,Original*%
%TF.FileFunction,Copper,L1,Top*%
%TF.FilePolarity,Positive*%
%FSLAX46Y46*%
G04 Gerber Fmt 4.6, Leading zero omitted, Abs format (unit mm)*
G04 Created by KiCad (PCBNEW 9.0.0) date 2025-03-11 13:16:13*
%MOMM*%
%LPD*%
G01*
G04 APERTURE LIST*
G04 Aperture macros list*
%AMRoundRect*
0 Rectangle with rounded corners*
0 $1 Rounding radius*
0 $2 $3 $4 $5 $6 $7 $8 $9 X,Y pos of 4 corners*
0 Add a 4 corners polygon primitive as box body*
4,1,4,$2,$3,$4,$5,$6,$7,$8,$9,$2,$3,0*
0 Add four circle primitives for the rounded corners*
1,1,$1+$1,$2,$3*
1,1,$1+$1,$4,$5*
1,1,$1+$1,$6,$7*
1,1,$1+$1,$8,$9*
0 Add four rect primitives between the rounded corners*
20,1,$1+$1,$2,$3,$4,$5,0*
20,1,$1+$1,$4,$5,$6,$7,0*
20,1,$1+$1,$6,$7,$8,$9,0*
20,1,$1+$1,$8,$9,$2,$3,0*%
G04 Aperture macros list end*
%TA.AperFunction,SMDPad,CuDef*%
%ADD10RoundRect,0.250000X-0.450000X0.262500X-0.450000X-0.262500X0.450000X-0.262500X0.450000X0.262500X0*%
%TD*%
%TA.AperFunction,SMDPad,CuDef*%
%ADD11RoundRect,0.250000X0.475000X-0.250000X0.475000X0.250000X-0.475000X0.250000X-0.475000X-0.250000X0*%
%TD*%
%TA.AperFunction,SMDPad,CuDef*%
%ADD12RoundRect,0.250000X0.262500X0.450000X-0.262500X0.450000X-0.262500X-0.450000X0.262500X-0.450000X0*%
%TD*%
%TA.AperFunction,ComponentPad*%
%ADD13R,1.700000X1.700000*%
%TD*%
%TA.AperFunction,SMDPad,CuDef*%
%ADD14RoundRect,0.250000X-0.262500X-0.450000X0.262500X-0.450000X0.262500X0.450000X-0.262500X0.450000X0*%
%TD*%
%TA.AperFunction,SMDPad,CuDef*%
%ADD15RoundRect,0.250000X0.450000X-0.262500X0.450000X0.262500X-0.450000X0.262500X-0.450000X-0.262500X0*%
%TD*%
%TA.AperFunction,ComponentPad*%
%ADD16R,1.700000X1.800000*%
%TD*%
%TA.AperFunction,ComponentPad*%
%ADD17RoundRect,0.425000X0.425000X-0.475000X0.425000X0.475000X-0.425000X0.475000X-0.425000X-0.475000X0*%
%TD*%
%TA.AperFunction,ComponentPad*%
%ADD18C,4.000000*%
%TD*%
%TA.AperFunction,ComponentPad*%
%ADD19O,1.700000X1.700000*%
%TD*%
%TA.AperFunction,ComponentPad*%
%ADD20C,2.000000*%
%TD*%
%TA.AperFunction,SMDPad,CuDef*%
%ADD21RoundRect,0.250000X0.250000X0.475000X-0.250000X0.475000X-0.250000X-0.475000X0.250000X-0.475000X0*%
%TD*%
%TA.AperFunction,ComponentPad*%
%ADD22C,1.650000*%
%TD*%
%TA.AperFunction,ComponentPad*%
%ADD23C,1.950000*%
%TD*%
%TA.AperFunction,ComponentPad*%
%ADD24C,2.400000*%
%TD*%
%TA.AperFunction,ComponentPad*%
%ADD25RoundRect,0.250000X-0.650000X0.650000X-0.650000X-0.650000X0.650000X-0.650000X0.650000X0.650000X0*%
%TD*%
%TA.AperFunction,ComponentPad*%
%ADD26C,1.800000*%
%TD*%
%TA.AperFunction,ComponentPad*%
%ADD27C,3.500000*%
%TD*%
%TA.AperFunction,SMDPad,CuDef*%
%ADD28R,0.300000X1.475000*%
%TD*%
%TA.AperFunction,SMDPad,CuDef*%
%ADD29R,1.475000X0.300000*%
%TD*%
%TA.AperFunction,SMDPad,CuDef*%
%ADD30RoundRect,0.150000X0.835000X0.150000X-0.835000X0.150000X-0.835000X-0.150000X0.835000X-0.150000X0*%
%TD*%
%TA.AperFunction,ComponentPad*%
%ADD31C,0.800000*%
%TD*%
%TA.AperFunction,ComponentPad*%
%ADD32R,1.560000X1.560000*%
%TD*%
%TA.AperFunction,ComponentPad*%
%ADD33C,1.560000*%
%TD*%
%TA.AperFunction,ViaPad*%
%ADD34C,1.600000*%
%TD*%
%TA.AperFunction,Conductor*%
%ADD35C,0.750000*%
%TD*%
%TA.AperFunction,Conductor*%
%ADD36C,0.250000*%
%TD*%
%TA.AperFunction,Conductor*%
%ADD37C,0.500000*%
%TD*%
G04 APERTURE END LIST*
D10*
%TO.P,R12,1*%
%TO.N,VDD*%
X57500000Y-41675000D03*
%TO.P,R12,2*%
%TO.N,Net-(IC1-P4.7{slash}UCB1SOMI{slash}UCB1SCL)*%
X57500000Y-43500000D03*
%TD*%
D11*
%TO.P,C2,1*%
%TO.N,Net-(IC1-P2.6{slash}MCLK{slash}XOUT)*%
X61500000Y-43450000D03*
%TO.P,C2,2*%
%TO.N,GND*%
X61500000Y-41550000D03*
%TD*%
%TO.P,C3,1*%
%TO.N,Net-(IC1-P2.7{slash}TB0CLK{slash}XIN)*%
X64000000Y-43450000D03*
%TO.P,C3,2*%
%TO.N,GND*%
X64000000Y-41550000D03*
%TD*%
D12*
%TO.P,R10,1*%
%TO.N,Net-(U1B--)*%
X58000000Y-84500000D03*
%TO.P,R10,2*%
%TO.N,GND*%
X56175000Y-84500000D03*
%TD*%
D13*
%TO.P,J6,1,Pin_1*%
%TO.N,Net-(IC1-P4.7{slash}UCB1SOMI{slash}UCB1SCL)*%
X52000000Y-43500000D03*
%TD*%
D14*
%TO.P,R11,1*%
%TO.N,VDD*%
X57187500Y-51900000D03*
%TO.P,R11,2*%
%TO.N,Net-(IC1-P4.6{slash}UCB1SIMO{slash}UCB1SDA)*%
X59012500Y-51900000D03*
%TD*%
D13*
%TO.P,J11,1,Pin_1*%
%TO.N,Net-(IC1-P1.6{slash}UCA0RXD{slash}UCA0SOMI{slash}TB0.1{slash}TDI{slash}TCLK{slash}OA1-{slash}A6)*%
X84000000Y-61000000D03*
%TD*%
D15*
%TO.P,R6,1*%
%TO.N,Net-(U1D--)*%
X42500000Y-77412500D03*
%TO.P,R6,2*%
%TO.N,GND*%
X42500000Y-75587500D03*
%TD*%
D16*
%TO.P,LCD1,1,VDD*%
%TO.N,VDD*%
X29265000Y-28875000D03*
D17*
%TO.P,LCD1,2,VSS*%
%TO.N,GND*%
X29265000Y-26335000D03*
%TO.P,LCD1,3,SDA*%
%TO.N,Net-(IC1-P4.6{slash}UCB1SIMO{slash}UCB1SDA)*%
X31805000Y-28875000D03*
%TO.P,LCD1,4,SCL*%
%TO.N,Net-(IC1-P4.7{slash}UCB1SOMI{slash}UCB1SCL)*%
X31805000Y-26335000D03*
%TO.P,LCD1,5,RST*%
%TO.N,rst_lcd*%
X34345000Y-28875000D03*
%TO.P,LCD1,6,A*%
%TO.N,unconnected-(LCD1-A-Pad6)*%
X34345000Y-26335000D03*
%TO.P,LCD1,7,K*%
%TO.N,unconnected-(LCD1-K-Pad7)*%
X36885000Y-28875000D03*
%TO.P,LCD1,8,NC*%
%TO.N,unconnected-(LCD1-NC-Pad8)*%
X36885000Y-26335000D03*
D18*
%TO.P,LCD1,9*%
%TO.N,N/C*%
X44475000Y-26850000D03*
%TO.P,LCD1,10*%
X44475000Y-87850000D03*
%TO.P,LCD1,11*%
X21475000Y-87850000D03*
%TO.P,LCD1,12*%
X21475000Y-26850000D03*
%TD*%
D13*
%TO.P,J10,1,Pin_1*%
%TO.N,Net-(IC1-P1.7{slash}UCA0TXD{slash}UCA0SIMO{slash}TB0.2{slash}TDO{slash}OA1+{slash}A7{slash}VREF+)*%
X72040000Y-67540000D03*
%TD*%
D15*
%TO.P,R3,1*%
%TO.N,VDD*%
X64250000Y-26162500D03*
%TO.P,R3,2*%
%TO.N,Net-(IC1-~{RST}{slash}NMI{slash}SBWTDIO)*%
X64250000Y-24337500D03*
%TD*%
D13*
%TO.P,J2,1,Pin_1*%
%TO.N,Net-(IC1-~{RST}{slash}NMI{slash}SBWTDIO)*%
X83500000Y-26910000D03*
D19*
%TO.P,J2,2,Pin_2*%
%TO.N,Net-(IC1-TEST{slash}SBWTCK)*%
X83500000Y-29450000D03*
%TO.P,J2,3,Pin_3*%
%TO.N,GND*%
X83500000Y-31990000D03*
%TD*%
D20*
%TO.P,SW1,1,1*%
%TO.N,Net-(IC1-~{RST}{slash}NMI{slash}SBWTDIO)*%
X68500000Y-24000000D03*
X75000000Y-24000000D03*
%TO.P,SW1,2,2*%
%TO.N,GND*%
X68500000Y-28500000D03*
X75000000Y-28500000D03*
%TD*%
D14*
%TO.P,R7,1*%
%TO.N,VDD*%
X78587500Y-61500000D03*
%TO.P,R7,2*%
%TO.N,Net-(J3-Pin_6)*%
X80412500Y-61500000D03*
%TD*%
D13*
%TO.P,J8,1,Pin_1*%
%TO.N,Net-(IC1-P1.1{slash}UCB0CLK{slash}ACLK{slash}OA0O{slash}COMP0.1{slash}A1)*%
X76200000Y-49300000D03*
%TD*%
%TO.P,J12,1,Pin_1*%
%TO.N,Net-(IC1-P3.2{slash}OA2-)*%
X90000000Y-40000000D03*
%TD*%
%TO.P,J7,1,Pin_1*%
%TO.N,Net-(IC1-P4.6{slash}UCB1SIMO{slash}UCB1SDA)*%
X52000000Y-48500000D03*
%TD*%
D21*
%TO.P,C4,1*%
%TO.N,VDD*%
X67950000Y-46500000D03*
%TO.P,C4,2*%
%TO.N,GND*%
X66050000Y-46500000D03*
%TD*%
D13*
%TO.P,R1,1*%
%TO.N,VDD*%
X93500000Y-79960000D03*
D19*
%TO.P,R1,2*%
%TO.N,Net-(IC1-P3.3{slash}OA2+)*%
X93500000Y-82500000D03*
%TD*%
D13*
%TO.P,J13,1,Pin_1*%
%TO.N,Net-(IC1-P3.3{slash}OA2+)*%
X93500000Y-74000000D03*
%TD*%
D22*
%TO.P,S1,1,1*%
%TO.N,VDD*%
X75637500Y-91175000D03*
%TO.P,S1,2,2*%
%TO.N,AO_1*%
X78137500Y-91175000D03*
%TO.P,S1,3,3*%
%TO.N,GND*%
X80637500Y-91175000D03*
%TO.P,S1,11,1'*%
%TO.N,VDD*%
X69407500Y-79945000D03*
%TO.P,S1,12,2'*%
%TO.N,AO_2*%
X69407500Y-82445000D03*
%TO.P,S1,13,3'*%
%TO.N,GND*%
X69407500Y-84945000D03*
D23*
%TO.P,S1,A1,COM_1*%
X81387500Y-76695000D03*
%TO.P,S1,B1,COM_2*%
%TO.N,unconnected-(S1-COM_2-PadB1)*%
X74887500Y-76695000D03*
%TO.P,S1,C1,NO_1*%
%TO.N,Net-(IC1-P1.5{slash}UCA0CLK{slash}TMS{slash}OA1O{slash}A5)*%
X81387500Y-72195000D03*
%TO.P,S1,D1,NO_2*%
%TO.N,unconnected-(S1-NO_2-PadD1)*%
X74887500Y-72195000D03*
D24*
%TO.P,S1,MH1,MH1*%
%TO.N,unconnected-(S1-PadMH1)*%
X71812500Y-87445000D03*
%TO.P,S1,MH2,MH2*%
%TO.N,unconnected-(S1-PadMH2)*%
X84462500Y-87445000D03*
%TO.P,S1,MH3,MH3*%
%TO.N,unconnected-(S1-PadMH3)*%
X84462500Y-77445000D03*
%TO.P,S1,MH4,MH4*%
%TO.N,unconnected-(S1-PadMH4)*%
X71812500Y-77445000D03*
%TD*%
D13*
%TO.P,J3,1,Pin_1*%
%TO.N,Net-(IC1-P1.7{slash}UCA0TXD{slash}UCA0SIMO{slash}TB0.2{slash}TDO{slash}OA1+{slash}A7{slash}VREF+)*%
X76960000Y-67540000D03*
D19*
%TO.P,J3,2,Pin_2*%
%TO.N,VDD*%
X76960000Y-65000000D03*
%TO.P,J3,3,Pin_3*%
%TO.N,unconnected-(J3-Pin_3-Pad3)*%
X79500000Y-67540000D03*
%TO.P,J3,4,Pin_4*%
%TO.N,unconnected-(J3-Pin_4-Pad4)*%
X79500000Y-65000000D03*
%TO.P,J3,5,Pin_5*%
%TO.N,unconnected-(J3-Pin_5-Pad5)*%
X82040000Y-67540000D03*
%TO.P,J3,6,Pin_6*%
%TO.N,Net-(J3-Pin_6)*%
X82040000Y-65000000D03*
%TO.P,J3,7,Pin_7*%
%TO.N,GND*%
X84580000Y-67540000D03*
%TO.P,J3,8,Pin_8*%
%TO.N,Net-(IC1-P1.6{slash}UCA0RXD{slash}UCA0SOMI{slash}TB0.1{slash}TDI{slash}TCLK{slash}OA1-{slash}A6)*%
X84580000Y-65000000D03*
%TD*%
D25*
%TO.P,J1,1,Pin_1*%
%TO.N,VDD*%
X31500000Y-49800000D03*
D26*
%TO.P,J1,2,Pin_2*%
X34040000Y-49800000D03*
%TO.P,J1,3,Pin_3*%
%TO.N,unconnected-(J1-Pin_3-Pad3)*%
X31500000Y-52340000D03*
%TO.P,J1,4,Pin_4*%
%TO.N,Net-(IC1-P6.1{slash}TB3.2)*%
X34040000Y-52340000D03*
%TO.P,J1,5,Pin_5*%
%TO.N,unconnected-(J1-Pin_5-Pad5)*%
X31500000Y-54880000D03*
%TO.P,J1,6,Pin_6*%
%TO.N,Net-(IC1-P6.0{slash}TB3.1)*%
X34040000Y-54880000D03*
%TO.P,J1,7,Pin_7*%
%TO.N,unconnected-(J1-Pin_7-Pad7)*%
X31500000Y-57420000D03*
%TO.P,J1,8,Pin_8*%
%TO.N,unconnected-(J1-Pin_8-Pad8)*%
X34040000Y-57420000D03*
%TO.P,J1,9,Pin_9*%
%TO.N,Net-(IC1-P4.7{slash}UCB1SOMI{slash}UCB1SCL)*%
X31500000Y-59960000D03*
%TO.P,J1,10,Pin_10*%
%TO.N,unconnected-(J1-Pin_10-Pad10)*%
X34040000Y-59960000D03*
%TO.P,J1,11,Pin_11*%
%TO.N,Net-(IC1-P4.6{slash}UCB1SIMO{slash}UCB1SDA)*%
X31500000Y-62500000D03*
%TO.P,J1,12,Pin_12*%
%TO.N,unconnected-(J1-Pin_12-Pad12)*%
X34040000Y-62500000D03*
%TO.P,J1,13,Pin_13*%
%TO.N,GND*%
X31500000Y-65040000D03*
%TO.P,J1,14,Pin_14*%
X34040000Y-65040000D03*
D27*
%TO.P,J1,15*%
%TO.N,N/C*%
X94040000Y-57420000D03*
%TO.P,J1,16*%
X64040000Y-84420000D03*
%TO.P,J1,17*%
X64040000Y-30420000D03*
%TO.P,J1,18*%
X22040000Y-92420000D03*
%TO.P,J1,19*%
X22040000Y-22420000D03*
%TD*%
D28*
%TO.P,IC1,1,P1.2/UCB0SIMO/UCB0SDA/TB0TRG/OA0-/A2/VEREF-*%
%TO.N,unconnected-(IC1-P1.2{slash}UCB0SIMO{slash}UCB0SDA{slash}TB0TRG{slash}OA0-{slash}A2{slash}VEREF--Pad1)*%
X69250000Y-53182000D03*
%TO.P,IC1,2,P1.1/UCB0CLK/ACLK/OA0O/COMP0.1/A1*%
%TO.N,Net-(IC1-P1.1{slash}UCB0CLK{slash}ACLK{slash}OA0O{slash}COMP0.1{slash}A1)*%
X68750000Y-53182000D03*
%TO.P,IC1,3,P1.0/UCB0STE/SMCLK/COMP0.0/A0/VEREF+*%
%TO.N,Net-(IC1-P1.0{slash}UCB0STE{slash}SMCLK{slash}COMP0.0{slash}A0{slash}VEREF+)*%
X68250000Y-53182000D03*
%TO.P,IC1,4,TEST/SBWTCK*%
%TO.N,Net-(IC1-TEST{slash}SBWTCK)*%
X67750000Y-53182000D03*
%TO.P,IC1,5,~{RST}/NMI/SBWTDIO*%
%TO.N,Net-(IC1-~{RST}{slash}NMI{slash}SBWTDIO)*%
X67250000Y-53182000D03*
%TO.P,IC1,6,DVCC*%
%TO.N,VDD*%
X66750000Y-53182000D03*
%TO.P,IC1,7,DVSS*%
%TO.N,GND*%
X66250000Y-53182000D03*
%TO.P,IC1,8,P2.7/TB0CLK/XIN*%
%TO.N,Net-(IC1-P2.7{slash}TB0CLK{slash}XIN)*%
X65750000Y-53182000D03*
%TO.P,IC1,9,P2.6/MCLK/XOUT*%
%TO.N,Net-(IC1-P2.6{slash}MCLK{slash}XOUT)*%
X65250000Y-53182000D03*
%TO.P,IC1,10,P2.5/COMP1.0*%
%TO.N,unconnected-(IC1-P2.5{slash}COMP1.0-Pad10)*%
X64750000Y-53182000D03*
%TO.P,IC1,11,P2.4/COMP1.1*%
%TO.N,unconnected-(IC1-P2.4{slash}COMP1.1-Pad11)*%
X64250000Y-53182000D03*
%TO.P,IC1,12,P4.7/UCB1SOMI/UCB1SCL*%
%TO.N,Net-(IC1-P4.7{slash}UCB1SOMI{slash}UCB1SCL)*%
X63750000Y-53182000D03*
D29*
%TO.P,IC1,13,P4.6/UCB1SIMO/UCB1SDA*%
%TO.N,Net-(IC1-P4.6{slash}UCB1SIMO{slash}UCB1SDA)*%
X62262000Y-54670000D03*
%TO.P,IC1,14,P4.5/UCB1CLK*%
%TO.N,unconnected-(IC1-P4.5{slash}UCB1CLK-Pad14)*%
X62262000Y-55170000D03*
%TO.P,IC1,15,P4.4/UCB1STE*%
%TO.N,unconnected-(IC1-P4.4{slash}UCB1STE-Pad15)*%
X62262000Y-55670000D03*
%TO.P,IC1,16,P6.6/TB3CLK*%
%TO.N,unconnected-(IC1-P6.6{slash}TB3CLK-Pad16)*%
X62262000Y-56170000D03*
%TO.P,IC1,17,P6.5/TB3.6*%
%TO.N,unconnected-(IC1-P6.5{slash}TB3.6-Pad17)*%
X62262000Y-56670000D03*
%TO.P,IC1,18,P6.4/TB3.5*%
%TO.N,unconnected-(IC1-P6.4{slash}TB3.5-Pad18)*%
X62262000Y-57170000D03*
%TO.P,IC1,19,P6.3/TB3.4*%
%TO.N,unconnected-(IC1-P6.3{slash}TB3.4-Pad19)*%
X62262000Y-57670000D03*
%TO.P,IC1,20,P6.2/TB3.3*%
%TO.N,unconnected-(IC1-P6.2{slash}TB3.3-Pad20)*%
X62262000Y-58170000D03*
%TO.P,IC1,21,P6.1/TB3.2*%
%TO.N,Net-(IC1-P6.1{slash}TB3.2)*%
X62262000Y-58670000D03*
%TO.P,IC1,22,P6.0/TB3.1*%
%TO.N,Net-(IC1-P6.0{slash}TB3.1)*%
X62262000Y-59170000D03*
%TO.P,IC1,23,P4.3/UCA1TXD/UCA1SIMO/~{UCA1TXD}*%
%TO.N,unconnected-(IC1-P4.3{slash}UCA1TXD{slash}UCA1SIMO{slash}~{UCA1TXD}-Pad23)*%
X62262000Y-59670000D03*
%TO.P,IC1,24,P4.2/UCA1RXD/UCA1SOMI/~{UCA1RXD}*%
%TO.N,unconnected-(IC1-P4.2{slash}UCA1RXD{slash}UCA1SOMI{slash}~{UCA1RXD}-Pad24)*%
X62262000Y-60170000D03*
D28*
%TO.P,IC1,25,P4.1/UCA1CLK*%
%TO.N,unconnected-(IC1-P4.1{slash}UCA1CLK-Pad25)*%
X63750000Y-61658000D03*
%TO.P,IC1,26,P4.0/UCA1STE/ISOTXD/ISORXD*%
%TO.N,unconnected-(IC1-P4.0{slash}UCA1STE{slash}ISOTXD{slash}ISORXD-Pad26)*%
X64250000Y-61658000D03*
%TO.P,IC1,27,P2.3/TB1TRG*%
%TO.N,Net-(IC1-P2.3{slash}TB1TRG)*%
X64750000Y-61658000D03*
%TO.P,IC1,28,P2.2/TB1CLK*%
%TO.N,Net-(IC1-P2.2{slash}TB1CLK)*%
X65250000Y-61658000D03*
%TO.P,IC1,29,P2.1/TB1.2/COMP1.O*%
%TO.N,Net-(IC1-P2.1{slash}TB1.2{slash}COMP1.O)*%
X65750000Y-61658000D03*
%TO.P,IC1,30,P2.0/TB1.1/COMP0.O*%
%TO.N,Net-(IC1-P2.0{slash}TB1.1{slash}COMP0.O)*%
X66250000Y-61658000D03*
%TO.P,IC1,31,P1.7/UCA0TXD/UCA0SIMO/TB0.2/TDO/OA1+/A7/VREF+*%
%TO.N,Net-(IC1-P1.7{slash}UCA0TXD{slash}UCA0SIMO{slash}TB0.2{slash}TDO{slash}OA1+{slash}A7{slash}VREF+)*%
X66750000Y-61658000D03*
%TO.P,IC1,32,P1.6/UCA0RXD/UCA0SOMI/TB0.1/TDI/TCLK/OA1-/A6*%
%TO.N,Net-(IC1-P1.6{slash}UCA0RXD{slash}UCA0SOMI{slash}TB0.1{slash}TDI{slash}TCLK{slash}OA1-{slash}A6)*%
X67250000Y-61658000D03*
%TO.P,IC1,33,P1.5/UCA0CLK/TMS/OA1O/A5*%
%TO.N,Net-(IC1-P1.5{slash}UCA0CLK{slash}TMS{slash}OA1O{slash}A5)*%
X67750000Y-61658000D03*
%TO.P,IC1,34,P1.4/UCA0STE/TCK/A4*%
%TO.N,unconnected-(IC1-P1.4{slash}UCA0STE{slash}TCK{slash}A4-Pad34)*%
X68250000Y-61658000D03*
%TO.P,IC1,35,P3.7/OA3+*%
%TO.N,unconnected-(IC1-P3.7{slash}OA3+-Pad35)*%
X68750000Y-61658000D03*
%TO.P,IC1,36,P3.6/OA3-*%
%TO.N,unconnected-(IC1-P3.6{slash}OA3--Pad36)*%
X69250000Y-61658000D03*
D29*
%TO.P,IC1,37,P3.5/OA3O*%
%TO.N,unconnected-(IC1-P3.5{slash}OA3O-Pad37)*%
X70738000Y-60170000D03*
%TO.P,IC1,38,P3.4/SMCLK*%
%TO.N,unconnected-(IC1-P3.4{slash}SMCLK-Pad38)*%
X70738000Y-59670000D03*
%TO.P,IC1,39,P5.4*%
%TO.N,unconnected-(IC1-P5.4-Pad39)*%
X70738000Y-59170000D03*
%TO.P,IC1,40,P5.3/TB2TRG/A11*%
%TO.N,unconnected-(IC1-P5.3{slash}TB2TRG{slash}A11-Pad40)*%
X70738000Y-58670000D03*
%TO.P,IC1,41,P5.2/TB2CLK/A10*%
%TO.N,unconnected-(IC1-P5.2{slash}TB2CLK{slash}A10-Pad41)*%
X70738000Y-58170000D03*
%TO.P,IC1,42,P5.1/TB2.2/MFM.TX/A9*%
%TO.N,unconnected-(IC1-P5.1{slash}TB2.2{slash}MFM.TX{slash}A9-Pad42)*%
X70738000Y-57670000D03*
%TO.P,IC1,43,P5.0/TB2.1/MFM.RX/A8*%
%TO.N,rst_lcd*%
X70738000Y-57170000D03*
%TO.P,IC1,44,P3.3/OA2+*%
%TO.N,Net-(IC1-P3.3{slash}OA2+)*%
X70738000Y-56670000D03*
%TO.P,IC1,45,P3.2/OA2-*%
%TO.N,Net-(IC1-P3.2{slash}OA2-)*%
X70738000Y-56170000D03*
%TO.P,IC1,46,P3.1/OA2O*%
%TO.N,unconnected-(IC1-P3.1{slash}OA2O-Pad46)*%
X70738000Y-55670000D03*
%TO.P,IC1,47,P3.0/MCLK*%
%TO.N,unconnected-(IC1-P3.0{slash}MCLK-Pad47)*%
X70738000Y-55170000D03*
%TO.P,IC1,48,P1.3/UCB0SOMI/UCB0SCL/OA0+/A3*%
%TO.N,unconnected-(IC1-P1.3{slash}UCB0SOMI{slash}UCB0SCL{slash}OA0+{slash}A3-Pad48)*%
X70738000Y-54670000D03*
%TD*%
D10*
%TO.P,R8,1*%
%TO.N,VDD*%
X61300000Y-74987500D03*
%TO.P,R8,2*%
%TO.N,Net-(U1A-+)*%
X61300000Y-76812500D03*
%TD*%
D13*
%TO.P,J4,1,Pin_1*%
%TO.N,VDD*%
X52500000Y-89500000D03*
%TD*%
D30*
%TO.P,U1,1*%
%TO.N,Net-(IC1-P2.0{slash}TB1.1{slash}COMP0.O)*%
X55450000Y-78620000D03*
%TO.P,U1,2,-*%
%TO.N,AO_1*%
X55450000Y-77350000D03*
%TO.P,U1,3,+*%
%TO.N,Net-(U1A-+)*%
X55450000Y-76080000D03*
%TO.P,U1,4,V+*%
%TO.N,VDD*%
X55450000Y-74810000D03*
%TO.P,U1,5,+*%
%TO.N,AO_1*%
X55450000Y-73540000D03*
%TO.P,U1,6,-*%
%TO.N,Net-(U1B--)*%
X55450000Y-72270000D03*
%TO.P,U1,7*%
%TO.N,Net-(IC1-P2.1{slash}TB1.2{slash}COMP1.O)*%
X55450000Y-71000000D03*
%TO.P,U1,8*%
%TO.N,Net-(IC1-P2.2{slash}TB1CLK)*%
X50500000Y-71000000D03*
%TO.P,U1,9,-*%
%TO.N,AO_2*%
X50500000Y-72270000D03*
%TO.P,U1,10,+*%
%TO.N,Net-(U1C-+)*%
X50500000Y-73540000D03*
%TO.P,U1,11,V-*%
%TO.N,GND*%
X50500000Y-74810000D03*
%TO.P,U1,12,+*%
%TO.N,AO_2*%
X50500000Y-76080000D03*
%TO.P,U1,13,-*%
%TO.N,Net-(U1D--)*%
X50500000Y-77350000D03*
%TO.P,U1,14*%
%TO.N,Net-(IC1-P2.3{slash}TB1TRG)*%
X50500000Y-78620000D03*
%TD*%
D12*
%TO.P,R9,1*%
%TO.N,Net-(U1A-+)*%
X59825000Y-82500000D03*
%TO.P,R9,2*%
%TO.N,Net-(U1B--)*%
X58000000Y-82500000D03*
%TD*%
D13*
%TO.P,R2,1*%
%TO.N,VDD*%
X90000000Y-35775000D03*
D19*
%TO.P,R2,2*%
%TO.N,Net-(IC1-P3.2{slash}OA2-)*%
X90000000Y-33235000D03*
%TD*%
D10*
%TO.P,R4,1*%
%TO.N,VDD*%
X38000000Y-72587500D03*
%TO.P,R4,2*%
%TO.N,Net-(U1C-+)*%
X38000000Y-74412500D03*
%TD*%
D13*
%TO.P,J9,1,Pin_1*%
%TO.N,Net-(IC1-P1.0{slash}UCB0STE{slash}SMCLK{slash}COMP0.0{slash}A0{slash}VEREF+)*%
X76100000Y-45400000D03*
%TD*%
D31*
%TO.P,Y1,1,1*%
%TO.N,Net-(IC1-P2.7{slash}TB0CLK{slash}XIN)*%
X64000000Y-47500000D03*
%TO.P,Y1,2,2*%
%TO.N,Net-(IC1-P2.6{slash}MCLK{slash}XOUT)*%
X63000000Y-47500000D03*
%TD*%
D13*
%TO.P,J5,1,Pin_1*%
%TO.N,GND*%
X60500000Y-89500000D03*
%TD*%
D32*
%TO.P,RV1,1,1*%
%TO.N,unconnected-(RV1-Pad1)*%
X93740000Y-86500000D03*
D33*
%TO.P,RV1,2,2*%
%TO.N,Net-(IC1-P3.3{slash}OA2+)*%
X88740000Y-89000000D03*
%TO.P,RV1,3,3*%
%TO.N,GND*%
X93740000Y-91500000D03*
%TD*%
D32*
%TO.P,RV2,1,1*%
%TO.N,unconnected-(RV2-Pad1)*%
X93740000Y-23500000D03*
D33*
%TO.P,RV2,2,2*%
%TO.N,Net-(IC1-P3.2{slash}OA2-)*%
X88740000Y-26000000D03*
%TO.P,RV2,3,3*%
%TO.N,GND*%
X93740000Y-28500000D03*
%TD*%
D11*
%TO.P,C1,1*%
%TO.N,Net-(IC1-~{RST}{slash}NMI{slash}SBWTDIO)*%
X80100000Y-33850000D03*
%TO.P,C1,2*%
%TO.N,GND*%
X80100000Y-31950000D03*
%TD*%
D14*
%TO.P,R5,1*%
%TO.N,Net-(U1C-+)*%
X38087500Y-77675000D03*
%TO.P,R5,2*%
%TO.N,Net-(U1D--)*%
X39912500Y-77675000D03*
%TD*%
D34*
%TO.N,GND*%
X45600000Y-74900000D03*
X61500000Y-39000000D03*
%TO.N,Net-(IC1-P2.3{slash}TB1TRG)*%
X61200000Y-66300000D03*
X47500000Y-79600000D03*
%TO.N,Net-(IC1-P4.7{slash}UCB1SOMI{slash}UCB1SCL)*%
X25200000Y-53600000D03*
%TO.N,Net-(IC1-P2.0{slash}TB1.1{slash}COMP0.O)*%
X58380000Y-78620000D03*
X66250000Y-66750000D03*
%TO.N,AO_2*%
X46200000Y-71200000D03*
%TO.N,VDD*%
X40533884Y-41566116D03*
%TO.N,rst_lcd*%
X73600000Y-58300000D03*
%TD*%
D35*
%TO.N,GND*%
X56175000Y-85175000D02*
X60500000Y-89500000D01*
X43087500Y-75000000D02*
X42500000Y-75587500D01*
X61500000Y-41550000D02*
X61500000Y-39000000D01*
X80000000Y-31900000D02*
X83410000Y-31900000D01*
D36*
X66250000Y-46700000D02*
X66050000Y-46500000D01*
D35*
X64750000Y-41550000D02*
X66050000Y-42850000D01*
X45690000Y-74810000D02*
X45600000Y-74900000D01*
X83410000Y-31900000D02*
X83500000Y-31990000D01*
X61500000Y-41550000D02*
X64000000Y-41550000D01*
X45500000Y-75000000D02*
X43087500Y-75000000D01*
X50500000Y-74810000D02*
X45690000Y-74810000D01*
X64000000Y-41550000D02*
X64750000Y-41550000D01*
X66050000Y-42850000D02*
X66050000Y-46500000D01*
X56175000Y-84500000D02*
X56175000Y-85175000D01*
D36*
X66250000Y-53182000D02*
X66250000Y-46700000D01*
D35*
X45600000Y-74900000D02*
X45500000Y-75000000D01*
D36*
%TO.N,Net-(IC1-TEST{slash}SBWTCK)*%
X85350000Y-29450000D02*
X83500000Y-29450000D01*
X86400000Y-30500000D02*
X85350000Y-29450000D01*
X86400000Y-32400000D02*
X86400000Y-30500000D01*
X67750000Y-51050000D02*
X86400000Y-32400000D01*
X67750000Y-53182000D02*
X67750000Y-51050000D01*
%TO.N,Net-(IC1-P2.6{slash}MCLK{slash}XOUT)*%
X63000000Y-49500000D02*
X63000000Y-47500000D01*
X65250000Y-53182000D02*
X65250000Y-51750000D01*
D37*
X61500000Y-46000000D02*
X63000000Y-47500000D01*
D36*
X65250000Y-51750000D02*
X63000000Y-49500000D01*
D37*
X61500000Y-43450000D02*
X61500000Y-46000000D01*
D36*
%TO.N,Net-(IC1-P2.7{slash}TB0CLK{slash}XIN)*%
X64000000Y-49400000D02*
X64000000Y-47500000D01*
X65750000Y-51150000D02*
X64000000Y-49400000D01*
D37*
X64000000Y-43450000D02*
X64000000Y-47500000D01*
D36*
X65750000Y-53182000D02*
X65750000Y-51150000D01*
%TO.N,Net-(IC1-P2.3{slash}TB1TRG)*%
X61700000Y-65800000D02*
X61200000Y-66300000D01*
X64750000Y-62750000D02*
X61700000Y-65800000D01*
X64750000Y-61658000D02*
X64750000Y-62750000D01*
D37*
X50500000Y-78620000D02*
X48480000Y-78620000D01*
X48480000Y-78620000D02*
X47500000Y-79600000D01*
D36*
%TO.N,Net-(IC1-P2.1{slash}TB1.2{slash}COMP1.O)*%
X59602454Y-71000000D02*
X55450000Y-71000000D01*
X65750000Y-64852454D02*
X59602454Y-71000000D01*
X65750000Y-61658000D02*
X65750000Y-64852454D01*
%TO.N,Net-(IC1-P1.7{slash}UCA0TXD{slash}UCA0SIMO{slash}TB0.2{slash}TDO{slash}OA1+{slash}A7{slash}VREF+)*%
X66750000Y-61658000D02*
X66750000Y-63387810D01*
X66750000Y-63387810D02*
X70902190Y-67540000D01*
X70902190Y-67540000D02*
X72040000Y-67540000D01*
D37*
X76960000Y-67540000D02*
X72040000Y-67540000D01*
%TO.N,Net-(IC1-P4.6{slash}UCB1SIMO{slash}UCB1SDA)*%
X31805000Y-34200000D02*
X31805000Y-34605000D01*
X31805000Y-28875000D02*
X31805000Y-34200000D01*
D36*
X60870000Y-54670000D02*
X59012500Y-52812500D01*
D37*
X52000000Y-48500000D02*
X55872500Y-48500000D01*
D36*
X59012500Y-52812500D02*
X59012500Y-51900000D01*
D37*
X31805000Y-38295000D02*
X29000000Y-41100000D01*
D36*
X62262000Y-54670000D02*
X60870000Y-54670000D01*
D37*
X31500000Y-62500000D02*
X29000000Y-60000000D01*
X55872500Y-48500000D02*
X58960000Y-51587500D01*
X45700000Y-48500000D02*
X52000000Y-48500000D01*
X31805000Y-34605000D02*
X45700000Y-48500000D01*
X29000000Y-41100000D02*
X29000000Y-60000000D01*
X31805000Y-34200000D02*
X31805000Y-38295000D01*
D36*
%TO.N,Net-(IC1-P6.0{slash}TB3.1)*%
X34040000Y-54880000D02*
X38330000Y-59170000D01*
X38330000Y-59170000D02*
X62262000Y-59170000D01*
%TO.N,Net-(IC1-P2.2{slash}TB1CLK)*%
X65250000Y-64450000D02*
X60500000Y-69200000D01*
X65250000Y-61658000D02*
X65250000Y-64450000D01*
X52300000Y-69200000D02*
X50500000Y-71000000D01*
X60500000Y-69200000D02*
X52300000Y-69200000D01*
D37*
%TO.N,Net-(IC1-P3.3{slash}OA2+)*%
X94801000Y-75301000D02*
X93500000Y-74000000D01*
X93500000Y-84240000D02*
X93500000Y-82500000D01*
D36*
X93500000Y-64400000D02*
X93500000Y-74000000D01*
X70738000Y-56670000D02*
X85770000Y-56670000D01*
D37*
X93500000Y-82500000D02*
X94801000Y-81199000D01*
X94801000Y-81199000D02*
X94801000Y-75301000D01*
X88740000Y-89000000D02*
X93500000Y-84240000D01*
D36*
X85770000Y-56670000D02*
X93500000Y-64400000D01*
%TO.N,Net-(IC1-P1.5{slash}UCA0CLK{slash}TMS{slash}OA1O{slash}A5)*%
X77700000Y-58400000D02*
X85500000Y-58400000D01*
X87200000Y-60100000D02*
X87200000Y-67761358D01*
X87200000Y-67761358D02*
X82766358Y-72195000D01*
X68000000Y-63100000D02*
X73000000Y-63100000D01*
X67750000Y-62850000D02*
X68000000Y-63100000D01*
X67750000Y-61658000D02*
X67750000Y-62850000D01*
X85500000Y-58400000D02*
X87200000Y-60100000D01*
X73000000Y-63100000D02*
X77700000Y-58400000D01*
X82766358Y-72195000D02*
X81387500Y-72195000D01*
D37*
%TO.N,Net-(IC1-P4.7{slash}UCB1SOMI{slash}UCB1SCL)*%
X26900000Y-23300000D02*
X26700000Y-23500000D01*
X31805000Y-24505000D02*
X30600000Y-23300000D01*
X25200000Y-25000000D02*
X25200000Y-51700000D01*
X26700000Y-23500000D02*
X25200000Y-25000000D01*
D36*
X63750000Y-51850000D02*
X57500000Y-45600000D01*
X63750000Y-53182000D02*
X63750000Y-51850000D01*
D37*
X31805000Y-26335000D02*
X31805000Y-24505000D01*
X52000000Y-43500000D02*
X57500000Y-43500000D01*
X25200000Y-51700000D02*
X25200000Y-53600000D01*
D36*
X57500000Y-45600000D02*
X57500000Y-43500000D01*
D37*
X30600000Y-23300000D02*
X26900000Y-23300000D01*
D36*
%TO.N,Net-(IC1-P1.0{slash}UCB0STE{slash}SMCLK{slash}COMP0.0{slash}A0{slash}VEREF+)*%
X74962190Y-45400000D02*
X76100000Y-45400000D01*
X68250000Y-52112190D02*
X74962190Y-45400000D01*
X68250000Y-53182000D02*
X68250000Y-52112190D01*
%TO.N,Net-(IC1-P6.1{slash}TB3.2)*%
X34040000Y-52340000D02*
X40370000Y-58670000D01*
X40370000Y-58670000D02*
X62262000Y-58670000D01*
D37*
%TO.N,Net-(IC1-P3.2{slash}OA2-)*%
X90000000Y-27260000D02*
X90000000Y-33235000D01*
D36*
X73830000Y-56170000D02*
X90000000Y-40000000D01*
D37*
X88740000Y-26000000D02*
X90000000Y-27260000D01*
X90000000Y-33235000D02*
X88699000Y-34536000D01*
X88699000Y-34536000D02*
X88699000Y-38699000D01*
X88699000Y-38699000D02*
X90000000Y-40000000D01*
D36*
X70738000Y-56170000D02*
X73830000Y-56170000D01*
%TO.N,Net-(IC1-P1.1{slash}UCB0CLK{slash}ACLK{slash}OA0O{slash}COMP0.1{slash}A1)*%
X74000000Y-51500000D02*
X76200000Y-49300000D01*
X68750000Y-53182000D02*
X68750000Y-52250000D01*
X69500000Y-51500000D02*
X74000000Y-51500000D01*
X68750000Y-52250000D02*
X69500000Y-51500000D01*
D37*
%TO.N,Net-(IC1-P2.0{slash}TB1.1{slash}COMP0.O)*%
X55450000Y-78620000D02*
X58380000Y-78620000D01*
D36*
X66250000Y-61658000D02*
X66250000Y-66750000D01*
%TO.N,Net-(IC1-P1.6{slash}UCA0RXD{slash}UCA0SOMI{slash}TB0.1{slash}TDI{slash}TCLK{slash}OA1-{slash}A6)*%
X81600000Y-59900000D02*
X82700000Y-61000000D01*
X67250000Y-63250000D02*
X67600000Y-63600000D01*
X67250000Y-61658000D02*
X67250000Y-63250000D01*
D37*
X84580000Y-65000000D02*
X84580000Y-61580000D01*
D36*
X82700000Y-61000000D02*
X84000000Y-61000000D01*
X74200000Y-63600000D02*
X77900000Y-59900000D01*
X77900000Y-59900000D02*
X81600000Y-59900000D01*
X67600000Y-63600000D02*
X74200000Y-63600000D01*
D37*
X84580000Y-61580000D02*
X84000000Y-61000000D01*
%TO.N,Net-(J3-Pin_6)*%
X82040000Y-65000000D02*
X82040000Y-63127500D01*
X82040000Y-63127500D02*
X80412500Y-61500000D01*
%TO.N,Net-(U1C-+)*%
X38000000Y-77587500D02*
X38087500Y-77675000D01*
X38872500Y-73540000D02*
X38000000Y-74412500D01*
X50500000Y-73540000D02*
X38872500Y-73540000D01*
X38000000Y-74412500D02*
X38000000Y-77587500D01*
%TO.N,Net-(U1D--)*%
X42237500Y-77675000D02*
X42500000Y-77412500D01*
X39912500Y-77675000D02*
X42237500Y-77675000D01*
X42500000Y-77412500D02*
X50437500Y-77412500D01*
X50437500Y-77412500D02*
X50500000Y-77350000D01*
%TO.N,Net-(U1A-+)*%
X61300000Y-76812500D02*
X60567500Y-76080000D01*
X61300000Y-76812500D02*
X61300000Y-81400000D01*
X61300000Y-81400000D02*
X60200000Y-82500000D01*
X60200000Y-82500000D02*
X59825000Y-82500000D01*
X60567500Y-76080000D02*
X55450000Y-76080000D01*
%TO.N,Net-(U1B--)*%
X53313000Y-78325500D02*
X57487500Y-82500000D01*
X54465001Y-72270000D02*
X53313000Y-73422001D01*
X53313000Y-73422001D02*
X53313000Y-78325500D01*
X57487500Y-82500000D02*
X58000000Y-82500000D01*
X58000000Y-84500000D02*
X58000000Y-82500000D01*
X55450000Y-72270000D02*
X54465001Y-72270000D01*
%TO.N,AO_2*%
X50500000Y-72270000D02*
X51484999Y-72270000D01*
X51936000Y-75628999D02*
X51484999Y-76080000D01*
X51936000Y-72721001D02*
X51936000Y-75628999D01*
X50500000Y-72270000D02*
X47270000Y-72270000D01*
X51484999Y-76080000D02*
X50500000Y-76080000D01*
X47270000Y-72270000D02*
X46200000Y-71200000D01*
X51484999Y-72270000D02*
X51936000Y-72721001D01*
D35*
%TO.N,VDD*%
X48175000Y-41675000D02*
X57500000Y-41675000D01*
D36*
X66750000Y-47700000D02*
X67950000Y-46500000D01*
D35*
X78587500Y-61500000D02*
X78587500Y-63372500D01*
D36*
X66750000Y-53182000D02*
X66750000Y-47700000D01*
D35*
X78587500Y-63372500D02*
X76960000Y-65000000D01*
X40533884Y-41566116D02*
X40667768Y-41700000D01*
X40667768Y-41700000D02*
X48150000Y-41700000D01*
X48150000Y-41700000D02*
X48175000Y-41675000D01*
D37*
%TO.N,AO_1*%
X64807037Y-73540000D02*
X55450000Y-73540000D01*
X78137500Y-91175000D02*
X78137500Y-86870463D01*
X55450000Y-77350000D02*
X54880900Y-77350000D01*
X54880900Y-73540000D02*
X55450000Y-73540000D01*
X54880900Y-77350000D02*
X54014000Y-76483100D01*
X54014000Y-76483100D02*
X54014000Y-74406900D01*
X78137500Y-86870463D02*
X64807037Y-73540000D01*
X54014000Y-74406900D02*
X54880900Y-73540000D01*
%TO.N,Net-(IC1-~{RST}{slash}NMI{slash}SBWTDIO)*%
X78850000Y-33850000D02*
X80100000Y-33850000D01*
X83500000Y-26910000D02*
X82490000Y-26910000D01*
D36*
X80100000Y-37700000D02*
X80100000Y-33850000D01*
D37*
X75000000Y-24000000D02*
X68500000Y-24000000D01*
X68500000Y-24000000D02*
X64587500Y-24000000D01*
X82490000Y-26910000D02*
X78500000Y-30900000D01*
D36*
X67250000Y-53182000D02*
X67250000Y-50550000D01*
D37*
X64587500Y-24000000D02*
X64250000Y-24337500D01*
X82100000Y-24000000D02*
X83500000Y-25400000D01*
X75000000Y-24000000D02*
X82100000Y-24000000D01*
D36*
X67250000Y-50550000D02*
X80100000Y-37700000D01*
D37*
X78800000Y-33900000D02*
X78850000Y-33850000D01*
X78500000Y-30900000D02*
X78500000Y-33600000D01*
X78500000Y-33600000D02*
X78800000Y-33900000D01*
X83500000Y-25400000D02*
X83500000Y-26910000D01*
D36*
%TO.N,rst_lcd*%
X72470000Y-57170000D02*
X73600000Y-58300000D01*
X70738000Y-57170000D02*
X72470000Y-57170000D01*
%TD*%
%TA.AperFunction,Conductor*%
%TO.N,VDD*%
G36*
X77548128Y-61238974D02*
G01*
X77565284Y-61250000D01*
X78463500Y-61250000D01*
X78530539Y-61269685D01*
X78576294Y-61322489D01*
X78587500Y-61374000D01*
X78587500Y-61500000D01*
X78713500Y-61500000D01*
X78780539Y-61519685D01*
X78826294Y-61572489D01*
X78837500Y-61624000D01*
X78837500Y-62699999D01*
X78899972Y-62699999D01*
X78899986Y-62699998D01*
X79002697Y-62689505D01*
X79169119Y-62634358D01*
X79169124Y-62634356D01*
X79318342Y-62542317D01*
X79411964Y-62448695D01*
X79473287Y-62415210D01*
X79542979Y-62420194D01*
X79587327Y-62448695D01*
X79681344Y-62542712D01*
X79830666Y-62634814D01*
X79997203Y-62689999D01*
X80099991Y-62700500D01*
X80500269Y-62700499D01*
X80567308Y-62720183D01*
X80587950Y-62736818D01*
X81253181Y-63402048D01*
X81286666Y-63463371D01*
X81289500Y-63489729D01*
X81289500Y-63812779D01*
X81269815Y-63879818D01*
X81238385Y-63913097D01*
X81160211Y-63969893D01*
X81160205Y-63969898D01*
X81009890Y-64120213D01*
X80884949Y-64292182D01*
X80880484Y-64300946D01*
X80832509Y-64351742D01*
X80764688Y-64368536D01*
X80698553Y-64345998D01*
X80659516Y-64300946D01*
X80655050Y-64292182D01*
X80530109Y-64120213D01*
X80379786Y-63969890D01*
X80207820Y-63844951D01*
X80018414Y-63748444D01*
X80018413Y-63748443D01*
X80018412Y-63748443D01*
X79816243Y-63682754D01*
X79816241Y-63682753D01*
X79816240Y-63682753D01*
X79654957Y-63657208D01*
X79606287Y-63649500D01*
X79393713Y-63649500D01*
X79345042Y-63657208D01*
X79183760Y-63682753D01*
X78981585Y-63748444D01*
X78792179Y-63844951D01*
X78620213Y-63969890D01*
X78469890Y-64120213D01*
X78344949Y-64292182D01*
X78340202Y-64301499D01*
X78292227Y-64352293D01*
X78224405Y-64369087D01*
X78158271Y-64346548D01*
X78119234Y-64301495D01*
X78114622Y-64292444D01*
X77989727Y-64120540D01*
X77989723Y-64120535D01*
X77839464Y-63970276D01*
X77839459Y-63970272D01*
X77667557Y-63845379D01*
X77478215Y-63748903D01*
X77276124Y-63683241D01*
X77210000Y-63672768D01*
X77210000Y-64566988D01*
X77152993Y-64534075D01*
X77025826Y-64500000D01*
X76894174Y-64500000D01*
X76767007Y-64534075D01*
X76710000Y-64566988D01*
X76710000Y-63672768D01*
X76709999Y-63672768D01*
X76643875Y-63683241D01*
X76441784Y-63748903D01*
X76252442Y-63845379D01*
X76080540Y-63970272D01*
X76080535Y-63970276D01*
X75930276Y-64120535D01*
X75930272Y-64120540D01*
X75805379Y-64292442D01*
X75708904Y-64481782D01*
X75643242Y-64683870D01*
X75643242Y-64683873D01*
X75632769Y-64750000D01*
X76526988Y-64750000D01*
X76494075Y-64807007D01*
X76460000Y-64934174D01*
X76460000Y-65065826D01*
X76494075Y-65192993D01*
X76526988Y-65250000D01*
X75632769Y-65250000D01*
X75643242Y-65316126D01*
X75643242Y-65316129D01*
X75708904Y-65518217D01*
X75805379Y-65707557D01*
X75930272Y-65879459D01*
X75930276Y-65879464D01*
X76043946Y-65993134D01*
X76077431Y-66054457D01*
X76072447Y-66124149D01*
X76030575Y-66180082D01*
X75999598Y-66196997D01*
X75867671Y-66246202D01*
X75867664Y-66246206D01*
X75752455Y-66332452D01*
X75752452Y-66332455D01*
X75666206Y-66447664D01*
X75666202Y-66447671D01*
X75615908Y-66582517D01*
X75611510Y-66623431D01*
X75609501Y-66642123D01*
X75609500Y-66642135D01*
X75609500Y-66665500D01*
X75589815Y-66732539D01*
X75537011Y-66778294D01*
X75485500Y-66789500D01*
X73514499Y-66789500D01*
X73447460Y-66769815D01*
X73401705Y-66717011D01*
X73390499Y-66665500D01*
X73390499Y-66642129D01*
X73390498Y-66642123D01*
X73390497Y-66642116D01*
X73384091Y-66582517D01*
X73333796Y-66447669D01*
X73333795Y-66447668D01*
X73333793Y-66447664D01*
X73247547Y-66332455D01*
X73247544Y-66332452D01*
X73132335Y-66246206D01*
X73132328Y-66246202D01*
X72997482Y-66195908D01*
X72997483Y-66195908D01*
X72937883Y-66189501D01*
X72937881Y-66189500D01*
X72937873Y-66189500D01*
X72937864Y-66189500D01*
X71142129Y-66189500D01*
X71142123Y-66189501D01*
X71082516Y-66195908D01*
X70947671Y-66246202D01*
X70947664Y-66246206D01*
X70832455Y-66332452D01*
X70832453Y-66332454D01*
X70809804Y-66362709D01*
X70753869Y-66404579D01*
X70684177Y-66409561D01*
X70622858Y-66376077D01*
X69877693Y-65630912D01*
X68683960Y-64437180D01*
X68650476Y-64375858D01*
X68655460Y-64306166D01*
X68697332Y-64250233D01*
X68762796Y-64225816D01*
X68771642Y-64225500D01*
X74261607Y-64225500D01*
X74322029Y-64213481D01*
X74382452Y-64201463D01*
X74415792Y-64187652D01*
X74496286Y-64154312D01*
X74557561Y-64113368D01*
X74598733Y-64085858D01*
X74685858Y-63998733D01*
X74685859Y-63998731D01*
X74692925Y-63991665D01*
X74692927Y-63991661D01*
X76684602Y-61999986D01*
X77575001Y-61999986D01*
X77585494Y-62102697D01*
X77640641Y-62269119D01*
X77640643Y-62269124D01*
X77732684Y-62418345D01*
X77856654Y-62542315D01*
X78005875Y-62634356D01*
X78005880Y-62634358D01*
X78172302Y-62689505D01*
X78172309Y-62689506D01*
X78275019Y-62699999D01*
X78337499Y-62699998D01*
X78337500Y-62699998D01*
X78337500Y-61750000D01*
X77575001Y-61750000D01*
X77575001Y-61999986D01*
X76684602Y-61999986D01*
X77417116Y-61267472D01*
X77478436Y-61233990D01*
X77548128Y-61238974D01*
G37*
%TD.AperFunction*%
%TA.AperFunction,Conductor*%
G36*
X32760703Y-36622516D02*
G01*
X32767181Y-36628548D01*
X45117048Y-48978415D01*
X45117049Y-48978416D01*
X45204876Y-49066243D01*
X45221585Y-49082952D01*
X45344498Y-49165080D01*
X45344511Y-49165087D01*
X45481082Y-49221656D01*
X45481087Y-49221658D01*
X45481091Y-49221658D01*
X45481092Y-49221659D01*
X45626079Y-49250500D01*
X45626082Y-49250500D01*
X50525501Y-49250500D01*
X50592540Y-49270185D01*
X50638295Y-49322989D01*
X50649501Y-49374500D01*
X50649501Y-49397876D01*
X50655908Y-49457483D01*
X50706202Y-49592328D01*
X50706206Y-49592335D01*
X50792452Y-49707544D01*
X50792455Y-49707547D01*
X50907664Y-49793793D01*
X50907671Y-49793797D01*
X51042517Y-49844091D01*
X51042516Y-49844091D01*
X51049444Y-49844835D01*
X51102127Y-49850500D01*
X52897872Y-49850499D01*
X52957483Y-49844091D01*
X53092331Y-49793796D01*
X53207546Y-49707546D01*
X53293796Y-49592331D01*
X53344091Y-49457483D01*
X53350500Y-49397873D01*
X53350500Y-49374500D01*
X53370185Y-49307461D01*
X53422989Y-49261706D01*
X53474500Y-49250500D01*
X55510270Y-49250500D01*
X55577309Y-49270185D01*
X55597951Y-49286819D01*
X56703467Y-50392335D01*
X56817419Y-50506286D01*
X56850904Y-50567609D01*
X56845920Y-50637301D01*
X56804048Y-50693234D01*
X56768743Y-50711673D01*
X56605878Y-50765642D01*
X56605875Y-50765643D01*
X56456654Y-50857684D01*
X56332684Y-50981654D01*
X56240643Y-51130875D01*
X56240641Y-51130880D01*
X56185494Y-51297302D01*
X56185493Y-51297309D01*
X56175000Y-51400013D01*
X56175000Y-51650000D01*
X57063500Y-51650000D01*
X57130539Y-51669685D01*
X57176294Y-51722489D01*
X57187500Y-51774000D01*
X57187500Y-51900000D01*
X57313500Y-51900000D01*
X57380539Y-51919685D01*
X57426294Y-51972489D01*
X57437500Y-52024000D01*
X57437500Y-53099999D01*
X57499972Y-53099999D01*
X57499986Y-53099998D01*
X57602697Y-53089505D01*
X57769119Y-53034358D01*
X57769124Y-53034356D01*
X57918342Y-52942317D01*
X58011964Y-52848695D01*
X58073287Y-52815210D01*
X58142979Y-52820194D01*
X58187327Y-52848695D01*
X58281344Y-52942712D01*
X58392357Y-53011185D01*
X58403082Y-53022431D01*
X58414458Y-53028562D01*
X58427656Y-53048199D01*
X58435764Y-53056700D01*
X58439144Y-53062811D01*
X58458188Y-53108786D01*
X58492415Y-53160009D01*
X58495308Y-53164338D01*
X58526640Y-53211231D01*
X58526641Y-53211232D01*
X58526642Y-53211233D01*
X58613767Y-53298358D01*
X58613768Y-53298358D01*
X58620835Y-53305425D01*
X58620834Y-53305425D01*
X58620838Y-53305428D01*
X60471263Y-55155855D01*
X60471267Y-55155858D01*
X60573710Y-55224309D01*
X60573711Y-55224309D01*
X60573715Y-55224312D01*
X60640397Y-55251932D01*
X60687548Y-55271463D01*
X60707597Y-55275451D01*
X60772624Y-55288385D01*
X60808392Y-55295501D01*
X60904836Y-55295501D01*
X60907077Y-55296159D01*
X60909342Y-55295583D01*
X60940432Y-55305953D01*
X60971875Y-55315186D01*
X60973404Y-55316951D01*
X60975622Y-55317691D01*
X60996176Y-55343231D01*
X61017630Y-55367990D01*
X61018418Y-55370869D01*
X61019428Y-55372123D01*
X61028134Y-55406326D01*
X61028187Y-55406822D01*
X61028179Y-55433250D01*
X61024000Y-55472122D01*
X61024000Y-55867869D01*
X61024001Y-55867878D01*
X61028179Y-55906745D01*
X61028179Y-55933250D01*
X61024000Y-55972122D01*
X61024000Y-56367869D01*
X61024001Y-56367878D01*
X61028179Y-56406745D01*
X61028179Y-56433250D01*
X61024000Y-56472122D01*
X61024000Y-56867869D01*
X61024001Y-56867878D01*
X61028179Y-56906745D01*
X61028179Y-56933250D01*
X61024000Y-56972122D01*
X61024000Y-57367869D01*
X61024001Y-57367878D01*
X61028179Y-57406745D01*
X61028179Y-57433250D01*
X61024000Y-57472122D01*
X61024000Y-57867869D01*
X61024001Y-57867878D01*
X61028179Y-57906745D01*
X61028181Y-57933233D01*
X61028127Y-57933736D01*
X61001398Y-57998291D01*
X60944012Y-58038148D01*
X60904835Y-58044500D01*
X40680452Y-58044500D01*
X40613413Y-58024815D01*
X40592771Y-58008181D01*
X35422108Y-52837518D01*
X35388623Y-52776195D01*
X35391857Y-52711521D01*
X35406015Y-52667951D01*
X35440500Y-52450222D01*
X35440500Y-52399986D01*
X56175001Y-52399986D01*
X56185494Y-52502697D01*
X56240641Y-52669119D01*
X56240643Y-52669124D01*
X56332684Y-52818345D01*
X56456654Y-52942315D01*
X56605875Y-53034356D01*
X56605880Y-53034358D01*
X56772302Y-53089505D01*
X56772309Y-53089506D01*
X56875019Y-53099999D01*
X56937499Y-53099998D01*
X56937500Y-53099998D01*
X56937500Y-52150000D01*
X56175001Y-52150000D01*
X56175001Y-52399986D01*
X35440500Y-52399986D01*
X35440500Y-52229778D01*
X35429520Y-52160452D01*
X35422802Y-52118036D01*
X35417879Y-52086954D01*
X35406015Y-52012049D01*
X35337895Y-51802394D01*
X35337895Y-51802393D01*
X35297181Y-51722489D01*
X35237815Y-51605978D01*
X35209681Y-51567254D01*
X35108247Y-51427641D01*
X35108243Y-51427636D01*
X34952363Y-51271756D01*
X34952358Y-51271752D01*
X34812319Y-51170008D01*
X34769653Y-51114678D01*
X34763674Y-51045065D01*
X34796279Y-50983270D01*
X34812319Y-50969372D01*
X34837513Y-50951066D01*
X34837514Y-50951066D01*
X34169409Y-50282962D01*
X34232993Y-50265925D01*
X34347007Y-50200099D01*
X34440099Y-50107007D01*
X34505925Y-49992993D01*
X34522962Y-49929410D01*
X35191066Y-50597514D01*
X35191066Y-50597513D01*
X35237386Y-50533760D01*
X35337432Y-50337410D01*
X35405526Y-50127835D01*
X35440000Y-49910181D01*
X35440000Y-49689818D01*
X35405526Y-49472164D01*
X35337432Y-49262589D01*
X35237388Y-49066243D01*
X35191066Y-49002485D01*
X35191065Y-49002485D01*
X34522962Y-49670589D01*
X34505925Y-49607007D01*
X34440099Y-49492993D01*
X34347007Y-49399901D01*
X34232993Y-49334075D01*
X34169407Y-49317037D01*
X34837513Y-48648932D01*
X34773756Y-48602611D01*
X34577410Y-48502567D01*
X34367835Y-48434473D01*
X34150181Y-48400000D01*
X33929819Y-48400000D01*
X33712164Y-48434473D01*
X33502589Y-48502567D01*
X33306233Y-48602616D01*
X33242485Y-48648931D01*
X33242485Y-48648932D01*
X33910590Y-49317037D01*
X33847007Y-49334075D01*
X33732993Y-49399901D01*
X33639901Y-49492993D01*
X33574075Y-49607007D01*
X33557037Y-49670591D01*
X32864673Y-48978227D01*
X32833101Y-48924527D01*
X32782424Y-48746680D01*
X32742315Y-48681654D01*
X32618345Y-48557684D01*
X32469124Y-48465643D01*
X32469119Y-48465641D01*
X32302697Y-48410494D01*
X32302690Y-48410493D01*
X32199986Y-48400000D01*
X31750000Y-48400000D01*
X31750000Y-49366988D01*
X31692993Y-49334075D01*
X31565826Y-49300000D01*
X31434174Y-49300000D01*
X31307007Y-49334075D01*
X31250000Y-49366988D01*
X31250000Y-48400000D01*
X30800028Y-48400000D01*
X30800012Y-48400001D01*
X30697302Y-48410494D01*
X30530880Y-48465641D01*
X30530875Y-48465643D01*
X30381654Y-48557684D01*
X30257684Y-48681654D01*
X30165643Y-48830875D01*
X30165641Y-48830880D01*
X30110494Y-48997302D01*
X30110493Y-48997309D01*
X30100000Y-49100013D01*
X30100000Y-49550000D01*
X31066988Y-49550000D01*
X31034075Y-49607007D01*
X31000000Y-49734174D01*
X31000000Y-49865826D01*
X31034075Y-49992993D01*
X31066988Y-50050000D01*
X30100001Y-50050000D01*
X30100001Y-50499986D01*
X30110494Y-50602697D01*
X30165641Y-50769119D01*
X30165643Y-50769124D01*
X30257684Y-50918345D01*
X30381654Y-51042315D01*
X30517489Y-51126099D01*
X30564213Y-51178047D01*
X30575436Y-51247010D01*
X30547592Y-51311092D01*
X30540074Y-51319319D01*
X30431751Y-51427642D01*
X30302187Y-51605974D01*
X30202104Y-51802393D01*
X30202103Y-51802396D01*
X30133985Y-52012047D01*
X30099500Y-52229778D01*
X30099500Y-52450221D01*
X30133985Y-52667952D01*
X30202103Y-52877603D01*
X30202104Y-52877606D01*
X30270122Y-53011096D01*
X30297129Y-53064100D01*
X30302187Y-53074025D01*
X30431752Y-53252358D01*
X30431756Y-53252363D01*
X30587636Y-53408243D01*
X30587641Y-53408247D01*
X30727254Y-53509682D01*
X30769920Y-53565012D01*
X30775899Y-53634625D01*
X30743293Y-53696420D01*
X30727254Y-53710318D01*
X30587641Y-53811752D01*
X30587636Y-53811756D01*
X30431756Y-53967636D01*
X30431752Y-53967641D01*
X30302187Y-54145974D01*
X30202104Y-54342393D01*
X30202103Y-54342396D01*
X30133985Y-54552047D01*
X30099500Y-54769778D01*
X30099500Y-54990221D01*
X30133985Y-55207952D01*
X30202103Y-55417603D01*
X30202104Y-55417606D01*
X30266725Y-55544429D01*
X30297129Y-55604100D01*
X30302187Y-55614025D01*
X30431752Y-55792358D01*
X30431756Y-55792363D01*
X30587636Y-55948243D01*
X30587641Y-55948247D01*
X30727254Y-56049682D01*
X30769920Y-56105012D01*
X30775899Y-56174625D01*
X30743293Y-56236420D01*
X30727254Y-56250318D01*
X30587641Y-56351752D01*
X30587636Y-56351756D01*
X30431756Y-56507636D01*
X30431752Y-56507641D01*
X30302187Y-56685974D01*
X30202104Y-56882393D01*
X30202103Y-56882396D01*
X30133985Y-57092047D01*
X30133985Y-57092049D01*
X30099500Y-57309778D01*
X30099500Y-57530222D01*
X30114206Y-57623074D01*
X30133985Y-57747952D01*
X30202103Y-57957603D01*
X30202104Y-57957606D01*
X30246380Y-58044500D01*
X30297568Y-58144961D01*
X30302187Y-58154025D01*
X30431752Y-58332358D01*
X30431756Y-58332363D01*
X30587636Y-58488243D01*
X30587641Y-58488247D01*
X30727254Y-58589682D01*
X30769920Y-58645012D01*
X30775899Y-58714625D01*
X30743293Y-58776420D01*
X30727254Y-58790318D01*
X30587641Y-58891752D01*
X30587636Y-58891756D01*
X30431756Y-59047636D01*
X30431752Y-59047641D01*
X30302187Y-59225974D01*
X30202104Y-59422393D01*
X30202103Y-59422396D01*
X30133985Y-59632047D01*
X30111817Y-59772012D01*
X30106424Y-59783388D01*
X30105526Y-59795948D01*
X30091741Y-59814362D01*
X30081888Y-59835147D01*
X30071198Y-59841802D01*
X30063654Y-59851881D01*
X30042103Y-59859918D01*
X30022576Y-59872078D01*
X30009986Y-59871898D01*
X29998190Y-59876298D01*
X29975713Y-59871408D01*
X29952714Y-59871080D01*
X29940587Y-59863767D01*
X29929917Y-59861446D01*
X29901663Y-59840295D01*
X29786819Y-59725451D01*
X29753334Y-59664128D01*
X29750500Y-59637770D01*
X29750500Y-41462230D01*
X29770185Y-41395191D01*
X29786819Y-41374549D01*
X32387948Y-38773420D01*
X32387952Y-38773416D01*
X32466466Y-38655909D01*
X32466467Y-38655910D01*
X32466474Y-38655896D01*
X32470084Y-38650495D01*
X32526658Y-38513913D01*
X32555500Y-38368918D01*
X32555500Y-36716229D01*
X32575185Y-36649190D01*
X32627989Y-36603435D01*
X32697147Y-36593491D01*
X32760703Y-36622516D01*
G37*
%TD.AperFunction*%
%TA.AperFunction,Conductor*%
G36*
X33574075Y-49992993D02*
G01*
X33639901Y-50107007D01*
X33732993Y-50200099D01*
X33847007Y-50265925D01*
X33910590Y-50282962D01*
X33242485Y-50951065D01*
X33242485Y-50951066D01*
X33267680Y-50969371D01*
X33310346Y-51024701D01*
X33316325Y-51094314D01*
X33283720Y-51156110D01*
X33267681Y-51170008D01*
X33127636Y-51271756D01*
X32971756Y-51427636D01*
X32971752Y-51427641D01*
X32870318Y-51567254D01*
X32814988Y-51609920D01*
X32745375Y-51615899D01*
X32683580Y-51583293D01*
X32669682Y-51567254D01*
X32568247Y-51427641D01*
X32568243Y-51427636D01*
X32459926Y-51319319D01*
X32426441Y-51257996D01*
X32431425Y-51188304D01*
X32473297Y-51132371D01*
X32482511Y-51126099D01*
X32618343Y-51042317D01*
X32742315Y-50918345D01*
X32834359Y-50769120D01*
X32837099Y-50760847D01*
X32831697Y-50738053D01*
X32835389Y-50668281D01*
X32864673Y-50621773D01*
X33557037Y-49929408D01*
X33574075Y-49992993D01*
G37*
%TD.AperFunction*%
%TA.AperFunction,Conductor*%
G36*
X20650694Y-20440185D02*
G01*
X20696449Y-20492989D01*
X20706393Y-20562147D01*
X20677368Y-20625703D01*
X20659142Y-20642876D01*
X20552952Y-20724358D01*
X20344358Y-20932952D01*
X20344352Y-20932959D01*
X20164761Y-21167006D01*
X20017258Y-21422489D01*
X20017254Y-21422499D01*
X19904364Y-21695038D01*
X19904361Y-21695048D01*
X19828008Y-21980004D01*
X19828006Y-21980015D01*
X19789500Y-22272486D01*
X19789500Y-22567513D01*
X19809188Y-22717050D01*
X19828007Y-22859993D01*
X19871547Y-23022487D01*
X19904361Y-23144951D01*
X19904364Y-23144961D01*
X20017254Y-23417500D01*
X20017258Y-23417510D01*
X20164761Y-23672993D01*
X20344352Y-23907040D01*
X20344358Y-23907047D01*
X20552952Y-24115641D01*
X20552956Y-24115644D01*
X20552958Y-24115646D01*
X20735992Y-24256093D01*
X20777194Y-24312521D01*
X20781349Y-24382267D01*
X20747137Y-24443187D01*
X20701460Y-24471510D01*
X20516588Y-24536200D01*
X20263557Y-24658053D01*
X20025753Y-24807476D01*
X19806175Y-24982583D01*
X19607583Y-25181175D01*
X19432476Y-25400753D01*
X19283053Y-25638557D01*
X19161200Y-25891588D01*
X19068443Y-26156670D01*
X19068439Y-26156682D01*
X19005945Y-26430487D01*
X19005942Y-26430505D01*
X18974500Y-26709568D01*
X18974500Y-26990431D01*
X19005942Y-27269494D01*
X19005945Y-27269512D01*
X19068439Y-27543317D01*
X19068443Y-27543329D01*
X19161200Y-27808411D01*
X19283053Y-28061442D01*
X19283055Y-28061445D01*
X19432477Y-28299248D01*
X19607584Y-28518825D01*
X19806175Y-28717416D01*
X20025752Y-28892523D01*
X20263555Y-29041945D01*
X20516592Y-29163801D01*
X20715680Y-29233465D01*
X20781670Y-29256556D01*
X20781682Y-29256560D01*
X21055491Y-29319055D01*
X21055497Y-29319055D01*
X21055505Y-29319057D01*
X21241547Y-29340018D01*
X21334569Y-29350499D01*
X21334572Y-29350500D01*
X21334575Y-29350500D01*
X21615428Y-29350500D01*
X21615429Y-29350499D01*
X21758055Y-29334429D01*
X21894494Y-29319057D01*
X21894499Y-29319056D01*
X21894509Y-29319055D01*
X22168318Y-29256560D01*
X22433408Y-29163801D01*
X22686445Y-29041945D01*
X22924248Y-28892523D01*
X23143825Y-28717416D01*
X23342416Y-28518825D01*
X23517523Y-28299248D01*
X23666945Y-28061445D01*
X23788801Y-27808408D01*
X23881560Y-27543318D01*
X23944055Y-27269509D01*
X23946370Y-27248969D01*
X23969792Y-27041082D01*
X23975500Y-26990425D01*
X23975500Y-26709575D01*
X23950934Y-26491542D01*
X23944057Y-26430505D01*
X23944054Y-26430487D01*
X23934523Y-26388731D01*
X23881560Y-26156682D01*
X23788801Y-25891592D01*
X23666945Y-25638555D01*
X23517523Y-25400752D01*
X23342416Y-25181175D01*
X23143825Y-24982584D01*
X23137462Y-24977510D01*
X23030500Y-24892210D01*
X22924248Y-24807477D01*
X22924246Y-24807476D01*
X22924244Y-24807474D01*
X22822635Y-24743628D01*
X22776345Y-24691294D01*
X22765697Y-24622240D01*
X22794072Y-24558392D01*
X22841155Y-24524074D01*
X23037507Y-24442743D01*
X23292994Y-24295238D01*
X23527042Y-24115646D01*
X23735646Y-23907042D01*
X23915238Y-23672994D01*
X24062743Y-23417507D01*
X24175639Y-23144952D01*
X24251993Y-22859993D01*
X24290500Y-22567506D01*
X24290500Y-22272494D01*
X24251993Y-21980007D01*
X24175639Y-21695048D01*
X24062743Y-21422493D01*
X23915238Y-21167006D01*
X23735646Y-20932958D01*
X23735641Y-20932952D01*
X23527047Y-20724358D01*
X23420858Y-20642876D01*
X23379656Y-20586448D01*
X23375501Y-20516702D01*
X23409714Y-20455781D01*
X23471431Y-20423029D01*
X23496345Y-20420500D01*
X97415500Y-20420500D01*
X97482539Y-20440185D01*
X97528294Y-20492989D01*
X97539500Y-20544500D01*
X97539500Y-94295500D01*
X97519815Y-94362539D01*
X97467011Y-94408294D01*
X97415500Y-94419500D01*
X23496345Y-94419500D01*
X23429306Y-94399815D01*
X23383551Y-94347011D01*
X23373607Y-94277853D01*
X23402632Y-94214297D01*
X23420858Y-94197124D01*
X23527042Y-94115646D01*
X23735646Y-93907042D01*
X23915238Y-93672994D01*
X24062743Y-93417507D01*
X24175639Y-93144952D01*
X24251993Y-92859993D01*
X24290500Y-92567506D01*
X24290500Y-92272494D01*
X24251993Y-91980007D01*
X24175639Y-91695048D01*
X24062743Y-91422493D01*
X24042420Y-91387292D01*
X23915238Y-91167005D01*
X23895540Y-91141335D01*
X23895539Y-91141334D01*
X23735647Y-90932959D01*
X23735641Y-90932952D01*
X23527047Y-90724358D01*
X23527040Y-90724352D01*
X23292993Y-90544761D01*
X23037510Y-90397258D01*
X23037500Y-90397254D01*
X22764961Y-90284364D01*
X22764954Y-90284362D01*
X22764955Y-90284362D01*
X22764952Y-90284361D01*
X22713660Y-90270617D01*
X22654001Y-90234252D01*
X22623472Y-90171405D01*
X22631767Y-90102030D01*
X22676253Y-90048152D01*
X22685791Y-90042306D01*
X22686432Y-90041950D01*
X22686445Y-90041945D01*
X22924248Y-89892523D01*
X23143825Y-89717416D01*
X23342416Y-89518825D01*
X23517523Y-89299248D01*
X23666945Y-89061445D01*
X23788801Y-88808408D01*
X23881560Y-88543318D01*
X23944055Y-88269509D01*
X23951188Y-88206206D01*
X23971797Y-88023289D01*
X23975500Y-87990425D01*
X23975500Y-87709575D01*
X23975499Y-87709568D01*
X41974500Y-87709568D01*
X41974500Y-87990431D01*
X42005942Y-88269494D01*
X42005945Y-88269512D01*
X42068439Y-88543317D01*
X42068443Y-88543329D01*
X42161200Y-88808411D01*
X42283053Y-89061442D01*
X42283055Y-89061445D01*
X42432477Y-89299248D01*
X42432958Y-89299851D01*
X42585826Y-89491542D01*
X42607584Y-89518825D01*
X42806175Y-89717416D01*
X43025752Y-89892523D01*
X43263555Y-90041945D01*
X43516592Y-90163801D01*
X43675771Y-90219500D01*
X43781670Y-90256556D01*
X43781682Y-90256560D01*
X44055491Y-90319055D01*
X44055497Y-90319055D01*
X44055505Y-90319057D01*
X44241547Y-90340018D01*
X44334569Y-90350499D01*
X44334572Y-90350500D01*
X44334575Y-90350500D01*
X44615428Y-90350500D01*
X44615429Y-90350499D01*
X44758055Y-90334429D01*
X44894494Y-90319057D01*
X44894499Y-90319056D01*
X44894509Y-90319055D01*
X45168318Y-90256560D01*
X45433408Y-90163801D01*
X45686445Y-90041945D01*
X45924248Y-89892523D01*
X46143825Y-89717416D01*
X46342416Y-89518825D01*
X46517523Y-89299248D01*
X46666945Y-89061445D01*
X46788801Y-88808408D01*
X46860972Y-88602155D01*
X51150000Y-88602155D01*
X51150000Y-89250000D01*
X52066988Y-89250000D01*
X52034075Y-89307007D01*
X52000000Y-89434174D01*
X52000000Y-89565826D01*
X52034075Y-89692993D01*
X52066988Y-89750000D01*
X51150000Y-89750000D01*
X51150000Y-90397844D01*
X51156401Y-90457372D01*
X51156403Y-90457379D01*
X51206645Y-90592086D01*
X51206649Y-90592093D01*
X51292809Y-90707187D01*
X51292812Y-90707190D01*
X51407906Y-90793350D01*
X51407913Y-90793354D01*
X51542620Y-90843596D01*
X51542627Y-90843598D01*
X51602155Y-90849999D01*
X51602172Y-90850000D01*
X52250000Y-90850000D01*
X52250000Y-89933012D01*
X52307007Y-89965925D01*
X52434174Y-90000000D01*
X52565826Y-90000000D01*
X52692993Y-89965925D01*
X52750000Y-89933012D01*
X52750000Y-90850000D01*
X53397828Y-90850000D01*
X53397844Y-90849999D01*
X53457372Y-90843598D01*
X53457379Y-90843596D01*
X53592086Y-90793354D01*
X53592093Y-90793350D01*
X53707187Y-90707190D01*
X53707190Y-90707187D01*
X53793350Y-90592093D01*
X53793354Y-90592086D01*
X53843596Y-90457379D01*
X53843598Y-90457372D01*
X53849999Y-90397844D01*
X53850000Y-90397827D01*
X53850000Y-89750000D01*
X52933012Y-89750000D01*
X52965925Y-89692993D01*
X53000000Y-89565826D01*
X53000000Y-89434174D01*
X52965925Y-89307007D01*
X52933012Y-89250000D01*
X53850000Y-89250000D01*
X53850000Y-88602172D01*
X53849999Y-88602155D01*
X53843598Y-88542627D01*
X53843596Y-88542620D01*
X53793354Y-88407913D01*
X53793350Y-88407906D01*
X53707190Y-88292812D01*
X53707187Y-88292809D01*
X53592093Y-88206649D01*
X53592086Y-88206645D01*
X53457379Y-88156403D01*
X53457372Y-88156401D01*
X53397844Y-88150000D01*
X52750000Y-88150000D01*
X52750000Y-89066988D01*
X52692993Y-89034075D01*
X52565826Y-89000000D01*
X52434174Y-89000000D01*
X52307007Y-89034075D01*
X52250000Y-89066988D01*
X52250000Y-88150000D01*
X51602155Y-88150000D01*
X51542627Y-88156401D01*
X51542620Y-88156403D01*
X51407913Y-88206645D01*
X51407906Y-88206649D01*
X51292812Y-88292809D01*
X51292809Y-88292812D01*
X51206649Y-88407906D01*
X51206645Y-88407913D01*
X51156403Y-88542620D01*
X51156401Y-88542627D01*
X51150000Y-88602155D01*
X46860972Y-88602155D01*
X46860981Y-88602129D01*
X46876457Y-88557903D01*
X46876459Y-88557897D01*
X46881556Y-88543329D01*
X46881560Y-88543318D01*
X46944055Y-88269509D01*
X46951188Y-88206206D01*
X46971797Y-88023289D01*
X46975500Y-87990425D01*
X46975500Y-87709575D01*
X46954403Y-87522331D01*
X46944057Y-87430505D01*
X46944054Y-87430487D01*
X46881560Y-87156682D01*
X46881556Y-87156670D01*
X46858465Y-87090680D01*
X46788801Y-86891592D01*
X46666945Y-86638555D01*
X46517523Y-86400752D01*
X46342416Y-86181175D01*
X46143825Y-85982584D01*
X45924248Y-85807477D01*
X45686445Y-85658055D01*
X45686442Y-85658053D01*
X45433411Y-85536200D01*
X45168329Y-85443443D01*
X45168317Y-85443439D01*
X44894512Y-85380945D01*
X44894494Y-85380942D01*
X44615431Y-85349500D01*
X44615425Y-85349500D01*
X44334575Y-85349500D01*
X44334568Y-85349500D01*
X44055505Y-85380942D01*
X44055487Y-85380945D01*
X43781682Y-85443439D01*
X43781670Y-85443443D01*
X43516588Y-85536200D01*
X43263557Y-85658053D01*
X43025753Y-85807476D01*
X42806175Y-85982583D01*
X42607583Y-86181175D01*
X42432476Y-86400753D01*
X42283053Y-86638557D01*
X42161200Y-86891588D01*
X42068443Y-87156670D01*
X42068439Y-87156682D01*
X42005945Y-87430487D01*
X42005942Y-87430505D01*
X41974500Y-87709568D01*
X23975499Y-87709568D01*
X23954403Y-87522331D01*
X23944057Y-87430505D01*
X23944054Y-87430487D01*
X23881560Y-87156682D01*
X23881556Y-87156670D01*
X23858465Y-87090680D01*
X23788801Y-86891592D01*
X23666945Y-86638555D01*
X23517523Y-86400752D01*
X23342416Y-86181175D01*
X23143825Y-85982584D01*
X22924248Y-85807477D01*
X22686445Y-85658055D01*
X22686442Y-85658053D01*
X22433411Y-85536200D01*
X22168329Y-85443443D01*
X22168317Y-85443439D01*
X21894512Y-85380945D01*
X21894494Y-85380942D01*
X21615431Y-85349500D01*
X21615425Y-85349500D01*
X21334575Y-85349500D01*
X21334568Y-85349500D01*
X21055505Y-85380942D01*
X21055487Y-85380945D01*
X20781682Y-85443439D01*
X20781670Y-85443443D01*
X20516588Y-85536200D01*
X20263557Y-85658053D01*
X20025753Y-85807476D01*
X19806175Y-85982583D01*
X19607583Y-86181175D01*
X19432476Y-86400753D01*
X19283053Y-86638557D01*
X19161200Y-86891588D01*
X19068443Y-87156670D01*
X19068439Y-87156682D01*
X19005945Y-87430487D01*
X19005942Y-87430505D01*
X18974500Y-87709568D01*
X18974500Y-87990431D01*
X19005942Y-88269494D01*
X19005945Y-88269512D01*
X19068439Y-88543317D01*
X19068443Y-88543329D01*
X19161200Y-88808411D01*
X19283053Y-89061442D01*
X19283055Y-89061445D01*
X19432477Y-89299248D01*
X19432958Y-89299851D01*
X19585826Y-89491542D01*
X19607584Y-89518825D01*
X19806175Y-89717416D01*
X20025752Y-89892523D01*
X20263555Y-90041945D01*
X20516592Y-90163801D01*
X20675771Y-90219500D01*
X20781670Y-90256556D01*
X20781682Y-90256560D01*
X20835222Y-90268780D01*
X20896200Y-90302888D01*
X20929059Y-90364549D01*
X20923364Y-90434187D01*
X20880925Y-90489690D01*
X20869631Y-90497058D01*
X20787004Y-90544763D01*
X20552959Y-90724352D01*
X20552952Y-90724358D01*
X20344358Y-90932952D01*
X20344352Y-90932959D01*
X20164761Y-91167006D01*
X20017258Y-91422489D01*
X20017254Y-91422499D01*
X19904364Y-91695038D01*
X19904361Y-91695048D01*
X19844403Y-91918818D01*
X19828008Y-91980004D01*
X19828006Y-91980015D01*
X19789500Y-92272486D01*
X19789500Y-92567513D01*
X19813390Y-92748969D01*
X19828007Y-92859993D01*
X19828008Y-92859995D01*
X19904361Y-93144951D01*
X19904364Y-93144961D01*
X20017254Y-93417500D01*
X20017258Y-93417510D01*
X20164761Y-93672993D01*
X20344352Y-93907040D01*
X20344358Y-93907047D01*
X20552952Y-94115641D01*
X20552956Y-94115644D01*
X20552958Y-94115646D01*
X20659142Y-94197124D01*
X20700344Y-94253552D01*
X20704499Y-94323298D01*
X20670286Y-94384219D01*
X20608569Y-94416971D01*
X20583655Y-94419500D01*
X18664500Y-94419500D01*
X18597461Y-94399815D01*
X18551706Y-94347011D01*
X18540500Y-94295500D01*
X18540500Y-72275013D01*
X36800000Y-72275013D01*
X36800000Y-72337500D01*
X37750000Y-72337500D01*
X38250000Y-72337500D01*
X39199999Y-72337500D01*
X39199999Y-72275028D01*
X39199998Y-72275013D01*
X39189505Y-72172302D01*
X39134358Y-72005880D01*
X39134356Y-72005875D01*
X39042315Y-71856654D01*
X38918345Y-71732684D01*
X38769124Y-71640643D01*
X38769119Y-71640641D01*
X38602697Y-71585494D01*
X38602690Y-71585493D01*
X38499986Y-71575000D01*
X38250000Y-71575000D01*
X38250000Y-72337500D01*
X37750000Y-72337500D01*
X37750000Y-71575000D01*
X37500029Y-71575000D01*
X37500012Y-71575001D01*
X37397302Y-71585494D01*
X37230880Y-71640641D01*
X37230875Y-71640643D01*
X37081654Y-71732684D01*
X36957684Y-71856654D01*
X36865643Y-72005875D01*
X36865641Y-72005880D01*
X36810494Y-72172302D01*
X36810493Y-72172309D01*
X36800000Y-72275013D01*
X18540500Y-72275013D01*
X18540500Y-53497648D01*
X23899500Y-53497648D01*
X23899500Y-53702351D01*
X23931522Y-53904534D01*
X23994781Y-54099223D01*
X24027000Y-54162455D01*
X24085702Y-54277664D01*
X24087715Y-54281613D01*
X24208028Y-54447213D01*
X24352786Y-54591971D01*
X24507749Y-54704556D01*
X24518390Y-54712287D01*
X24631222Y-54769778D01*
X24700776Y-54805218D01*
X24700778Y-54805218D01*
X24700781Y-54805220D01*
X24797885Y-54836771D01*
X24895465Y-54868477D01*
X24996557Y-54884488D01*
X25097648Y-54900500D01*
X25097649Y-54900500D01*
X25302351Y-54900500D01*
X25302352Y-54900500D01*
X25504534Y-54868477D01*
X25699219Y-54805220D01*
X25881610Y-54712287D01*
X26039107Y-54597860D01*
X26047213Y-54591971D01*
X26047215Y-54591968D01*
X26047219Y-54591966D01*
X26191966Y-54447219D01*
X26191968Y-54447215D01*
X26191971Y-54447213D01*
X26264798Y-54346973D01*
X26312287Y-54281610D01*
X26405220Y-54099219D01*
X26468477Y-53904534D01*
X26500500Y-53702352D01*
X26500500Y-53497648D01*
X26470055Y-53305428D01*
X26468477Y-53295465D01*
X26405218Y-53100776D01*
X26370292Y-53032231D01*
X26312287Y-52918390D01*
X26274228Y-52866006D01*
X26191971Y-52752786D01*
X26047217Y-52608032D01*
X26047212Y-52608028D01*
X26001615Y-52574900D01*
X25958949Y-52519571D01*
X25950500Y-52474582D01*
X25950500Y-25362228D01*
X25970185Y-25295189D01*
X25986814Y-25274551D01*
X27172463Y-24088902D01*
X27174569Y-24086798D01*
X27201508Y-24072096D01*
X27200428Y-24069936D01*
X27200434Y-24069933D01*
X27201514Y-24072093D01*
X27205610Y-24069858D01*
X27235872Y-24053334D01*
X27235894Y-24053331D01*
X27235901Y-24053328D01*
X27235917Y-24053329D01*
X27262230Y-24050500D01*
X30237770Y-24050500D01*
X30304809Y-24070185D01*
X30325451Y-24086819D01*
X31018181Y-24779548D01*
X31051666Y-24840871D01*
X31054500Y-24867229D01*
X31054500Y-24911150D01*
X31034815Y-24978189D01*
X30986795Y-25021635D01*
X30873161Y-25079534D01*
X30721968Y-25201968D01*
X30631366Y-25313852D01*
X30573879Y-25353563D01*
X30504048Y-25355891D01*
X30444044Y-25320095D01*
X30438634Y-25313852D01*
X30413927Y-25283342D01*
X30348032Y-25201968D01*
X30196840Y-25079535D01*
X30023496Y-24991212D01*
X29835578Y-24940859D01*
X29835577Y-24940858D01*
X29835574Y-24940858D01*
X29754783Y-24934500D01*
X29754778Y-24934500D01*
X28775222Y-24934500D01*
X28775216Y-24934500D01*
X28694425Y-24940858D01*
X28506504Y-24991212D01*
X28333161Y-25079534D01*
X28181968Y-25201968D01*
X28059534Y-25353161D01*
X27971212Y-25526504D01*
X27920858Y-25714425D01*
X27914500Y-25795216D01*
X27914500Y-26874783D01*
X27920858Y-26955574D01*
X27920858Y-26955577D01*
X27920859Y-26955578D01*
X27971212Y-27143496D01*
X28059535Y-27316840D01*
X28129557Y-27403310D01*
X28156449Y-27467796D01*
X28144207Y-27536585D01*
X28107503Y-27580611D01*
X28057809Y-27617812D01*
X27971649Y-27732906D01*
X27971645Y-27732913D01*
X27921403Y-27867620D01*
X27921401Y-27867627D01*
X27915000Y-27927155D01*
X27915000Y-28625000D01*
X28831988Y-28625000D01*
X28799075Y-28682007D01*
X28765000Y-28809174D01*
X28765000Y-28940826D01*
X28799075Y-29067993D01*
X28831988Y-29125000D01*
X27915000Y-29125000D01*
X27915000Y-29822844D01*
X27921401Y-29882372D01*
X27921403Y-29882379D01*
X27971645Y-30017086D01*
X27971649Y-30017093D01*
X28057809Y-30132187D01*
X28057812Y-30132190D01*
X28172906Y-30218350D01*
X28172913Y-30218354D01*
X28307620Y-30268596D01*
X28307627Y-30268598D01*
X28367155Y-30274999D01*
X28367172Y-30275000D01*
X29015000Y-30275000D01*
X29015000Y-29308012D01*
X29072007Y-29340925D01*
X29199174Y-29375000D01*
X29330826Y-29375000D01*
X29457993Y-29340925D01*
X29515000Y-29308012D01*
X29515000Y-30275000D01*
X30162828Y-30275000D01*
X30162844Y-30274999D01*
X30222372Y-30268598D01*
X30222379Y-30268596D01*
X30357086Y-30218354D01*
X30357093Y-30218350D01*
X30472186Y-30132190D01*
X30547129Y-30032081D01*
X30603063Y-29990210D01*
X30672755Y-29985226D01*
X30724428Y-30010024D01*
X30805284Y-30075500D01*
X30873162Y-30130467D01*
X30926839Y-30157816D01*
X30986794Y-30188364D01*
X31037590Y-30236338D01*
X31054500Y-30298849D01*
X31054500Y-37932769D01*
X31034815Y-37999808D01*
X31018181Y-38020450D01*
X28417050Y-40621580D01*
X28417044Y-40621588D01*
X28367812Y-40695268D01*
X28367813Y-40695269D01*
X28334921Y-40744496D01*
X28334914Y-40744508D01*
X28278342Y-40881086D01*
X28278340Y-40881092D01*
X28249500Y-41026079D01*
X28249500Y-41026082D01*
X28249500Y-60073918D01*
X28249500Y-60073920D01*
X28249499Y-60073920D01*
X28278340Y-60218907D01*
X28278343Y-60218917D01*
X28334913Y-60355490D01*
X28334915Y-60355493D01*
X28334916Y-60355495D01*
X28343185Y-60367870D01*
X28343186Y-60367873D01*
X28343187Y-60367873D01*
X28383018Y-60427486D01*
X28417051Y-60478420D01*
X28417052Y-60478421D01*
X30086122Y-62147490D01*
X30119607Y-62208813D01*
X30120914Y-62254569D01*
X30099500Y-62389772D01*
X30099500Y-62389778D01*
X30099500Y-62610222D01*
X30113719Y-62699998D01*
X30133985Y-62827952D01*
X30202103Y-63037603D01*
X30202104Y-63037606D01*
X30270122Y-63171096D01*
X30297129Y-63224100D01*
X30302187Y-63234025D01*
X30431752Y-63412358D01*
X30431756Y-63412363D01*
X30587636Y-63568243D01*
X30587641Y-63568247D01*
X30727254Y-63669682D01*
X30769920Y-63725012D01*
X30775899Y-63794625D01*
X30743293Y-63856420D01*
X30727254Y-63870318D01*
X30587641Y-63971752D01*
X30587636Y-63971756D01*
X30431756Y-64127636D01*
X30431752Y-64127641D01*
X30302187Y-64305974D01*
X30202104Y-64502393D01*
X30202103Y-64502396D01*
X30133985Y-64712047D01*
X30133985Y-64712049D01*
X30099500Y-64929778D01*
X30099500Y-65150222D01*
X30115303Y-65250000D01*
X30133985Y-65367952D01*
X30202103Y-65577603D01*
X30202104Y-65577606D01*
X30268453Y-65707820D01*
X30297129Y-65764100D01*
X30302187Y-65774025D01*
X30431752Y-65952358D01*
X30431756Y-65952363D01*
X30587636Y-66108243D01*
X30587641Y-66108247D01*
X30711942Y-66198556D01*
X30765978Y-66237815D01*
X30865340Y-66288443D01*
X30962393Y-66337895D01*
X30962396Y-66337896D01*
X31038765Y-66362709D01*
X31172049Y-66406015D01*
X31389778Y-66440500D01*
X31389779Y-66440500D01*
X31610221Y-66440500D01*
X31610222Y-66440500D01*
X31827951Y-66406015D01*
X32037606Y-66337895D01*
X32234022Y-66237815D01*
X32412365Y-66108242D01*
X32568242Y-65952365D01*
X32604267Y-65902781D01*
X32669682Y-65812745D01*
X32725011Y-65770079D01*
X32794625Y-65764100D01*
X32856420Y-65796705D01*
X32870318Y-65812745D01*
X32971752Y-65952358D01*
X32971756Y-65952363D01*
X33127636Y-66108243D01*
X33127641Y-66108247D01*
X33251942Y-66198556D01*
X33305978Y-66237815D01*
X33405340Y-66288443D01*
X33502393Y-66337895D01*
X33502396Y-66337896D01*
X33578765Y-66362709D01*
X33712049Y-66406015D01*
X33929778Y-66440500D01*
X33929779Y-66440500D01*
X34150221Y-66440500D01*
X34150222Y-66440500D01*
X34367951Y-66406015D01*
X34577606Y-66337895D01*
X34774022Y-66237815D01*
X34952365Y-66108242D01*
X35108242Y-65952365D01*
X35237815Y-65774022D01*
X35337895Y-65577606D01*
X35406015Y-65367951D01*
X35440500Y-65150222D01*
X35440500Y-64929778D01*
X35406015Y-64712049D01*
X35361331Y-64574524D01*
X35337896Y-64502396D01*
X35337895Y-64502393D01*
X35273421Y-64375858D01*
X35237815Y-64305978D01*
X35171294Y-64214419D01*
X35108247Y-64127641D01*
X35108243Y-64127636D01*
X34952363Y-63971756D01*
X34952358Y-63971752D01*
X34812745Y-63870318D01*
X34770079Y-63814989D01*
X34764100Y-63745375D01*
X34796705Y-63683580D01*
X34812745Y-63669682D01*
X34952358Y-63568247D01*
X34952356Y-63568247D01*
X34952365Y-63568242D01*
X35108242Y-63412365D01*
X35237815Y-63234022D01*
X35337895Y-63037606D01*
X35406015Y-62827951D01*
X35440500Y-62610222D01*
X35440500Y-62389778D01*
X35406015Y-62172049D01*
X35355408Y-62016294D01*
X35337896Y-61962396D01*
X35337895Y-61962393D01*
X35303237Y-61894375D01*
X35237815Y-61765978D01*
X35190571Y-61700952D01*
X35108247Y-61587641D01*
X35108243Y-61587636D01*
X34952363Y-61431756D01*
X34952358Y-61431752D01*
X34812745Y-61330318D01*
X34770079Y-61274989D01*
X34764100Y-61205375D01*
X34796705Y-61143580D01*
X34812745Y-61129682D01*
X34952358Y-61028247D01*
X34952356Y-61028247D01*
X34952365Y-61028242D01*
X35108242Y-60872365D01*
X35237815Y-60694022D01*
X35337895Y-60497606D01*
X35406015Y-60287951D01*
X35440500Y-60070222D01*
X35440500Y-59849778D01*
X35406015Y-59632049D01*
X35354054Y-59472127D01*
X35337896Y-59422396D01*
X35337895Y-59422393D01*
X35281823Y-59312348D01*
X35237815Y-59225978D01*
X35180589Y-59147213D01*
X35108247Y-59047641D01*
X35108243Y-59047636D01*
X34952363Y-58891756D01*
X34952358Y-58891752D01*
X34812745Y-58790318D01*
X34770079Y-58734989D01*
X34764100Y-58665375D01*
X34796705Y-58603580D01*
X34812745Y-58589682D01*
X34952358Y-58488247D01*
X34952356Y-58488247D01*
X34952365Y-58488242D01*
X35108242Y-58332365D01*
X35237815Y-58154022D01*
X35337895Y-57957606D01*
X35406015Y-57747951D01*
X35440500Y-57530222D01*
X35440500Y-57464452D01*
X35460185Y-57397413D01*
X35512989Y-57351658D01*
X35582147Y-57341714D01*
X35645703Y-57370739D01*
X35652181Y-57376771D01*
X37841016Y-59565606D01*
X37841045Y-59565637D01*
X37931263Y-59655855D01*
X37931267Y-59655858D01*
X38033707Y-59724307D01*
X38033713Y-59724310D01*
X38033714Y-59724311D01*
X38147548Y-59771463D01*
X38178749Y-59777669D01*
X38268391Y-59795499D01*
X38268392Y-59795500D01*
X38268393Y-59795500D01*
X38268394Y-59795500D01*
X60904836Y-59795500D01*
X60907091Y-59796162D01*
X60909369Y-59795583D01*
X60940449Y-59805957D01*
X60971875Y-59815185D01*
X60973413Y-59816960D01*
X60975644Y-59817705D01*
X60996188Y-59843244D01*
X61017630Y-59867989D01*
X61018422Y-59870884D01*
X61019438Y-59872146D01*
X61028137Y-59906351D01*
X61028190Y-59906848D01*
X61028179Y-59933250D01*
X61024000Y-59972122D01*
X61024000Y-59972128D01*
X61024001Y-60367867D01*
X61024001Y-60367873D01*
X61030408Y-60427483D01*
X61080702Y-60562328D01*
X61080706Y-60562335D01*
X61166952Y-60677544D01*
X61166955Y-60677547D01*
X61282164Y-60763793D01*
X61282171Y-60763797D01*
X61417017Y-60814091D01*
X61417016Y-60814091D01*
X61423944Y-60814835D01*
X61476627Y-60820500D01*
X62975500Y-60820499D01*
X63042539Y-60840184D01*
X63088294Y-60892987D01*
X63099500Y-60944499D01*
X63099500Y-62443370D01*
X63099501Y-62443376D01*
X63105908Y-62502983D01*
X63156202Y-62637828D01*
X63156206Y-62637835D01*
X63242452Y-62753044D01*
X63242455Y-62753047D01*
X63357664Y-62839293D01*
X63357671Y-62839297D01*
X63481656Y-62885540D01*
X63537590Y-62927411D01*
X63562007Y-62992875D01*
X63547156Y-63061148D01*
X63526004Y-63089403D01*
X61617627Y-64997781D01*
X61556304Y-65031266D01*
X61509584Y-65030776D01*
X61509346Y-65032285D01*
X61405898Y-65015900D01*
X61302352Y-64999500D01*
X61097648Y-64999500D01*
X61073329Y-65003351D01*
X60895465Y-65031522D01*
X60700776Y-65094781D01*
X60518386Y-65187715D01*
X60352786Y-65308028D01*
X60208028Y-65452786D01*
X60087715Y-65618386D01*
X59994781Y-65800776D01*
X59931522Y-65995465D01*
X59899500Y-66197648D01*
X59899500Y-66402351D01*
X59931522Y-66604534D01*
X59994781Y-66799223D01*
X60087715Y-66981613D01*
X60208028Y-67147213D01*
X60352786Y-67291971D01*
X60507749Y-67404556D01*
X60518390Y-67412287D01*
X60634607Y-67471503D01*
X60700776Y-67505218D01*
X60700778Y-67505218D01*
X60700781Y-67505220D01*
X60803471Y-67538586D01*
X60895465Y-67568477D01*
X60924003Y-67572996D01*
X60958509Y-67578462D01*
X61021644Y-67608391D01*
X61058576Y-67667702D01*
X61057578Y-67737565D01*
X61026793Y-67788616D01*
X60277229Y-68538181D01*
X60215906Y-68571666D01*
X60189548Y-68574500D01*
X52238388Y-68574500D01*
X52117555Y-68598535D01*
X52117547Y-68598537D01*
X52003716Y-68645687D01*
X51901265Y-68714142D01*
X51901262Y-68714145D01*
X50452229Y-70163181D01*
X50390906Y-70196666D01*
X50364548Y-70199500D01*
X49599298Y-70199500D01*
X49562432Y-70202401D01*
X49562426Y-70202402D01*
X49404606Y-70248254D01*
X49404603Y-70248255D01*
X49263137Y-70331917D01*
X49263129Y-70331923D01*
X49146923Y-70448129D01*
X49146917Y-70448137D01*
X49063255Y-70589603D01*
X49063254Y-70589606D01*
X49017402Y-70747426D01*
X49017401Y-70747432D01*
X49014500Y-70784298D01*
X49014500Y-71215701D01*
X49017401Y-71252567D01*
X49017402Y-71252573D01*
X49048876Y-71360905D01*
X49048677Y-71430775D01*
X49010735Y-71489445D01*
X48947096Y-71518288D01*
X48929800Y-71519500D01*
X47632229Y-71519500D01*
X47602788Y-71510855D01*
X47572802Y-71504332D01*
X47567786Y-71500577D01*
X47565190Y-71499815D01*
X47544548Y-71483181D01*
X47526473Y-71465106D01*
X47492988Y-71403783D01*
X47491681Y-71358028D01*
X47500500Y-71302352D01*
X47500500Y-71097648D01*
X47468477Y-70895466D01*
X47405220Y-70700781D01*
X47405218Y-70700778D01*
X47405218Y-70700776D01*
X47345367Y-70583314D01*
X47312287Y-70518390D01*
X47261246Y-70448137D01*
X47191971Y-70352786D01*
X47047213Y-70208028D01*
X46881613Y-70087715D01*
X46881612Y-70087714D01*
X46881610Y-70087713D01*
X46782436Y-70037181D01*
X46699223Y-69994781D01*
X46504534Y-69931522D01*
X46329995Y-69903878D01*
X46302352Y-69899500D01*
X46097648Y-69899500D01*
X46073329Y-69903351D01*
X45895465Y-69931522D01*
X45700776Y-69994781D01*
X45518386Y-70087715D01*
X45352786Y-70208028D01*
X45208028Y-70352786D01*
X45087715Y-70518386D01*
X44994781Y-70700776D01*
X44931522Y-70895465D01*
X44899500Y-71097648D01*
X44899500Y-71302351D01*
X44931522Y-71504534D01*
X44994781Y-71699223D01*
X45052561Y-71812620D01*
X45076501Y-71859606D01*
X45087715Y-71881613D01*
X45208028Y-72047213D01*
X45352786Y-72191971D01*
X45481582Y-72285545D01*
X45518390Y-72312287D01*
X45622836Y-72365505D01*
X45700776Y-72405218D01*
X45700778Y-72405218D01*
X45700781Y-72405220D01*
X45805137Y-72439127D01*
X45895465Y-72468477D01*
X45979564Y-72481797D01*
X46097648Y-72500500D01*
X46097649Y-72500500D01*
X46302350Y-72500500D01*
X46302352Y-72500500D01*
X46358027Y-72491681D01*
X46427319Y-72500635D01*
X46465106Y-72526473D01*
X46516452Y-72577819D01*
X46549937Y-72639142D01*
X46544953Y-72708834D01*
X46503081Y-72764767D01*
X46437617Y-72789184D01*
X46428771Y-72789500D01*
X38798580Y-72789500D01*
X38653592Y-72818340D01*
X38653586Y-72818342D01*
X38648377Y-72820500D01*
X38630122Y-72828061D01*
X38582671Y-72837500D01*
X36800001Y-72837500D01*
X36800001Y-72899986D01*
X36810494Y-73002697D01*
X36865641Y-73169119D01*
X36865643Y-73169124D01*
X36957684Y-73318345D01*
X37051304Y-73411965D01*
X37084789Y-73473288D01*
X37079805Y-73542980D01*
X37051305Y-73587327D01*
X36957287Y-73681345D01*
X36865187Y-73830663D01*
X36865186Y-73830666D01*
X36810001Y-73997203D01*
X36810001Y-73997204D01*
X36810000Y-73997204D01*
X36799500Y-74099983D01*
X36799500Y-74725001D01*
X36799501Y-74725019D01*
X36810000Y-74827796D01*
X36810001Y-74827799D01*
X36865185Y-74994331D01*
X36865187Y-74994336D01*
X36872177Y-75005668D01*
X36957288Y-75143656D01*
X37081344Y-75267712D01*
X37190597Y-75335099D01*
X37237321Y-75387047D01*
X37249500Y-75440638D01*
X37249500Y-76693272D01*
X37231039Y-76758368D01*
X37140189Y-76905659D01*
X37140186Y-76905666D01*
X37085001Y-77072203D01*
X37085001Y-77072204D01*
X37085000Y-77072204D01*
X37074500Y-77174983D01*
X37074500Y-78175001D01*
X37074501Y-78175019D01*
X37085000Y-78277796D01*
X37085001Y-78277799D01*
X37122769Y-78391773D01*
X37140186Y-78444334D01*
X37232288Y-78593656D01*
X37356344Y-78717712D01*
X37505666Y-78809814D01*
X37672203Y-78864999D01*
X37774991Y-78875500D01*
X38400008Y-78875499D01*
X38400016Y-78875498D01*
X38400019Y-78875498D01*
X38456302Y-78869748D01*
X38502797Y-78864999D01*
X38669334Y-78809814D01*
X38818656Y-78717712D01*
X38912319Y-78624049D01*
X38973642Y-78590564D01*
X39043334Y-78595548D01*
X39087681Y-78624049D01*
X39181344Y-78717712D01*
X39330666Y-78809814D01*
X39497203Y-78864999D01*
X39599991Y-78875500D01*
X40225008Y-78875499D01*
X40225016Y-78875498D01*
X40225019Y-78875498D01*
X40281302Y-78869748D01*
X40327797Y-78864999D01*
X40494334Y-78809814D01*
X40643656Y-78717712D01*
X40767712Y-78593656D01*
X40835099Y-78484402D01*
X40887047Y-78437679D01*
X40940638Y-78425500D01*
X42336081Y-78425500D01*
X42336085Y-78425499D01*
X43000002Y-78425499D01*
X43000008Y-78425499D01*
X43102797Y-78414999D01*
X43269334Y-78359814D01*
X43418656Y-78267712D01*
X43487049Y-78199319D01*
X43548372Y-78165834D01*
X43574730Y-78163000D01*
X46939177Y-78163000D01*
X47006216Y-78182685D01*
X47051971Y-78235489D01*
X47061915Y-78304647D01*
X47032890Y-78368203D01*
X46995472Y-78397485D01*
X46818386Y-78487715D01*
X46652786Y-78608028D01*
X46508028Y-78752786D01*
X46387715Y-78918386D01*
X46294781Y-79100776D01*
X46231522Y-79295465D01*
X46199500Y-79497648D01*
X46199500Y-79702351D01*
X46231522Y-79904534D01*
X46294781Y-80099223D01*
X46345516Y-80198794D01*
X46380272Y-80267007D01*
X46387715Y-80281613D01*
X46508028Y-80447213D01*
X46652786Y-80591971D01*
X46786087Y-80688818D01*
X46818390Y-80712287D01*
X46934607Y-80771503D01*
X47000776Y-80805218D01*
X47000778Y-80805218D01*
X47000781Y-80805220D01*
X47105137Y-80839127D01*
X47195465Y-80868477D01*
X47296557Y-80884488D01*
X47397648Y-80900500D01*
X47397649Y-80900500D01*
X47602351Y-80900500D01*
X47602352Y-80900500D01*
X47804534Y-80868477D01*
X47999219Y-80805220D01*
X48181610Y-80712287D01*
X48281861Y-80639451D01*
X48347213Y-80591971D01*
X48347215Y-80591968D01*
X48347219Y-80591966D01*
X48491966Y-80447219D01*
X48491968Y-80447215D01*
X48491971Y-80447213D01*
X48599977Y-80298553D01*
X48612287Y-80281610D01*
X48705220Y-80099219D01*
X48768477Y-79904534D01*
X48800500Y-79702352D01*
X48800500Y-79497648D01*
X48800500Y-79494500D01*
X48820185Y-79427461D01*
X48872989Y-79381706D01*
X48924500Y-79370500D01*
X49382672Y-79370500D01*
X49417267Y-79375424D01*
X49562426Y-79417597D01*
X49562429Y-79417597D01*
X49562431Y-79417598D01*
X49599306Y-79420500D01*
X49599314Y-79420500D01*
X51400686Y-79420500D01*
X51400694Y-79420500D01*
X51437569Y-79417598D01*
X51437571Y-79417597D01*
X51437573Y-79417597D01*
X51531924Y-79390185D01*
X51595398Y-79371744D01*
X51736865Y-79288081D01*
X51853081Y-79171865D01*
X51936744Y-79030398D01*
X51970505Y-78914191D01*
X51982597Y-78872573D01*
X51982598Y-78872567D01*
X51985499Y-78835701D01*
X51985500Y-78835694D01*
X51985500Y-78404306D01*
X51982598Y-78367431D01*
X51980384Y-78359812D01*
X51936745Y-78209606D01*
X51936744Y-78209603D01*
X51936744Y-78209602D01*
X51853081Y-78068135D01*
X51853078Y-78068132D01*
X51848298Y-78061969D01*
X51850750Y-78060066D01*
X51824155Y-78011421D01*
X51829104Y-77941726D01*
X51849940Y-77909304D01*
X51848298Y-77908031D01*
X51853075Y-77901870D01*
X51853081Y-77901865D01*
X51936744Y-77760398D01*
X51982598Y-77602569D01*
X51985500Y-77565694D01*
X51985500Y-77134306D01*
X51982598Y-77097431D01*
X51936744Y-76939602D01*
X51886769Y-76855099D01*
X51869587Y-76787377D01*
X51891747Y-76721115D01*
X51924615Y-76688876D01*
X51935891Y-76681342D01*
X51963415Y-76662952D01*
X52350819Y-76275548D01*
X52412142Y-76242063D01*
X52481834Y-76247047D01*
X52537767Y-76288919D01*
X52562184Y-76354383D01*
X52562500Y-76363229D01*
X52562500Y-78399418D01*
X52562500Y-78399420D01*
X52562499Y-78399420D01*
X52591340Y-78544407D01*
X52591343Y-78544417D01*
X52647912Y-78680988D01*
X52647920Y-78681002D01*
X52675548Y-78722349D01*
X52675549Y-78722352D01*
X52675550Y-78722352D01*
X52718411Y-78786500D01*
X52730049Y-78803917D01*
X52730050Y-78803918D01*
X56904549Y-82978416D01*
X56963036Y-83036903D01*
X56996521Y-83098226D01*
X56996607Y-83098625D01*
X56997499Y-83102792D01*
X56997501Y-83102797D01*
X57052686Y-83269334D01*
X57052687Y-83269336D01*
X57052691Y-83269343D01*
X57055126Y-83273291D01*
X57073565Y-83340684D01*
X57052641Y-83407347D01*
X56998998Y-83452115D01*
X56929667Y-83460775D01*
X56884490Y-83443924D01*
X56756840Y-83365189D01*
X56756835Y-83365187D01*
X56756834Y-83365186D01*
X56590297Y-83310001D01*
X56590295Y-83310000D01*
X56487510Y-83299500D01*
X55862498Y-83299500D01*
X55862480Y-83299501D01*
X55759703Y-83310000D01*
X55759700Y-83310001D01*
X55593168Y-83365185D01*
X55593163Y-83365187D01*
X55443842Y-83457289D01*
X55319789Y-83581342D01*
X55227687Y-83730663D01*
X55227686Y-83730666D01*
X55172501Y-83897203D01*
X55172501Y-83897204D01*
X55172500Y-83897204D01*
X55162000Y-83999983D01*
X55162000Y-85000001D01*
X55162001Y-85000019D01*
X55172500Y-85102796D01*
X55172501Y-85102799D01*
X55227685Y-85269331D01*
X55227687Y-85269336D01*
X55249202Y-85304218D01*
X55319788Y-85418656D01*
X55319789Y-85418657D01*
X55319790Y-85418658D01*
X55324266Y-85424319D01*
X55323176Y-85425180D01*
X55343741Y-85455957D01*
X55399140Y-85589701D01*
X55399145Y-85589711D01*
X55494954Y-85733098D01*
X55494957Y-85733102D01*
X59113181Y-89351325D01*
X59146666Y-89412648D01*
X59149500Y-89439006D01*
X59149500Y-90397870D01*
X59149501Y-90397876D01*
X59155908Y-90457483D01*
X59206202Y-90592328D01*
X59206206Y-90592335D01*
X59292452Y-90707544D01*
X59292455Y-90707547D01*
X59407664Y-90793793D01*
X59407671Y-90793797D01*
X59542517Y-90844091D01*
X59542516Y-90844091D01*
X59549444Y-90844835D01*
X59602127Y-90850500D01*
X61397872Y-90850499D01*
X61457483Y-90844091D01*
X61592331Y-90793796D01*
X61707546Y-90707546D01*
X61793796Y-90592331D01*
X61844091Y-90457483D01*
X61850500Y-90397873D01*
X61850499Y-89491542D01*
X61850499Y-88602129D01*
X61850498Y-88602123D01*
X61844091Y-88542516D01*
X61793797Y-88407671D01*
X61793793Y-88407664D01*
X61707547Y-88292455D01*
X61707544Y-88292452D01*
X61592335Y-88206206D01*
X61592328Y-88206202D01*
X61457482Y-88155908D01*
X61457483Y-88155908D01*
X61397883Y-88149501D01*
X61397881Y-88149500D01*
X61397873Y-88149500D01*
X61397865Y-88149500D01*
X60439006Y-88149500D01*
X60371967Y-88129815D01*
X60351325Y-88113181D01*
X59571693Y-87333549D01*
X70112000Y-87333549D01*
X70112000Y-87556450D01*
X70112001Y-87556466D01*
X70141094Y-87777452D01*
X70141095Y-87777457D01*
X70141096Y-87777463D01*
X70198790Y-87992780D01*
X70198793Y-87992790D01*
X70284093Y-88198722D01*
X70284095Y-88198726D01*
X70395552Y-88391774D01*
X70395557Y-88391780D01*
X70395558Y-88391782D01*
X70531251Y-88568622D01*
X70531257Y-88568629D01*
X70688870Y-88726242D01*
X70688877Y-88726248D01*
X70772172Y-88790162D01*
X70865726Y-88861948D01*
X71058774Y-88973405D01*
X71264719Y-89058710D01*
X71480037Y-89116404D01*
X71701043Y-89145500D01*
X71701050Y-89145500D01*
X71923950Y-89145500D01*
X71923957Y-89145500D01*
X72144963Y-89116404D01*
X72360281Y-89058710D01*
X72566226Y-88973405D01*
X72759274Y-88861948D01*
X72936124Y-88726247D01*
X73093747Y-88568624D01*
X73229448Y-88391774D01*
X73340905Y-88198726D01*
X73426210Y-87992781D01*
X73483904Y-87777463D01*
X73513000Y-87556457D01*
X73513000Y-87333543D01*
X73483904Y-87112537D01*
X73426210Y-86897219D01*
X73340905Y-86691274D01*
X73229448Y-86498226D01*
X73186873Y-86442741D01*
X73093748Y-86321377D01*
X73093742Y-86321370D01*
X72936129Y-86163757D01*
X72936122Y-86163751D01*
X72759282Y-86028058D01*
X72759280Y-86028057D01*
X72759274Y-86028052D01*
X72566226Y-85916595D01*
X72566222Y-85916593D01*
X72360290Y-85831293D01*
X72360283Y-85831291D01*
X72360281Y-85831290D01*
X72144963Y-85773596D01*
X72144957Y-85773595D01*
X72144952Y-85773594D01*
X71923966Y-85744501D01*
X71923963Y-85744500D01*
X71923957Y-85744500D01*
X71701043Y-85744500D01*
X71701037Y-85744500D01*
X71701033Y-85744501D01*
X71480047Y-85773594D01*
X71480040Y-85773595D01*
X71480037Y-85773596D01*
X71264719Y-85831290D01*
X71264709Y-85831293D01*
X71058777Y-85916593D01*
X71058773Y-85916595D01*
X70865726Y-86028052D01*
X70865717Y-86028058D01*
X70688877Y-86163751D01*
X70688870Y-86163757D01*
X70531257Y-86321370D01*
X70531251Y-86321377D01*
X70395558Y-86498217D01*
X70395552Y-86498226D01*
X70284095Y-86691273D01*
X70284094Y-86691276D01*
X70198793Y-86897209D01*
X70198790Y-86897219D01*
X70141097Y-87112534D01*
X70141094Y-87112547D01*
X70112001Y-87333533D01*
X70112000Y-87333549D01*
X59571693Y-87333549D01*
X58150324Y-85912180D01*
X58116839Y-85850857D01*
X58121823Y-85781165D01*
X58163695Y-85725232D01*
X58229159Y-85700815D01*
X58238005Y-85700499D01*
X58312502Y-85700499D01*
X58312508Y-85700499D01*
X58415297Y-85689999D01*
X58581834Y-85634814D01*
X58731156Y-85542712D01*
X58855212Y-85418656D01*
X58947314Y-85269334D01*
X59002499Y-85102797D01*
X59013000Y-85000009D01*
X59012999Y-84272486D01*
X61789500Y-84272486D01*
X61789500Y-84567513D01*
X61809368Y-84718417D01*
X61828007Y-84859993D01*
X61904361Y-85144951D01*
X61904364Y-85144961D01*
X62017254Y-85417500D01*
X62017258Y-85417510D01*
X62164761Y-85672993D01*
X62344352Y-85907040D01*
X62344358Y-85907047D01*
X62552952Y-86115641D01*
X62552959Y-86115647D01*
X62787006Y-86295238D01*
X63042489Y-86442741D01*
X63042490Y-86442741D01*
X63042493Y-86442743D01*
X63315048Y-86555639D01*
X63600007Y-86631993D01*
X63892494Y-86670500D01*
X63892501Y-86670500D01*
X64187499Y-86670500D01*
X64187506Y-86670500D01*
X64479993Y-86631993D01*
X64764952Y-86555639D01*
X65037507Y-86442743D01*
X65292994Y-86295238D01*
X65527042Y-86115646D01*
X65735646Y-85907042D01*
X65915238Y-85672994D01*
X66062743Y-85417507D01*
X66175639Y-85144952D01*
X66251993Y-84859993D01*
X66290500Y-84567506D01*
X66290500Y-84272494D01*
X66251993Y-83980007D01*
X66175639Y-83695048D01*
X66062743Y-83422493D01*
X66060528Y-83418657D01*
X65915238Y-83167006D01*
X65735647Y-82932959D01*
X65735641Y-82932952D01*
X65527047Y-82724358D01*
X65527040Y-82724352D01*
X65292993Y-82544761D01*
X65117076Y-82443196D01*
X65037510Y-82397258D01*
X65037500Y-82397254D01*
X64764961Y-82284364D01*
X64764954Y-82284362D01*
X64764952Y-82284361D01*
X64479993Y-82208007D01*
X64431113Y-82201571D01*
X64187513Y-82169500D01*
X64187506Y-82169500D01*
X63892494Y-82169500D01*
X63892486Y-82169500D01*
X63614085Y-82206153D01*
X63600007Y-82208007D01*
X63521738Y-82228979D01*
X63315048Y-82284361D01*
X63315038Y-82284364D01*
X63042499Y-82397254D01*
X63042489Y-82397258D01*
X62787006Y-82544761D01*
X62552959Y-82724352D01*
X62552952Y-82724358D01*
X62344358Y-82932952D01*
X62344352Y-82932959D01*
X62164761Y-83167006D01*
X62017258Y-83422489D01*
X62017254Y-83422499D01*
X61904364Y-83695038D01*
X61904361Y-83695048D01*
X61837439Y-83944808D01*
X61828008Y-83980004D01*
X61828006Y-83980015D01*
X61789500Y-84272486D01*
X59012999Y-84272486D01*
X59012999Y-83999992D01*
X59010958Y-83980015D01*
X59002499Y-83897203D01*
X59002498Y-83897200D01*
X58974043Y-83811330D01*
X58947314Y-83730666D01*
X58947310Y-83730660D01*
X58947309Y-83730657D01*
X58944875Y-83726711D01*
X58926434Y-83659319D01*
X58947356Y-83592655D01*
X59000998Y-83547885D01*
X59070329Y-83539224D01*
X59115507Y-83556074D01*
X59243166Y-83634814D01*
X59409703Y-83689999D01*
X59512491Y-83700500D01*
X60137508Y-83700499D01*
X60137516Y-83700498D01*
X60137519Y-83700498D01*
X60193802Y-83694748D01*
X60240297Y-83689999D01*
X60406834Y-83634814D01*
X60556156Y-83542712D01*
X60680212Y-83418656D01*
X60772314Y-83269334D01*
X60827499Y-83102797D01*
X60838000Y-83000009D01*
X60837999Y-82974730D01*
X60857681Y-82907693D01*
X60874313Y-82887053D01*
X61882952Y-81878416D01*
X61940569Y-81792184D01*
X61965084Y-81755495D01*
X62021658Y-81618913D01*
X62050500Y-81473918D01*
X62050500Y-77840638D01*
X62070185Y-77773599D01*
X62109401Y-77735100D01*
X62218656Y-77667712D01*
X62342712Y-77543656D01*
X62434814Y-77394334D01*
X62489999Y-77227797D01*
X62500500Y-77125009D01*
X62500499Y-76499992D01*
X62489999Y-76397203D01*
X62434814Y-76230666D01*
X62342712Y-76081344D01*
X62248695Y-75987327D01*
X62215210Y-75926004D01*
X62220194Y-75856312D01*
X62248695Y-75811964D01*
X62342317Y-75718342D01*
X62434356Y-75569124D01*
X62434358Y-75569119D01*
X62489505Y-75402697D01*
X62489506Y-75402690D01*
X62499999Y-75299986D01*
X62500000Y-75299973D01*
X62500000Y-75237500D01*
X60100001Y-75237500D01*
X60086698Y-75250802D01*
X60080316Y-75272539D01*
X60027512Y-75318294D01*
X59976001Y-75329500D01*
X57019679Y-75329500D01*
X56952640Y-75309815D01*
X56906885Y-75257011D01*
X56896941Y-75187853D01*
X56900603Y-75170905D01*
X56932099Y-75062494D01*
X56932100Y-75062488D01*
X56932295Y-75060001D01*
X56932295Y-75060000D01*
X55574000Y-75060000D01*
X55506961Y-75040315D01*
X55461206Y-74987511D01*
X55450000Y-74936000D01*
X55450000Y-74684000D01*
X55469685Y-74616961D01*
X55522489Y-74571206D01*
X55574000Y-74560000D01*
X56932295Y-74560000D01*
X56932295Y-74559998D01*
X56932100Y-74557511D01*
X56932099Y-74557505D01*
X56900603Y-74449095D01*
X56900802Y-74379225D01*
X56938744Y-74320555D01*
X57002383Y-74291712D01*
X57019679Y-74290500D01*
X60032155Y-74290500D01*
X60099194Y-74310185D01*
X60144949Y-74362989D01*
X60154893Y-74432147D01*
X60149861Y-74453504D01*
X60110494Y-74572302D01*
X60110493Y-74572309D01*
X60100000Y-74675013D01*
X60100000Y-74737500D01*
X62499999Y-74737500D01*
X62499999Y-74675028D01*
X62499998Y-74675013D01*
X62489506Y-74572304D01*
X62450139Y-74453505D01*
X62447737Y-74383676D01*
X62483468Y-74323634D01*
X62545989Y-74292441D01*
X62567845Y-74290500D01*
X64444807Y-74290500D01*
X64511846Y-74310185D01*
X64532488Y-74326819D01*
X68794004Y-78588335D01*
X68827489Y-78649658D01*
X68822505Y-78719350D01*
X68780633Y-78775283D01*
X68762620Y-78786500D01*
X68713053Y-78811756D01*
X68663680Y-78847627D01*
X69237266Y-79421212D01*
X69195208Y-79432482D01*
X69069792Y-79504890D01*
X68967390Y-79607292D01*
X68894982Y-79732708D01*
X68883712Y-79774765D01*
X68310127Y-79201180D01*
X68274257Y-79250552D01*
X68179575Y-79436372D01*
X68115126Y-79634727D01*
X68082500Y-79840720D01*
X68082500Y-80049279D01*
X68115126Y-80255272D01*
X68179575Y-80453627D01*
X68274259Y-80639451D01*
X68310127Y-80688818D01*
X68310127Y-80688819D01*
X68883712Y-80115233D01*
X68894982Y-80157292D01*
X68967390Y-80282708D01*
X69069792Y-80385110D01*
X69195208Y-80457518D01*
X69237265Y-80468787D01*
X68663679Y-81042371D01*
X68663680Y-81042372D01*
X68713043Y-81078236D01*
X68713055Y-81078244D01*
X68724808Y-81084232D01*
X68775605Y-81132206D01*
X68792401Y-81200026D01*
X68769865Y-81266162D01*
X68724813Y-81305201D01*
X68712788Y-81311328D01*
X68543993Y-81433966D01*
X68396466Y-81581493D01*
X68273830Y-81750285D01*
X68179112Y-81936179D01*
X68114637Y-82134610D01*
X68082000Y-82340675D01*
X68082000Y-82549324D01*
X68114637Y-82755389D01*
X68179112Y-82953820D01*
X68237184Y-83067792D01*
X68273830Y-83139714D01*
X68396465Y-83308505D01*
X68543995Y-83456035D01*
X68712786Y-83578670D01*
X68721880Y-83583303D01*
X68724259Y-83584516D01*
X68775054Y-83632492D01*
X68791848Y-83700313D01*
X68769309Y-83766447D01*
X68724259Y-83805484D01*
X68712786Y-83811330D01*
X68543993Y-83933966D01*
X68396466Y-84081493D01*
X68273830Y-84250285D01*
X68179112Y-84436179D01*
X68114637Y-84634610D01*
X68082000Y-84840675D01*
X68082000Y-85049324D01*
X68114637Y-85255389D01*
X68179112Y-85453820D01*
X68271332Y-85634812D01*
X68273830Y-85639714D01*
X68396465Y-85808505D01*
X68543995Y-85956035D01*
X68712786Y-86078670D01*
X68785346Y-86115641D01*
X68898679Y-86173387D01*
X68898681Y-86173387D01*
X68898684Y-86173389D01*
X69005045Y-86207948D01*
X69097110Y-86237862D01*
X69303176Y-86270500D01*
X69303181Y-86270500D01*
X69511824Y-86270500D01*
X69717889Y-86237862D01*
X69916316Y-86173389D01*
X70102214Y-86078670D01*
X70271005Y-85956035D01*
X70418535Y-85808505D01*
X70541170Y-85639714D01*
X70635889Y-85453816D01*
X70700362Y-85255389D01*
X70709164Y-85199815D01*
X70733000Y-85049324D01*
X70733000Y-84840675D01*
X70700362Y-84634610D01*
X70653234Y-84489566D01*
X70635889Y-84436184D01*
X70635887Y-84436181D01*
X70635887Y-84436179D01*
X70573591Y-84313917D01*
X70541170Y-84250286D01*
X70418535Y-84081495D01*
X70271005Y-83933965D01*
X70193659Y-83877769D01*
X70102212Y-83811328D01*
X70090743Y-83805485D01*
X70039947Y-83757511D01*
X70023151Y-83689690D01*
X70045688Y-83623555D01*
X70090743Y-83584515D01*
X70102212Y-83578671D01*
X70102211Y-83578671D01*
X70102214Y-83578670D01*
X70271005Y-83456035D01*
X70418535Y-83308505D01*
X70541170Y-83139714D01*
X70635889Y-82953816D01*
X70700362Y-82755389D01*
X70705277Y-82724358D01*
X70733000Y-82549324D01*
X70733000Y-82340675D01*
X70700362Y-82134610D01*
X70670448Y-82042545D01*
X70635889Y-81936184D01*
X70635887Y-81936181D01*
X70635887Y-81936179D01*
X70541169Y-81750285D01*
X70446667Y-81620215D01*
X70418535Y-81581495D01*
X70271005Y-81433965D01*
X70102214Y-81311330D01*
X70090189Y-81305203D01*
X70039393Y-81257228D01*
X70022598Y-81189407D01*
X70045136Y-81123272D01*
X70090194Y-81084231D01*
X70101949Y-81078241D01*
X70151318Y-81042372D01*
X70151318Y-81042371D01*
X69577734Y-80468787D01*
X69619792Y-80457518D01*
X69745208Y-80385110D01*
X69847610Y-80282708D01*
X69920018Y-80157292D01*
X69931287Y-80115233D01*
X70504871Y-80688818D01*
X70504872Y-80688818D01*
X70540740Y-80639451D01*
X70565998Y-80589881D01*
X70613973Y-80539085D01*
X70681793Y-80522290D01*
X70747928Y-80544827D01*
X70764164Y-80558495D01*
X77350681Y-87145011D01*
X77384166Y-87206334D01*
X77387000Y-87232692D01*
X77387000Y-90018680D01*
X77367315Y-90085719D01*
X77335887Y-90118997D01*
X77273995Y-90163964D01*
X77126466Y-90311493D01*
X77003828Y-90480288D01*
X76997701Y-90492313D01*
X76949725Y-90543108D01*
X76881904Y-90559901D01*
X76815770Y-90537362D01*
X76776732Y-90492308D01*
X76770744Y-90480555D01*
X76770736Y-90480543D01*
X76734872Y-90431180D01*
X76734871Y-90431179D01*
X76161287Y-91004764D01*
X76150018Y-90962708D01*
X76077610Y-90837292D01*
X75975208Y-90734890D01*
X75849792Y-90662482D01*
X75807733Y-90651212D01*
X76381319Y-90077627D01*
X76331951Y-90041759D01*
X76146127Y-89947075D01*
X75947772Y-89882626D01*
X75741779Y-89850000D01*
X75533221Y-89850000D01*
X75327227Y-89882626D01*
X75128872Y-89947075D01*
X74943052Y-90041757D01*
X74893680Y-90077627D01*
X75467266Y-90651212D01*
X75425208Y-90662482D01*
X75299792Y-90734890D01*
X75197390Y-90837292D01*
X75124982Y-90962708D01*
X75113712Y-91004765D01*
X74540127Y-90431180D01*
X74504257Y-90480552D01*
X74409575Y-90666372D01*
X74345126Y-90864727D01*
X74312500Y-91070720D01*
X74312500Y-91279279D01*
X74345126Y-91485272D01*
X74409575Y-91683627D01*
X74504259Y-91869451D01*
X74540127Y-91918818D01*
X74540127Y-91918819D01*
X75113712Y-91345233D01*
X75124982Y-91387292D01*
X75197390Y-91512708D01*
X75299792Y-91615110D01*
X75425208Y-91687518D01*
X75467265Y-91698787D01*
X74893679Y-92272371D01*
X74893680Y-92272372D01*
X74943043Y-92308236D01*
X74943056Y-92308244D01*
X75128872Y-92402924D01*
X75327227Y-92467373D01*
X75533221Y-92500000D01*
X75741779Y-92500000D01*
X75947772Y-92467373D01*
X76146127Y-92402924D01*
X76331951Y-92308240D01*
X76381318Y-92272372D01*
X76381318Y-92272371D01*
X75807734Y-91698787D01*
X75849792Y-91687518D01*
X75975208Y-91615110D01*
X76077610Y-91512708D01*
X76150018Y-91387292D01*
X76161287Y-91345234D01*
X76734871Y-91918818D01*
X76734872Y-91918818D01*
X76770741Y-91869449D01*
X76776731Y-91857694D01*
X76824703Y-91806896D01*
X76892523Y-91790098D01*
X76958659Y-91812632D01*
X76997703Y-91857689D01*
X77003830Y-91869714D01*
X77126465Y-92038505D01*
X77273995Y-92186035D01*
X77442786Y-92308670D01*
X77530616Y-92353421D01*
X77628679Y-92403387D01*
X77628681Y-92403387D01*
X77628684Y-92403389D01*
X77735045Y-92437948D01*
X77827110Y-92467862D01*
X78033176Y-92500500D01*
X78033181Y-92500500D01*
X78241824Y-92500500D01*
X78447889Y-92467862D01*
X78449394Y-92467373D01*
X78646316Y-92403389D01*
X78832214Y-92308670D01*
X79001005Y-92186035D01*
X79148535Y-92038505D01*
X79271170Y-91869714D01*
X79277015Y-91858243D01*
X79324989Y-91807447D01*
X79392810Y-91790651D01*
X79458945Y-91813188D01*
X79497985Y-91858243D01*
X79503828Y-91869712D01*
X79539506Y-91918818D01*
X79626465Y-92038505D01*
X79773995Y-92186035D01*
X79942786Y-92308670D01*
X80030616Y-92353421D01*
X80128679Y-92403387D01*
X80128681Y-92403387D01*
X80128684Y-92403389D01*
X80235045Y-92437948D01*
X80327110Y-92467862D01*
X80533176Y-92500500D01*
X80533181Y-92500500D01*
X80741824Y-92500500D01*
X80947889Y-92467862D01*
X80949394Y-92467373D01*
X81146316Y-92403389D01*
X81332214Y-92308670D01*
X81501005Y-92186035D01*
X81648535Y-92038505D01*
X81771170Y-91869714D01*
X81865889Y-91683816D01*
X81930362Y-91485389D01*
X81940324Y-91422493D01*
X81944011Y-91399216D01*
X92459500Y-91399216D01*
X92459500Y-91600783D01*
X92491030Y-91799852D01*
X92553312Y-91991539D01*
X92577243Y-92038506D01*
X92644818Y-92171129D01*
X92763289Y-92334190D01*
X92905810Y-92476711D01*
X93068871Y-92595182D01*
X93248458Y-92686686D01*
X93248460Y-92686687D01*
X93344303Y-92717828D01*
X93440149Y-92748970D01*
X93532348Y-92763572D01*
X93639217Y-92780500D01*
X93639222Y-92780500D01*
X93840783Y-92780500D01*
X93937289Y-92765214D01*
X94039851Y-92748970D01*
X94231542Y-92686686D01*
X94411129Y-92595182D01*
X94574190Y-92476711D01*
X94716711Y-92334190D01*
X94835182Y-92171129D01*
X94926686Y-91991542D01*
X94988970Y-91799851D01*
X95006762Y-91687518D01*
X95020500Y-91600783D01*
X95020500Y-91399216D01*
X94996455Y-91247409D01*
X94988970Y-91200149D01*
X94946916Y-91070720D01*
X94926687Y-91008460D01*
X94888214Y-90932952D01*
X94835182Y-90828871D01*
X94716711Y-90665810D01*
X94574190Y-90523289D01*
X94411129Y-90404818D01*
X94304522Y-90350499D01*
X94231539Y-90313312D01*
X94039852Y-90251030D01*
X93840783Y-90219500D01*
X93840778Y-90219500D01*
X93639222Y-90219500D01*
X93639217Y-90219500D01*
X93440147Y-90251030D01*
X93248460Y-90313312D01*
X93068870Y-90404818D01*
X93028448Y-90434187D01*
X92905810Y-90523289D01*
X92905808Y-90523291D01*
X92905807Y-90523291D01*
X92763291Y-90665807D01*
X92763291Y-90665808D01*
X92763289Y-90665810D01*
X92732966Y-90707546D01*
X92644818Y-90828870D01*
X92553312Y-91008460D01*
X92491030Y-91200147D01*
X92459500Y-91399216D01*
X81944011Y-91399216D01*
X81947854Y-91374952D01*
X81963000Y-91279324D01*
X81963000Y-91070675D01*
X81930362Y-90864610D01*
X81884791Y-90724358D01*
X81865889Y-90666184D01*
X81865887Y-90666181D01*
X81865887Y-90666179D01*
X81815921Y-90568116D01*
X81771170Y-90480286D01*
X81648535Y-90311495D01*
X81501005Y-90163965D01*
X81332214Y-90041330D01*
X81287761Y-90018680D01*
X81146320Y-89946612D01*
X80947889Y-89882137D01*
X80741824Y-89849500D01*
X80741819Y-89849500D01*
X80533181Y-89849500D01*
X80533176Y-89849500D01*
X80327110Y-89882137D01*
X80128679Y-89946612D01*
X79942785Y-90041330D01*
X79773993Y-90163966D01*
X79626466Y-90311493D01*
X79503830Y-90480286D01*
X79497984Y-90491759D01*
X79450008Y-90542554D01*
X79382187Y-90559348D01*
X79316053Y-90536809D01*
X79277016Y-90491759D01*
X79275803Y-90489380D01*
X79271170Y-90480286D01*
X79148535Y-90311495D01*
X79001005Y-90163965D01*
X79000779Y-90163801D01*
X78939113Y-90118997D01*
X78896448Y-90063667D01*
X78888000Y-90018680D01*
X78888000Y-87333549D01*
X82762000Y-87333549D01*
X82762000Y-87556450D01*
X82762001Y-87556466D01*
X82791094Y-87777452D01*
X82791095Y-87777457D01*
X82791096Y-87777463D01*
X82848790Y-87992780D01*
X82848793Y-87992790D01*
X82934093Y-88198722D01*
X82934095Y-88198726D01*
X83045552Y-88391774D01*
X83045557Y-88391780D01*
X83045558Y-88391782D01*
X83181251Y-88568622D01*
X83181257Y-88568629D01*
X83338870Y-88726242D01*
X83338877Y-88726248D01*
X83422172Y-88790162D01*
X83515726Y-88861948D01*
X83708774Y-88973405D01*
X83914719Y-89058710D01*
X84130037Y-89116404D01*
X84351043Y-89145500D01*
X84351050Y-89145500D01*
X84573950Y-89145500D01*
X84573957Y-89145500D01*
X84794963Y-89116404D01*
X85010281Y-89058710D01*
X85216226Y-88973405D01*
X85409274Y-88861948D01*
X85586124Y-88726247D01*
X85743747Y-88568624D01*
X85879448Y-88391774D01*
X85990905Y-88198726D01*
X86076210Y-87992781D01*
X86133904Y-87777463D01*
X86163000Y-87556457D01*
X86163000Y-87333543D01*
X86133904Y-87112537D01*
X86076210Y-86897219D01*
X85990905Y-86691274D01*
X85879448Y-86498226D01*
X85836873Y-86442741D01*
X85743748Y-86321377D01*
X85743742Y-86321370D01*
X85586129Y-86163757D01*
X85586122Y-86163751D01*
X85409282Y-86028058D01*
X85409280Y-86028057D01*
X85409274Y-86028052D01*
X85216226Y-85916595D01*
X85216222Y-85916593D01*
X85010290Y-85831293D01*
X85010283Y-85831291D01*
X85010281Y-85831290D01*
X84794963Y-85773596D01*
X84794957Y-85773595D01*
X84794952Y-85773594D01*
X84573966Y-85744501D01*
X84573963Y-85744500D01*
X84573957Y-85744500D01*
X84351043Y-85744500D01*
X84351037Y-85744500D01*
X84351033Y-85744501D01*
X84130047Y-85773594D01*
X84130040Y-85773595D01*
X84130037Y-85773596D01*
X83914719Y-85831290D01*
X83914709Y-85831293D01*
X83708777Y-85916593D01*
X83708773Y-85916595D01*
X83515726Y-86028052D01*
X83515717Y-86028058D01*
X83338877Y-86163751D01*
X83338870Y-86163757D01*
X83181257Y-86321370D01*
X83181251Y-86321377D01*
X83045558Y-86498217D01*
X83045552Y-86498226D01*
X82934095Y-86691273D01*
X82934094Y-86691276D01*
X82848793Y-86897209D01*
X82848790Y-86897219D01*
X82791097Y-87112534D01*
X82791094Y-87112547D01*
X82762001Y-87333533D01*
X82762000Y-87333549D01*
X78888000Y-87333549D01*
X78888000Y-86796542D01*
X78868834Y-86700194D01*
X78867060Y-86691274D01*
X78859159Y-86651551D01*
X78803725Y-86517724D01*
X78802922Y-86515473D01*
X78726740Y-86401458D01*
X78726737Y-86401454D01*
X78720455Y-86392052D01*
X78720452Y-86392048D01*
X71685586Y-79357181D01*
X71652101Y-79295858D01*
X71657085Y-79226166D01*
X71698957Y-79170233D01*
X71764421Y-79145816D01*
X71773267Y-79145500D01*
X71923950Y-79145500D01*
X71923957Y-79145500D01*
X72144963Y-79116404D01*
X72360281Y-79058710D01*
X72566226Y-78973405D01*
X72759274Y-78861948D01*
X72936124Y-78726247D01*
X73093747Y-78568624D01*
X73229448Y-78391774D01*
X73340905Y-78198726D01*
X73426210Y-77992781D01*
X73483904Y-77777463D01*
X73499518Y-77658862D01*
X73527783Y-77594969D01*
X73586107Y-77556497D01*
X73655972Y-77555665D01*
X73715196Y-77592737D01*
X73722773Y-77602164D01*
X73755323Y-77646964D01*
X73762051Y-77656224D01*
X73926276Y-77820449D01*
X74114169Y-77956961D01*
X74184487Y-77992790D01*
X74321099Y-78062398D01*
X74321101Y-78062398D01*
X74321104Y-78062400D01*
X74541986Y-78134169D01*
X74660168Y-78152886D01*
X74771371Y-78170500D01*
X74771376Y-78170500D01*
X75003629Y-78170500D01*
X75105002Y-78154443D01*
X75233014Y-78134169D01*
X75453896Y-78062400D01*
X75660831Y-77956961D01*
X75848724Y-77820449D01*
X76012949Y-77656224D01*
X76149461Y-77468331D01*
X76254900Y-77261396D01*
X76326669Y-77040514D01*
X76348026Y-76905666D01*
X76363000Y-76811129D01*
X76363000Y-76578870D01*
X79912000Y-76578870D01*
X79912000Y-76811129D01*
X79948331Y-77040514D01*
X80020101Y-77261400D01*
X80098253Y-77414780D01*
X80125539Y-77468331D01*
X80262051Y-77656224D01*
X80426276Y-77820449D01*
X80614169Y-77956961D01*
X80684487Y-77992790D01*
X80821099Y-78062398D01*
X80821101Y-78062398D01*
X80821104Y-78062400D01*
X81041986Y-78134169D01*
X81160168Y-78152886D01*
X81271371Y-78170500D01*
X81271376Y-78170500D01*
X81503629Y-78170500D01*
X81605002Y-78154443D01*
X81733014Y-78134169D01*
X81953896Y-78062400D01*
X82160831Y-77956961D01*
X82348724Y-77820449D01*
X82512949Y-77656224D01*
X82552225Y-77602164D01*
X82607555Y-77559499D01*
X82677168Y-77553520D01*
X82738963Y-77586125D01*
X82773320Y-77646964D01*
X82775482Y-77658864D01*
X82791096Y-77777463D01*
X82826423Y-77909304D01*
X82848790Y-77992780D01*
X82848793Y-77992790D01*
X82934093Y-78198722D01*
X82934095Y-78198726D01*
X83045552Y-78391774D01*
X83045557Y-78391780D01*
X83045558Y-78391782D01*
X83181251Y-78568622D01*
X83181257Y-78568629D01*
X83338870Y-78726242D01*
X83338876Y-78726247D01*
X83515726Y-78861948D01*
X83708774Y-78973405D01*
X83914719Y-79058710D01*
X84130037Y-79116404D01*
X84351043Y-79145500D01*
X84351050Y-79145500D01*
X84573950Y-79145500D01*
X84573957Y-79145500D01*
X84794963Y-79116404D01*
X85010281Y-79058710D01*
X85216226Y-78973405D01*
X85409274Y-78861948D01*
X85586124Y-78726247D01*
X85743747Y-78568624D01*
X85879448Y-78391774D01*
X85990905Y-78198726D01*
X86076210Y-77992781D01*
X86133904Y-77777463D01*
X86163000Y-77556457D01*
X86163000Y-77333543D01*
X86133904Y-77112537D01*
X86076210Y-76897219D01*
X86056329Y-76849223D01*
X86020027Y-76761581D01*
X85990905Y-76691274D01*
X85879448Y-76498226D01*
X85822617Y-76424162D01*
X85743748Y-76321377D01*
X85743742Y-76321370D01*
X85586129Y-76163757D01*
X85586122Y-76163751D01*
X85409282Y-76028058D01*
X85409280Y-76028057D01*
X85409274Y-76028052D01*
X85216226Y-75916595D01*
X85216222Y-75916593D01*
X85010290Y-75831293D01*
X85010283Y-75831291D01*
X85010281Y-75831290D01*
X84794963Y-75773596D01*
X84794957Y-75773595D01*
X84794952Y-75773594D01*
X84573966Y-75744501D01*
X84573963Y-75744500D01*
X84573957Y-75744500D01*
X84351043Y-75744500D01*
X84351037Y-75744500D01*
X84351033Y-75744501D01*
X84130047Y-75773594D01*
X84130040Y-75773595D01*
X84130037Y-75773596D01*
X83994171Y-75810001D01*
X83914719Y-75831290D01*
X83914709Y-75831293D01*
X83708777Y-75916593D01*
X83708773Y-75916595D01*
X83515726Y-76028052D01*
X83515717Y-76028058D01*
X83338877Y-76163751D01*
X83338870Y-76163757D01*
X83181257Y-76321370D01*
X83181251Y-76321377D01*
X83059345Y-76480249D01*
X83002917Y-76521452D01*
X82933171Y-76525607D01*
X82872251Y-76491395D01*
X82839498Y-76429677D01*
X82838496Y-76424160D01*
X82826669Y-76349485D01*
X82778260Y-76200500D01*
X82754900Y-76128604D01*
X82754898Y-76128601D01*
X82754898Y-76128599D01*
X82690796Y-76002794D01*
X82649461Y-75921669D01*
X82512949Y-75733776D01*
X82348724Y-75569551D01*
X82160831Y-75433039D01*
X82101282Y-75402697D01*
X81953900Y-75327601D01*
X81733014Y-75255831D01*
X81503629Y-75219500D01*
X81503624Y-75219500D01*
X81271376Y-75219500D01*
X81271371Y-75219500D01*
X81041985Y-75255831D01*
X80821099Y-75327601D01*
X80614168Y-75433039D01*
X80426273Y-75569553D01*
X80262053Y-75733773D01*
X80125539Y-75921668D01*
X80020101Y-76128599D01*
X79948331Y-76349485D01*
X79912000Y-76578870D01*
X76363000Y-76578870D01*
X76338496Y-76424160D01*
X76326669Y-76349486D01*
X76254900Y-76128604D01*
X76254898Y-76128601D01*
X76254898Y-76128599D01*
X76190796Y-76002794D01*
X76149461Y-75921669D01*
X76012949Y-75733776D01*
X75848724Y-75569551D01*
X75660831Y-75433039D01*
X75601282Y-75402697D01*
X75453900Y-75327601D01*
X75233014Y-75255831D01*
X75003629Y-75219500D01*
X75003624Y-75219500D01*
X74771376Y-75219500D01*
X74771371Y-75219500D01*
X74541985Y-75255831D01*
X74321099Y-75327601D01*
X74114168Y-75433039D01*
X73926273Y-75569553D01*
X73762053Y-75733773D01*
X73625539Y-75921668D01*
X73520101Y-76128599D01*
X73448331Y-76349484D01*
X73436503Y-76424162D01*
X73406573Y-76487296D01*
X73347262Y-76524227D01*
X73277399Y-76523229D01*
X73219167Y-76484619D01*
X73215654Y-76480249D01*
X73093748Y-76321377D01*
X73093742Y-76321370D01*
X72936129Y-76163757D01*
X72936122Y-76163751D01*
X72759282Y-76028058D01*
X72759280Y-76028057D01*
X72759274Y-76028052D01*
X72566226Y-75916595D01*
X72566222Y-75916593D01*
X72360290Y-75831293D01*
X72360283Y-75831291D01*
X72360281Y-75831290D01*
X72144963Y-75773596D01*
X72144957Y-75773595D01*
X72144952Y-75773594D01*
X71923966Y-75744501D01*
X71923963Y-75744500D01*
X71923957Y-75744500D01*
X71701043Y-75744500D01*
X71701037Y-75744500D01*
X71701033Y-75744501D01*
X71480047Y-75773594D01*
X71480040Y-75773595D01*
X71480037Y-75773596D01*
X71344171Y-75810001D01*
X71264719Y-75831290D01*
X71264709Y-75831293D01*
X71058777Y-75916593D01*
X71058773Y-75916595D01*
X70865726Y-76028052D01*
X70865717Y-76028058D01*
X70688877Y-76163751D01*
X70688870Y-76163757D01*
X70531257Y-76321370D01*
X70531251Y-76321377D01*
X70395558Y-76498217D01*
X70395552Y-76498226D01*
X70284095Y-76691273D01*
X70284093Y-76691277D01*
X70198793Y-76897209D01*
X70198790Y-76897219D01*
X70145144Y-77097432D01*
X70141097Y-77112534D01*
X70141094Y-77112547D01*
X70112001Y-77333533D01*
X70112000Y-77333549D01*
X70112000Y-77484233D01*
X70092315Y-77551272D01*
X70039511Y-77597027D01*
X69970353Y-77606971D01*
X69906797Y-77577946D01*
X69900319Y-77571914D01*
X65285450Y-72957045D01*
X65241111Y-72927420D01*
X65211550Y-72907669D01*
X65162532Y-72874916D01*
X65162531Y-72874915D01*
X65162529Y-72874914D01*
X65162527Y-72874913D01*
X65025954Y-72818343D01*
X65025944Y-72818340D01*
X64880957Y-72789500D01*
X64880955Y-72789500D01*
X57020200Y-72789500D01*
X56953161Y-72769815D01*
X56907406Y-72717011D01*
X56897462Y-72647853D01*
X56901124Y-72630905D01*
X56932597Y-72522573D01*
X56932598Y-72522567D01*
X56934209Y-72502094D01*
X56935500Y-72485694D01*
X56935500Y-72078870D01*
X73412000Y-72078870D01*
X73412000Y-72311129D01*
X73448331Y-72540514D01*
X73520101Y-72761400D01*
X73625539Y-72968331D01*
X73762051Y-73156224D01*
X73926276Y-73320449D01*
X74114169Y-73456961D01*
X74211936Y-73506776D01*
X74321099Y-73562398D01*
X74321101Y-73562398D01*
X74321104Y-73562400D01*
X74541986Y-73634169D01*
X74660168Y-73652886D01*
X74771371Y-73670500D01*
X74771376Y-73670500D01*
X75003629Y-73670500D01*
X75105002Y-73654443D01*
X75233014Y-73634169D01*
X75453896Y-73562400D01*
X75660831Y-73456961D01*
X75848724Y-73320449D01*
X76012949Y-73156224D01*
X76149461Y-72968331D01*
X76254900Y-72761396D01*
X76326669Y-72540514D01*
X76358823Y-72337500D01*
X76363000Y-72311129D01*
X76363000Y-72078870D01*
X76331757Y-71881613D01*
X76326669Y-71849486D01*
X76254900Y-71628604D01*
X76254898Y-71628601D01*
X76254898Y-71628599D01*
X76189667Y-71500577D01*
X76149461Y-71421669D01*
X76012949Y-71233776D01*
X75848724Y-71069551D01*
X75660831Y-70933039D01*
X75453900Y-70827601D01*
X75233014Y-70755831D01*
X75003629Y-70719500D01*
X75003624Y-70719500D01*
X74771376Y-70719500D01*
X74771371Y-70719500D01*
X74541985Y-70755831D01*
X74321099Y-70827601D01*
X74114168Y-70933039D01*
X73926273Y-71069553D01*
X73762053Y-71233773D01*
X73625539Y-71421668D01*
X73520101Y-71628599D01*
X73448331Y-71849485D01*
X73412000Y-72078870D01*
X56935500Y-72078870D01*
X56935500Y-72054306D01*
X56932598Y-72017431D01*
X56886744Y-71859602D01*
X56858958Y-71812619D01*
X56841778Y-71744896D01*
X56863938Y-71678634D01*
X56918404Y-71634871D01*
X56965692Y-71625500D01*
X59664061Y-71625500D01*
X59724483Y-71613481D01*
X59784906Y-71601463D01*
X59818246Y-71587652D01*
X59898740Y-71554312D01*
X59973236Y-71504534D01*
X60001187Y-71485858D01*
X60088312Y-71398733D01*
X60088314Y-71398729D01*
X64737819Y-66749224D01*
X64799142Y-66715739D01*
X64868834Y-66720723D01*
X64924767Y-66762595D01*
X64949184Y-66828059D01*
X64949500Y-66836905D01*
X64949500Y-66852351D01*
X64981522Y-67054534D01*
X65044781Y-67249223D01*
X65066563Y-67291971D01*
X65127867Y-67412287D01*
X65137715Y-67431613D01*
X65258028Y-67597213D01*
X65402786Y-67741971D01*
X65514266Y-67822964D01*
X65568390Y-67862287D01*
X65684607Y-67921503D01*
X65750776Y-67955218D01*
X65750778Y-67955218D01*
X65750781Y-67955220D01*
X65855137Y-67989127D01*
X65945465Y-68018477D01*
X65992067Y-68025858D01*
X66147648Y-68050500D01*
X66147649Y-68050500D01*
X66352351Y-68050500D01*
X66352352Y-68050500D01*
X66554534Y-68018477D01*
X66749219Y-67955220D01*
X66931610Y-67862287D01*
X67033010Y-67788616D01*
X67097213Y-67741971D01*
X67097215Y-67741968D01*
X67097219Y-67741966D01*
X67241966Y-67597219D01*
X67241968Y-67597215D01*
X67241971Y-67597213D01*
X67299562Y-67517944D01*
X67362287Y-67431610D01*
X67455220Y-67249219D01*
X67518477Y-67054534D01*
X67550500Y-66852352D01*
X67550500Y-66647648D01*
X67518477Y-66445466D01*
X67516863Y-66440500D01*
X67481757Y-66332454D01*
X67455220Y-66250781D01*
X67455218Y-66250778D01*
X67455218Y-66250776D01*
X67406443Y-66155051D01*
X67362287Y-66068390D01*
X67352164Y-66054457D01*
X67241971Y-65902786D01*
X67097213Y-65758028D01*
X66927669Y-65634849D01*
X66928884Y-65633176D01*
X66887831Y-65587792D01*
X66875500Y-65533885D01*
X66875500Y-64697262D01*
X66895185Y-64630223D01*
X66947989Y-64584468D01*
X67017147Y-64574524D01*
X67080703Y-64603549D01*
X67087180Y-64609580D01*
X70416331Y-67938732D01*
X70416332Y-67938733D01*
X70468560Y-67990961D01*
X70503458Y-68025859D01*
X70605897Y-68094307D01*
X70605901Y-68094309D01*
X70605904Y-68094311D01*
X70610004Y-68096009D01*
X70612953Y-68097231D01*
X70667356Y-68141072D01*
X70689421Y-68207366D01*
X70689500Y-68211791D01*
X70689500Y-68437869D01*
X70689501Y-68437876D01*
X70695908Y-68497483D01*
X70746202Y-68632328D01*
X70746206Y-68632335D01*
X70832452Y-68747544D01*
X70832455Y-68747547D01*
X70947664Y-68833793D01*
X70947671Y-68833797D01*
X71082517Y-68884091D01*
X71082516Y-68884091D01*
X71089444Y-68884835D01*
X71142127Y-68890500D01*
X72937872Y-68890499D01*
X72997483Y-68884091D01*
X73132331Y-68833796D01*
X73247546Y-68747546D01*
X73333796Y-68632331D01*
X73384091Y-68497483D01*
X73390500Y-68437873D01*
X73390500Y-68414500D01*
X73410185Y-68347461D01*
X73462989Y-68301706D01*
X73514500Y-68290500D01*
X75485501Y-68290500D01*
X75552540Y-68310185D01*
X75598295Y-68362989D01*
X75609501Y-68414500D01*
X75609501Y-68437876D01*
X75615908Y-68497483D01*
X75666202Y-68632328D01*
X75666206Y-68632335D01*
X75752452Y-68747544D01*
X75752455Y-68747547D01*
X75867664Y-68833793D01*
X75867671Y-68833797D01*
X76002517Y-68884091D01*
X76002516Y-68884091D01*
X76009444Y-68884835D01*
X76062127Y-68890500D01*
X77857872Y-68890499D01*
X77917483Y-68884091D01*
X78052331Y-68833796D01*
X78167546Y-68747546D01*
X78253796Y-68632331D01*
X78302810Y-68500916D01*
X78344681Y-68444984D01*
X78410145Y-68420566D01*
X78478418Y-68435417D01*
X78506673Y-68456569D01*
X78620213Y-68570109D01*
X78792179Y-68695048D01*
X78792181Y-68695049D01*
X78792184Y-68695051D01*
X78981588Y-68791557D01*
X79183757Y-68857246D01*
X79393713Y-68890500D01*
X79393714Y-68890500D01*
X79606286Y-68890500D01*
X79606287Y-68890500D01*
X79816243Y-68857246D01*
X80018412Y-68791557D01*
X80207816Y-68695051D01*
X80229789Y-68679086D01*
X80379786Y-68570109D01*
X80379788Y-68570106D01*
X80379792Y-68570104D01*
X80530104Y-68419792D01*
X80530106Y-68419788D01*
X80530109Y-68419786D01*
X80655048Y-68247820D01*
X80655047Y-68247820D01*
X80655051Y-68247816D01*
X80659514Y-68239054D01*
X80707488Y-68188259D01*
X80775308Y-68171463D01*
X80841444Y-68193999D01*
X80880486Y-68239056D01*
X80884951Y-68247820D01*
X81009890Y-68419786D01*
X81160213Y-68570109D01*
X81332179Y-68695048D01*
X81332181Y-68695049D01*
X81332184Y-68695051D01*
X81521588Y-68791557D01*
X81723757Y-68857246D01*
X81933713Y-68890500D01*
X81933714Y-68890500D01*
X82146286Y-68890500D01*
X82146287Y-68890500D01*
X82356243Y-68857246D01*
X82558412Y-68791557D01*
X82747816Y-68695051D01*
X82769789Y-68679086D01*
X82919786Y-68570109D01*
X82919788Y-68570106D01*
X82919792Y-68570104D01*
X83070104Y-68419792D01*
X83070106Y-68419788D01*
X83070109Y-68419786D01*
X83195048Y-68247820D01*
X83195047Y-68247820D01*
X83195051Y-68247816D01*
X83199514Y-68239054D01*
X83247488Y-68188259D01*
X83315308Y-68171463D01*
X83381444Y-68193999D01*
X83420486Y-68239056D01*
X83424951Y-68247820D01*
X83549890Y-68419786D01*
X83700213Y-68570109D01*
X83872179Y-68695048D01*
X83872181Y-68695049D01*
X83872184Y-68695051D01*
X84061588Y-68791557D01*
X84263757Y-68857246D01*
X84473713Y-68890500D01*
X84473714Y-68890500D01*
X84686286Y-68890500D01*
X84686287Y-68890500D01*
X84796111Y-68873105D01*
X84901055Y-68856484D01*
X84901313Y-68858119D01*
X84963880Y-68861231D01*
X85020709Y-68901879D01*
X85046541Y-68966798D01*
X85033174Y-69035377D01*
X85010759Y-69066007D01*
X82754494Y-71322272D01*
X82693171Y-71355757D01*
X82623479Y-71350773D01*
X82567546Y-71308901D01*
X82566495Y-71307476D01*
X82562772Y-71302352D01*
X82512949Y-71233776D01*
X82348724Y-71069551D01*
X82160831Y-70933039D01*
X81953900Y-70827601D01*
X81733014Y-70755831D01*
X81503629Y-70719500D01*
X81503624Y-70719500D01*
X81271376Y-70719500D01*
X81271371Y-70719500D01*
X81041985Y-70755831D01*
X80821099Y-70827601D01*
X80614168Y-70933039D01*
X80426273Y-71069553D01*
X80262053Y-71233773D01*
X80125539Y-71421668D01*
X80020101Y-71628599D01*
X79948331Y-71849485D01*
X79912000Y-72078870D01*
X79912000Y-72311129D01*
X79948331Y-72540514D01*
X80020101Y-72761400D01*
X80125539Y-72968331D01*
X80262051Y-73156224D01*
X80426276Y-73320449D01*
X80614169Y-73456961D01*
X80711936Y-73506776D01*
X80821099Y-73562398D01*
X80821101Y-73562398D01*
X80821104Y-73562400D01*
X81041986Y-73634169D01*
X81160168Y-73652886D01*
X81271371Y-73670500D01*
X81271376Y-73670500D01*
X81503629Y-73670500D01*
X81605002Y-73654443D01*
X81733014Y-73634169D01*
X81953896Y-73562400D01*
X82160831Y-73456961D01*
X82348724Y-73320449D01*
X82512949Y-73156224D01*
X82649461Y-72968331D01*
X82690287Y-72888204D01*
X82695296Y-72882901D01*
X82697453Y-72875936D01*
X82718957Y-72857848D01*
X82738261Y-72837409D01*
X82746655Y-72834550D01*
X82750923Y-72830961D01*
X82767266Y-72827531D01*
X82784930Y-72821516D01*
X82792817Y-72820500D01*
X82827965Y-72820500D01*
X82888387Y-72808481D01*
X82948810Y-72796463D01*
X82948813Y-72796461D01*
X82948816Y-72796461D01*
X82982145Y-72782654D01*
X82982144Y-72782654D01*
X82982150Y-72782652D01*
X83062644Y-72749312D01*
X83127158Y-72706204D01*
X83165091Y-72680858D01*
X83252216Y-72593733D01*
X83252216Y-72593731D01*
X83262424Y-72583524D01*
X83262425Y-72583521D01*
X87685858Y-68160091D01*
X87754312Y-68057643D01*
X87781932Y-67990961D01*
X87801463Y-67943810D01*
X87811073Y-67895495D01*
X87825501Y-67822964D01*
X87825501Y-67699751D01*
X87825501Y-67694641D01*
X87825500Y-67694615D01*
X87825500Y-60038394D01*
X87825411Y-60037949D01*
X87803439Y-59927483D01*
X87801463Y-59917548D01*
X87799982Y-59913974D01*
X87798008Y-59904345D01*
X87800459Y-59874996D01*
X87800197Y-59845557D01*
X87803333Y-59840579D01*
X87803823Y-59834717D01*
X87821744Y-59811362D01*
X87837446Y-59786445D01*
X87842777Y-59783952D01*
X87846358Y-59779287D01*
X87874061Y-59769328D01*
X87900741Y-59756856D01*
X87906571Y-59757641D01*
X87912108Y-59755651D01*
X87940804Y-59762253D01*
X87969986Y-59766184D01*
X87976065Y-59770364D01*
X87980199Y-59771316D01*
X87985824Y-59777076D01*
X88007161Y-59791751D01*
X92838181Y-64622771D01*
X92871666Y-64684094D01*
X92874500Y-64710452D01*
X92874500Y-72525500D01*
X92854815Y-72592539D01*
X92802011Y-72638294D01*
X92750501Y-72649500D01*
X92602130Y-72649500D01*
X92602123Y-72649501D01*
X92542516Y-72655908D01*
X92407671Y-72706202D01*
X92407664Y-72706206D01*
X92292455Y-72792452D01*
X92292452Y-72792455D01*
X92206206Y-72907664D01*
X92206204Y-72907669D01*
X92155908Y-73042517D01*
X92149501Y-73102116D01*
X92149501Y-73102123D01*
X92149500Y-73102135D01*
X92149500Y-74897870D01*
X92149501Y-74897876D01*
X92155908Y-74957483D01*
X92206202Y-75092328D01*
X92206206Y-75092335D01*
X92292452Y-75207544D01*
X92292455Y-75207547D01*
X92407664Y-75293793D01*
X92407671Y-75293797D01*
X92542517Y-75344091D01*
X92542516Y-75344091D01*
X92549444Y-75344835D01*
X92602127Y-75350500D01*
X93737769Y-75350499D01*
X93804808Y-75370184D01*
X93825450Y-75386818D01*
X94014181Y-75575549D01*
X94047666Y-75636872D01*
X94050500Y-75663230D01*
X94050500Y-78486000D01*
X94030815Y-78553039D01*
X93978011Y-78598794D01*
X93926500Y-78610000D01*
X93750000Y-78610000D01*
X93750000Y-79526988D01*
X93692993Y-79494075D01*
X93565826Y-79460000D01*
X93434174Y-79460000D01*
X93307007Y-79494075D01*
X93250000Y-79526988D01*
X93250000Y-78610000D01*
X92602155Y-78610000D01*
X92542627Y-78616401D01*
X92542620Y-78616403D01*
X92407913Y-78666645D01*
X92407906Y-78666649D01*
X92292812Y-78752809D01*
X92292809Y-78752812D01*
X92206649Y-78867906D01*
X92206645Y-78867913D01*
X92156403Y-79002620D01*
X92156401Y-79002627D01*
X92150000Y-79062155D01*
X92150000Y-79710000D01*
X93066988Y-79710000D01*
X93034075Y-79767007D01*
X93000000Y-79894174D01*
X93000000Y-80025826D01*
X93034075Y-80152993D01*
X93066988Y-80210000D01*
X92150000Y-80210000D01*
X92150000Y-80857844D01*
X92156401Y-80917372D01*
X92156403Y-80917379D01*
X92206645Y-81052086D01*
X92206649Y-81052093D01*
X92292809Y-81167187D01*
X92292812Y-81167190D01*
X92407906Y-81253350D01*
X92407913Y-81253354D01*
X92539470Y-81302422D01*
X92595404Y-81344293D01*
X92619821Y-81409758D01*
X92604969Y-81478031D01*
X92583819Y-81506285D01*
X92469889Y-81620215D01*
X92344951Y-81792179D01*
X92248444Y-81981585D01*
X92182753Y-82183760D01*
X92149500Y-82393713D01*
X92149500Y-82606286D01*
X92173115Y-82755389D01*
X92182754Y-82816243D01*
X92242465Y-83000015D01*
X92248444Y-83018414D01*
X92344951Y-83207820D01*
X92469890Y-83379786D01*
X92469896Y-83379792D01*
X92620208Y-83530104D01*
X92698384Y-83586902D01*
X92701725Y-83591233D01*
X92706703Y-83593507D01*
X92722833Y-83618606D01*
X92741051Y-83642231D01*
X92742304Y-83648904D01*
X92744477Y-83652285D01*
X92749500Y-83687220D01*
X92749500Y-83877769D01*
X92729815Y-83944808D01*
X92713181Y-83965450D01*
X88987625Y-87691006D01*
X88926302Y-87724491D01*
X88880546Y-87725798D01*
X88840783Y-87719500D01*
X88840778Y-87719500D01*
X88639222Y-87719500D01*
X88639217Y-87719500D01*
X88440147Y-87751030D01*
X88248460Y-87813312D01*
X88068870Y-87904818D01*
X87975838Y-87972410D01*
X87905810Y-88023289D01*
X87905808Y-88023291D01*
X87905807Y-88023291D01*
X87763291Y-88165807D01*
X87763291Y-88165808D01*
X87763289Y-88165810D01*
X87733941Y-88206204D01*
X87644818Y-88328870D01*
X87553312Y-88508460D01*
X87491030Y-88700147D01*
X87459500Y-88899216D01*
X87459500Y-89100783D01*
X87491030Y-89299852D01*
X87553312Y-89491539D01*
X87614159Y-89610957D01*
X87644818Y-89671129D01*
X87763289Y-89834190D01*
X87905810Y-89976711D01*
X88068871Y-90095182D01*
X88218467Y-90171405D01*
X88248460Y-90186687D01*
X88314077Y-90208007D01*
X88440149Y-90248970D01*
X88532348Y-90263572D01*
X88639217Y-90280500D01*
X88639222Y-90280500D01*
X88840783Y-90280500D01*
X88937289Y-90265214D01*
X89039851Y-90248970D01*
X89231542Y-90186686D01*
X89411129Y-90095182D01*
X89574190Y-89976711D01*
X89716711Y-89834190D01*
X89835182Y-89671129D01*
X89926686Y-89491542D01*
X89988970Y-89299851D01*
X90013417Y-89145498D01*
X90020500Y-89100783D01*
X90020500Y-88899226D01*
X90020500Y-88899222D01*
X90014200Y-88859450D01*
X90023153Y-88790162D01*
X90048989Y-88752377D01*
X92247821Y-86553544D01*
X92309142Y-86520061D01*
X92378834Y-86525045D01*
X92434767Y-86566917D01*
X92459184Y-86632381D01*
X92459500Y-86641227D01*
X92459500Y-87327870D01*
X92459501Y-87327876D01*
X92465908Y-87387483D01*
X92516202Y-87522328D01*
X92516206Y-87522335D01*
X92602452Y-87637544D01*
X92602455Y-87637547D01*
X92717664Y-87723793D01*
X92717671Y-87723797D01*
X92852517Y-87774091D01*
X92852516Y-87774091D01*
X92859444Y-87774835D01*
X92912127Y-87780500D01*
X94567872Y-87780499D01*
X94627483Y-87774091D01*
X94762331Y-87723796D01*
X94877546Y-87637546D01*
X94963796Y-87522331D01*
X95014091Y-87387483D01*
X95020500Y-87327873D01*
X95020499Y-85672128D01*
X95014091Y-85612517D01*
X95005581Y-85589701D01*
X94963797Y-85477671D01*
X94963793Y-85477664D01*
X94877547Y-85362455D01*
X94877544Y-85362452D01*
X94762335Y-85276206D01*
X94762328Y-85276202D01*
X94627482Y-85225908D01*
X94627483Y-85225908D01*
X94567883Y-85219501D01*
X94567881Y-85219500D01*
X94567873Y-85219500D01*
X94567865Y-85219500D01*
X93881229Y-85219500D01*
X93814190Y-85199815D01*
X93768435Y-85147011D01*
X93758491Y-85077853D01*
X93787516Y-85014297D01*
X93793548Y-85007819D01*
X94082950Y-84718417D01*
X94082950Y-84718416D01*
X94082952Y-84718415D01*
X94110205Y-84677627D01*
X94165084Y-84595495D01*
X94206729Y-84494955D01*
X94221659Y-84458912D01*
X94250500Y-84313917D01*
X94250500Y-84166082D01*
X94250500Y-83687220D01*
X94270185Y-83620181D01*
X94301614Y-83586902D01*
X94379792Y-83530104D01*
X94530104Y-83379792D01*
X94530106Y-83379788D01*
X94530109Y-83379786D01*
X94655048Y-83207820D01*
X94655047Y-83207820D01*
X94655051Y-83207816D01*
X94751557Y-83018412D01*
X94817246Y-82816243D01*
X94850500Y-82606287D01*
X94850500Y-82393713D01*
X94835382Y-82298268D01*
X94844336Y-82228979D01*
X94870171Y-82191195D01*
X95383952Y-81677416D01*
X95448144Y-81581344D01*
X95466084Y-81554495D01*
X95522658Y-81417913D01*
X95537728Y-81342151D01*
X95551500Y-81272920D01*
X95551500Y-75227079D01*
X95522659Y-75082092D01*
X95522658Y-75082091D01*
X95522658Y-75082087D01*
X95491004Y-75005668D01*
X95466085Y-74945507D01*
X95434259Y-74897876D01*
X95429609Y-74890916D01*
X95429608Y-74890914D01*
X95429607Y-74890912D01*
X95383953Y-74822585D01*
X95383947Y-74822578D01*
X94886818Y-74325449D01*
X94853333Y-74264126D01*
X94850499Y-74237768D01*
X94850499Y-73102129D01*
X94850498Y-73102123D01*
X94850497Y-73102116D01*
X94844091Y-73042517D01*
X94831500Y-73008760D01*
X94793796Y-72907669D01*
X94793793Y-72907664D01*
X94707547Y-72792455D01*
X94707544Y-72792452D01*
X94592335Y-72706206D01*
X94592328Y-72706202D01*
X94457482Y-72655908D01*
X94457483Y-72655908D01*
X94397883Y-72649501D01*
X94397881Y-72649500D01*
X94397873Y-72649500D01*
X94397865Y-72649500D01*
X94249500Y-72649500D01*
X94182461Y-72629815D01*
X94136706Y-72577011D01*
X94125500Y-72525500D01*
X94125500Y-64338393D01*
X94125499Y-64338389D01*
X94101463Y-64217548D01*
X94074879Y-64153368D01*
X94068023Y-64136817D01*
X94054314Y-64103719D01*
X94054313Y-64103717D01*
X94042379Y-64085857D01*
X94019267Y-64051267D01*
X93985858Y-64001267D01*
X93898733Y-63914142D01*
X93898729Y-63914139D01*
X87257076Y-57272486D01*
X91789500Y-57272486D01*
X91789500Y-57567513D01*
X91820212Y-57800783D01*
X91828007Y-57859993D01*
X91872171Y-58024815D01*
X91904361Y-58144951D01*
X91904364Y-58144961D01*
X92017254Y-58417500D01*
X92017258Y-58417510D01*
X92164761Y-58672993D01*
X92344352Y-58907040D01*
X92344358Y-58907047D01*
X92552952Y-59115641D01*
X92552959Y-59115647D01*
X92787006Y-59295238D01*
X93042489Y-59442741D01*
X93042490Y-59442741D01*
X93042493Y-59442743D01*
X93315048Y-59555639D01*
X93600007Y-59631993D01*
X93892494Y-59670500D01*
X93892501Y-59670500D01*
X94187499Y-59670500D01*
X94187506Y-59670500D01*
X94479993Y-59631993D01*
X94764952Y-59555639D01*
X95037507Y-59442743D01*
X95292994Y-59295238D01*
X95527042Y-59115646D01*
X95735646Y-58907042D01*
X95915238Y-58672994D01*
X96062743Y-58417507D01*
X96175639Y-58144952D01*
X96251993Y-57859993D01*
X96290500Y-57567506D01*
X96290500Y-57272494D01*
X96251993Y-56980007D01*
X96175639Y-56695048D01*
X96171880Y-56685974D01*
X96083295Y-56472111D01*
X96062743Y-56422493D01*
X95915238Y-56167006D01*
X95825212Y-56049682D01*
X95735647Y-55932959D01*
X95735641Y-55932952D01*
X95527047Y-55724358D01*
X95527040Y-55724352D01*
X95292993Y-55544761D01*
X95037510Y-55397258D01*
X95037500Y-55397254D01*
X94764961Y-55284364D01*
X94764954Y-55284362D01*
X94764952Y-55284361D01*
X94479993Y-55208007D01*
X94431113Y-55201571D01*
X94187513Y-55169500D01*
X94187506Y-55169500D01*
X93892494Y-55169500D01*
X93892486Y-55169500D01*
X93614085Y-55206153D01*
X93600007Y-55208007D01*
X93441987Y-55250348D01*
X93315048Y-55284361D01*
X93315038Y-55284364D01*
X93042499Y-55397254D01*
X93042489Y-55397258D01*
X92787006Y-55544761D01*
X92552959Y-55724352D01*
X92552952Y-55724358D01*
X92344358Y-55932952D01*
X92344352Y-55932959D01*
X92164761Y-56167006D01*
X92017258Y-56422489D01*
X92017254Y-56422499D01*
X91904364Y-56695038D01*
X91904361Y-56695048D01*
X91830119Y-56972127D01*
X91828008Y-56980004D01*
X91828006Y-56980015D01*
X91789500Y-57272486D01*
X87257076Y-57272486D01*
X86255860Y-56271270D01*
X86255858Y-56271267D01*
X86168733Y-56184142D01*
X86117509Y-56149915D01*
X86066286Y-56115688D01*
X85974851Y-56077815D01*
X85952452Y-56068537D01*
X85879292Y-56053985D01*
X85875776Y-56053285D01*
X85875766Y-56053283D01*
X85842013Y-56046569D01*
X85831607Y-56044500D01*
X85831606Y-56044500D01*
X75139452Y-56044500D01*
X75072413Y-56024815D01*
X75026658Y-55972011D01*
X75016714Y-55902853D01*
X75045739Y-55839297D01*
X75051771Y-55832819D01*
X89497771Y-41386818D01*
X89559094Y-41353333D01*
X89585452Y-41350499D01*
X90897871Y-41350499D01*
X90897872Y-41350499D01*
X90957483Y-41344091D01*
X91092331Y-41293796D01*
X91207546Y-41207546D01*
X91293796Y-41092331D01*
X91344091Y-40957483D01*
X91350500Y-40897873D01*
X91350499Y-39102128D01*
X91344091Y-39042517D01*
X91297618Y-38917917D01*
X91293797Y-38907671D01*
X91293793Y-38907664D01*
X91207547Y-38792455D01*
X91207544Y-38792452D01*
X91092335Y-38706206D01*
X91092328Y-38706202D01*
X90957482Y-38655908D01*
X90957483Y-38655908D01*
X90897883Y-38649501D01*
X90897881Y-38649500D01*
X90897873Y-38649500D01*
X90897865Y-38649500D01*
X89762230Y-38649500D01*
X89695191Y-38629815D01*
X89674549Y-38613181D01*
X89485819Y-38424451D01*
X89452334Y-38363128D01*
X89449500Y-38336770D01*
X89449500Y-37249000D01*
X89469185Y-37181961D01*
X89521989Y-37136206D01*
X89573500Y-37125000D01*
X89750000Y-37125000D01*
X89750000Y-36208012D01*
X89807007Y-36240925D01*
X89934174Y-36275000D01*
X90065826Y-36275000D01*
X90192993Y-36240925D01*
X90250000Y-36208012D01*
X90250000Y-37125000D01*
X90897828Y-37125000D01*
X90897844Y-37124999D01*
X90957372Y-37118598D01*
X90957379Y-37118596D01*
X91092086Y-37068354D01*
X91092093Y-37068350D01*
X91207187Y-36982190D01*
X91207190Y-36982187D01*
X91293350Y-36867093D01*
X91293354Y-36867086D01*
X91343596Y-36732379D01*
X91343598Y-36732372D01*
X91349999Y-36672844D01*
X91350000Y-36672827D01*
X91350000Y-36025000D01*
X90433012Y-36025000D01*
X90465925Y-35967993D01*
X90500000Y-35840826D01*
X90500000Y-35709174D01*
X90465925Y-35582007D01*
X90433012Y-35525000D01*
X91350000Y-35525000D01*
X91350000Y-34877172D01*
X91349999Y-34877155D01*
X91343598Y-34817627D01*
X91343596Y-34817620D01*
X91293354Y-34682913D01*
X91293350Y-34682906D01*
X91207190Y-34567812D01*
X91207187Y-34567809D01*
X91092093Y-34481649D01*
X91092088Y-34481646D01*
X90960528Y-34432577D01*
X90904595Y-34390705D01*
X90880178Y-34325241D01*
X90895030Y-34256968D01*
X90916175Y-34228720D01*
X91030104Y-34114792D01*
X91155051Y-33942816D01*
X91251557Y-33753412D01*
X91317246Y-33551243D01*
X91350500Y-33341287D01*
X91350500Y-33128713D01*
X91317246Y-32918757D01*
X91251557Y-32716588D01*
X91155051Y-32527184D01*
X91155049Y-32527181D01*
X91155048Y-32527179D01*
X91030109Y-32355213D01*
X90879794Y-32204898D01*
X90879788Y-32204893D01*
X90801615Y-32148097D01*
X90758949Y-32092767D01*
X90750500Y-32047779D01*
X90750500Y-28399216D01*
X92459500Y-28399216D01*
X92459500Y-28600783D01*
X92491030Y-28799852D01*
X92553312Y-28991539D01*
X92641083Y-29163799D01*
X92644818Y-29171129D01*
X92763289Y-29334190D01*
X92905810Y-29476711D01*
X93068871Y-29595182D01*
X93165691Y-29644514D01*
X93248460Y-29686687D01*
X93344303Y-29717828D01*
X93440149Y-29748970D01*
X93532348Y-29763572D01*
X93639217Y-29780500D01*
X93639222Y-29780500D01*
X93840783Y-29780500D01*
X93937289Y-29765214D01*
X94039851Y-29748970D01*
X94231542Y-29686686D01*
X94411129Y-29595182D01*
X94574190Y-29476711D01*
X94716711Y-29334190D01*
X94835182Y-29171129D01*
X94926686Y-28991542D01*
X94988970Y-28799851D01*
X95016664Y-28625000D01*
X95020500Y-28600783D01*
X95020500Y-28399216D01*
X94999990Y-28269725D01*
X94988970Y-28200149D01*
X94945546Y-28066504D01*
X94926687Y-28008460D01*
X94885260Y-27927155D01*
X94835182Y-27828871D01*
X94716711Y-27665810D01*
X94574190Y-27523289D01*
X94411129Y-27404818D01*
X94315607Y-27356147D01*
X94231539Y-27313312D01*
X94039852Y-27251030D01*
X93840783Y-27219500D01*
X93840778Y-27219500D01*
X93639222Y-27219500D01*
X93639217Y-27219500D01*
X93440147Y-27251030D01*
X93248460Y-27313312D01*
X93068870Y-27404818D01*
X92982189Y-27467796D01*
X92905810Y-27523289D01*
X92905808Y-27523291D01*
X92905807Y-27523291D01*
X92763291Y-27665807D01*
X92763291Y-27665808D01*
X92763289Y-27665810D01*
X92717276Y-27729141D01*
X92644818Y-27828870D01*
X92553312Y-28008460D01*
X92491030Y-28200147D01*
X92459500Y-28399216D01*
X90750500Y-28399216D01*
X90750500Y-27186079D01*
X90721659Y-27041092D01*
X90721658Y-27041091D01*
X90721658Y-27041087D01*
X90694993Y-26976711D01*
X90665087Y-26904511D01*
X90665080Y-26904498D01*
X90582952Y-26781585D01*
X90545486Y-26744119D01*
X90478416Y-26677049D01*
X90048992Y-26247625D01*
X90015507Y-26186302D01*
X90014200Y-26140551D01*
X90020500Y-26100778D01*
X90020500Y-25899222D01*
X90020500Y-25899216D01*
X89991231Y-25714425D01*
X89988970Y-25700149D01*
X89938117Y-25543639D01*
X89926687Y-25508460D01*
X89877856Y-25412624D01*
X89835182Y-25328871D01*
X89716711Y-25165810D01*
X89574190Y-25023289D01*
X89411129Y-24904818D01*
X89231539Y-24813312D01*
X89039852Y-24751030D01*
X88840783Y-24719500D01*
X88840778Y-24719500D01*
X88639222Y-24719500D01*
X88639217Y-24719500D01*
X88440147Y-24751030D01*
X88248460Y-24813312D01*
X88068870Y-24904818D01*
X87975838Y-24972410D01*
X87905810Y-25023289D01*
X87905808Y-25023291D01*
X87905807Y-25023291D01*
X87763291Y-25165807D01*
X87763291Y-25165808D01*
X87763289Y-25165810D01*
X87752190Y-25181087D01*
X87644818Y-25328870D01*
X87553312Y-25508460D01*
X87491030Y-25700147D01*
X87459500Y-25899216D01*
X87459500Y-26100783D01*
X87491030Y-26299852D01*
X87553312Y-26491539D01*
X87597212Y-26577697D01*
X87644818Y-26671129D01*
X87763289Y-26834190D01*
X87905810Y-26976711D01*
X88068871Y-27095182D01*
X88204927Y-27164506D01*
X88248460Y-27186687D01*
X88344303Y-27217828D01*
X88440149Y-27248970D01*
X88532348Y-27263572D01*
X88639217Y-27280500D01*
X88639222Y-27280500D01*
X88840773Y-27280500D01*
X88840778Y-27280500D01*
X88880548Y-27274200D01*
X88949837Y-27283153D01*
X88987625Y-27308992D01*
X89213181Y-27534548D01*
X89246666Y-27595871D01*
X89249500Y-27622229D01*
X89249500Y-32047779D01*
X89229815Y-32114818D01*
X89198385Y-32148097D01*
X89120211Y-32204893D01*
X89120205Y-32204898D01*
X88969890Y-32355213D01*
X88844951Y-32527179D01*
X88748444Y-32716585D01*
X88682753Y-32918760D01*
X88649500Y-33128713D01*
X88649500Y-33341292D01*
X88664616Y-33436728D01*
X88655662Y-33506021D01*
X88629824Y-33543807D01*
X88116050Y-34057581D01*
X88116044Y-34057589D01*
X88070279Y-34126081D01*
X88070280Y-34126082D01*
X88033914Y-34180508D01*
X87977343Y-34317082D01*
X87977340Y-34317092D01*
X87948500Y-34462079D01*
X87948500Y-34462082D01*
X87948500Y-38772918D01*
X87948500Y-38772920D01*
X87948499Y-38772920D01*
X87977340Y-38917907D01*
X87977343Y-38917917D01*
X88033912Y-39054488D01*
X88033920Y-39054502D01*
X88056763Y-39088688D01*
X88056764Y-39088691D01*
X88116046Y-39177414D01*
X88116052Y-39177421D01*
X88613181Y-39674549D01*
X88646666Y-39735872D01*
X88649500Y-39762230D01*
X88649500Y-40414547D01*
X88629815Y-40481586D01*
X88613181Y-40502228D01*
X73607229Y-55508181D01*
X73545906Y-55541666D01*
X73519548Y-55544500D01*
X72095164Y-55544500D01*
X72093073Y-55543886D01*
X72090963Y-55544429D01*
X72059703Y-55534087D01*
X72028125Y-55524815D01*
X72026698Y-55523168D01*
X72024629Y-55522484D01*
X72003919Y-55496880D01*
X71982370Y-55472011D01*
X71981630Y-55469323D01*
X71980689Y-55468160D01*
X71971899Y-55433978D01*
X71971844Y-55433475D01*
X71971820Y-55406745D01*
X71976000Y-55367873D01*
X71975999Y-54972128D01*
X71975999Y-54972127D01*
X71975998Y-54972111D01*
X71971820Y-54933253D01*
X71971820Y-54906745D01*
X71976000Y-54867873D01*
X71975999Y-54472128D01*
X71969720Y-54413720D01*
X71969591Y-54412516D01*
X71919296Y-54277669D01*
X71919293Y-54277664D01*
X71833047Y-54162455D01*
X71833044Y-54162452D01*
X71717835Y-54076206D01*
X71717828Y-54076202D01*
X71582982Y-54025908D01*
X71582983Y-54025908D01*
X71523383Y-54019501D01*
X71523381Y-54019500D01*
X71523373Y-54019500D01*
X71523365Y-54019500D01*
X70024499Y-54019500D01*
X69957460Y-53999815D01*
X69911705Y-53947011D01*
X69900499Y-53895504D01*
X69900499Y-52396628D01*
X69894091Y-52337017D01*
X69883318Y-52308132D01*
X69877612Y-52292832D01*
X69872628Y-52223141D01*
X69906114Y-52161818D01*
X69967437Y-52128334D01*
X69993794Y-52125500D01*
X74061607Y-52125500D01*
X74122029Y-52113481D01*
X74182452Y-52101463D01*
X74217480Y-52086954D01*
X74296286Y-52054312D01*
X74376514Y-52000704D01*
X74398733Y-51985858D01*
X74485858Y-51898733D01*
X74485860Y-51898729D01*
X75697771Y-50686818D01*
X75759094Y-50653333D01*
X75785452Y-50650499D01*
X77097871Y-50650499D01*
X77097872Y-50650499D01*
X77157483Y-50644091D01*
X77292331Y-50593796D01*
X77407546Y-50507546D01*
X77493796Y-50392331D01*
X77544091Y-50257483D01*
X77550500Y-50197873D01*
X77550499Y-48402128D01*
X77544091Y-48342517D01*
X77493796Y-48207669D01*
X77493795Y-48207668D01*
X77493793Y-48207664D01*
X77407547Y-48092455D01*
X77407544Y-48092452D01*
X77292335Y-48006206D01*
X77292328Y-48006202D01*
X77157482Y-47955908D01*
X77157483Y-47955908D01*
X77097883Y-47949501D01*
X77097881Y-47949500D01*
X77097873Y-47949500D01*
X77097864Y-47949500D01*
X75302129Y-47949500D01*
X75302123Y-47949501D01*
X75242516Y-47955908D01*
X75107671Y-48006202D01*
X75107664Y-48006206D01*
X74992455Y-48092452D01*
X74992452Y-48092455D01*
X74906206Y-48207664D01*
X74906202Y-48207671D01*
X74855908Y-48342517D01*
X74849501Y-48402116D01*
X74849501Y-48402123D01*
X74849500Y-48402135D01*
X74849500Y-49714547D01*
X74829815Y-49781586D01*
X74813181Y-49802228D01*
X73777229Y-50838181D01*
X73715906Y-50871666D01*
X73689548Y-50874500D01*
X70671642Y-50874500D01*
X70604603Y-50854815D01*
X70558848Y-50802011D01*
X70548904Y-50732853D01*
X70577929Y-50669297D01*
X70583961Y-50662819D01*
X71570780Y-49676000D01*
X74682859Y-46563919D01*
X74744180Y-46530436D01*
X74813872Y-46535420D01*
X74869804Y-46577290D01*
X74892455Y-46607547D01*
X75007664Y-46693793D01*
X75007671Y-46693797D01*
X75142517Y-46744091D01*
X75142516Y-46744091D01*
X75149444Y-46744835D01*
X75202127Y-46750500D01*
X76997872Y-46750499D01*
X77057483Y-46744091D01*
X77192331Y-46693796D01*
X77307546Y-46607546D01*
X77393796Y-46492331D01*
X77444091Y-46357483D01*
X77450500Y-46297873D01*
X77450499Y-44502128D01*
X77444091Y-44442517D01*
X77422569Y-44384814D01*
X77393797Y-44307671D01*
X77393793Y-44307664D01*
X77307547Y-44192455D01*
X77307544Y-44192452D01*
X77192335Y-44106206D01*
X77192328Y-44106202D01*
X77057482Y-44055908D01*
X77057483Y-44055908D01*
X76997883Y-44049501D01*
X76997881Y-44049500D01*
X76997873Y-44049500D01*
X76997865Y-44049500D01*
X75934451Y-44049500D01*
X75867412Y-44029815D01*
X75821657Y-43977011D01*
X75811713Y-43907853D01*
X75840738Y-43844297D01*
X75846770Y-43837819D01*
X81315671Y-38368918D01*
X86798729Y-32885860D01*
X86798733Y-32885858D01*
X86885858Y-32798733D01*
X86954311Y-32696286D01*
X86954312Y-32696285D01*
X86982687Y-32627782D01*
X87001463Y-32582452D01*
X87025500Y-32461606D01*
X87025500Y-30438394D01*
X87022156Y-30421584D01*
X87001463Y-30317549D01*
X86981186Y-30268596D01*
X86954314Y-30203720D01*
X86954306Y-30203706D01*
X86941232Y-30184139D01*
X86941229Y-30184135D01*
X86937358Y-30178342D01*
X86885858Y-30101267D01*
X86798733Y-30014142D01*
X86798729Y-30014139D01*
X85840198Y-29055608D01*
X85840178Y-29055586D01*
X85748736Y-28964144D01*
X85748728Y-28964138D01*
X85678862Y-28917455D01*
X85678859Y-28917453D01*
X85671772Y-28912718D01*
X85646286Y-28895688D01*
X85565792Y-28862347D01*
X85562419Y-28860949D01*
X85562407Y-28860944D01*
X85532453Y-28848537D01*
X85522427Y-28846543D01*
X85472029Y-28836518D01*
X85411610Y-28824500D01*
X85411607Y-28824500D01*
X85411606Y-28824500D01*
X84772981Y-28824500D01*
X84705942Y-28804815D01*
X84662497Y-28756797D01*
X84655049Y-28742180D01*
X84530109Y-28570213D01*
X84416569Y-28456673D01*
X84383084Y-28395350D01*
X84388068Y-28325658D01*
X84429940Y-28269725D01*
X84460915Y-28252810D01*
X84592331Y-28203796D01*
X84707546Y-28117546D01*
X84793796Y-28002331D01*
X84844091Y-27867483D01*
X84850500Y-27807873D01*
X84850499Y-26012128D01*
X84844091Y-25952517D01*
X84824213Y-25899222D01*
X84793797Y-25817671D01*
X84793793Y-25817664D01*
X84707547Y-25702455D01*
X84707544Y-25702452D01*
X84592335Y-25616206D01*
X84592328Y-25616202D01*
X84457482Y-25565908D01*
X84457483Y-25565908D01*
X84397883Y-25559501D01*
X84397881Y-25559500D01*
X84397873Y-25559500D01*
X84397865Y-25559500D01*
X84374500Y-25559500D01*
X84307461Y-25539815D01*
X84261706Y-25487011D01*
X84250500Y-25435500D01*
X84250500Y-25326079D01*
X84221659Y-25181092D01*
X84221658Y-25181091D01*
X84221658Y-25181087D01*
X84179594Y-25079535D01*
X84165085Y-25044507D01*
X84150908Y-25023289D01*
X84123710Y-24982584D01*
X84123709Y-24982582D01*
X84123708Y-24982580D01*
X84082953Y-24921585D01*
X84082947Y-24921578D01*
X82578421Y-23417052D01*
X82578414Y-23417046D01*
X82504729Y-23367812D01*
X82504729Y-23367813D01*
X82455491Y-23334913D01*
X82318917Y-23278343D01*
X82318907Y-23278340D01*
X82173920Y-23249500D01*
X82173918Y-23249500D01*
X76372631Y-23249500D01*
X76305592Y-23229815D01*
X76272313Y-23198386D01*
X76144517Y-23022490D01*
X75977510Y-22855483D01*
X75786433Y-22716657D01*
X75699054Y-22672135D01*
X92459500Y-22672135D01*
X92459500Y-24327870D01*
X92459501Y-24327876D01*
X92465908Y-24387483D01*
X92516202Y-24522328D01*
X92516206Y-24522335D01*
X92602452Y-24637544D01*
X92602455Y-24637547D01*
X92717664Y-24723793D01*
X92717671Y-24723797D01*
X92852517Y-24774091D01*
X92852516Y-24774091D01*
X92859444Y-24774835D01*
X92912127Y-24780500D01*
X94567872Y-24780499D01*
X94627483Y-24774091D01*
X94762331Y-24723796D01*
X94877546Y-24637546D01*
X94963796Y-24522331D01*
X95014091Y-24387483D01*
X95020500Y-24327873D01*
X95020499Y-22672128D01*
X95014091Y-22612517D01*
X95012940Y-22609432D01*
X94963797Y-22477671D01*
X94963793Y-22477664D01*
X94877547Y-22362455D01*
X94877544Y-22362452D01*
X94762335Y-22276206D01*
X94762328Y-22276202D01*
X94627482Y-22225908D01*
X94627483Y-22225908D01*
X94567883Y-22219501D01*
X94567881Y-22219500D01*
X94567873Y-22219500D01*
X94567864Y-22219500D01*
X92912129Y-22219500D01*
X92912123Y-22219501D01*
X92852516Y-22225908D01*
X92717671Y-22276202D01*
X92717664Y-22276206D01*
X92602455Y-22362452D01*
X92602452Y-22362455D01*
X92516206Y-22477664D01*
X92516202Y-22477671D01*
X92465908Y-22612517D01*
X92463500Y-22634921D01*
X92459501Y-22672123D01*
X92459500Y-22672135D01*
X75699054Y-22672135D01*
X75575996Y-22609433D01*
X75351368Y-22536446D01*
X75118097Y-22499500D01*
X75118092Y-22499500D01*
X74881908Y-22499500D01*
X74881903Y-22499500D01*
X74648631Y-22536446D01*
X74424003Y-22609433D01*
X74213566Y-22716657D01*
X74104550Y-22795862D01*
X74022490Y-22855483D01*
X74022488Y-22855485D01*
X74022487Y-22855485D01*
X73855485Y-23022487D01*
X73855485Y-23022488D01*
X73855483Y-23022490D01*
X73727687Y-23198386D01*
X73672357Y-23241051D01*
X73627369Y-23249500D01*
X69872631Y-23249500D01*
X69805592Y-23229815D01*
X69772313Y-23198386D01*
X69644517Y-23022490D01*
X69477510Y-22855483D01*
X69286433Y-22716657D01*
X69199054Y-22672135D01*
X69075996Y-22609433D01*
X68851368Y-22536446D01*
X68618097Y-22499500D01*
X68618092Y-22499500D01*
X68381908Y-22499500D01*
X68381903Y-22499500D01*
X68148631Y-22536446D01*
X67924003Y-22609433D01*
X67713566Y-22716657D01*
X67604550Y-22795862D01*
X67522490Y-22855483D01*
X67522488Y-22855485D01*
X67522487Y-22855485D01*
X67355485Y-23022487D01*
X67355485Y-23022488D01*
X67355483Y-23022490D01*
X67227687Y-23198386D01*
X67172357Y-23241051D01*
X67127369Y-23249500D01*
X64513580Y-23249500D01*
X64368593Y-23278340D01*
X64368585Y-23278342D01*
X64279938Y-23315061D01*
X64232486Y-23324500D01*
X63749998Y-23324500D01*
X63749980Y-23324501D01*
X63647203Y-23335000D01*
X63647200Y-23335001D01*
X63480668Y-23390185D01*
X63480663Y-23390187D01*
X63331342Y-23482289D01*
X63207289Y-23606342D01*
X63115187Y-23755663D01*
X63115186Y-23755666D01*
X63060001Y-23922203D01*
X63060001Y-23922204D01*
X63060000Y-23922204D01*
X63049500Y-24024983D01*
X63049500Y-24650001D01*
X63049501Y-24650019D01*
X63060000Y-24752796D01*
X63060001Y-24752799D01*
X63089186Y-24840871D01*
X63115186Y-24919334D01*
X63178285Y-25021635D01*
X63207289Y-25068657D01*
X63301304Y-25162672D01*
X63334789Y-25223995D01*
X63329805Y-25293687D01*
X63301305Y-25338034D01*
X63207682Y-25431657D01*
X63115643Y-25580875D01*
X63115641Y-25580880D01*
X63060494Y-25747302D01*
X63060493Y-25747309D01*
X63050000Y-25850013D01*
X63050000Y-25912500D01*
X65449999Y-25912500D01*
X65449999Y-25850028D01*
X65449998Y-25850013D01*
X65439505Y-25747302D01*
X65384358Y-25580880D01*
X65384356Y-25580875D01*
X65292315Y-25431654D01*
X65198695Y-25338034D01*
X65165210Y-25276711D01*
X65170194Y-25207019D01*
X65198691Y-25162676D01*
X65292712Y-25068656D01*
X65384814Y-24919334D01*
X65412595Y-24835495D01*
X65452368Y-24778051D01*
X65516884Y-24751228D01*
X65530301Y-24750500D01*
X67127369Y-24750500D01*
X67194408Y-24770185D01*
X67227685Y-24801613D01*
X67355483Y-24977510D01*
X67522490Y-25144517D01*
X67713567Y-25283343D01*
X67785697Y-25320095D01*
X67924003Y-25390566D01*
X67924005Y-25390566D01*
X67924008Y-25390568D01*
X68044412Y-25429689D01*
X68148631Y-25463553D01*
X68381903Y-25500500D01*
X68381908Y-25500500D01*
X68618097Y-25500500D01*
X68851368Y-25463553D01*
X69075992Y-25390568D01*
X69286433Y-25283343D01*
X69477510Y-25144517D01*
X69644517Y-24977510D01*
X69772313Y-24801613D01*
X69827643Y-24758949D01*
X69872631Y-24750500D01*
X73627369Y-24750500D01*
X73694408Y-24770185D01*
X73727685Y-24801613D01*
X73855483Y-24977510D01*
X74022490Y-25144517D01*
X74213567Y-25283343D01*
X74285697Y-25320095D01*
X74424003Y-25390566D01*
X74424005Y-25390566D01*
X74424008Y-25390568D01*
X74544412Y-25429689D01*
X74648631Y-25463553D01*
X74881903Y-25500500D01*
X74881908Y-25500500D01*
X75118097Y-25500500D01*
X75351368Y-25463553D01*
X75575992Y-25390568D01*
X75786433Y-25283343D01*
X75977510Y-25144517D01*
X76144517Y-24977510D01*
X76272313Y-24801613D01*
X76327643Y-24758949D01*
X76372631Y-24750500D01*
X81737770Y-24750500D01*
X81804809Y-24770185D01*
X81825451Y-24786819D01*
X82451256Y-25412624D01*
X82484741Y-25473947D01*
X82479757Y-25543639D01*
X82437885Y-25599572D01*
X82415398Y-25611851D01*
X82415454Y-25611953D01*
X82407664Y-25616206D01*
X82292455Y-25702452D01*
X82292452Y-25702455D01*
X82206206Y-25817664D01*
X82206202Y-25817671D01*
X82155908Y-25952517D01*
X82149501Y-26012116D01*
X82149501Y-26012123D01*
X82149500Y-26012135D01*
X82149500Y-26168617D01*
X82129815Y-26235656D01*
X82094391Y-26271719D01*
X82064287Y-26291834D01*
X82011581Y-26327050D01*
X82011578Y-26327053D01*
X77917052Y-30421578D01*
X77917049Y-30421581D01*
X77877946Y-30480103D01*
X77877947Y-30480104D01*
X77834914Y-30544508D01*
X77778343Y-30681082D01*
X77778340Y-30681092D01*
X77749500Y-30826079D01*
X77749500Y-30826082D01*
X77749500Y-33673918D01*
X77749500Y-33673920D01*
X77749499Y-33673920D01*
X77778340Y-33818907D01*
X77778343Y-33818917D01*
X77834912Y-33955488D01*
X77834916Y-33955495D01*
X77852014Y-33981084D01*
X77852015Y-33981087D01*
X77917046Y-34078414D01*
X77917052Y-34078421D01*
X78321578Y-34482947D01*
X78321581Y-34482949D01*
X78321584Y-34482952D01*
X78444506Y-34565084D01*
X78581087Y-34621658D01*
X78581091Y-34621658D01*
X78581092Y-34621659D01*
X78726080Y-34650500D01*
X78726083Y-34650500D01*
X78873919Y-34650500D01*
X79009271Y-34623576D01*
X79078863Y-34629803D01*
X79121144Y-34657512D01*
X79156344Y-34692712D01*
X79305666Y-34784814D01*
X79389505Y-34812595D01*
X79446948Y-34852366D01*
X79473772Y-34916882D01*
X79474500Y-34930300D01*
X79474500Y-37389548D01*
X79454815Y-37456587D01*
X79438181Y-37477229D01*
X67087181Y-49828229D01*
X67025858Y-49861714D01*
X66956166Y-49856730D01*
X66900233Y-49814858D01*
X66875816Y-49749394D01*
X66875500Y-49740548D01*
X66875500Y-47506727D01*
X66880187Y-47490184D01*
X66879881Y-47474057D01*
X66893931Y-47441679D01*
X66894726Y-47440389D01*
X66946650Y-47393644D01*
X67015607Y-47382389D01*
X67079703Y-47410203D01*
X67105829Y-47440339D01*
X67107681Y-47443341D01*
X67107683Y-47443344D01*
X67231654Y-47567315D01*
X67380875Y-47659356D01*
X67380880Y-47659358D01*
X67547302Y-47714505D01*
X67547309Y-47714506D01*
X67650019Y-47724999D01*
X68200000Y-47724999D01*
X68249972Y-47724999D01*
X68249986Y-47724998D01*
X68352697Y-47714505D01*
X68519119Y-47659358D01*
X68519124Y-47659356D01*
X68668345Y-47567315D01*
X68792315Y-47443345D01*
X68884356Y-47294124D01*
X68884358Y-47294119D01*
X68939505Y-47127697D01*
X68939506Y-47127690D01*
X68949999Y-47024986D01*
X68950000Y-47024973D01*
X68950000Y-46750000D01*
X68200000Y-46750000D01*
X68200000Y-47724999D01*
X67650019Y-47724999D01*
X67699999Y-47724998D01*
X67700000Y-47724998D01*
X67700000Y-46250000D01*
X68200000Y-46250000D01*
X68949999Y-46250000D01*
X68949999Y-45975028D01*
X68949998Y-45975013D01*
X68939505Y-45872302D01*
X68884358Y-45705880D01*
X68884356Y-45705875D01*
X68792315Y-45556654D01*
X68668345Y-45432684D01*
X68519124Y-45340643D01*
X68519119Y-45340641D01*
X68352697Y-45285494D01*
X68352690Y-45285493D01*
X68249986Y-45275000D01*
X68200000Y-45275000D01*
X68200000Y-46250000D01*
X67700000Y-46250000D01*
X67700000Y-45275000D01*
X67699999Y-45274999D01*
X67650029Y-45275000D01*
X67650011Y-45275001D01*
X67547302Y-45285494D01*
X67380880Y-45340641D01*
X67380875Y-45340643D01*
X67231654Y-45432684D01*
X67137181Y-45527158D01*
X67075858Y-45560643D01*
X67006166Y-45555659D01*
X66950233Y-45513787D01*
X66925816Y-45448323D01*
X66925500Y-45439477D01*
X66925500Y-42763768D01*
X66925499Y-42763766D01*
X66900787Y-42639532D01*
X66891855Y-42594626D01*
X66884081Y-42575858D01*
X66825861Y-42435301D01*
X66825854Y-42435288D01*
X66730046Y-42291902D01*
X66694763Y-42256619D01*
X66608099Y-42169955D01*
X66288145Y-41850001D01*
X65308102Y-40869957D01*
X65308098Y-40869954D01*
X65164711Y-40774145D01*
X65164698Y-40774138D01*
X65005376Y-40708145D01*
X65005368Y-40708143D01*
X64938228Y-40694788D01*
X64897324Y-40678710D01*
X64890498Y-40674500D01*
X64794334Y-40615186D01*
X64627797Y-40560001D01*
X64627795Y-40560000D01*
X64525010Y-40549500D01*
X63474998Y-40549500D01*
X63474980Y-40549501D01*
X63372203Y-40560000D01*
X63372200Y-40560001D01*
X63205668Y-40615185D01*
X63205659Y-40615189D01*
X63139432Y-40656039D01*
X63074336Y-40674500D01*
X62499500Y-40674500D01*
X62432461Y-40654815D01*
X62386706Y-40602011D01*
X62375500Y-40550500D01*
X62375500Y-40015047D01*
X62395185Y-39948008D01*
X62411819Y-39927366D01*
X62491966Y-39847219D01*
X62491968Y-39847215D01*
X62491971Y-39847213D01*
X62553714Y-39762230D01*
X62612287Y-39681610D01*
X62705220Y-39499219D01*
X62768477Y-39304534D01*
X62800500Y-39102352D01*
X62800500Y-38897648D01*
X62770178Y-38706204D01*
X62768477Y-38695465D01*
X62705218Y-38500776D01*
X62635082Y-38363128D01*
X62612287Y-38318390D01*
X62604556Y-38307749D01*
X62491971Y-38152786D01*
X62347213Y-38008028D01*
X62181613Y-37887715D01*
X62181612Y-37887714D01*
X62181610Y-37887713D01*
X62124653Y-37858691D01*
X61999223Y-37794781D01*
X61804534Y-37731522D01*
X61629995Y-37703878D01*
X61602352Y-37699500D01*
X61397648Y-37699500D01*
X61373329Y-37703351D01*
X61195465Y-37731522D01*
X61000776Y-37794781D01*
X60818386Y-37887715D01*
X60652786Y-38008028D01*
X60508028Y-38152786D01*
X60387715Y-38318386D01*
X60294781Y-38500776D01*
X60231522Y-38695465D01*
X60199500Y-38897648D01*
X60199500Y-39102351D01*
X60231522Y-39304534D01*
X60294781Y-39499223D01*
X60358691Y-39624653D01*
X60384115Y-39674549D01*
X60387715Y-39681613D01*
X60508028Y-39847213D01*
X60588181Y-39927366D01*
X60621666Y-39988689D01*
X60624500Y-40015047D01*
X60624500Y-40596042D01*
X60604815Y-40663081D01*
X60565598Y-40701580D01*
X60556344Y-40707287D01*
X60432289Y-40831342D01*
X60340187Y-40980663D01*
X60340185Y-40980668D01*
X60312349Y-41064670D01*
X60285001Y-41147203D01*
X60285001Y-41147204D01*
X60285000Y-41147204D01*
X60274500Y-41249983D01*
X60274500Y-41850001D01*
X60274501Y-41850019D01*
X60285000Y-41952796D01*
X60285001Y-41952799D01*
X60340185Y-42119331D01*
X60340187Y-42119336D01*
X60432289Y-42268657D01*
X60556346Y-42392714D01*
X60559182Y-42394463D01*
X60560717Y-42396170D01*
X60562011Y-42397193D01*
X60561836Y-42397414D01*
X60605905Y-42446411D01*
X60617126Y-42515374D01*
X60589282Y-42579456D01*
X60559182Y-42605537D01*
X60556346Y-42607285D01*
X60432289Y-42731342D01*
X60340187Y-42880663D01*
X60340186Y-42880666D01*
X60285001Y-43047203D01*
X60285001Y-43047204D01*
X60285000Y-43047204D01*
X60274500Y-43149983D01*
X60274500Y-43750001D01*
X60274501Y-43750019D01*
X60285000Y-43852796D01*
X60285001Y-43852799D01*
X60340185Y-44019331D01*
X60340187Y-44019336D01*
X60375069Y-44075888D01*
X60432288Y-44168656D01*
X60556344Y-44292712D01*
X60690597Y-44375519D01*
X60737321Y-44427465D01*
X60749500Y-44481057D01*
X60749500Y-46073918D01*
X60749500Y-46073920D01*
X60749499Y-46073920D01*
X60778340Y-46218907D01*
X60778342Y-46218913D01*
X60834916Y-46355495D01*
X60836244Y-46357483D01*
X60839290Y-46362040D01*
X60839294Y-46362052D01*
X60839297Y-46362051D01*
X60901158Y-46454635D01*
X60917051Y-46478420D01*
X60917052Y-46478421D01*
X62090823Y-47652190D01*
X62124308Y-47713513D01*
X62124759Y-47715679D01*
X62134104Y-47762660D01*
X62134107Y-47762670D01*
X62201983Y-47926540D01*
X62201990Y-47926553D01*
X62300535Y-48074034D01*
X62300538Y-48074038D01*
X62338180Y-48111679D01*
X62371666Y-48173001D01*
X62374500Y-48199361D01*
X62374500Y-49290548D01*
X62354815Y-49357587D01*
X62302011Y-49403342D01*
X62232853Y-49413286D01*
X62169297Y-49384261D01*
X62162819Y-49378229D01*
X58161819Y-45377229D01*
X58128334Y-45315906D01*
X58125500Y-45289548D01*
X58125500Y-44584516D01*
X58145185Y-44517477D01*
X58197989Y-44471722D01*
X58210488Y-44466813D01*
X58269334Y-44447314D01*
X58418656Y-44355212D01*
X58542712Y-44231156D01*
X58634814Y-44081834D01*
X58689999Y-43915297D01*
X58700500Y-43812509D01*
X58700499Y-43187492D01*
X58696667Y-43149983D01*
X58689999Y-43084703D01*
X58689998Y-43084700D01*
X58677573Y-43047203D01*
X58634814Y-42918166D01*
X58542712Y-42768844D01*
X58448694Y-42674826D01*
X58415210Y-42613504D01*
X58420194Y-42543812D01*
X58448695Y-42499464D01*
X58542317Y-42405842D01*
X58634356Y-42256624D01*
X58634358Y-42256619D01*
X58689505Y-42090197D01*
X58689506Y-42090190D01*
X58699999Y-41987486D01*
X58700000Y-41987473D01*
X58700000Y-41925000D01*
X56300001Y-41925000D01*
X56300001Y-41987486D01*
X56310494Y-42090197D01*
X56365641Y-42256619D01*
X56365643Y-42256624D01*
X56457684Y-42405845D01*
X56551304Y-42499465D01*
X56555641Y-42507409D01*
X56562889Y-42512834D01*
X56572125Y-42537596D01*
X56584789Y-42560788D01*
X56584143Y-42569816D01*
X56587307Y-42578298D01*
X56581690Y-42604119D01*
X56579805Y-42630480D01*
X56573986Y-42639532D01*
X56572456Y-42646571D01*
X56551305Y-42674826D01*
X56512952Y-42713180D01*
X56451630Y-42746666D01*
X56425270Y-42749500D01*
X53474499Y-42749500D01*
X53407460Y-42729815D01*
X53361705Y-42677011D01*
X53350499Y-42625500D01*
X53350499Y-42602129D01*
X53350498Y-42602123D01*
X53350497Y-42602116D01*
X53344091Y-42542517D01*
X53333967Y-42515374D01*
X53293797Y-42407671D01*
X53293793Y-42407664D01*
X53207547Y-42292455D01*
X53207544Y-42292452D01*
X53092335Y-42206206D01*
X53092328Y-42206202D01*
X52957482Y-42155908D01*
X52957483Y-42155908D01*
X52897883Y-42149501D01*
X52897881Y-42149500D01*
X52897873Y-42149500D01*
X52897864Y-42149500D01*
X51102129Y-42149500D01*
X51102123Y-42149501D01*
X51042516Y-42155908D01*
X50907671Y-42206202D01*
X50907664Y-42206206D01*
X50792455Y-42292452D01*
X50792452Y-42292455D01*
X50706206Y-42407664D01*
X50706202Y-42407671D01*
X50655908Y-42542517D01*
X50649501Y-42602116D01*
X50649501Y-42602123D01*
X50649500Y-42602135D01*
X50649500Y-44397870D01*
X50649501Y-44397876D01*
X50655908Y-44457483D01*
X50706202Y-44592328D01*
X50706206Y-44592335D01*
X50792452Y-44707544D01*
X50792455Y-44707547D01*
X50907664Y-44793793D01*
X50907671Y-44793797D01*
X51042517Y-44844091D01*
X51042516Y-44844091D01*
X51049444Y-44844835D01*
X51102127Y-44850500D01*
X52897872Y-44850499D01*
X52957483Y-44844091D01*
X53092331Y-44793796D01*
X53207546Y-44707546D01*
X53293796Y-44592331D01*
X53344091Y-44457483D01*
X53350500Y-44397873D01*
X53350500Y-44374500D01*
X53370185Y-44307461D01*
X53422989Y-44261706D01*
X53474500Y-44250500D01*
X56425270Y-44250500D01*
X56492309Y-44270185D01*
X56512951Y-44286819D01*
X56581344Y-44355212D01*
X56722889Y-44442517D01*
X56730668Y-44447315D01*
X56751110Y-44454088D01*
X56789502Y-44466810D01*
X56846947Y-44506581D01*
X56873772Y-44571096D01*
X56874500Y-44584516D01*
X56874500Y-45661611D01*
X56898535Y-45782444D01*
X56898540Y-45782461D01*
X56945685Y-45896280D01*
X56945686Y-45896282D01*
X56945688Y-45896286D01*
X56978698Y-45945688D01*
X57014142Y-45998733D01*
X57101267Y-46085858D01*
X57101270Y-46085860D01*
X57108614Y-46093204D01*
X63088181Y-52072771D01*
X63121666Y-52134094D01*
X63124500Y-52160452D01*
X63124500Y-52264799D01*
X63116682Y-52308132D01*
X63105908Y-52337016D01*
X63099501Y-52396616D01*
X63099501Y-52396623D01*
X63099500Y-52396635D01*
X63099500Y-53895500D01*
X63079815Y-53962539D01*
X63027011Y-54008294D01*
X62975500Y-54019500D01*
X61476629Y-54019500D01*
X61476623Y-54019501D01*
X61417018Y-54025908D01*
X61398047Y-54032984D01*
X61388132Y-54036682D01*
X61382503Y-54037697D01*
X61379735Y-54039477D01*
X61344800Y-54044500D01*
X61180453Y-54044500D01*
X61113414Y-54024815D01*
X61092772Y-54008181D01*
X59950597Y-52866006D01*
X59917112Y-52804683D01*
X59922096Y-52734991D01*
X59932740Y-52713228D01*
X59959809Y-52669342D01*
X59959808Y-52669342D01*
X59959814Y-52669334D01*
X60014999Y-52502797D01*
X60025500Y-52400009D01*
X60025499Y-51399992D01*
X60014999Y-51297203D01*
X59959814Y-51130666D01*
X59867712Y-50981344D01*
X59743656Y-50857288D01*
X59600712Y-50769120D01*
X59594336Y-50765187D01*
X59594331Y-50765185D01*
X59581240Y-50760847D01*
X59427797Y-50710001D01*
X59427795Y-50710000D01*
X59325016Y-50699500D01*
X59325009Y-50699500D01*
X59184729Y-50699500D01*
X59117690Y-50679815D01*
X59097048Y-50663181D01*
X57741328Y-49307461D01*
X56350916Y-47917048D01*
X56350915Y-47917047D01*
X56350913Y-47917045D01*
X56301679Y-47884150D01*
X56268855Y-47862218D01*
X56227995Y-47834916D01*
X56227994Y-47834915D01*
X56227992Y-47834914D01*
X56227990Y-47834913D01*
X56091417Y-47778343D01*
X56091407Y-47778340D01*
X55946420Y-47749500D01*
X55946418Y-47749500D01*
X53474499Y-47749500D01*
X53407460Y-47729815D01*
X53361705Y-47677011D01*
X53350499Y-47625500D01*
X53350499Y-47602129D01*
X53350498Y-47602123D01*
X53350497Y-47602116D01*
X53344091Y-47542517D01*
X53330742Y-47506727D01*
X53293797Y-47407671D01*
X53293793Y-47407664D01*
X53207547Y-47292455D01*
X53207544Y-47292452D01*
X53092335Y-47206206D01*
X53092328Y-47206202D01*
X52957482Y-47155908D01*
X52957483Y-47155908D01*
X52897883Y-47149501D01*
X52897881Y-47149500D01*
X52897873Y-47149500D01*
X52897864Y-47149500D01*
X51102129Y-47149500D01*
X51102123Y-47149501D01*
X51042516Y-47155908D01*
X50907671Y-47206202D01*
X50907664Y-47206206D01*
X50792455Y-47292452D01*
X50792452Y-47292455D01*
X50706206Y-47407664D01*
X50706202Y-47407671D01*
X50655908Y-47542517D01*
X50650944Y-47588693D01*
X50649501Y-47602123D01*
X50649500Y-47602135D01*
X50649500Y-47625500D01*
X50629815Y-47692539D01*
X50577011Y-47738294D01*
X50525500Y-47749500D01*
X46062229Y-47749500D01*
X45995190Y-47729815D01*
X45974548Y-47713181D01*
X39708412Y-41447045D01*
X39623880Y-41362513D01*
X56300000Y-41362513D01*
X56300000Y-41425000D01*
X57250000Y-41425000D01*
X57750000Y-41425000D01*
X58699999Y-41425000D01*
X58699999Y-41362528D01*
X58699998Y-41362513D01*
X58689505Y-41259802D01*
X58634358Y-41093380D01*
X58634356Y-41093375D01*
X58542315Y-40944154D01*
X58418345Y-40820184D01*
X58269124Y-40728143D01*
X58269119Y-40728141D01*
X58102697Y-40672994D01*
X58102690Y-40672993D01*
X57999986Y-40662500D01*
X57750000Y-40662500D01*
X57750000Y-41425000D01*
X57250000Y-41425000D01*
X57250000Y-40662500D01*
X57000029Y-40662500D01*
X57000012Y-40662501D01*
X56897302Y-40672994D01*
X56730880Y-40728141D01*
X56730875Y-40728143D01*
X56581654Y-40820184D01*
X56457684Y-40944154D01*
X56365643Y-41093375D01*
X56365641Y-41093380D01*
X56310494Y-41259802D01*
X56310493Y-41259809D01*
X56300000Y-41362513D01*
X39623880Y-41362513D01*
X39242035Y-40980668D01*
X32591819Y-34330451D01*
X32558334Y-34269128D01*
X32555500Y-34242770D01*
X32555500Y-30298849D01*
X32575185Y-30231810D01*
X32623205Y-30188364D01*
X32683161Y-30157816D01*
X32736837Y-30130467D01*
X32736838Y-30130465D01*
X32736840Y-30130465D01*
X32888032Y-30008032D01*
X32978635Y-29896145D01*
X33036121Y-29856436D01*
X33105952Y-29854108D01*
X33165956Y-29889903D01*
X33171353Y-29896133D01*
X33261968Y-30008032D01*
X33413160Y-30130465D01*
X33586504Y-30218788D01*
X33774422Y-30269141D01*
X33855222Y-30275500D01*
X33855230Y-30275500D01*
X34834770Y-30275500D01*
X34834778Y-30275500D01*
X34915578Y-30269141D01*
X35103496Y-30218788D01*
X35276840Y-30130465D01*
X35428032Y-30008032D01*
X35518635Y-29896145D01*
X35576121Y-29856436D01*
X35645952Y-29854108D01*
X35705956Y-29889903D01*
X35711353Y-29896133D01*
X35801968Y-30008032D01*
X35953160Y-30130465D01*
X36126504Y-30218788D01*
X36314422Y-30269141D01*
X36395222Y-30275500D01*
X36395230Y-30275500D01*
X37374770Y-30275500D01*
X37374778Y-30275500D01*
X37413075Y-30272486D01*
X61789500Y-30272486D01*
X61789500Y-30567513D01*
X61811922Y-30737819D01*
X61828007Y-30859993D01*
X61895053Y-31110213D01*
X61904361Y-31144951D01*
X61904364Y-31144961D01*
X62017254Y-31417500D01*
X62017258Y-31417510D01*
X62164761Y-31672993D01*
X62344352Y-31907040D01*
X62344358Y-31907047D01*
X62552952Y-32115641D01*
X62552959Y-32115647D01*
X62787006Y-32295238D01*
X63042489Y-32442741D01*
X63042490Y-32442741D01*
X63042493Y-32442743D01*
X63315048Y-32555639D01*
X63600007Y-32631993D01*
X63892494Y-32670500D01*
X63892501Y-32670500D01*
X64187499Y-32670500D01*
X64187506Y-32670500D01*
X64479993Y-32631993D01*
X64764952Y-32555639D01*
X65037507Y-32442743D01*
X65292994Y-32295238D01*
X65527042Y-32115646D01*
X65735646Y-31907042D01*
X65915238Y-31672994D01*
X66062743Y-31417507D01*
X66175639Y-31144952D01*
X66251993Y-30859993D01*
X66290500Y-30567506D01*
X66290500Y-30272494D01*
X66251993Y-29980007D01*
X66175639Y-29695048D01*
X66062743Y-29422493D01*
X66021177Y-29350499D01*
X65915238Y-29167006D01*
X65735647Y-28932959D01*
X65735641Y-28932952D01*
X65527047Y-28724358D01*
X65527040Y-28724352D01*
X65292993Y-28544761D01*
X65188484Y-28484423D01*
X65037510Y-28397258D01*
X65037500Y-28397254D01*
X65000437Y-28381902D01*
X66999500Y-28381902D01*
X66999500Y-28618097D01*
X67036446Y-28851368D01*
X67109433Y-29075996D01*
X67163449Y-29182007D01*
X67216657Y-29286433D01*
X67355483Y-29477510D01*
X67522490Y-29644517D01*
X67713567Y-29783343D01*
X67791092Y-29822844D01*
X67924003Y-29890566D01*
X67924005Y-29890566D01*
X67924008Y-29890568D01*
X68044412Y-29929689D01*
X68148631Y-29963553D01*
X68381903Y-30000500D01*
X68381908Y-30000500D01*
X68618097Y-30000500D01*
X68851368Y-29963553D01*
X69075992Y-29890568D01*
X69286433Y-29783343D01*
X69477510Y-29644517D01*
X69644517Y-29477510D01*
X69783343Y-29286433D01*
X69890568Y-29075992D01*
X69963553Y-28851368D01*
X69965905Y-28836518D01*
X70000500Y-28618097D01*
X70000500Y-28381902D01*
X73499500Y-28381902D01*
X73499500Y-28618097D01*
X73536446Y-28851368D01*
X73609433Y-29075996D01*
X73663449Y-29182007D01*
X73716657Y-29286433D01*
X73855483Y-29477510D01*
X74022490Y-29644517D01*
X74213567Y-29783343D01*
X74291092Y-29822844D01*
X74424003Y-29890566D01*
X74424005Y-29890566D01*
X74424008Y-29890568D01*
X74544412Y-29929689D01*
X74648631Y-29963553D01*
X74881903Y-30000500D01*
X74881908Y-30000500D01*
X75118097Y-30000500D01*
X75351368Y-29963553D01*
X75575992Y-29890568D01*
X75786433Y-29783343D01*
X75977510Y-29644517D01*
X76144517Y-29477510D01*
X76283343Y-29286433D01*
X76390568Y-29075992D01*
X76463553Y-28851368D01*
X76465905Y-28836518D01*
X76500500Y-28618097D01*
X76500500Y-28381902D01*
X76463553Y-28148631D01*
X76418008Y-28008460D01*
X76390568Y-27924008D01*
X76390566Y-27924005D01*
X76390566Y-27924003D01*
X76297814Y-27741968D01*
X76283343Y-27713567D01*
X76144517Y-27522490D01*
X75977510Y-27355483D01*
X75786433Y-27216657D01*
X75727612Y-27186686D01*
X75575996Y-27109433D01*
X75351368Y-27036446D01*
X75118097Y-26999500D01*
X75118092Y-26999500D01*
X74881908Y-26999500D01*
X74881903Y-26999500D01*
X74648631Y-27036446D01*
X74424003Y-27109433D01*
X74213566Y-27216657D01*
X74134366Y-27274200D01*
X74022490Y-27355483D01*
X74022488Y-27355485D01*
X74022487Y-27355485D01*
X73855485Y-27522487D01*
X73855485Y-27522488D01*
X73855483Y-27522490D01*
X73806096Y-27590465D01*
X73716657Y-27713566D01*
X73609433Y-27924003D01*
X73536446Y-28148631D01*
X73499500Y-28381902D01*
X70000500Y-28381902D01*
X69963553Y-28148631D01*
X69918008Y-28008460D01*
X69890568Y-27924008D01*
X69890566Y-27924005D01*
X69890566Y-27924003D01*
X69797814Y-27741968D01*
X69783343Y-27713567D01*
X69644517Y-27522490D01*
X69477510Y-27355483D01*
X69286433Y-27216657D01*
X69227612Y-27186686D01*
X69075996Y-27109433D01*
X68851368Y-27036446D01*
X68618097Y-26999500D01*
X68618092Y-26999500D01*
X68381908Y-26999500D01*
X68381903Y-26999500D01*
X68148631Y-27036446D01*
X67924003Y-27109433D01*
X67713566Y-27216657D01*
X67634366Y-27274200D01*
X67522490Y-27355483D01*
X67522488Y-27355485D01*
X67522487Y-27355485D01*
X67355485Y-27522487D01*
X67355485Y-27522488D01*
X67355483Y-27522490D01*
X67306096Y-27590465D01*
X67216657Y-27713566D01*
X67109433Y-27924003D01*
X67036446Y-28148631D01*
X66999500Y-28381902D01*
X65000437Y-28381902D01*
X64764961Y-28284364D01*
X64764954Y-28284362D01*
X64764952Y-28284361D01*
X64479993Y-28208007D01*
X64400930Y-28197598D01*
X64187513Y-28169500D01*
X64187506Y-28169500D01*
X63892494Y-28169500D01*
X63892486Y-28169500D01*
X63614085Y-28206153D01*
X63600007Y-28208007D01*
X63404103Y-28260499D01*
X63315048Y-28284361D01*
X63315038Y-28284364D01*
X63042499Y-28397254D01*
X63042489Y-28397258D01*
X62787006Y-28544761D01*
X62552959Y-28724352D01*
X62552952Y-28724358D01*
X62344358Y-28932952D01*
X62344352Y-28932959D01*
X62164761Y-29167006D01*
X62017258Y-29422489D01*
X62017254Y-29422499D01*
X61904364Y-29695038D01*
X61904361Y-29695048D01*
X61831114Y-29968414D01*
X61828008Y-29980004D01*
X61828006Y-29980015D01*
X61789500Y-30272486D01*
X37413075Y-30272486D01*
X37455578Y-30269141D01*
X37643496Y-30218788D01*
X37816840Y-30130465D01*
X37968032Y-30008032D01*
X38090465Y-29856840D01*
X38178788Y-29683496D01*
X38229141Y-29495578D01*
X38235500Y-29414778D01*
X38235500Y-28335222D01*
X38229141Y-28254422D01*
X38178788Y-28066504D01*
X38090465Y-27893160D01*
X37968032Y-27741968D01*
X37917891Y-27701364D01*
X37878181Y-27643879D01*
X37875853Y-27574048D01*
X37911648Y-27514044D01*
X37917881Y-27508643D01*
X37968032Y-27468032D01*
X38090465Y-27316840D01*
X38178788Y-27143496D01*
X38229141Y-26955578D01*
X38235500Y-26874778D01*
X38235500Y-26709568D01*
X41974500Y-26709568D01*
X41974500Y-26990431D01*
X42005942Y-27269494D01*
X42005945Y-27269512D01*
X42068439Y-27543317D01*
X42068443Y-27543329D01*
X42161200Y-27808411D01*
X42283053Y-28061442D01*
X42283055Y-28061445D01*
X42432477Y-28299248D01*
X42607584Y-28518825D01*
X42806175Y-28717416D01*
X43025752Y-28892523D01*
X43263555Y-29041945D01*
X43516592Y-29163801D01*
X43715680Y-29233465D01*
X43781670Y-29256556D01*
X43781682Y-29256560D01*
X44055491Y-29319055D01*
X44055497Y-29319055D01*
X44055505Y-29319057D01*
X44241547Y-29340018D01*
X44334569Y-29350499D01*
X44334572Y-29350500D01*
X44334575Y-29350500D01*
X44615428Y-29350500D01*
X44615429Y-29350499D01*
X44758055Y-29334429D01*
X44894494Y-29319057D01*
X44894499Y-29319056D01*
X44894509Y-29319055D01*
X45168318Y-29256560D01*
X45433408Y-29163801D01*
X45686445Y-29041945D01*
X45924248Y-28892523D01*
X46143825Y-28717416D01*
X46342416Y-28518825D01*
X46517523Y-28299248D01*
X46666945Y-28061445D01*
X46788801Y-27808408D01*
X46881560Y-27543318D01*
X46944055Y-27269509D01*
X46946370Y-27248969D01*
X46969792Y-27041082D01*
X46975500Y-26990425D01*
X46975500Y-26709575D01*
X46950934Y-26491542D01*
X46949069Y-26474986D01*
X63050001Y-26474986D01*
X63060494Y-26577697D01*
X63115641Y-26744119D01*
X63115643Y-26744124D01*
X63207684Y-26893345D01*
X63331654Y-27017315D01*
X63480875Y-27109356D01*
X63480880Y-27109358D01*
X63647302Y-27164505D01*
X63647309Y-27164506D01*
X63750019Y-27174999D01*
X63999999Y-27174999D01*
X64500000Y-27174999D01*
X64749972Y-27174999D01*
X64749986Y-27174998D01*
X64852697Y-27164505D01*
X65019119Y-27109358D01*
X65019124Y-27109356D01*
X65168345Y-27017315D01*
X65292315Y-26893345D01*
X65384356Y-26744124D01*
X65384358Y-26744119D01*
X65439505Y-26577697D01*
X65439506Y-26577690D01*
X65449999Y-26474986D01*
X65450000Y-26474973D01*
X65450000Y-26412500D01*
X64500000Y-26412500D01*
X64500000Y-27174999D01*
X63999999Y-27174999D01*
X64000000Y-27174998D01*
X64000000Y-26412500D01*
X63050001Y-26412500D01*
X63050001Y-26474986D01*
X46949069Y-26474986D01*
X46944057Y-26430505D01*
X46944056Y-26430500D01*
X46944055Y-26430491D01*
X46881560Y-26156682D01*
X46788801Y-25891592D01*
X46666945Y-25638555D01*
X46517523Y-25400752D01*
X46342416Y-25181175D01*
X46143825Y-24982584D01*
X46137462Y-24977510D01*
X46067335Y-24921585D01*
X45924248Y-24807477D01*
X45686445Y-24658055D01*
X45686442Y-24658053D01*
X45433411Y-24536200D01*
X45168329Y-24443443D01*
X45168317Y-24443439D01*
X44894512Y-24380945D01*
X44894494Y-24380942D01*
X44615431Y-24349500D01*
X44615425Y-24349500D01*
X44334575Y-24349500D01*
X44334568Y-24349500D01*
X44055505Y-24380942D01*
X44055487Y-24380945D01*
X43781682Y-24443439D01*
X43781670Y-24443443D01*
X43516588Y-24536200D01*
X43263557Y-24658053D01*
X43025753Y-24807476D01*
X42806175Y-24982583D01*
X42607583Y-25181175D01*
X42432476Y-25400753D01*
X42283053Y-25638557D01*
X42161200Y-25891588D01*
X42068443Y-26156670D01*
X42068439Y-26156682D01*
X42005945Y-26430487D01*
X42005942Y-26430505D01*
X41974500Y-26709568D01*
X38235500Y-26709568D01*
X38235500Y-25795222D01*
X38229141Y-25714422D01*
X38178788Y-25526504D01*
X38090465Y-25353160D01*
X37968032Y-25201968D01*
X37816840Y-25079535D01*
X37643496Y-24991212D01*
X37455578Y-24940859D01*
X37455577Y-24940858D01*
X37455574Y-24940858D01*
X37374783Y-24934500D01*
X37374778Y-24934500D01*
X36395222Y-24934500D01*
X36395216Y-24934500D01*
X36314425Y-24940858D01*
X36126504Y-24991212D01*
X35953161Y-25079534D01*
X35801968Y-25201968D01*
X35711366Y-25313852D01*
X35653879Y-25353563D01*
X35584048Y-25355891D01*
X35524044Y-25320095D01*
X35518634Y-25313852D01*
X35493927Y-25283342D01*
X35428032Y-25201968D01*
X35276840Y-25079535D01*
X35103496Y-24991212D01*
X34915578Y-24940859D01*
X34915577Y-24940858D01*
X34915574Y-24940858D01*
X34834783Y-24934500D01*
X34834778Y-24934500D01*
X33855222Y-24934500D01*
X33855216Y-24934500D01*
X33774425Y-24940858D01*
X33586504Y-24991212D01*
X33413161Y-25079534D01*
X33261968Y-25201968D01*
X33171366Y-25313852D01*
X33113879Y-25353563D01*
X33044048Y-25355891D01*
X32984044Y-25320095D01*
X32978634Y-25313852D01*
X32953927Y-25283342D01*
X32888032Y-25201968D01*
X32736840Y-25079535D01*
X32623205Y-25021635D01*
X32572409Y-24973661D01*
X32555500Y-24911150D01*
X32555500Y-24431079D01*
X32526659Y-24286092D01*
X32526658Y-24286091D01*
X32526658Y-24286087D01*
X32514234Y-24256093D01*
X32470087Y-24149511D01*
X32470080Y-24149498D01*
X32387952Y-24026585D01*
X32386350Y-24024983D01*
X32283416Y-23922049D01*
X32034360Y-23672993D01*
X31078421Y-22717052D01*
X31078414Y-22717046D01*
X31004729Y-22667812D01*
X31004729Y-22667813D01*
X30955491Y-22634913D01*
X30818917Y-22578343D01*
X30818907Y-22578340D01*
X30673920Y-22549500D01*
X30673918Y-22549500D01*
X26826082Y-22549500D01*
X26826076Y-22549500D01*
X26797242Y-22555234D01*
X26797243Y-22555235D01*
X26681093Y-22578339D01*
X26681089Y-22578340D01*
X26606029Y-22609432D01*
X26544509Y-22634914D01*
X26544496Y-22634921D01*
X26495269Y-22667813D01*
X26421588Y-22717044D01*
X26421580Y-22717050D01*
X26117048Y-23021584D01*
X24617047Y-24521584D01*
X24617045Y-24521586D01*
X24580697Y-24575989D01*
X24580695Y-24575992D01*
X24534919Y-24644499D01*
X24534912Y-24644511D01*
X24478343Y-24781082D01*
X24478340Y-24781092D01*
X24449500Y-24926079D01*
X24449500Y-52474582D01*
X24429815Y-52541621D01*
X24398385Y-52574900D01*
X24352787Y-52608028D01*
X24352782Y-52608032D01*
X24208028Y-52752786D01*
X24087715Y-52918386D01*
X23994781Y-53100776D01*
X23931522Y-53295465D01*
X23899500Y-53497648D01*
X18540500Y-53497648D01*
X18540500Y-20544500D01*
X18560185Y-20477461D01*
X18612989Y-20431706D01*
X18664500Y-20420500D01*
X20583655Y-20420500D01*
X20650694Y-20440185D01*
G37*
%TD.AperFunction*%
%TD*%
M02*
