%TF.GenerationSoftware,KiCad,Pcbnew,9.0.0*%
%TF.CreationDate,2025-03-11T13:16:13+01:00*%
%TF.ProjectId,SergiMarsol_projecte_MISE,53657267-694d-4617-9273-6f6c5f70726f,rev?*%
%TF.SameCoordinates,Original*%
%TF.FileFunction,Copper,L2,Bot*%
%TF.FilePolarity,Positive*%
%FSLAX46Y46*%
G04 Gerber Fmt 4.6, Leading zero omitted, Abs format (unit mm)*
G04 Created by KiCad (PCBNEW 9.0.0) date 2025-03-11 13:16:13*
%MOMM*%
%LPD*%
G01*
G04 APERTURE LIST*
G04 Aperture macros list*
%AMRoundRect*
0 Rectangle with rounded corners*
0 $1 Rounding radius*
0 $2 $3 $4 $5 $6 $7 $8 $9 X,Y pos of 4 corners*
0 Add a 4 corners polygon primitive as box body*
4,1,4,$2,$3,$4,$5,$6,$7,$8,$9,$2,$3,0*
0 Add four circle primitives for the rounded corners*
1,1,$1+$1,$2,$3*
1,1,$1+$1,$4,$5*
1,1,$1+$1,$6,$7*
1,1,$1+$1,$8,$9*
0 Add four rect primitives between the rounded corners*
20,1,$1+$1,$2,$3,$4,$5,0*
20,1,$1+$1,$4,$5,$6,$7,0*
20,1,$1+$1,$6,$7,$8,$9,0*
20,1,$1+$1,$8,$9,$2,$3,0*%
G04 Aperture macros list end*
%TA.AperFunction,ComponentPad*%
%ADD10R,1.700000X1.700000*%
%TD*%
%TA.AperFunction,ComponentPad*%
%ADD11R,1.700000X1.800000*%
%TD*%
%TA.AperFunction,ComponentPad*%
%ADD12RoundRect,0.425000X0.425000X-0.475000X0.425000X0.475000X-0.425000X0.475000X-0.425000X-0.475000X0*%
%TD*%
%TA.AperFunction,ComponentPad*%
%ADD13C,4.000000*%
%TD*%
%TA.AperFunction,ComponentPad*%
%ADD14O,1.700000X1.700000*%
%TD*%
%TA.AperFunction,ComponentPad*%
%ADD15C,2.000000*%
%TD*%
%TA.AperFunction,ComponentPad*%
%ADD16C,1.650000*%
%TD*%
%TA.AperFunction,ComponentPad*%
%ADD17C,1.950000*%
%TD*%
%TA.AperFunction,ComponentPad*%
%ADD18C,2.400000*%
%TD*%
%TA.AperFunction,ComponentPad*%
%ADD19RoundRect,0.250000X-0.650000X0.650000X-0.650000X-0.650000X0.650000X-0.650000X0.650000X0.650000X0*%
%TD*%
%TA.AperFunction,ComponentPad*%
%ADD20C,1.800000*%
%TD*%
%TA.AperFunction,ComponentPad*%
%ADD21C,3.500000*%
%TD*%
%TA.AperFunction,ComponentPad*%
%ADD22C,0.800000*%
%TD*%
%TA.AperFunction,ComponentPad*%
%ADD23R,1.560000X1.560000*%
%TD*%
%TA.AperFunction,ComponentPad*%
%ADD24C,1.560000*%
%TD*%
%TA.AperFunction,ViaPad*%
%ADD25C,1.600000*%
%TD*%
%TA.AperFunction,Conductor*%
%ADD26C,0.500000*%
%TD*%
%TA.AperFunction,Conductor*%
%ADD27C,0.750000*%
%TD*%
G04 APERTURE END LIST*
D10*
%TO.P,J6,1,Pin_1*%
%TO.N,Net-(IC1-P4.7{slash}UCB1SOMI{slash}UCB1SCL)*%
X52000000Y-43500000D03*
%TD*%
%TO.P,J11,1,Pin_1*%
%TO.N,Net-(IC1-P1.6{slash}UCA0RXD{slash}UCA0SOMI{slash}TB0.1{slash}TDI{slash}TCLK{slash}OA1-{slash}A6)*%
X84000000Y-61000000D03*
%TD*%
D11*
%TO.P,LCD1,1,VDD*%
%TO.N,VDD*%
X29265000Y-28875000D03*
D12*
%TO.P,LCD1,2,VSS*%
%TO.N,GND*%
X29265000Y-26335000D03*
%TO.P,LCD1,3,SDA*%
%TO.N,Net-(IC1-P4.6{slash}UCB1SIMO{slash}UCB1SDA)*%
X31805000Y-28875000D03*
%TO.P,LCD1,4,SCL*%
%TO.N,Net-(IC1-P4.7{slash}UCB1SOMI{slash}UCB1SCL)*%
X31805000Y-26335000D03*
%TO.P,LCD1,5,RST*%
%TO.N,rst_lcd*%
X34345000Y-28875000D03*
%TO.P,LCD1,6,A*%
%TO.N,unconnected-(LCD1-A-Pad6)*%
X34345000Y-26335000D03*
%TO.P,LCD1,7,K*%
%TO.N,unconnected-(LCD1-K-Pad7)*%
X36885000Y-28875000D03*
%TO.P,LCD1,8,NC*%
%TO.N,unconnected-(LCD1-NC-Pad8)*%
X36885000Y-26335000D03*
D13*
%TO.P,LCD1,9*%
%TO.N,N/C*%
X44475000Y-26850000D03*
%TO.P,LCD1,10*%
X44475000Y-87850000D03*
%TO.P,LCD1,11*%
X21475000Y-87850000D03*
%TO.P,LCD1,12*%
X21475000Y-26850000D03*
%TD*%
D10*
%TO.P,J10,1,Pin_1*%
%TO.N,Net-(IC1-P1.7{slash}UCA0TXD{slash}UCA0SIMO{slash}TB0.2{slash}TDO{slash}OA1+{slash}A7{slash}VREF+)*%
X72040000Y-67540000D03*
%TD*%
%TO.P,J2,1,Pin_1*%
%TO.N,Net-(IC1-~{RST}{slash}NMI{slash}SBWTDIO)*%
X83500000Y-26910000D03*
D14*
%TO.P,J2,2,Pin_2*%
%TO.N,Net-(IC1-TEST{slash}SBWTCK)*%
X83500000Y-29450000D03*
%TO.P,J2,3,Pin_3*%
%TO.N,GND*%
X83500000Y-31990000D03*
%TD*%
D15*
%TO.P,SW1,1,1*%
%TO.N,Net-(IC1-~{RST}{slash}NMI{slash}SBWTDIO)*%
X68500000Y-24000000D03*
X75000000Y-24000000D03*
%TO.P,SW1,2,2*%
%TO.N,GND*%
X68500000Y-28500000D03*
X75000000Y-28500000D03*
%TD*%
D10*
%TO.P,J8,1,Pin_1*%
%TO.N,Net-(IC1-P1.1{slash}UCB0CLK{slash}ACLK{slash}OA0O{slash}COMP0.1{slash}A1)*%
X76200000Y-49300000D03*
%TD*%
%TO.P,J12,1,Pin_1*%
%TO.N,Net-(IC1-P3.2{slash}OA2-)*%
X90000000Y-40000000D03*
%TD*%
%TO.P,J7,1,Pin_1*%
%TO.N,Net-(IC1-P4.6{slash}UCB1SIMO{slash}UCB1SDA)*%
X52000000Y-48500000D03*
%TD*%
%TO.P,R1,1*%
%TO.N,VDD*%
X93500000Y-79960000D03*
D14*
%TO.P,R1,2*%
%TO.N,Net-(IC1-P3.3{slash}OA2+)*%
X93500000Y-82500000D03*
%TD*%
D10*
%TO.P,J13,1,Pin_1*%
%TO.N,Net-(IC1-P3.3{slash}OA2+)*%
X93500000Y-74000000D03*
%TD*%
D16*
%TO.P,S1,1,1*%
%TO.N,VDD*%
X75637500Y-91175000D03*
%TO.P,S1,2,2*%
%TO.N,AO_1*%
X78137500Y-91175000D03*
%TO.P,S1,3,3*%
%TO.N,GND*%
X80637500Y-91175000D03*
%TO.P,S1,11,1'*%
%TO.N,VDD*%
X69407500Y-79945000D03*
%TO.P,S1,12,2'*%
%TO.N,AO_2*%
X69407500Y-82445000D03*
%TO.P,S1,13,3'*%
%TO.N,GND*%
X69407500Y-84945000D03*
D17*
%TO.P,S1,A1,COM_1*%
X81387500Y-76695000D03*
%TO.P,S1,B1,COM_2*%
%TO.N,unconnected-(S1-COM_2-PadB1)*%
X74887500Y-76695000D03*
%TO.P,S1,C1,NO_1*%
%TO.N,Net-(IC1-P1.5{slash}UCA0CLK{slash}TMS{slash}OA1O{slash}A5)*%
X81387500Y-72195000D03*
%TO.P,S1,D1,NO_2*%
%TO.N,unconnected-(S1-NO_2-PadD1)*%
X74887500Y-72195000D03*
D18*
%TO.P,S1,MH1,MH1*%
%TO.N,unconnected-(S1-PadMH1)*%
X71812500Y-87445000D03*
%TO.P,S1,MH2,MH2*%
%TO.N,unconnected-(S1-PadMH2)*%
X84462500Y-87445000D03*
%TO.P,S1,MH3,MH3*%
%TO.N,unconnected-(S1-PadMH3)*%
X84462500Y-77445000D03*
%TO.P,S1,MH4,MH4*%
%TO.N,unconnected-(S1-PadMH4)*%
X71812500Y-77445000D03*
%TD*%
D10*
%TO.P,J3,1,Pin_1*%
%TO.N,Net-(IC1-P1.7{slash}UCA0TXD{slash}UCA0SIMO{slash}TB0.2{slash}TDO{slash}OA1+{slash}A7{slash}VREF+)*%
X76960000Y-67540000D03*
D14*
%TO.P,J3,2,Pin_2*%
%TO.N,VDD*%
X76960000Y-65000000D03*
%TO.P,J3,3,Pin_3*%
%TO.N,unconnected-(J3-Pin_3-Pad3)*%
X79500000Y-67540000D03*
%TO.P,J3,4,Pin_4*%
%TO.N,unconnected-(J3-Pin_4-Pad4)*%
X79500000Y-65000000D03*
%TO.P,J3,5,Pin_5*%
%TO.N,unconnected-(J3-Pin_5-Pad5)*%
X82040000Y-67540000D03*
%TO.P,J3,6,Pin_6*%
%TO.N,Net-(J3-Pin_6)*%
X82040000Y-65000000D03*
%TO.P,J3,7,Pin_7*%
%TO.N,GND*%
X84580000Y-67540000D03*
%TO.P,J3,8,Pin_8*%
%TO.N,Net-(IC1-P1.6{slash}UCA0RXD{slash}UCA0SOMI{slash}TB0.1{slash}TDI{slash}TCLK{slash}OA1-{slash}A6)*%
X84580000Y-65000000D03*
%TD*%
D19*
%TO.P,J1,1,Pin_1*%
%TO.N,VDD*%
X31500000Y-49800000D03*
D20*
%TO.P,J1,2,Pin_2*%
X34040000Y-49800000D03*
%TO.P,J1,3,Pin_3*%
%TO.N,unconnected-(J1-Pin_3-Pad3)*%
X31500000Y-52340000D03*
%TO.P,J1,4,Pin_4*%
%TO.N,Net-(IC1-P6.1{slash}TB3.2)*%
X34040000Y-52340000D03*
%TO.P,J1,5,Pin_5*%
%TO.N,unconnected-(J1-Pin_5-Pad5)*%
X31500000Y-54880000D03*
%TO.P,J1,6,Pin_6*%
%TO.N,Net-(IC1-P6.0{slash}TB3.1)*%
X34040000Y-54880000D03*
%TO.P,J1,7,Pin_7*%
%TO.N,unconnected-(J1-Pin_7-Pad7)*%
X31500000Y-57420000D03*
%TO.P,J1,8,Pin_8*%
%TO.N,unconnected-(J1-Pin_8-Pad8)*%
X34040000Y-57420000D03*
%TO.P,J1,9,Pin_9*%
%TO.N,Net-(IC1-P4.7{slash}UCB1SOMI{slash}UCB1SCL)*%
X31500000Y-59960000D03*
%TO.P,J1,10,Pin_10*%
%TO.N,unconnected-(J1-Pin_10-Pad10)*%
X34040000Y-59960000D03*
%TO.P,J1,11,Pin_11*%
%TO.N,Net-(IC1-P4.6{slash}UCB1SIMO{slash}UCB1SDA)*%
X31500000Y-62500000D03*
%TO.P,J1,12,Pin_12*%
%TO.N,unconnected-(J1-Pin_12-Pad12)*%
X34040000Y-62500000D03*
%TO.P,J1,13,Pin_13*%
%TO.N,GND*%
X31500000Y-65040000D03*
%TO.P,J1,14,Pin_14*%
X34040000Y-65040000D03*
D21*
%TO.P,J1,15*%
%TO.N,N/C*%
X94040000Y-57420000D03*
%TO.P,J1,16*%
X64040000Y-84420000D03*
%TO.P,J1,17*%
X64040000Y-30420000D03*
%TO.P,J1,18*%
X22040000Y-92420000D03*
%TO.P,J1,19*%
X22040000Y-22420000D03*
%TD*%
D10*
%TO.P,J4,1,Pin_1*%
%TO.N,VDD*%
X52500000Y-89500000D03*
%TD*%
%TO.P,R2,1*%
%TO.N,VDD*%
X90000000Y-35775000D03*
D14*
%TO.P,R2,2*%
%TO.N,Net-(IC1-P3.2{slash}OA2-)*%
X90000000Y-33235000D03*
%TD*%
D10*
%TO.P,J9,1,Pin_1*%
%TO.N,Net-(IC1-P1.0{slash}UCB0STE{slash}SMCLK{slash}COMP0.0{slash}A0{slash}VEREF+)*%
X76100000Y-45400000D03*
%TD*%
D22*
%TO.P,Y1,1,1*%
%TO.N,Net-(IC1-P2.7{slash}TB0CLK{slash}XIN)*%
X64000000Y-47500000D03*
%TO.P,Y1,2,2*%
%TO.N,Net-(IC1-P2.6{slash}MCLK{slash}XOUT)*%
X63000000Y-47500000D03*
%TD*%
D10*
%TO.P,J5,1,Pin_1*%
%TO.N,GND*%
X60500000Y-89500000D03*
%TD*%
D23*
%TO.P,RV1,1,1*%
%TO.N,unconnected-(RV1-Pad1)*%
X93740000Y-86500000D03*
D24*
%TO.P,RV1,2,2*%
%TO.N,Net-(IC1-P3.3{slash}OA2+)*%
X88740000Y-89000000D03*
%TO.P,RV1,3,3*%
%TO.N,GND*%
X93740000Y-91500000D03*
%TD*%
D23*
%TO.P,RV2,1,1*%
%TO.N,unconnected-(RV2-Pad1)*%
X93740000Y-23500000D03*
D24*
%TO.P,RV2,2,2*%
%TO.N,Net-(IC1-P3.2{slash}OA2-)*%
X88740000Y-26000000D03*
%TO.P,RV2,3,3*%
%TO.N,GND*%
X93740000Y-28500000D03*
%TD*%
D25*
%TO.N,GND*%
X45600000Y-74900000D03*
X61500000Y-39000000D03*
%TO.N,Net-(IC1-P2.3{slash}TB1TRG)*%
X61200000Y-66300000D03*
X47500000Y-79600000D03*
%TO.N,Net-(IC1-P4.7{slash}UCB1SOMI{slash}UCB1SCL)*%
X25200000Y-53600000D03*
%TO.N,Net-(IC1-P2.0{slash}TB1.1{slash}COMP0.O)*%
X58380000Y-78620000D03*
X66250000Y-66750000D03*
%TO.N,AO_2*%
X46200000Y-71200000D03*
%TO.N,VDD*%
X40533884Y-41566116D03*
%TO.N,rst_lcd*%
X73600000Y-58300000D03*
%TD*%
D26*
%TO.N,Net-(IC1-P2.3{slash}TB1TRG)*%
X47500000Y-79600000D02*
X47900000Y-79600000D01*
X47900000Y-79600000D02*
X61200000Y-66300000D01*
%TO.N,Net-(IC1-P4.7{slash}UCB1SOMI{slash}UCB1SCL)*%
X25200000Y-53660000D02*
X31500000Y-59960000D01*
X33300000Y-23300000D02*
X37458762Y-23300000D01*
X31805000Y-24795000D02*
X33300000Y-23300000D01*
X37458762Y-23300000D02*
X52000000Y-37841238D01*
X25200000Y-53600000D02*
X25200000Y-53660000D01*
X52000000Y-37841238D02*
X52000000Y-43500000D01*
X31805000Y-26335000D02*
X31805000Y-24795000D01*
%TO.N,Net-(IC1-P2.0{slash}TB1.1{slash}COMP0.O)*%
X66250000Y-70750000D02*
X66250000Y-66750000D01*
X58380000Y-78620000D02*
X66250000Y-70750000D01*
%TO.N,AO_2*%
X42400000Y-75000000D02*
X42400000Y-79400000D01*
X46200000Y-71200000D02*
X42400000Y-75000000D01*
X45219000Y-82219000D02*
X69181500Y-82219000D01*
X69181500Y-82219000D02*
X69407500Y-82445000D01*
X42400000Y-79400000D02*
X45219000Y-82219000D01*
D27*
%TO.N,VDD*%
X40533884Y-42633884D02*
X62900000Y-65000000D01*
X62900000Y-65000000D02*
X76960000Y-65000000D01*
X40533884Y-41566116D02*
X40533884Y-42633884D01*
X34040000Y-49800000D02*
X31500000Y-49800000D01*
X29265000Y-28875000D02*
X29265000Y-47565000D01*
X29265000Y-47565000D02*
X31500000Y-49800000D01*
X29265000Y-28875000D02*
X29265000Y-30565000D01*
X29265000Y-30565000D02*
X40266116Y-41566116D01*
X40266116Y-41566116D02*
X40533884Y-41566116D01*
D26*
%TO.N,rst_lcd*%
X69200000Y-58300000D02*
X73600000Y-58300000D01*
X34345000Y-29845000D02*
X50400000Y-45900000D01*
X34345000Y-28875000D02*
X34345000Y-29845000D01*
X50400000Y-45900000D02*
X56800000Y-45900000D01*
X56800000Y-45900000D02*
X69200000Y-58300000D01*
%TD*%
%TA.AperFunction,Conductor*%
%TO.N,GND*%
G36*
X32856420Y-63256705D02*
G01*
X32870318Y-63272745D01*
X32971752Y-63412358D01*
X32971756Y-63412363D01*
X33127640Y-63568247D01*
X33267679Y-63669990D01*
X33310345Y-63725319D01*
X33316324Y-63794933D01*
X33283719Y-63856728D01*
X33267679Y-63870626D01*
X33242485Y-63888930D01*
X33242485Y-63888932D01*
X33910590Y-64557037D01*
X33847007Y-64574075D01*
X33732993Y-64639901D01*
X33639901Y-64732993D01*
X33574075Y-64847007D01*
X33557037Y-64910590D01*
X32888932Y-64242485D01*
X32888930Y-64242485D01*
X32870317Y-64268105D01*
X32814988Y-64310771D01*
X32745374Y-64316750D01*
X32683579Y-64284145D01*
X32669681Y-64268105D01*
X32651067Y-64242485D01*
X32651065Y-64242485D01*
X31982962Y-64910589D01*
X31965925Y-64847007D01*
X31900099Y-64732993D01*
X31807007Y-64639901D01*
X31692993Y-64574075D01*
X31629407Y-64557037D01*
X32297513Y-63888932D01*
X32272319Y-63870628D01*
X32229653Y-63815298D01*
X32223674Y-63745685D01*
X32256279Y-63683889D01*
X32272313Y-63669994D01*
X32412365Y-63568242D01*
X32568242Y-63412365D01*
X32578804Y-63397826D01*
X32669682Y-63272745D01*
X32725011Y-63230079D01*
X32794625Y-63224100D01*
X32856420Y-63256705D01*
G37*
%TD.AperFunction*%
%TA.AperFunction,Conductor*%
G36*
X20650694Y-20440185D02*
G01*
X20696449Y-20492989D01*
X20706393Y-20562147D01*
X20677368Y-20625703D01*
X20659142Y-20642876D01*
X20552952Y-20724358D01*
X20344358Y-20932952D01*
X20344352Y-20932959D01*
X20164761Y-21167006D01*
X20017258Y-21422489D01*
X20017254Y-21422499D01*
X19904364Y-21695038D01*
X19904361Y-21695048D01*
X19828008Y-21980004D01*
X19828006Y-21980015D01*
X19789500Y-22272486D01*
X19789500Y-22567513D01*
X19809188Y-22717049D01*
X19828007Y-22859993D01*
X19828008Y-22859995D01*
X19904361Y-23144951D01*
X19904364Y-23144961D01*
X20017254Y-23417500D01*
X20017258Y-23417510D01*
X20164761Y-23672993D01*
X20344352Y-23907040D01*
X20344358Y-23907047D01*
X20552952Y-24115641D01*
X20552956Y-24115644D01*
X20552958Y-24115646D01*
X20735992Y-24256093D01*
X20777194Y-24312521D01*
X20781349Y-24382267D01*
X20747137Y-24443187D01*
X20701460Y-24471510D01*
X20516588Y-24536200D01*
X20263557Y-24658053D01*
X20025753Y-24807476D01*
X19806175Y-24982583D01*
X19607583Y-25181175D01*
X19432476Y-25400753D01*
X19283053Y-25638557D01*
X19161200Y-25891588D01*
X19068443Y-26156670D01*
X19068439Y-26156682D01*
X19005945Y-26430487D01*
X19005942Y-26430505D01*
X18974500Y-26709568D01*
X18974500Y-26990431D01*
X19005942Y-27269494D01*
X19005945Y-27269512D01*
X19068439Y-27543317D01*
X19068443Y-27543329D01*
X19161200Y-27808411D01*
X19283053Y-28061442D01*
X19283055Y-28061445D01*
X19432477Y-28299248D01*
X19512236Y-28399262D01*
X19592571Y-28500000D01*
X19607584Y-28518825D01*
X19806175Y-28717416D01*
X20025752Y-28892523D01*
X20263555Y-29041945D01*
X20516592Y-29163801D01*
X20715680Y-29233465D01*
X20781670Y-29256556D01*
X20781682Y-29256560D01*
X21055491Y-29319055D01*
X21055497Y-29319055D01*
X21055505Y-29319057D01*
X21241547Y-29340018D01*
X21334569Y-29350499D01*
X21334572Y-29350500D01*
X21334575Y-29350500D01*
X21615428Y-29350500D01*
X21615429Y-29350499D01*
X21758055Y-29334429D01*
X21894494Y-29319057D01*
X21894499Y-29319056D01*
X21894509Y-29319055D01*
X22168318Y-29256560D01*
X22433408Y-29163801D01*
X22686445Y-29041945D01*
X22924248Y-28892523D01*
X23143825Y-28717416D01*
X23342416Y-28518825D01*
X23517523Y-28299248D01*
X23666945Y-28061445D01*
X23788801Y-27808408D01*
X23881560Y-27543318D01*
X23944055Y-27269509D01*
X23946370Y-27248969D01*
X23975499Y-26990431D01*
X23975500Y-26990427D01*
X23975500Y-26709572D01*
X23975499Y-26709568D01*
X23944057Y-26430505D01*
X23944054Y-26430487D01*
X23907235Y-26269174D01*
X23881560Y-26156682D01*
X23788801Y-25891592D01*
X23697717Y-25702454D01*
X23666948Y-25638560D01*
X23652901Y-25616204D01*
X23517523Y-25400752D01*
X23342416Y-25181175D01*
X23143825Y-24982584D01*
X23137462Y-24977510D01*
X22924244Y-24807474D01*
X22822635Y-24743628D01*
X22776345Y-24691294D01*
X22765697Y-24622240D01*
X22794072Y-24558392D01*
X22841155Y-24524074D01*
X23037507Y-24442743D01*
X23292994Y-24295238D01*
X23527042Y-24115646D01*
X23735646Y-23907042D01*
X23915238Y-23672994D01*
X24062743Y-23417507D01*
X24175639Y-23144952D01*
X24251993Y-22859993D01*
X24290500Y-22567506D01*
X24290500Y-22272494D01*
X24251993Y-21980007D01*
X24175639Y-21695048D01*
X24062743Y-21422493D01*
X23915238Y-21167006D01*
X23735646Y-20932958D01*
X23735641Y-20932952D01*
X23527047Y-20724358D01*
X23420858Y-20642876D01*
X23379656Y-20586448D01*
X23375501Y-20516702D01*
X23409714Y-20455781D01*
X23471431Y-20423029D01*
X23496345Y-20420500D01*
X97415500Y-20420500D01*
X97482539Y-20440185D01*
X97528294Y-20492989D01*
X97539500Y-20544500D01*
X97539500Y-94295500D01*
X97519815Y-94362539D01*
X97467011Y-94408294D01*
X97415500Y-94419500D01*
X23496345Y-94419500D01*
X23429306Y-94399815D01*
X23383551Y-94347011D01*
X23373607Y-94277853D01*
X23402632Y-94214297D01*
X23420858Y-94197124D01*
X23527042Y-94115646D01*
X23735646Y-93907042D01*
X23915238Y-93672994D01*
X24062743Y-93417507D01*
X24175639Y-93144952D01*
X24251993Y-92859993D01*
X24290500Y-92567506D01*
X24290500Y-92272494D01*
X24251993Y-91980007D01*
X24175639Y-91695048D01*
X24062743Y-91422493D01*
X24042420Y-91387292D01*
X23915238Y-91167005D01*
X23895510Y-91141296D01*
X23895509Y-91141295D01*
X23841320Y-91070675D01*
X74312000Y-91070675D01*
X74312000Y-91279324D01*
X74344637Y-91485389D01*
X74409112Y-91683820D01*
X74497985Y-91858243D01*
X74503830Y-91869714D01*
X74626465Y-92038505D01*
X74773995Y-92186035D01*
X74942786Y-92308670D01*
X75030616Y-92353421D01*
X75128679Y-92403387D01*
X75128681Y-92403387D01*
X75128684Y-92403389D01*
X75235045Y-92437948D01*
X75327110Y-92467862D01*
X75533176Y-92500500D01*
X75533181Y-92500500D01*
X75741824Y-92500500D01*
X75947889Y-92467862D01*
X75949394Y-92467373D01*
X76146316Y-92403389D01*
X76332214Y-92308670D01*
X76501005Y-92186035D01*
X76648535Y-92038505D01*
X76771170Y-91869714D01*
X76777015Y-91858243D01*
X76824989Y-91807447D01*
X76892810Y-91790651D01*
X76958945Y-91813188D01*
X76997985Y-91858243D01*
X77003828Y-91869712D01*
X77025906Y-91900099D01*
X77126465Y-92038505D01*
X77273995Y-92186035D01*
X77442786Y-92308670D01*
X77530616Y-92353421D01*
X77628679Y-92403387D01*
X77628681Y-92403387D01*
X77628684Y-92403389D01*
X77735045Y-92437948D01*
X77827110Y-92467862D01*
X78033176Y-92500500D01*
X78033181Y-92500500D01*
X78241824Y-92500500D01*
X78447889Y-92467862D01*
X78449394Y-92467373D01*
X78646316Y-92403389D01*
X78832214Y-92308670D01*
X79001005Y-92186035D01*
X79148535Y-92038505D01*
X79271170Y-91869714D01*
X79277294Y-91857692D01*
X79325266Y-91806896D01*
X79393086Y-91790098D01*
X79459222Y-91812632D01*
X79498265Y-91857689D01*
X79504255Y-91869446D01*
X79540127Y-91918818D01*
X79540127Y-91918819D01*
X80113712Y-91345233D01*
X80124982Y-91387292D01*
X80197390Y-91512708D01*
X80299792Y-91615110D01*
X80425208Y-91687518D01*
X80467265Y-91698787D01*
X79893679Y-92272371D01*
X79893680Y-92272372D01*
X79943043Y-92308236D01*
X79943056Y-92308244D01*
X80128872Y-92402924D01*
X80327227Y-92467373D01*
X80533221Y-92500000D01*
X80741779Y-92500000D01*
X80947772Y-92467373D01*
X81146123Y-92402925D01*
X81146130Y-92402922D01*
X81331951Y-92308240D01*
X81381318Y-92272372D01*
X81381318Y-92272371D01*
X80807734Y-91698787D01*
X80849792Y-91687518D01*
X80975208Y-91615110D01*
X81077610Y-91512708D01*
X81150018Y-91387292D01*
X81161287Y-91345234D01*
X81734871Y-91918818D01*
X81734872Y-91918818D01*
X81770740Y-91869451D01*
X81865424Y-91683627D01*
X81929874Y-91485272D01*
X81943497Y-91399262D01*
X92460000Y-91399262D01*
X92460000Y-91600737D01*
X92491518Y-91799735D01*
X92553775Y-91991346D01*
X92553776Y-91991349D01*
X92645248Y-92170869D01*
X92674842Y-92211602D01*
X92674843Y-92211603D01*
X93257037Y-91629408D01*
X93274075Y-91692993D01*
X93339901Y-91807007D01*
X93432993Y-91900099D01*
X93547007Y-91965925D01*
X93610590Y-91982962D01*
X93028395Y-92565155D01*
X93069133Y-92594753D01*
X93248650Y-92686223D01*
X93248653Y-92686224D01*
X93440264Y-92748481D01*
X93639263Y-92780000D01*
X93840737Y-92780000D01*
X94039735Y-92748481D01*
X94231346Y-92686224D01*
X94231349Y-92686223D01*
X94410866Y-92594753D01*
X94451602Y-92565156D01*
X94451602Y-92565155D01*
X93869409Y-91982962D01*
X93932993Y-91965925D01*
X94047007Y-91900099D01*
X94140099Y-91807007D01*
X94205925Y-91692993D01*
X94222962Y-91629409D01*
X94805155Y-92211602D01*
X94805156Y-92211602D01*
X94834753Y-92170866D01*
X94926223Y-91991349D01*
X94926224Y-91991346D01*
X94988481Y-91799735D01*
X95020000Y-91600737D01*
X95020000Y-91399262D01*
X94988481Y-91200264D01*
X94926224Y-91008653D01*
X94926223Y-91008650D01*
X94834753Y-90829133D01*
X94805155Y-90788396D01*
X94805155Y-90788395D01*
X94222962Y-91370589D01*
X94205925Y-91307007D01*
X94140099Y-91192993D01*
X94047007Y-91099901D01*
X93932993Y-91034075D01*
X93869408Y-91017037D01*
X94451603Y-90434843D01*
X94451602Y-90434842D01*
X94410869Y-90405248D01*
X94231349Y-90313776D01*
X94231346Y-90313775D01*
X94039735Y-90251518D01*
X93840737Y-90220000D01*
X93639263Y-90220000D01*
X93440264Y-90251518D01*
X93248653Y-90313775D01*
X93248650Y-90313776D01*
X93069135Y-90405245D01*
X93069133Y-90405246D01*
X93028396Y-90434842D01*
X93028396Y-90434843D01*
X93610591Y-91017037D01*
X93547007Y-91034075D01*
X93432993Y-91099901D01*
X93339901Y-91192993D01*
X93274075Y-91307007D01*
X93257037Y-91370590D01*
X92674843Y-90788396D01*
X92674842Y-90788396D01*
X92645246Y-90829133D01*
X92645245Y-90829135D01*
X92553776Y-91008650D01*
X92553775Y-91008653D01*
X92491518Y-91200264D01*
X92460000Y-91399262D01*
X81943497Y-91399262D01*
X81947341Y-91374992D01*
X81947341Y-91374991D01*
X81962500Y-91279280D01*
X81962500Y-91070720D01*
X81929873Y-90864727D01*
X81865423Y-90666370D01*
X81800217Y-90538398D01*
X81800216Y-90538397D01*
X81770744Y-90480556D01*
X81770736Y-90480543D01*
X81734872Y-90431180D01*
X81734871Y-90431179D01*
X81161287Y-91004764D01*
X81150018Y-90962708D01*
X81077610Y-90837292D01*
X80975208Y-90734890D01*
X80849792Y-90662482D01*
X80807733Y-90651212D01*
X81381319Y-90077627D01*
X81331951Y-90041759D01*
X81146127Y-89947075D01*
X80947772Y-89882626D01*
X80741779Y-89850000D01*
X80533221Y-89850000D01*
X80327227Y-89882626D01*
X80128872Y-89947075D01*
X79943052Y-90041757D01*
X79893680Y-90077627D01*
X80467266Y-90651212D01*
X80425208Y-90662482D01*
X80299792Y-90734890D01*
X80197390Y-90837292D01*
X80124982Y-90962708D01*
X80113712Y-91004765D01*
X79540127Y-90431180D01*
X79504255Y-90480555D01*
X79504254Y-90480556D01*
X79498264Y-90492313D01*
X79450288Y-90543108D01*
X79382467Y-90559901D01*
X79316332Y-90537361D01*
X79277295Y-90492308D01*
X79271170Y-90480286D01*
X79148535Y-90311495D01*
X79001005Y-90163965D01*
X78832214Y-90041330D01*
X78646320Y-89946612D01*
X78447889Y-89882137D01*
X78241824Y-89849500D01*
X78241819Y-89849500D01*
X78033181Y-89849500D01*
X78033176Y-89849500D01*
X77827110Y-89882137D01*
X77628679Y-89946612D01*
X77442785Y-90041330D01*
X77273993Y-90163966D01*
X77126466Y-90311493D01*
X77003830Y-90480286D01*
X76997984Y-90491759D01*
X76950008Y-90542554D01*
X76882187Y-90559348D01*
X76816053Y-90536809D01*
X76777016Y-90491759D01*
X76775803Y-90489380D01*
X76771170Y-90480286D01*
X76648535Y-90311495D01*
X76501005Y-90163965D01*
X76332214Y-90041330D01*
X76146320Y-89946612D01*
X75947889Y-89882137D01*
X75741824Y-89849500D01*
X75741819Y-89849500D01*
X75533181Y-89849500D01*
X75533176Y-89849500D01*
X75327110Y-89882137D01*
X75128679Y-89946612D01*
X74942785Y-90041330D01*
X74773993Y-90163966D01*
X74626466Y-90311493D01*
X74503830Y-90480285D01*
X74409112Y-90666179D01*
X74344637Y-90864610D01*
X74312000Y-91070675D01*
X23841320Y-91070675D01*
X23735647Y-90932959D01*
X23735641Y-90932952D01*
X23527047Y-90724358D01*
X23527040Y-90724352D01*
X23292993Y-90544761D01*
X23037510Y-90397258D01*
X23037500Y-90397254D01*
X22764961Y-90284364D01*
X22764954Y-90284362D01*
X22764955Y-90284362D01*
X22764952Y-90284361D01*
X22713660Y-90270617D01*
X22654001Y-90234252D01*
X22623472Y-90171405D01*
X22631767Y-90102030D01*
X22676253Y-90048152D01*
X22685791Y-90042306D01*
X22686432Y-90041950D01*
X22686445Y-90041945D01*
X22924248Y-89892523D01*
X23143825Y-89717416D01*
X23342416Y-89518825D01*
X23517523Y-89299248D01*
X23666945Y-89061445D01*
X23788801Y-88808408D01*
X23881560Y-88543318D01*
X23944055Y-88269509D01*
X23951188Y-88206206D01*
X23971797Y-88023289D01*
X23975500Y-87990425D01*
X23975500Y-87709575D01*
X23975499Y-87709568D01*
X41974500Y-87709568D01*
X41974500Y-87990431D01*
X42005942Y-88269494D01*
X42005945Y-88269512D01*
X42068439Y-88543317D01*
X42068443Y-88543329D01*
X42161200Y-88808411D01*
X42283053Y-89061442D01*
X42283055Y-89061445D01*
X42432477Y-89299248D01*
X42432958Y-89299851D01*
X42585826Y-89491542D01*
X42607584Y-89518825D01*
X42806175Y-89717416D01*
X43025752Y-89892523D01*
X43263555Y-90041945D01*
X43516592Y-90163801D01*
X43677200Y-90220000D01*
X43781670Y-90256556D01*
X43781682Y-90256560D01*
X44055491Y-90319055D01*
X44055497Y-90319055D01*
X44055505Y-90319057D01*
X44241547Y-90340018D01*
X44334569Y-90350499D01*
X44334572Y-90350500D01*
X44334575Y-90350500D01*
X44615428Y-90350500D01*
X44615429Y-90350499D01*
X44758055Y-90334429D01*
X44894494Y-90319057D01*
X44894499Y-90319056D01*
X44894509Y-90319055D01*
X45168318Y-90256560D01*
X45433408Y-90163801D01*
X45686445Y-90041945D01*
X45924248Y-89892523D01*
X46143825Y-89717416D01*
X46342416Y-89518825D01*
X46517523Y-89299248D01*
X46666945Y-89061445D01*
X46788801Y-88808408D01*
X46860979Y-88602135D01*
X51149500Y-88602135D01*
X51149500Y-90397870D01*
X51149501Y-90397876D01*
X51155908Y-90457483D01*
X51206202Y-90592328D01*
X51206206Y-90592335D01*
X51292452Y-90707544D01*
X51292455Y-90707547D01*
X51407664Y-90793793D01*
X51407671Y-90793797D01*
X51542517Y-90844091D01*
X51542516Y-90844091D01*
X51549444Y-90844835D01*
X51602127Y-90850500D01*
X53397872Y-90850499D01*
X53457483Y-90844091D01*
X53592331Y-90793796D01*
X53707546Y-90707546D01*
X53793796Y-90592331D01*
X53844091Y-90457483D01*
X53850500Y-90397873D01*
X53850499Y-89491542D01*
X53850499Y-88602155D01*
X59150000Y-88602155D01*
X59150000Y-89250000D01*
X60066988Y-89250000D01*
X60034075Y-89307007D01*
X60000000Y-89434174D01*
X60000000Y-89565826D01*
X60034075Y-89692993D01*
X60066988Y-89750000D01*
X59150000Y-89750000D01*
X59150000Y-90397844D01*
X59156401Y-90457372D01*
X59156403Y-90457379D01*
X59206645Y-90592086D01*
X59206649Y-90592093D01*
X59292809Y-90707187D01*
X59292812Y-90707190D01*
X59407906Y-90793350D01*
X59407913Y-90793354D01*
X59542620Y-90843596D01*
X59542627Y-90843598D01*
X59602155Y-90849999D01*
X59602172Y-90850000D01*
X60250000Y-90850000D01*
X60250000Y-89933012D01*
X60307007Y-89965925D01*
X60434174Y-90000000D01*
X60565826Y-90000000D01*
X60692993Y-89965925D01*
X60750000Y-89933012D01*
X60750000Y-90850000D01*
X61397828Y-90850000D01*
X61397844Y-90849999D01*
X61457372Y-90843598D01*
X61457379Y-90843596D01*
X61592086Y-90793354D01*
X61592093Y-90793350D01*
X61707187Y-90707190D01*
X61707190Y-90707187D01*
X61793350Y-90592093D01*
X61793354Y-90592086D01*
X61843596Y-90457379D01*
X61843598Y-90457372D01*
X61849999Y-90397844D01*
X61850000Y-90397827D01*
X61850000Y-89750000D01*
X60933012Y-89750000D01*
X60965925Y-89692993D01*
X61000000Y-89565826D01*
X61000000Y-89434174D01*
X60965925Y-89307007D01*
X60933012Y-89250000D01*
X61850000Y-89250000D01*
X61850000Y-88602172D01*
X61849999Y-88602155D01*
X61843598Y-88542627D01*
X61843596Y-88542620D01*
X61793354Y-88407913D01*
X61793350Y-88407906D01*
X61707190Y-88292812D01*
X61707187Y-88292809D01*
X61592093Y-88206649D01*
X61592086Y-88206645D01*
X61457379Y-88156403D01*
X61457372Y-88156401D01*
X61397844Y-88150000D01*
X60750000Y-88150000D01*
X60750000Y-89066988D01*
X60692993Y-89034075D01*
X60565826Y-89000000D01*
X60434174Y-89000000D01*
X60307007Y-89034075D01*
X60250000Y-89066988D01*
X60250000Y-88150000D01*
X59602155Y-88150000D01*
X59542627Y-88156401D01*
X59542620Y-88156403D01*
X59407913Y-88206645D01*
X59407906Y-88206649D01*
X59292812Y-88292809D01*
X59292809Y-88292812D01*
X59206649Y-88407906D01*
X59206645Y-88407913D01*
X59156403Y-88542620D01*
X59156401Y-88542627D01*
X59150000Y-88602155D01*
X53850499Y-88602155D01*
X53850499Y-88602129D01*
X53850498Y-88602123D01*
X53850497Y-88602116D01*
X53844091Y-88542517D01*
X53793884Y-88407906D01*
X53793797Y-88407671D01*
X53793793Y-88407664D01*
X53707547Y-88292455D01*
X53707544Y-88292452D01*
X53592335Y-88206206D01*
X53592328Y-88206202D01*
X53457482Y-88155908D01*
X53457483Y-88155908D01*
X53397883Y-88149501D01*
X53397881Y-88149500D01*
X53397873Y-88149500D01*
X53397864Y-88149500D01*
X51602129Y-88149500D01*
X51602123Y-88149501D01*
X51542516Y-88155908D01*
X51407671Y-88206202D01*
X51407664Y-88206206D01*
X51292455Y-88292452D01*
X51292452Y-88292455D01*
X51206206Y-88407664D01*
X51206202Y-88407671D01*
X51155908Y-88542517D01*
X51149501Y-88602116D01*
X51149501Y-88602123D01*
X51149500Y-88602135D01*
X46860979Y-88602135D01*
X46860981Y-88602129D01*
X46876475Y-88557851D01*
X46876475Y-88557850D01*
X46876476Y-88557848D01*
X46881557Y-88543327D01*
X46881560Y-88543317D01*
X46944055Y-88269509D01*
X46951188Y-88206206D01*
X46971797Y-88023289D01*
X46975500Y-87990425D01*
X46975500Y-87709575D01*
X46954403Y-87522331D01*
X46944057Y-87430505D01*
X46944054Y-87430486D01*
X46927299Y-87357076D01*
X46921929Y-87333549D01*
X70112000Y-87333549D01*
X70112000Y-87556450D01*
X70112001Y-87556466D01*
X70141094Y-87777452D01*
X70141095Y-87777457D01*
X70141096Y-87777463D01*
X70198790Y-87992780D01*
X70198793Y-87992790D01*
X70284093Y-88198722D01*
X70284095Y-88198726D01*
X70395552Y-88391774D01*
X70395557Y-88391780D01*
X70395558Y-88391782D01*
X70531251Y-88568622D01*
X70531257Y-88568629D01*
X70688870Y-88726242D01*
X70688877Y-88726248D01*
X70795951Y-88808408D01*
X70865726Y-88861948D01*
X71058774Y-88973405D01*
X71264719Y-89058710D01*
X71480037Y-89116404D01*
X71701043Y-89145500D01*
X71701050Y-89145500D01*
X71923950Y-89145500D01*
X71923957Y-89145500D01*
X72144963Y-89116404D01*
X72360281Y-89058710D01*
X72566226Y-88973405D01*
X72759274Y-88861948D01*
X72936124Y-88726247D01*
X73093747Y-88568624D01*
X73229448Y-88391774D01*
X73340905Y-88198726D01*
X73426210Y-87992781D01*
X73483904Y-87777463D01*
X73513000Y-87556457D01*
X73513000Y-87333549D01*
X82762000Y-87333549D01*
X82762000Y-87556450D01*
X82762001Y-87556466D01*
X82791094Y-87777452D01*
X82791095Y-87777457D01*
X82791096Y-87777463D01*
X82848790Y-87992780D01*
X82848793Y-87992790D01*
X82934093Y-88198722D01*
X82934095Y-88198726D01*
X83045552Y-88391774D01*
X83045557Y-88391780D01*
X83045558Y-88391782D01*
X83181251Y-88568622D01*
X83181257Y-88568629D01*
X83338870Y-88726242D01*
X83338877Y-88726248D01*
X83445951Y-88808408D01*
X83515726Y-88861948D01*
X83708774Y-88973405D01*
X83914719Y-89058710D01*
X84130037Y-89116404D01*
X84351043Y-89145500D01*
X84351050Y-89145500D01*
X84573950Y-89145500D01*
X84573957Y-89145500D01*
X84794963Y-89116404D01*
X85010281Y-89058710D01*
X85216226Y-88973405D01*
X85344724Y-88899216D01*
X87459500Y-88899216D01*
X87459500Y-89100783D01*
X87491030Y-89299852D01*
X87553312Y-89491539D01*
X87644818Y-89671129D01*
X87763289Y-89834190D01*
X87905810Y-89976711D01*
X88068871Y-90095182D01*
X88218467Y-90171405D01*
X88248460Y-90186687D01*
X88314077Y-90208007D01*
X88440149Y-90248970D01*
X88532348Y-90263572D01*
X88639217Y-90280500D01*
X88639222Y-90280500D01*
X88840783Y-90280500D01*
X88937289Y-90265214D01*
X89039851Y-90248970D01*
X89231542Y-90186686D01*
X89411129Y-90095182D01*
X89574190Y-89976711D01*
X89716711Y-89834190D01*
X89835182Y-89671129D01*
X89926686Y-89491542D01*
X89988970Y-89299851D01*
X90013417Y-89145498D01*
X90020500Y-89100783D01*
X90020500Y-88899216D01*
X90002156Y-88783408D01*
X89988970Y-88700149D01*
X89946235Y-88568624D01*
X89926687Y-88508460D01*
X89875452Y-88407906D01*
X89835182Y-88328871D01*
X89716711Y-88165810D01*
X89574190Y-88023289D01*
X89411129Y-87904818D01*
X89231539Y-87813312D01*
X89039852Y-87751030D01*
X88840783Y-87719500D01*
X88840778Y-87719500D01*
X88639222Y-87719500D01*
X88639217Y-87719500D01*
X88440147Y-87751030D01*
X88248460Y-87813312D01*
X88068870Y-87904818D01*
X87975838Y-87972410D01*
X87905810Y-88023289D01*
X87905808Y-88023291D01*
X87905807Y-88023291D01*
X87763291Y-88165807D01*
X87763291Y-88165808D01*
X87763289Y-88165810D01*
X87733941Y-88206204D01*
X87644818Y-88328870D01*
X87553312Y-88508460D01*
X87491030Y-88700147D01*
X87459500Y-88899216D01*
X85344724Y-88899216D01*
X85409274Y-88861948D01*
X85479049Y-88808408D01*
X85495254Y-88795974D01*
X85533934Y-88766293D01*
X85586124Y-88726247D01*
X85743747Y-88568624D01*
X85879448Y-88391774D01*
X85990905Y-88198726D01*
X86076210Y-87992781D01*
X86133904Y-87777463D01*
X86163000Y-87556457D01*
X86163000Y-87333543D01*
X86133904Y-87112537D01*
X86076210Y-86897219D01*
X85990905Y-86691274D01*
X85879448Y-86498226D01*
X85743747Y-86321376D01*
X85743742Y-86321370D01*
X85586129Y-86163757D01*
X85586122Y-86163751D01*
X85409282Y-86028058D01*
X85409280Y-86028057D01*
X85409274Y-86028052D01*
X85216226Y-85916595D01*
X85216222Y-85916593D01*
X85010290Y-85831293D01*
X85010283Y-85831291D01*
X85010281Y-85831290D01*
X84794963Y-85773596D01*
X84794957Y-85773595D01*
X84794952Y-85773594D01*
X84573966Y-85744501D01*
X84573963Y-85744500D01*
X84573957Y-85744500D01*
X84351043Y-85744500D01*
X84351037Y-85744500D01*
X84351033Y-85744501D01*
X84130047Y-85773594D01*
X84130040Y-85773595D01*
X84130037Y-85773596D01*
X84003591Y-85807477D01*
X83914719Y-85831290D01*
X83914709Y-85831293D01*
X83708777Y-85916593D01*
X83708773Y-85916595D01*
X83515726Y-86028052D01*
X83515717Y-86028058D01*
X83338877Y-86163751D01*
X83338870Y-86163757D01*
X83181257Y-86321370D01*
X83181251Y-86321377D01*
X83045558Y-86498217D01*
X83045552Y-86498226D01*
X82934095Y-86691273D01*
X82934093Y-86691277D01*
X82848793Y-86897209D01*
X82848790Y-86897219D01*
X82791097Y-87112534D01*
X82791094Y-87112547D01*
X82762001Y-87333533D01*
X82762000Y-87333549D01*
X73513000Y-87333549D01*
X73513000Y-87333543D01*
X73483904Y-87112537D01*
X73426210Y-86897219D01*
X73340905Y-86691274D01*
X73229448Y-86498226D01*
X73093747Y-86321376D01*
X73093742Y-86321370D01*
X72936129Y-86163757D01*
X72936122Y-86163751D01*
X72759282Y-86028058D01*
X72759280Y-86028057D01*
X72759274Y-86028052D01*
X72566226Y-85916595D01*
X72566222Y-85916593D01*
X72360290Y-85831293D01*
X72360283Y-85831291D01*
X72360281Y-85831290D01*
X72144963Y-85773596D01*
X72144957Y-85773595D01*
X72144952Y-85773594D01*
X71923966Y-85744501D01*
X71923963Y-85744500D01*
X71923957Y-85744500D01*
X71701043Y-85744500D01*
X71701037Y-85744500D01*
X71701033Y-85744501D01*
X71480047Y-85773594D01*
X71480040Y-85773595D01*
X71480037Y-85773596D01*
X71353591Y-85807477D01*
X71264719Y-85831290D01*
X71264709Y-85831293D01*
X71058777Y-85916593D01*
X71058773Y-85916595D01*
X70865726Y-86028052D01*
X70865717Y-86028058D01*
X70688877Y-86163751D01*
X70688870Y-86163757D01*
X70531257Y-86321370D01*
X70531251Y-86321377D01*
X70395558Y-86498217D01*
X70395552Y-86498226D01*
X70284095Y-86691273D01*
X70284093Y-86691277D01*
X70198793Y-86897209D01*
X70198790Y-86897219D01*
X70141097Y-87112534D01*
X70141094Y-87112547D01*
X70112001Y-87333533D01*
X70112000Y-87333549D01*
X46921929Y-87333549D01*
X46881559Y-87156678D01*
X46881556Y-87156670D01*
X46858465Y-87090680D01*
X46788801Y-86891592D01*
X46666945Y-86638555D01*
X46517523Y-86400752D01*
X46342416Y-86181175D01*
X46143825Y-85982584D01*
X45924248Y-85807477D01*
X45760004Y-85704275D01*
X45686442Y-85658053D01*
X45433411Y-85536200D01*
X45168329Y-85443443D01*
X45168317Y-85443439D01*
X44894512Y-85380945D01*
X44894494Y-85380942D01*
X44615431Y-85349500D01*
X44615425Y-85349500D01*
X44334575Y-85349500D01*
X44334568Y-85349500D01*
X44055505Y-85380942D01*
X44055487Y-85380945D01*
X43781682Y-85443439D01*
X43781670Y-85443443D01*
X43516588Y-85536200D01*
X43263557Y-85658053D01*
X43025753Y-85807476D01*
X42806175Y-85982583D01*
X42607583Y-86181175D01*
X42432476Y-86400753D01*
X42283053Y-86638557D01*
X42161200Y-86891588D01*
X42068443Y-87156670D01*
X42068439Y-87156682D01*
X42005945Y-87430487D01*
X42005942Y-87430505D01*
X41974500Y-87709568D01*
X23975499Y-87709568D01*
X23954403Y-87522331D01*
X23944057Y-87430505D01*
X23944054Y-87430487D01*
X23927298Y-87357076D01*
X23881560Y-87156682D01*
X23866116Y-87112547D01*
X23858465Y-87090680D01*
X23788801Y-86891592D01*
X23666945Y-86638555D01*
X23517523Y-86400752D01*
X23342416Y-86181175D01*
X23143825Y-85982584D01*
X22924248Y-85807477D01*
X22760004Y-85704275D01*
X22686442Y-85658053D01*
X22433411Y-85536200D01*
X22168329Y-85443443D01*
X22168317Y-85443439D01*
X21894512Y-85380945D01*
X21894494Y-85380942D01*
X21615431Y-85349500D01*
X21615425Y-85349500D01*
X21334575Y-85349500D01*
X21334568Y-85349500D01*
X21055505Y-85380942D01*
X21055487Y-85380945D01*
X20781682Y-85443439D01*
X20781670Y-85443443D01*
X20516588Y-85536200D01*
X20263557Y-85658053D01*
X20025753Y-85807476D01*
X19806175Y-85982583D01*
X19607583Y-86181175D01*
X19432476Y-86400753D01*
X19283053Y-86638557D01*
X19161200Y-86891588D01*
X19068443Y-87156670D01*
X19068439Y-87156682D01*
X19005945Y-87430487D01*
X19005942Y-87430505D01*
X18974500Y-87709568D01*
X18974500Y-87990431D01*
X19005942Y-88269494D01*
X19005945Y-88269512D01*
X19068439Y-88543317D01*
X19068443Y-88543329D01*
X19161200Y-88808411D01*
X19283053Y-89061442D01*
X19283055Y-89061445D01*
X19432477Y-89299248D01*
X19432958Y-89299851D01*
X19585826Y-89491542D01*
X19607584Y-89518825D01*
X19806175Y-89717416D01*
X20025752Y-89892523D01*
X20263555Y-90041945D01*
X20516592Y-90163801D01*
X20677200Y-90220000D01*
X20781670Y-90256556D01*
X20781682Y-90256560D01*
X20835222Y-90268780D01*
X20896200Y-90302888D01*
X20929059Y-90364549D01*
X20923364Y-90434187D01*
X20880925Y-90489690D01*
X20869631Y-90497058D01*
X20787004Y-90544763D01*
X20552959Y-90724352D01*
X20552952Y-90724358D01*
X20344358Y-90932952D01*
X20344352Y-90932959D01*
X20164761Y-91167006D01*
X20017258Y-91422489D01*
X20017254Y-91422499D01*
X19904364Y-91695038D01*
X19904361Y-91695048D01*
X19844403Y-91918818D01*
X19828008Y-91980004D01*
X19828006Y-91980015D01*
X19789500Y-92272486D01*
X19789500Y-92567513D01*
X19813326Y-92748481D01*
X19828007Y-92859993D01*
X19828008Y-92859995D01*
X19904361Y-93144951D01*
X19904364Y-93144961D01*
X20017254Y-93417500D01*
X20017258Y-93417510D01*
X20164761Y-93672993D01*
X20344352Y-93907040D01*
X20344358Y-93907047D01*
X20552952Y-94115641D01*
X20552956Y-94115644D01*
X20552958Y-94115646D01*
X20659142Y-94197124D01*
X20700344Y-94253552D01*
X20704499Y-94323298D01*
X20670286Y-94384219D01*
X20608569Y-94416971D01*
X20583655Y-94419500D01*
X18664500Y-94419500D01*
X18597461Y-94399815D01*
X18551706Y-94347011D01*
X18540500Y-94295500D01*
X18540500Y-79473920D01*
X41649499Y-79473920D01*
X41678340Y-79618907D01*
X41678343Y-79618917D01*
X41734914Y-79755492D01*
X41767812Y-79804727D01*
X41767813Y-79804730D01*
X41817046Y-79878414D01*
X41817052Y-79878421D01*
X44740584Y-82801952D01*
X44740586Y-82801954D01*
X44770058Y-82821645D01*
X44814270Y-82851186D01*
X44863505Y-82884084D01*
X44863506Y-82884084D01*
X44863507Y-82884085D01*
X44863509Y-82884086D01*
X45000082Y-82940656D01*
X45000087Y-82940658D01*
X45000091Y-82940658D01*
X45000092Y-82940659D01*
X45145079Y-82969500D01*
X45145082Y-82969500D01*
X45145083Y-82969500D01*
X45292917Y-82969500D01*
X62064866Y-82969500D01*
X62131905Y-82989185D01*
X62177660Y-83041989D01*
X62187604Y-83111147D01*
X62165836Y-83162843D01*
X62167016Y-83163632D01*
X62164762Y-83167004D01*
X62017258Y-83422489D01*
X62017254Y-83422499D01*
X61904364Y-83695038D01*
X61904361Y-83695048D01*
X61828008Y-83980004D01*
X61828006Y-83980015D01*
X61789500Y-84272486D01*
X61789500Y-84567513D01*
X61811249Y-84732708D01*
X61828007Y-84859993D01*
X61878726Y-85049279D01*
X61904361Y-85144951D01*
X61904364Y-85144961D01*
X62017254Y-85417500D01*
X62017258Y-85417510D01*
X62164761Y-85672993D01*
X62344352Y-85907040D01*
X62344358Y-85907047D01*
X62552952Y-86115641D01*
X62552959Y-86115647D01*
X62787006Y-86295238D01*
X63042489Y-86442741D01*
X63042490Y-86442741D01*
X63042493Y-86442743D01*
X63315048Y-86555639D01*
X63600007Y-86631993D01*
X63892494Y-86670500D01*
X63892501Y-86670500D01*
X64187499Y-86670500D01*
X64187506Y-86670500D01*
X64479993Y-86631993D01*
X64764952Y-86555639D01*
X65037507Y-86442743D01*
X65292994Y-86295238D01*
X65527042Y-86115646D01*
X65614636Y-86028052D01*
X65735258Y-85907431D01*
X65735641Y-85907047D01*
X65735646Y-85907042D01*
X65915238Y-85672994D01*
X66062743Y-85417507D01*
X66175639Y-85144952D01*
X66251993Y-84859993D01*
X66290500Y-84567506D01*
X66290500Y-84272494D01*
X66251993Y-83980007D01*
X66175639Y-83695048D01*
X66159070Y-83655048D01*
X66107317Y-83530104D01*
X66062743Y-83422493D01*
X65915238Y-83167006D01*
X65915237Y-83167004D01*
X65912984Y-83163632D01*
X65914332Y-83162730D01*
X65891561Y-83103787D01*
X65905617Y-83035345D01*
X65954443Y-82985368D01*
X66015134Y-82969500D01*
X68111114Y-82969500D01*
X68178153Y-82989185D01*
X68221599Y-83037205D01*
X68273830Y-83139714D01*
X68396465Y-83308505D01*
X68543995Y-83456035D01*
X68712786Y-83578670D01*
X68724809Y-83584796D01*
X68775605Y-83632769D01*
X68792401Y-83700589D01*
X68769865Y-83766725D01*
X68724813Y-83805764D01*
X68713056Y-83811754D01*
X68713055Y-83811755D01*
X68663680Y-83847627D01*
X69237266Y-84421212D01*
X69195208Y-84432482D01*
X69069792Y-84504890D01*
X68967390Y-84607292D01*
X68894982Y-84732708D01*
X68883712Y-84774765D01*
X68310127Y-84201180D01*
X68274257Y-84250552D01*
X68179575Y-84436372D01*
X68115126Y-84634727D01*
X68082500Y-84840720D01*
X68082500Y-85049279D01*
X68115126Y-85255272D01*
X68179575Y-85453627D01*
X68274259Y-85639451D01*
X68310127Y-85688818D01*
X68310127Y-85688819D01*
X68883712Y-85115233D01*
X68894982Y-85157292D01*
X68967390Y-85282708D01*
X69069792Y-85385110D01*
X69195208Y-85457518D01*
X69237265Y-85468787D01*
X68663679Y-86042371D01*
X68663680Y-86042372D01*
X68713043Y-86078236D01*
X68713056Y-86078244D01*
X68898872Y-86172924D01*
X69097227Y-86237373D01*
X69303221Y-86270000D01*
X69511779Y-86270000D01*
X69717772Y-86237373D01*
X69916127Y-86172924D01*
X70101951Y-86078240D01*
X70151318Y-86042372D01*
X70151318Y-86042371D01*
X69577734Y-85468787D01*
X69619792Y-85457518D01*
X69745208Y-85385110D01*
X69847610Y-85282708D01*
X69920018Y-85157292D01*
X69931287Y-85115234D01*
X70504871Y-85688818D01*
X70504872Y-85688818D01*
X70516993Y-85672135D01*
X92459500Y-85672135D01*
X92459500Y-87327870D01*
X92459501Y-87327876D01*
X92465908Y-87387483D01*
X92516202Y-87522328D01*
X92516206Y-87522335D01*
X92602452Y-87637544D01*
X92602455Y-87637547D01*
X92717664Y-87723793D01*
X92717671Y-87723797D01*
X92852517Y-87774091D01*
X92852516Y-87774091D01*
X92859444Y-87774835D01*
X92912127Y-87780500D01*
X94567872Y-87780499D01*
X94627483Y-87774091D01*
X94762331Y-87723796D01*
X94877546Y-87637546D01*
X94963796Y-87522331D01*
X95014091Y-87387483D01*
X95020500Y-87327873D01*
X95020499Y-85672128D01*
X95014091Y-85612517D01*
X94985626Y-85536199D01*
X94963797Y-85477671D01*
X94963793Y-85477664D01*
X94877547Y-85362455D01*
X94877544Y-85362452D01*
X94762335Y-85276206D01*
X94762328Y-85276202D01*
X94627482Y-85225908D01*
X94627483Y-85225908D01*
X94567883Y-85219501D01*
X94567881Y-85219500D01*
X94567873Y-85219500D01*
X94567864Y-85219500D01*
X92912129Y-85219500D01*
X92912123Y-85219501D01*
X92852516Y-85225908D01*
X92717671Y-85276202D01*
X92717664Y-85276206D01*
X92602455Y-85362452D01*
X92602452Y-85362455D01*
X92516206Y-85477664D01*
X92516202Y-85477671D01*
X92465908Y-85612517D01*
X92463013Y-85639451D01*
X92459501Y-85672123D01*
X92459500Y-85672135D01*
X70516993Y-85672135D01*
X70540740Y-85639451D01*
X70635424Y-85453627D01*
X70699873Y-85255272D01*
X70732500Y-85049279D01*
X70732500Y-84840720D01*
X70699873Y-84634727D01*
X70635424Y-84436372D01*
X70540744Y-84250556D01*
X70540736Y-84250543D01*
X70504872Y-84201180D01*
X70504871Y-84201179D01*
X69931287Y-84774764D01*
X69920018Y-84732708D01*
X69847610Y-84607292D01*
X69745208Y-84504890D01*
X69619792Y-84432482D01*
X69577733Y-84421212D01*
X70151319Y-83847627D01*
X70101946Y-83811755D01*
X70090189Y-83805765D01*
X70039393Y-83757791D01*
X70022598Y-83689970D01*
X70045136Y-83623835D01*
X70090192Y-83584795D01*
X70102214Y-83578670D01*
X70271005Y-83456035D01*
X70418535Y-83308505D01*
X70541170Y-83139714D01*
X70635889Y-82953816D01*
X70700362Y-82755389D01*
X70733000Y-82549324D01*
X70733000Y-82340675D01*
X70700362Y-82134610D01*
X70670448Y-82042545D01*
X70635889Y-81936184D01*
X70635887Y-81936181D01*
X70635887Y-81936179D01*
X70541169Y-81750285D01*
X70446667Y-81620215D01*
X70418535Y-81581495D01*
X70271005Y-81433965D01*
X70190753Y-81375658D01*
X70102212Y-81311328D01*
X70090743Y-81305485D01*
X70039947Y-81257511D01*
X70023151Y-81189690D01*
X70045688Y-81123555D01*
X70090743Y-81084515D01*
X70102212Y-81078671D01*
X70102211Y-81078671D01*
X70102214Y-81078670D01*
X70271005Y-80956035D01*
X70418535Y-80808505D01*
X70541170Y-80639714D01*
X70635889Y-80453816D01*
X70700362Y-80255389D01*
X70733000Y-80049324D01*
X70733000Y-79840675D01*
X70700362Y-79634610D01*
X70648150Y-79473920D01*
X70635889Y-79436184D01*
X70635887Y-79436181D01*
X70635887Y-79436179D01*
X70567322Y-79301613D01*
X70541170Y-79250286D01*
X70418535Y-79081495D01*
X70271005Y-78933965D01*
X70102214Y-78811330D01*
X69916320Y-78716612D01*
X69717889Y-78652137D01*
X69511824Y-78619500D01*
X69511819Y-78619500D01*
X69303181Y-78619500D01*
X69303176Y-78619500D01*
X69097110Y-78652137D01*
X68898679Y-78716612D01*
X68712785Y-78811330D01*
X68543993Y-78933966D01*
X68396466Y-79081493D01*
X68273830Y-79250285D01*
X68179112Y-79436179D01*
X68114637Y-79634610D01*
X68082000Y-79840675D01*
X68082000Y-80049324D01*
X68114637Y-80255389D01*
X68179112Y-80453820D01*
X68249501Y-80591966D01*
X68273830Y-80639714D01*
X68396465Y-80808505D01*
X68543995Y-80956035D01*
X68712786Y-81078670D01*
X68721880Y-81083303D01*
X68724259Y-81084516D01*
X68775054Y-81132492D01*
X68791848Y-81200313D01*
X68769309Y-81266447D01*
X68724259Y-81305484D01*
X68712786Y-81311330D01*
X68543993Y-81433966D01*
X68540291Y-81437129D01*
X68539154Y-81435798D01*
X68484456Y-81465666D01*
X68458098Y-81468500D01*
X45581230Y-81468500D01*
X45514191Y-81448815D01*
X45493549Y-81432181D01*
X43186819Y-79125451D01*
X43153334Y-79064128D01*
X43150500Y-79037770D01*
X43150500Y-75362228D01*
X43170185Y-75295189D01*
X43186814Y-75274552D01*
X45934894Y-72526471D01*
X45996215Y-72492988D01*
X46041970Y-72491681D01*
X46097648Y-72500500D01*
X46097649Y-72500500D01*
X46302351Y-72500500D01*
X46302352Y-72500500D01*
X46504534Y-72468477D01*
X46699219Y-72405220D01*
X46881610Y-72312287D01*
X46974590Y-72244732D01*
X47047213Y-72191971D01*
X47047215Y-72191968D01*
X47047219Y-72191966D01*
X47191966Y-72047219D01*
X47191968Y-72047215D01*
X47191971Y-72047213D01*
X47244732Y-71974590D01*
X47312287Y-71881610D01*
X47405220Y-71699219D01*
X47468477Y-71504534D01*
X47500500Y-71302352D01*
X47500500Y-71097648D01*
X47468477Y-70895466D01*
X47405220Y-70700781D01*
X47405218Y-70700778D01*
X47405218Y-70700776D01*
X47371503Y-70634607D01*
X47312287Y-70518390D01*
X47281090Y-70475450D01*
X47191971Y-70352786D01*
X47047213Y-70208028D01*
X46881613Y-70087715D01*
X46881612Y-70087714D01*
X46881610Y-70087713D01*
X46824653Y-70058691D01*
X46699223Y-69994781D01*
X46504534Y-69931522D01*
X46329995Y-69903878D01*
X46302352Y-69899500D01*
X46097648Y-69899500D01*
X46073329Y-69903351D01*
X45895465Y-69931522D01*
X45700776Y-69994781D01*
X45518386Y-70087715D01*
X45352786Y-70208028D01*
X45208028Y-70352786D01*
X45087715Y-70518386D01*
X44994781Y-70700776D01*
X44931522Y-70895465D01*
X44899500Y-71097648D01*
X44899500Y-71302351D01*
X44908318Y-71358026D01*
X44899363Y-71427320D01*
X44873526Y-71465105D01*
X41817050Y-74521580D01*
X41817044Y-74521588D01*
X41767812Y-74595268D01*
X41767813Y-74595269D01*
X41734921Y-74644496D01*
X41734914Y-74644508D01*
X41678342Y-74781086D01*
X41678340Y-74781092D01*
X41649500Y-74926079D01*
X41649500Y-74926082D01*
X41649500Y-79473918D01*
X41649500Y-79473920D01*
X41649499Y-79473920D01*
X18540500Y-79473920D01*
X18540500Y-53497648D01*
X23899500Y-53497648D01*
X23899500Y-53702351D01*
X23931522Y-53904534D01*
X23994781Y-54099223D01*
X24087715Y-54281613D01*
X24208028Y-54447213D01*
X24352786Y-54591971D01*
X24507749Y-54704556D01*
X24518390Y-54712287D01*
X24631222Y-54769778D01*
X24700776Y-54805218D01*
X24700778Y-54805218D01*
X24700781Y-54805220D01*
X24805137Y-54839127D01*
X24895465Y-54868477D01*
X24996557Y-54884488D01*
X25097648Y-54900500D01*
X25097649Y-54900500D01*
X25302345Y-54900500D01*
X25302352Y-54900500D01*
X25306224Y-54899886D01*
X25375513Y-54908835D01*
X25413309Y-54934677D01*
X30086122Y-59607489D01*
X30119607Y-59668812D01*
X30120914Y-59714568D01*
X30099500Y-59849772D01*
X30099500Y-59849778D01*
X30099500Y-60070222D01*
X30104554Y-60102129D01*
X30133985Y-60287952D01*
X30202103Y-60497603D01*
X30202104Y-60497606D01*
X30270122Y-60631096D01*
X30297129Y-60684100D01*
X30302187Y-60694025D01*
X30431752Y-60872358D01*
X30431756Y-60872363D01*
X30587636Y-61028243D01*
X30587641Y-61028247D01*
X30727254Y-61129682D01*
X30769920Y-61185012D01*
X30775899Y-61254625D01*
X30743293Y-61316420D01*
X30727254Y-61330318D01*
X30587641Y-61431752D01*
X30587636Y-61431756D01*
X30431756Y-61587636D01*
X30431752Y-61587641D01*
X30302187Y-61765974D01*
X30202104Y-61962393D01*
X30202103Y-61962396D01*
X30133985Y-62172047D01*
X30099500Y-62389778D01*
X30099500Y-62610221D01*
X30133985Y-62827952D01*
X30202103Y-63037603D01*
X30202104Y-63037606D01*
X30270122Y-63171096D01*
X30297129Y-63224100D01*
X30302187Y-63234025D01*
X30431752Y-63412358D01*
X30431756Y-63412363D01*
X30587640Y-63568247D01*
X30727679Y-63669990D01*
X30770345Y-63725319D01*
X30776324Y-63794933D01*
X30743719Y-63856728D01*
X30727679Y-63870626D01*
X30702485Y-63888930D01*
X30702485Y-63888932D01*
X31370590Y-64557037D01*
X31307007Y-64574075D01*
X31192993Y-64639901D01*
X31099901Y-64732993D01*
X31034075Y-64847007D01*
X31017037Y-64910590D01*
X30348932Y-64242485D01*
X30348931Y-64242485D01*
X30302616Y-64306233D01*
X30202567Y-64502589D01*
X30134473Y-64712164D01*
X30100000Y-64929818D01*
X30100000Y-65150181D01*
X30134473Y-65367835D01*
X30202567Y-65577410D01*
X30302611Y-65773756D01*
X30348932Y-65837513D01*
X31017037Y-65169408D01*
X31034075Y-65232993D01*
X31099901Y-65347007D01*
X31192993Y-65440099D01*
X31307007Y-65505925D01*
X31370590Y-65522962D01*
X30702485Y-66191065D01*
X30702485Y-66191066D01*
X30766243Y-66237388D01*
X30962589Y-66337432D01*
X31172164Y-66405526D01*
X31389819Y-66440000D01*
X31610181Y-66440000D01*
X31827835Y-66405526D01*
X32037410Y-66337432D01*
X32233760Y-66237386D01*
X32297513Y-66191066D01*
X32297514Y-66191066D01*
X31629409Y-65522962D01*
X31692993Y-65505925D01*
X31807007Y-65440099D01*
X31900099Y-65347007D01*
X31965925Y-65232993D01*
X31982962Y-65169410D01*
X32651065Y-65837513D01*
X32669680Y-65811893D01*
X32725010Y-65769227D01*
X32794623Y-65763248D01*
X32856419Y-65795853D01*
X32870317Y-65811893D01*
X32888931Y-65837513D01*
X32888932Y-65837513D01*
X33557037Y-65169408D01*
X33574075Y-65232993D01*
X33639901Y-65347007D01*
X33732993Y-65440099D01*
X33847007Y-65505925D01*
X33910590Y-65522962D01*
X33242485Y-66191065D01*
X33242485Y-66191066D01*
X33306243Y-66237388D01*
X33502589Y-66337432D01*
X33712164Y-66405526D01*
X33929819Y-66440000D01*
X34150181Y-66440000D01*
X34367835Y-66405526D01*
X34577410Y-66337432D01*
X34773760Y-66237386D01*
X34837513Y-66191066D01*
X34837514Y-66191066D01*
X34169409Y-65522962D01*
X34232993Y-65505925D01*
X34347007Y-65440099D01*
X34440099Y-65347007D01*
X34505925Y-65232993D01*
X34522962Y-65169410D01*
X35191066Y-65837514D01*
X35191066Y-65837513D01*
X35237386Y-65773760D01*
X35337432Y-65577410D01*
X35405526Y-65367835D01*
X35440000Y-65150181D01*
X35440000Y-64929818D01*
X35405526Y-64712164D01*
X35337432Y-64502589D01*
X35237388Y-64306243D01*
X35191066Y-64242485D01*
X35191065Y-64242485D01*
X34522962Y-64910589D01*
X34505925Y-64847007D01*
X34440099Y-64732993D01*
X34347007Y-64639901D01*
X34232993Y-64574075D01*
X34169407Y-64557037D01*
X34837513Y-63888932D01*
X34812319Y-63870628D01*
X34769653Y-63815298D01*
X34763674Y-63745685D01*
X34796279Y-63683889D01*
X34812313Y-63669994D01*
X34952365Y-63568242D01*
X35108242Y-63412365D01*
X35237815Y-63234022D01*
X35337895Y-63037606D01*
X35406015Y-62827951D01*
X35440500Y-62610222D01*
X35440500Y-62389778D01*
X35406015Y-62172049D01*
X35337895Y-61962394D01*
X35337895Y-61962393D01*
X35303237Y-61894375D01*
X35237815Y-61765978D01*
X35209681Y-61727254D01*
X35108247Y-61587641D01*
X35108243Y-61587636D01*
X34952363Y-61431756D01*
X34952358Y-61431752D01*
X34812745Y-61330318D01*
X34770079Y-61274989D01*
X34764100Y-61205375D01*
X34796705Y-61143580D01*
X34812745Y-61129682D01*
X34952358Y-61028247D01*
X34952356Y-61028247D01*
X34952365Y-61028242D01*
X35108242Y-60872365D01*
X35237815Y-60694022D01*
X35337895Y-60497606D01*
X35406015Y-60287951D01*
X35440500Y-60070222D01*
X35440500Y-59849778D01*
X35406015Y-59632049D01*
X35364806Y-59505218D01*
X35337896Y-59422396D01*
X35337895Y-59422393D01*
X35271440Y-59291971D01*
X35237815Y-59225978D01*
X35180589Y-59147213D01*
X35108247Y-59047641D01*
X35108243Y-59047636D01*
X34952363Y-58891756D01*
X34952358Y-58891752D01*
X34812745Y-58790318D01*
X34770079Y-58734989D01*
X34764100Y-58665375D01*
X34796705Y-58603580D01*
X34812745Y-58589682D01*
X34952358Y-58488247D01*
X34952356Y-58488247D01*
X34952365Y-58488242D01*
X35108242Y-58332365D01*
X35237815Y-58154022D01*
X35337895Y-57957606D01*
X35406015Y-57747951D01*
X35440500Y-57530222D01*
X35440500Y-57309778D01*
X35406015Y-57092049D01*
X35337895Y-56882394D01*
X35337895Y-56882393D01*
X35303237Y-56814375D01*
X35237815Y-56685978D01*
X35209681Y-56647254D01*
X35108247Y-56507641D01*
X35108243Y-56507636D01*
X34952363Y-56351756D01*
X34952358Y-56351752D01*
X34812745Y-56250318D01*
X34770079Y-56194989D01*
X34764100Y-56125375D01*
X34796705Y-56063580D01*
X34812745Y-56049682D01*
X34952358Y-55948247D01*
X34952356Y-55948247D01*
X34952365Y-55948242D01*
X35108242Y-55792365D01*
X35237815Y-55614022D01*
X35337895Y-55417606D01*
X35406015Y-55207951D01*
X35440500Y-54990222D01*
X35440500Y-54769778D01*
X35406015Y-54552049D01*
X35337895Y-54342394D01*
X35337895Y-54342393D01*
X35303237Y-54274375D01*
X35237815Y-54145978D01*
X35203843Y-54099219D01*
X35108247Y-53967641D01*
X35108243Y-53967636D01*
X34952363Y-53811756D01*
X34952358Y-53811752D01*
X34812745Y-53710318D01*
X34770079Y-53654989D01*
X34764100Y-53585375D01*
X34796705Y-53523580D01*
X34812745Y-53509682D01*
X34952358Y-53408247D01*
X34952356Y-53408247D01*
X34952365Y-53408242D01*
X35108242Y-53252365D01*
X35237815Y-53074022D01*
X35337895Y-52877606D01*
X35406015Y-52667951D01*
X35440500Y-52450222D01*
X35440500Y-52229778D01*
X35406015Y-52012049D01*
X35337895Y-51802394D01*
X35337895Y-51802393D01*
X35303237Y-51734375D01*
X35237815Y-51605978D01*
X35209681Y-51567254D01*
X35108247Y-51427641D01*
X35108243Y-51427636D01*
X34952363Y-51271756D01*
X34952358Y-51271752D01*
X34812745Y-51170318D01*
X34770079Y-51114989D01*
X34764100Y-51045375D01*
X34796705Y-50983580D01*
X34812745Y-50969682D01*
X34952358Y-50868247D01*
X34952356Y-50868247D01*
X34952365Y-50868242D01*
X35108242Y-50712365D01*
X35237815Y-50534022D01*
X35337895Y-50337606D01*
X35406015Y-50127951D01*
X35440500Y-49910222D01*
X35440500Y-49689778D01*
X35406015Y-49472049D01*
X35337895Y-49262394D01*
X35337895Y-49262393D01*
X35303237Y-49194375D01*
X35237815Y-49065978D01*
X35135026Y-48924500D01*
X35108247Y-48887641D01*
X35108243Y-48887636D01*
X34952363Y-48731756D01*
X34952358Y-48731752D01*
X34774025Y-48602187D01*
X34774024Y-48602186D01*
X34774022Y-48602185D01*
X34685908Y-48557288D01*
X34577606Y-48502104D01*
X34577603Y-48502103D01*
X34367952Y-48433985D01*
X34216516Y-48410000D01*
X34150222Y-48399500D01*
X33929778Y-48399500D01*
X33863484Y-48410000D01*
X33712047Y-48433985D01*
X33502396Y-48502103D01*
X33502393Y-48502104D01*
X33305974Y-48602187D01*
X33127642Y-48731751D01*
X33019682Y-48839711D01*
X32958359Y-48873195D01*
X32888667Y-48868211D01*
X32832734Y-48826339D01*
X32826462Y-48817125D01*
X32773806Y-48731756D01*
X32742712Y-48681344D01*
X32618656Y-48557288D01*
X32469334Y-48465186D01*
X32302797Y-48410001D01*
X32302795Y-48410000D01*
X32200016Y-48399500D01*
X32200009Y-48399500D01*
X31389006Y-48399500D01*
X31321967Y-48379815D01*
X31301325Y-48363181D01*
X30176819Y-47238675D01*
X30143334Y-47177352D01*
X30140500Y-47150994D01*
X30140500Y-32978006D01*
X30160185Y-32910967D01*
X30212989Y-32865212D01*
X30282147Y-32855268D01*
X30345703Y-32884293D01*
X30352181Y-32890325D01*
X39224289Y-41762433D01*
X39257774Y-41823756D01*
X39259081Y-41830714D01*
X39265406Y-41870648D01*
X39265407Y-41870650D01*
X39328664Y-42065335D01*
X39400441Y-42206206D01*
X39421599Y-42247729D01*
X39541912Y-42413329D01*
X39622065Y-42493482D01*
X39655550Y-42554805D01*
X39658384Y-42581163D01*
X39658384Y-42720117D01*
X39692027Y-42889250D01*
X39692030Y-42889262D01*
X39758022Y-43048582D01*
X39758029Y-43048595D01*
X39853838Y-43191982D01*
X39853841Y-43191986D01*
X61459063Y-64797207D01*
X61492548Y-64858530D01*
X61487564Y-64928222D01*
X61445692Y-64984155D01*
X61380228Y-65008572D01*
X61351984Y-65007361D01*
X61337783Y-65005111D01*
X61302352Y-64999500D01*
X61097648Y-64999500D01*
X61073329Y-65003351D01*
X60895465Y-65031522D01*
X60700776Y-65094781D01*
X60518386Y-65187715D01*
X60352786Y-65308028D01*
X60208028Y-65452786D01*
X60087715Y-65618386D01*
X59994781Y-65800776D01*
X59931522Y-65995465D01*
X59899500Y-66197648D01*
X59899500Y-66402351D01*
X59908318Y-66458026D01*
X59899363Y-66527320D01*
X59873526Y-66565105D01*
X48086637Y-78351993D01*
X48025314Y-78385478D01*
X47960638Y-78382243D01*
X47804537Y-78331523D01*
X47652897Y-78307505D01*
X47602352Y-78299500D01*
X47397648Y-78299500D01*
X47373329Y-78303351D01*
X47195465Y-78331522D01*
X47000776Y-78394781D01*
X46818386Y-78487715D01*
X46652786Y-78608028D01*
X46508028Y-78752786D01*
X46387715Y-78918386D01*
X46294781Y-79100776D01*
X46231522Y-79295465D01*
X46199500Y-79497648D01*
X46199500Y-79702351D01*
X46231522Y-79904534D01*
X46294781Y-80099223D01*
X46387715Y-80281613D01*
X46508028Y-80447213D01*
X46652786Y-80591971D01*
X46807749Y-80704556D01*
X46818390Y-80712287D01*
X46934607Y-80771503D01*
X47000776Y-80805218D01*
X47000778Y-80805218D01*
X47000781Y-80805220D01*
X47105137Y-80839127D01*
X47195465Y-80868477D01*
X47296557Y-80884488D01*
X47397648Y-80900500D01*
X47397649Y-80900500D01*
X47602351Y-80900500D01*
X47602352Y-80900500D01*
X47804534Y-80868477D01*
X47999219Y-80805220D01*
X48181610Y-80712287D01*
X48281499Y-80639714D01*
X48347213Y-80591971D01*
X48347215Y-80591968D01*
X48347219Y-80591966D01*
X48491966Y-80447219D01*
X48491968Y-80447215D01*
X48491971Y-80447213D01*
X48544732Y-80374590D01*
X48612287Y-80281610D01*
X48705220Y-80099219D01*
X48768477Y-79904534D01*
X48783185Y-79811669D01*
X48813112Y-79748539D01*
X48817958Y-79743408D01*
X60934894Y-67626471D01*
X60996215Y-67592988D01*
X61041970Y-67591681D01*
X61097648Y-67600500D01*
X61097649Y-67600500D01*
X61302351Y-67600500D01*
X61302352Y-67600500D01*
X61504534Y-67568477D01*
X61699219Y-67505220D01*
X61881610Y-67412287D01*
X61974590Y-67344732D01*
X62047213Y-67291971D01*
X62047215Y-67291968D01*
X62047219Y-67291966D01*
X62191966Y-67147219D01*
X62191968Y-67147215D01*
X62191971Y-67147213D01*
X62259305Y-67054534D01*
X62312287Y-66981610D01*
X62405220Y-66799219D01*
X62468477Y-66604534D01*
X62500500Y-66402352D01*
X62500500Y-66197648D01*
X62468477Y-65995466D01*
X62466528Y-65989470D01*
X62464532Y-65919631D01*
X62500610Y-65859796D01*
X62563310Y-65828966D01*
X62631912Y-65836588D01*
X62644626Y-65841855D01*
X62813766Y-65875499D01*
X62813769Y-65875500D01*
X62813771Y-65875500D01*
X65034498Y-65875500D01*
X65101537Y-65895185D01*
X65147292Y-65947989D01*
X65157236Y-66017147D01*
X65140226Y-66064289D01*
X65137714Y-66068387D01*
X65044781Y-66250776D01*
X64981522Y-66445465D01*
X64949500Y-66647648D01*
X64949500Y-66852351D01*
X64981522Y-67054534D01*
X65044781Y-67249223D01*
X65108691Y-67374653D01*
X65128740Y-67414000D01*
X65137715Y-67431613D01*
X65258028Y-67597213D01*
X65258034Y-67597219D01*
X65402781Y-67741966D01*
X65448384Y-67775098D01*
X65491050Y-67830425D01*
X65499500Y-67875416D01*
X65499500Y-70387769D01*
X65479815Y-70454808D01*
X65463181Y-70475450D01*
X58645104Y-77293526D01*
X58583781Y-77327011D01*
X58538025Y-77328318D01*
X58482352Y-77319500D01*
X58277648Y-77319500D01*
X58274359Y-77320021D01*
X58075465Y-77351522D01*
X57880776Y-77414781D01*
X57698386Y-77507715D01*
X57532786Y-77628028D01*
X57388028Y-77772786D01*
X57267715Y-77938386D01*
X57174781Y-78120776D01*
X57111522Y-78315465D01*
X57079500Y-78517648D01*
X57079500Y-78722351D01*
X57111522Y-78924534D01*
X57174781Y-79119223D01*
X57238691Y-79244653D01*
X57264582Y-79295466D01*
X57267715Y-79301613D01*
X57388028Y-79467213D01*
X57532786Y-79611971D01*
X57687749Y-79724556D01*
X57698390Y-79732287D01*
X57776096Y-79771880D01*
X57880776Y-79825218D01*
X57880778Y-79825218D01*
X57880781Y-79825220D01*
X57985137Y-79859127D01*
X58075465Y-79888477D01*
X58176557Y-79904488D01*
X58277648Y-79920500D01*
X58277649Y-79920500D01*
X58482351Y-79920500D01*
X58482352Y-79920500D01*
X58684534Y-79888477D01*
X58879219Y-79825220D01*
X59061610Y-79732287D01*
X59217652Y-79618917D01*
X59227213Y-79611971D01*
X59227215Y-79611968D01*
X59227219Y-79611966D01*
X59371966Y-79467219D01*
X59371968Y-79467215D01*
X59371971Y-79467213D01*
X59424732Y-79394590D01*
X59492287Y-79301610D01*
X59585220Y-79119219D01*
X59648477Y-78924534D01*
X59680500Y-78722352D01*
X59680500Y-78517648D01*
X59671681Y-78461971D01*
X59680635Y-78392680D01*
X59706470Y-78354896D01*
X60727817Y-77333549D01*
X70112000Y-77333549D01*
X70112000Y-77556450D01*
X70112001Y-77556466D01*
X70141094Y-77777452D01*
X70141095Y-77777457D01*
X70141096Y-77777463D01*
X70173866Y-77899762D01*
X70198790Y-77992780D01*
X70198793Y-77992790D01*
X70272196Y-78170000D01*
X70284095Y-78198726D01*
X70395552Y-78391774D01*
X70395557Y-78391780D01*
X70395558Y-78391782D01*
X70531251Y-78568622D01*
X70531257Y-78568629D01*
X70688870Y-78726242D01*
X70688876Y-78726247D01*
X70865726Y-78861948D01*
X71058774Y-78973405D01*
X71264719Y-79058710D01*
X71480037Y-79116404D01*
X71701043Y-79145500D01*
X71701050Y-79145500D01*
X71923950Y-79145500D01*
X71923957Y-79145500D01*
X72144963Y-79116404D01*
X72360281Y-79058710D01*
X72566226Y-78973405D01*
X72759274Y-78861948D01*
X72936124Y-78726247D01*
X73093747Y-78568624D01*
X73229448Y-78391774D01*
X73340905Y-78198726D01*
X73426210Y-77992781D01*
X73483904Y-77777463D01*
X73499518Y-77658862D01*
X73527783Y-77594969D01*
X73586107Y-77556497D01*
X73655972Y-77555665D01*
X73715196Y-77592737D01*
X73722773Y-77602164D01*
X73757352Y-77649756D01*
X73762051Y-77656224D01*
X73926276Y-77820449D01*
X74114169Y-77956961D01*
X74184487Y-77992790D01*
X74321099Y-78062398D01*
X74321101Y-78062398D01*
X74321104Y-78062400D01*
X74541986Y-78134169D01*
X74660168Y-78152886D01*
X74771371Y-78170500D01*
X74771376Y-78170500D01*
X75003629Y-78170500D01*
X75105002Y-78154443D01*
X75233014Y-78134169D01*
X75453896Y-78062400D01*
X75660831Y-77956961D01*
X75848724Y-77820449D01*
X76012949Y-77656224D01*
X76149461Y-77468331D01*
X76254900Y-77261396D01*
X76326669Y-77040514D01*
X76351363Y-76884598D01*
X76363000Y-76811129D01*
X76363000Y-76578909D01*
X79912500Y-76578909D01*
X79912500Y-76811090D01*
X79948818Y-77040393D01*
X80020565Y-77261205D01*
X80125965Y-77468064D01*
X80182738Y-77546207D01*
X80786458Y-76942487D01*
X80811478Y-77002890D01*
X80882612Y-77109351D01*
X80973149Y-77199888D01*
X81079610Y-77271022D01*
X81140010Y-77296041D01*
X80536291Y-77899759D01*
X80536291Y-77899760D01*
X80614435Y-77956534D01*
X80821294Y-78061934D01*
X81042106Y-78133681D01*
X81271410Y-78170000D01*
X81503590Y-78170000D01*
X81732893Y-78133681D01*
X81953705Y-78061934D01*
X82160571Y-77956530D01*
X82238707Y-77899762D01*
X82238708Y-77899760D01*
X81634988Y-77296041D01*
X81695390Y-77271022D01*
X81801851Y-77199888D01*
X81892388Y-77109351D01*
X81963522Y-77002890D01*
X81988541Y-76942489D01*
X82592259Y-77546207D01*
X82641614Y-77542323D01*
X82709992Y-77556687D01*
X82759749Y-77605738D01*
X82774283Y-77649756D01*
X82791094Y-77777452D01*
X82791095Y-77777457D01*
X82791096Y-77777463D01*
X82823866Y-77899762D01*
X82848790Y-77992780D01*
X82848793Y-77992790D01*
X82922196Y-78170000D01*
X82934095Y-78198726D01*
X83045552Y-78391774D01*
X83045557Y-78391780D01*
X83045558Y-78391782D01*
X83181251Y-78568622D01*
X83181257Y-78568629D01*
X83338870Y-78726242D01*
X83338876Y-78726247D01*
X83515726Y-78861948D01*
X83708774Y-78973405D01*
X83914719Y-79058710D01*
X84130037Y-79116404D01*
X84351043Y-79145500D01*
X84351050Y-79145500D01*
X84573950Y-79145500D01*
X84573957Y-79145500D01*
X84794963Y-79116404D01*
X84997499Y-79062135D01*
X92149500Y-79062135D01*
X92149500Y-80857870D01*
X92149501Y-80857876D01*
X92155908Y-80917483D01*
X92206202Y-81052328D01*
X92206206Y-81052335D01*
X92292452Y-81167544D01*
X92292455Y-81167547D01*
X92407664Y-81253793D01*
X92407671Y-81253797D01*
X92539082Y-81302810D01*
X92595016Y-81344681D01*
X92619433Y-81410145D01*
X92604582Y-81478418D01*
X92583431Y-81506673D01*
X92469889Y-81620215D01*
X92344951Y-81792179D01*
X92248444Y-81981585D01*
X92182753Y-82183760D01*
X92149500Y-82393713D01*
X92149500Y-82606286D01*
X92180490Y-82801954D01*
X92182754Y-82816243D01*
X92237706Y-82985368D01*
X92248444Y-83018414D01*
X92344951Y-83207820D01*
X92469890Y-83379786D01*
X92620213Y-83530109D01*
X92792179Y-83655048D01*
X92792181Y-83655049D01*
X92792184Y-83655051D01*
X92981588Y-83751557D01*
X93183757Y-83817246D01*
X93393713Y-83850500D01*
X93393714Y-83850500D01*
X93606286Y-83850500D01*
X93606287Y-83850500D01*
X93816243Y-83817246D01*
X94018412Y-83751557D01*
X94207816Y-83655051D01*
X94238485Y-83632769D01*
X94379786Y-83530109D01*
X94379788Y-83530106D01*
X94379792Y-83530104D01*
X94530104Y-83379792D01*
X94530106Y-83379788D01*
X94530109Y-83379786D01*
X94655048Y-83207820D01*
X94655047Y-83207820D01*
X94655051Y-83207816D01*
X94751557Y-83018412D01*
X94817246Y-82816243D01*
X94850500Y-82606287D01*
X94850500Y-82393713D01*
X94817246Y-82183757D01*
X94751557Y-81981588D01*
X94655051Y-81792184D01*
X94655049Y-81792181D01*
X94655048Y-81792179D01*
X94530109Y-81620213D01*
X94416569Y-81506673D01*
X94383084Y-81445350D01*
X94388068Y-81375658D01*
X94429940Y-81319725D01*
X94460915Y-81302810D01*
X94592331Y-81253796D01*
X94707546Y-81167546D01*
X94793796Y-81052331D01*
X94844091Y-80917483D01*
X94850500Y-80857873D01*
X94850499Y-79062128D01*
X94844091Y-79002517D01*
X94833233Y-78973406D01*
X94793797Y-78867671D01*
X94793793Y-78867664D01*
X94707547Y-78752455D01*
X94707544Y-78752452D01*
X94592335Y-78666206D01*
X94592328Y-78666202D01*
X94457482Y-78615908D01*
X94457483Y-78615908D01*
X94397883Y-78609501D01*
X94397881Y-78609500D01*
X94397873Y-78609500D01*
X94397864Y-78609500D01*
X92602129Y-78609500D01*
X92602123Y-78609501D01*
X92542516Y-78615908D01*
X92407671Y-78666202D01*
X92407664Y-78666206D01*
X92292455Y-78752452D01*
X92292452Y-78752455D01*
X92206206Y-78867664D01*
X92206202Y-78867671D01*
X92155908Y-79002517D01*
X92149868Y-79058706D01*
X92149501Y-79062123D01*
X92149500Y-79062135D01*
X84997499Y-79062135D01*
X85010281Y-79058710D01*
X85216226Y-78973405D01*
X85409274Y-78861948D01*
X85586124Y-78726247D01*
X85743747Y-78568624D01*
X85879448Y-78391774D01*
X85990905Y-78198726D01*
X86076210Y-77992781D01*
X86133904Y-77777463D01*
X86163000Y-77556457D01*
X86163000Y-77333543D01*
X86133904Y-77112537D01*
X86076210Y-76897219D01*
X85990905Y-76691274D01*
X85879448Y-76498226D01*
X85765409Y-76349606D01*
X85743748Y-76321377D01*
X85743742Y-76321370D01*
X85586129Y-76163757D01*
X85586122Y-76163751D01*
X85409282Y-76028058D01*
X85409280Y-76028057D01*
X85409274Y-76028052D01*
X85216226Y-75916595D01*
X85216222Y-75916593D01*
X85010290Y-75831293D01*
X85010283Y-75831291D01*
X85010281Y-75831290D01*
X84794963Y-75773596D01*
X84794957Y-75773595D01*
X84794952Y-75773594D01*
X84573966Y-75744501D01*
X84573963Y-75744500D01*
X84573957Y-75744500D01*
X84351043Y-75744500D01*
X84351037Y-75744500D01*
X84351033Y-75744501D01*
X84130047Y-75773594D01*
X84130040Y-75773595D01*
X84130037Y-75773596D01*
X83914719Y-75831290D01*
X83914709Y-75831293D01*
X83708777Y-75916593D01*
X83708773Y-75916595D01*
X83515726Y-76028052D01*
X83515717Y-76028058D01*
X83338877Y-76163751D01*
X83338870Y-76163757D01*
X83181257Y-76321370D01*
X83181251Y-76321377D01*
X83058925Y-76480796D01*
X83002497Y-76521999D01*
X82932751Y-76526154D01*
X82871831Y-76491942D01*
X82839078Y-76430224D01*
X82838076Y-76424707D01*
X82826181Y-76349607D01*
X82826181Y-76349606D01*
X82754434Y-76128794D01*
X82649034Y-75921935D01*
X82592260Y-75843791D01*
X82592259Y-75843791D01*
X81988541Y-76447510D01*
X81963522Y-76387110D01*
X81892388Y-76280649D01*
X81801851Y-76190112D01*
X81695390Y-76118978D01*
X81634987Y-76093957D01*
X82238707Y-75490238D01*
X82160564Y-75433465D01*
X81953705Y-75328065D01*
X81732893Y-75256318D01*
X81503590Y-75220000D01*
X81271410Y-75220000D01*
X81042106Y-75256318D01*
X80821294Y-75328065D01*
X80614425Y-75433470D01*
X80536291Y-75490237D01*
X80536291Y-75490238D01*
X81140011Y-76093958D01*
X81079610Y-76118978D01*
X80973149Y-76190112D01*
X80882612Y-76280649D01*
X80811478Y-76387110D01*
X80786458Y-76447511D01*
X80182738Y-75843791D01*
X80182737Y-75843791D01*
X80125970Y-75921925D01*
X80020565Y-76128794D01*
X79948818Y-76349606D01*
X79912500Y-76578909D01*
X76363000Y-76578909D01*
X76363000Y-76578870D01*
X76339456Y-76430224D01*
X76326669Y-76349486D01*
X76254900Y-76128604D01*
X76254898Y-76128601D01*
X76254898Y-76128599D01*
X76199276Y-76019436D01*
X76149461Y-75921669D01*
X76012949Y-75733776D01*
X75848724Y-75569551D01*
X75660831Y-75433039D01*
X75453900Y-75327601D01*
X75233014Y-75255831D01*
X75003629Y-75219500D01*
X75003624Y-75219500D01*
X74771376Y-75219500D01*
X74771371Y-75219500D01*
X74541985Y-75255831D01*
X74321099Y-75327601D01*
X74114168Y-75433039D01*
X73926273Y-75569553D01*
X73762053Y-75733773D01*
X73625539Y-75921668D01*
X73520101Y-76128599D01*
X73448331Y-76349484D01*
X73436503Y-76424162D01*
X73406573Y-76487296D01*
X73347262Y-76524227D01*
X73277399Y-76523229D01*
X73219167Y-76484619D01*
X73215654Y-76480249D01*
X73093748Y-76321377D01*
X73093742Y-76321370D01*
X72936129Y-76163757D01*
X72936122Y-76163751D01*
X72759282Y-76028058D01*
X72759280Y-76028057D01*
X72759274Y-76028052D01*
X72566226Y-75916595D01*
X72566222Y-75916593D01*
X72360290Y-75831293D01*
X72360283Y-75831291D01*
X72360281Y-75831290D01*
X72144963Y-75773596D01*
X72144957Y-75773595D01*
X72144952Y-75773594D01*
X71923966Y-75744501D01*
X71923963Y-75744500D01*
X71923957Y-75744500D01*
X71701043Y-75744500D01*
X71701037Y-75744500D01*
X71701033Y-75744501D01*
X71480047Y-75773594D01*
X71480040Y-75773595D01*
X71480037Y-75773596D01*
X71264719Y-75831290D01*
X71264709Y-75831293D01*
X71058777Y-75916593D01*
X71058773Y-75916595D01*
X70865726Y-76028052D01*
X70865717Y-76028058D01*
X70688877Y-76163751D01*
X70688870Y-76163757D01*
X70531257Y-76321370D01*
X70531251Y-76321377D01*
X70395558Y-76498217D01*
X70395552Y-76498226D01*
X70284095Y-76691273D01*
X70284093Y-76691277D01*
X70198793Y-76897209D01*
X70198790Y-76897219D01*
X70158241Y-77048553D01*
X70141097Y-77112534D01*
X70141094Y-77112547D01*
X70112001Y-77333533D01*
X70112000Y-77333549D01*
X60727817Y-77333549D01*
X65153704Y-72907664D01*
X65982499Y-72078870D01*
X73412000Y-72078870D01*
X73412000Y-72311129D01*
X73448331Y-72540514D01*
X73520101Y-72761400D01*
X73594630Y-72907669D01*
X73625539Y-72968331D01*
X73762051Y-73156224D01*
X73926276Y-73320449D01*
X74114169Y-73456961D01*
X74211936Y-73506776D01*
X74321099Y-73562398D01*
X74321101Y-73562398D01*
X74321104Y-73562400D01*
X74541986Y-73634169D01*
X74660168Y-73652886D01*
X74771371Y-73670500D01*
X74771376Y-73670500D01*
X75003629Y-73670500D01*
X75105002Y-73654443D01*
X75233014Y-73634169D01*
X75453896Y-73562400D01*
X75660831Y-73456961D01*
X75848724Y-73320449D01*
X76012949Y-73156224D01*
X76149461Y-72968331D01*
X76254900Y-72761396D01*
X76326669Y-72540514D01*
X76348097Y-72405218D01*
X76363000Y-72311129D01*
X76363000Y-72078870D01*
X79912000Y-72078870D01*
X79912000Y-72311129D01*
X79948331Y-72540514D01*
X80020101Y-72761400D01*
X80094630Y-72907669D01*
X80125539Y-72968331D01*
X80262051Y-73156224D01*
X80426276Y-73320449D01*
X80614169Y-73456961D01*
X80711936Y-73506776D01*
X80821099Y-73562398D01*
X80821101Y-73562398D01*
X80821104Y-73562400D01*
X81041986Y-73634169D01*
X81160168Y-73652886D01*
X81271371Y-73670500D01*
X81271376Y-73670500D01*
X81503629Y-73670500D01*
X81605002Y-73654443D01*
X81733014Y-73634169D01*
X81953896Y-73562400D01*
X82160831Y-73456961D01*
X82348724Y-73320449D01*
X82512949Y-73156224D01*
X82552247Y-73102135D01*
X92149500Y-73102135D01*
X92149500Y-74897870D01*
X92149501Y-74897876D01*
X92155908Y-74957483D01*
X92206202Y-75092328D01*
X92206206Y-75092335D01*
X92292452Y-75207544D01*
X92292455Y-75207547D01*
X92407664Y-75293793D01*
X92407671Y-75293797D01*
X92542517Y-75344091D01*
X92542516Y-75344091D01*
X92549444Y-75344835D01*
X92602127Y-75350500D01*
X94397872Y-75350499D01*
X94457483Y-75344091D01*
X94592331Y-75293796D01*
X94707546Y-75207546D01*
X94793796Y-75092331D01*
X94844091Y-74957483D01*
X94850500Y-74897873D01*
X94850499Y-73102128D01*
X94844091Y-73042517D01*
X94816421Y-72968331D01*
X94793797Y-72907671D01*
X94793793Y-72907664D01*
X94707547Y-72792455D01*
X94707544Y-72792452D01*
X94592335Y-72706206D01*
X94592328Y-72706202D01*
X94457482Y-72655908D01*
X94457483Y-72655908D01*
X94397883Y-72649501D01*
X94397881Y-72649500D01*
X94397873Y-72649500D01*
X94397864Y-72649500D01*
X92602129Y-72649500D01*
X92602123Y-72649501D01*
X92542516Y-72655908D01*
X92407671Y-72706202D01*
X92407664Y-72706206D01*
X92292455Y-72792452D01*
X92292452Y-72792455D01*
X92206206Y-72907664D01*
X92206202Y-72907671D01*
X92155908Y-73042517D01*
X92149501Y-73102116D01*
X92149501Y-73102123D01*
X92149500Y-73102135D01*
X82552247Y-73102135D01*
X82649461Y-72968331D01*
X82754900Y-72761396D01*
X82826669Y-72540514D01*
X82848097Y-72405218D01*
X82863000Y-72311129D01*
X82863000Y-72078870D01*
X82831757Y-71881613D01*
X82826669Y-71849486D01*
X82754900Y-71628604D01*
X82754898Y-71628601D01*
X82754898Y-71628599D01*
X82649460Y-71421668D01*
X82648561Y-71420430D01*
X82512949Y-71233776D01*
X82348724Y-71069551D01*
X82160831Y-70933039D01*
X81953900Y-70827601D01*
X81733014Y-70755831D01*
X81503629Y-70719500D01*
X81503624Y-70719500D01*
X81271376Y-70719500D01*
X81271371Y-70719500D01*
X81041985Y-70755831D01*
X80821099Y-70827601D01*
X80614168Y-70933039D01*
X80426273Y-71069553D01*
X80262053Y-71233773D01*
X80125539Y-71421668D01*
X80020101Y-71628599D01*
X79948331Y-71849485D01*
X79912000Y-72078870D01*
X76363000Y-72078870D01*
X76331757Y-71881613D01*
X76326669Y-71849486D01*
X76254900Y-71628604D01*
X76254898Y-71628601D01*
X76254898Y-71628599D01*
X76149460Y-71421668D01*
X76148561Y-71420430D01*
X76012949Y-71233776D01*
X75848724Y-71069551D01*
X75660831Y-70933039D01*
X75453900Y-70827601D01*
X75233014Y-70755831D01*
X75003629Y-70719500D01*
X75003624Y-70719500D01*
X74771376Y-70719500D01*
X74771371Y-70719500D01*
X74541985Y-70755831D01*
X74321099Y-70827601D01*
X74114168Y-70933039D01*
X73926273Y-71069553D01*
X73762053Y-71233773D01*
X73625539Y-71421668D01*
X73520101Y-71628599D01*
X73448331Y-71849485D01*
X73412000Y-72078870D01*
X65982499Y-72078870D01*
X66075046Y-71986323D01*
X66832947Y-71228421D01*
X66832948Y-71228420D01*
X66832948Y-71228419D01*
X66832952Y-71228416D01*
X66911199Y-71111309D01*
X66915084Y-71105495D01*
X66940349Y-71044500D01*
X66971659Y-70968912D01*
X66996405Y-70844505D01*
X67000500Y-70823918D01*
X67000500Y-67875416D01*
X67020185Y-67808377D01*
X67051613Y-67775099D01*
X67097219Y-67741966D01*
X67241966Y-67597219D01*
X67241968Y-67597215D01*
X67241971Y-67597213D01*
X67294732Y-67524590D01*
X67362287Y-67431610D01*
X67455220Y-67249219D01*
X67518477Y-67054534D01*
X67550500Y-66852352D01*
X67550500Y-66647648D01*
X67549627Y-66642135D01*
X70689500Y-66642135D01*
X70689500Y-68437870D01*
X70689501Y-68437876D01*
X70695908Y-68497483D01*
X70746202Y-68632328D01*
X70746206Y-68632335D01*
X70832452Y-68747544D01*
X70832455Y-68747547D01*
X70947664Y-68833793D01*
X70947671Y-68833797D01*
X71082517Y-68884091D01*
X71082516Y-68884091D01*
X71089444Y-68884835D01*
X71142127Y-68890500D01*
X72937872Y-68890499D01*
X72997483Y-68884091D01*
X73132331Y-68833796D01*
X73247546Y-68747546D01*
X73333796Y-68632331D01*
X73384091Y-68497483D01*
X73390500Y-68437873D01*
X73390499Y-66642128D01*
X73384091Y-66582517D01*
X73357145Y-66510272D01*
X73333797Y-66447671D01*
X73333793Y-66447664D01*
X73247547Y-66332455D01*
X73247544Y-66332452D01*
X73132335Y-66246206D01*
X73132328Y-66246202D01*
X72997482Y-66195908D01*
X72997483Y-66195908D01*
X72937883Y-66189501D01*
X72937881Y-66189500D01*
X72937873Y-66189500D01*
X72937864Y-66189500D01*
X71142129Y-66189500D01*
X71142123Y-66189501D01*
X71082516Y-66195908D01*
X70947671Y-66246202D01*
X70947664Y-66246206D01*
X70832455Y-66332452D01*
X70832452Y-66332455D01*
X70746206Y-66447664D01*
X70746202Y-66447671D01*
X70695908Y-66582517D01*
X70691510Y-66623431D01*
X70689501Y-66642123D01*
X70689500Y-66642135D01*
X67549627Y-66642135D01*
X67518477Y-66445466D01*
X67504468Y-66402352D01*
X67487621Y-66350500D01*
X67455220Y-66250781D01*
X67455218Y-66250778D01*
X67455218Y-66250776D01*
X67405276Y-66152761D01*
X67362287Y-66068390D01*
X67362285Y-66068387D01*
X67359774Y-66064289D01*
X67341530Y-65996843D01*
X67362647Y-65930241D01*
X67416419Y-65885628D01*
X67465502Y-65875500D01*
X75874242Y-65875500D01*
X75903682Y-65884144D01*
X75933669Y-65890668D01*
X75938684Y-65894422D01*
X75941281Y-65895185D01*
X75961923Y-65911819D01*
X76043430Y-65993326D01*
X76076915Y-66054649D01*
X76071931Y-66124341D01*
X76030059Y-66180274D01*
X75999083Y-66197189D01*
X75867669Y-66246203D01*
X75867664Y-66246206D01*
X75752455Y-66332452D01*
X75752452Y-66332455D01*
X75666206Y-66447664D01*
X75666202Y-66447671D01*
X75615908Y-66582517D01*
X75611510Y-66623431D01*
X75609501Y-66642123D01*
X75609500Y-66642135D01*
X75609500Y-68437870D01*
X75609501Y-68437876D01*
X75615908Y-68497483D01*
X75666202Y-68632328D01*
X75666206Y-68632335D01*
X75752452Y-68747544D01*
X75752455Y-68747547D01*
X75867664Y-68833793D01*
X75867671Y-68833797D01*
X76002517Y-68884091D01*
X76002516Y-68884091D01*
X76009444Y-68884835D01*
X76062127Y-68890500D01*
X77857872Y-68890499D01*
X77917483Y-68884091D01*
X78052331Y-68833796D01*
X78167546Y-68747546D01*
X78253796Y-68632331D01*
X78302810Y-68500916D01*
X78344681Y-68444984D01*
X78410145Y-68420566D01*
X78478418Y-68435417D01*
X78506673Y-68456569D01*
X78620213Y-68570109D01*
X78792179Y-68695048D01*
X78792181Y-68695049D01*
X78792184Y-68695051D01*
X78981588Y-68791557D01*
X79183757Y-68857246D01*
X79393713Y-68890500D01*
X79393714Y-68890500D01*
X79606286Y-68890500D01*
X79606287Y-68890500D01*
X79816243Y-68857246D01*
X80018412Y-68791557D01*
X80207816Y-68695051D01*
X80294138Y-68632335D01*
X80379786Y-68570109D01*
X80379788Y-68570106D01*
X80379792Y-68570104D01*
X80530104Y-68419792D01*
X80530106Y-68419788D01*
X80530109Y-68419786D01*
X80655048Y-68247820D01*
X80655047Y-68247820D01*
X80655051Y-68247816D01*
X80659514Y-68239054D01*
X80707488Y-68188259D01*
X80775308Y-68171463D01*
X80841444Y-68193999D01*
X80880486Y-68239056D01*
X80884951Y-68247820D01*
X81009890Y-68419786D01*
X81160213Y-68570109D01*
X81332179Y-68695048D01*
X81332181Y-68695049D01*
X81332184Y-68695051D01*
X81521588Y-68791557D01*
X81723757Y-68857246D01*
X81933713Y-68890500D01*
X81933714Y-68890500D01*
X82146286Y-68890500D01*
X82146287Y-68890500D01*
X82356243Y-68857246D01*
X82558412Y-68791557D01*
X82747816Y-68695051D01*
X82834138Y-68632335D01*
X82919786Y-68570109D01*
X82919788Y-68570106D01*
X82919792Y-68570104D01*
X83070104Y-68419792D01*
X83070106Y-68419788D01*
X83070109Y-68419786D01*
X83195048Y-68247820D01*
X83195051Y-68247816D01*
X83199793Y-68238508D01*
X83247763Y-68187711D01*
X83315583Y-68170911D01*
X83381719Y-68193445D01*
X83420763Y-68238500D01*
X83425377Y-68247555D01*
X83550272Y-68419459D01*
X83550276Y-68419464D01*
X83700535Y-68569723D01*
X83700540Y-68569727D01*
X83872442Y-68694620D01*
X84061782Y-68791095D01*
X84263871Y-68856757D01*
X84330000Y-68867231D01*
X84330000Y-67973012D01*
X84387007Y-68005925D01*
X84514174Y-68040000D01*
X84645826Y-68040000D01*
X84772993Y-68005925D01*
X84830000Y-67973012D01*
X84830000Y-68867230D01*
X84896126Y-68856757D01*
X84896129Y-68856757D01*
X85098217Y-68791095D01*
X85287557Y-68694620D01*
X85459459Y-68569727D01*
X85459464Y-68569723D01*
X85609723Y-68419464D01*
X85609727Y-68419459D01*
X85734620Y-68247557D01*
X85831095Y-68058217D01*
X85896757Y-67856129D01*
X85896757Y-67856126D01*
X85907231Y-67790000D01*
X85013012Y-67790000D01*
X85045925Y-67732993D01*
X85080000Y-67605826D01*
X85080000Y-67474174D01*
X85045925Y-67347007D01*
X85013012Y-67290000D01*
X85907231Y-67290000D01*
X85896757Y-67223873D01*
X85896757Y-67223870D01*
X85831095Y-67021782D01*
X85734620Y-66832442D01*
X85609727Y-66660540D01*
X85609723Y-66660535D01*
X85459464Y-66510276D01*
X85459459Y-66510272D01*
X85287555Y-66385377D01*
X85278500Y-66380763D01*
X85227706Y-66332788D01*
X85210912Y-66264966D01*
X85233451Y-66198832D01*
X85278508Y-66159793D01*
X85287816Y-66155051D01*
X85377554Y-66089853D01*
X85459786Y-66030109D01*
X85459788Y-66030106D01*
X85459792Y-66030104D01*
X85610104Y-65879792D01*
X85610106Y-65879788D01*
X85610109Y-65879786D01*
X85735048Y-65707820D01*
X85735047Y-65707820D01*
X85735051Y-65707816D01*
X85831557Y-65518412D01*
X85897246Y-65316243D01*
X85930500Y-65106287D01*
X85930500Y-64893713D01*
X85897246Y-64683757D01*
X85831557Y-64481588D01*
X85735051Y-64292184D01*
X85735049Y-64292181D01*
X85735048Y-64292179D01*
X85610109Y-64120213D01*
X85459786Y-63969890D01*
X85287820Y-63844951D01*
X85098414Y-63748444D01*
X85098413Y-63748443D01*
X85098412Y-63748443D01*
X84896243Y-63682754D01*
X84896241Y-63682753D01*
X84896240Y-63682753D01*
X84734957Y-63657208D01*
X84686287Y-63649500D01*
X84473713Y-63649500D01*
X84425042Y-63657208D01*
X84263760Y-63682753D01*
X84061585Y-63748444D01*
X83872179Y-63844951D01*
X83700213Y-63969890D01*
X83549890Y-64120213D01*
X83424949Y-64292182D01*
X83420484Y-64300946D01*
X83372509Y-64351742D01*
X83304688Y-64368536D01*
X83238553Y-64345998D01*
X83199516Y-64300946D01*
X83195050Y-64292182D01*
X83070109Y-64120213D01*
X82919786Y-63969890D01*
X82747820Y-63844951D01*
X82558414Y-63748444D01*
X82558413Y-63748443D01*
X82558412Y-63748443D01*
X82356243Y-63682754D01*
X82356241Y-63682753D01*
X82356240Y-63682753D01*
X82194957Y-63657208D01*
X82146287Y-63649500D01*
X81933713Y-63649500D01*
X81885042Y-63657208D01*
X81723760Y-63682753D01*
X81521585Y-63748444D01*
X81332179Y-63844951D01*
X81160213Y-63969890D01*
X81009890Y-64120213D01*
X80884949Y-64292182D01*
X80880484Y-64300946D01*
X80832509Y-64351742D01*
X80764688Y-64368536D01*
X80698553Y-64345998D01*
X80659516Y-64300946D01*
X80655050Y-64292182D01*
X80530109Y-64120213D01*
X80379786Y-63969890D01*
X80207820Y-63844951D01*
X80018414Y-63748444D01*
X80018413Y-63748443D01*
X80018412Y-63748443D01*
X79816243Y-63682754D01*
X79816241Y-63682753D01*
X79816240Y-63682753D01*
X79654957Y-63657208D01*
X79606287Y-63649500D01*
X79393713Y-63649500D01*
X79345042Y-63657208D01*
X79183760Y-63682753D01*
X78981585Y-63748444D01*
X78792179Y-63844951D01*
X78620213Y-63969890D01*
X78469890Y-64120213D01*
X78344949Y-64292182D01*
X78340484Y-64300946D01*
X78292509Y-64351742D01*
X78224688Y-64368536D01*
X78158553Y-64345998D01*
X78119516Y-64300946D01*
X78115050Y-64292182D01*
X77990109Y-64120213D01*
X77839786Y-63969890D01*
X77667820Y-63844951D01*
X77478414Y-63748444D01*
X77478413Y-63748443D01*
X77478412Y-63748443D01*
X77276243Y-63682754D01*
X77276241Y-63682753D01*
X77276240Y-63682753D01*
X77114957Y-63657208D01*
X77066287Y-63649500D01*
X76853713Y-63649500D01*
X76805042Y-63657208D01*
X76643760Y-63682753D01*
X76441585Y-63748444D01*
X76252179Y-63844951D01*
X76080213Y-63969890D01*
X76080209Y-63969894D01*
X75961923Y-64088181D01*
X75900600Y-64121666D01*
X75874242Y-64124500D01*
X63314006Y-64124500D01*
X63246967Y-64104815D01*
X63226325Y-64088181D01*
X59240279Y-60102135D01*
X82649500Y-60102135D01*
X82649500Y-61897870D01*
X82649501Y-61897876D01*
X82655908Y-61957483D01*
X82706202Y-62092328D01*
X82706206Y-62092335D01*
X82792452Y-62207544D01*
X82792455Y-62207547D01*
X82907664Y-62293793D01*
X82907671Y-62293797D01*
X83042517Y-62344091D01*
X83042516Y-62344091D01*
X83049444Y-62344835D01*
X83102127Y-62350500D01*
X84897872Y-62350499D01*
X84957483Y-62344091D01*
X85092331Y-62293796D01*
X85207546Y-62207546D01*
X85293796Y-62092331D01*
X85344091Y-61957483D01*
X85350500Y-61897873D01*
X85350499Y-60102128D01*
X85344091Y-60042517D01*
X85293796Y-59907669D01*
X85293795Y-59907668D01*
X85293793Y-59907664D01*
X85207547Y-59792455D01*
X85207544Y-59792452D01*
X85092335Y-59706206D01*
X85092328Y-59706202D01*
X84957482Y-59655908D01*
X84957483Y-59655908D01*
X84897883Y-59649501D01*
X84897881Y-59649500D01*
X84897873Y-59649500D01*
X84897864Y-59649500D01*
X83102129Y-59649500D01*
X83102123Y-59649501D01*
X83042516Y-59655908D01*
X82907671Y-59706202D01*
X82907664Y-59706206D01*
X82792455Y-59792452D01*
X82792452Y-59792455D01*
X82706206Y-59907664D01*
X82706202Y-59907671D01*
X82655908Y-60042517D01*
X82652930Y-60070221D01*
X82649501Y-60102123D01*
X82649500Y-60102135D01*
X59240279Y-60102135D01*
X46740279Y-47602135D01*
X50649500Y-47602135D01*
X50649500Y-49397870D01*
X50649501Y-49397876D01*
X50655908Y-49457483D01*
X50706202Y-49592328D01*
X50706206Y-49592335D01*
X50792452Y-49707544D01*
X50792455Y-49707547D01*
X50907664Y-49793793D01*
X50907671Y-49793797D01*
X51042517Y-49844091D01*
X51042516Y-49844091D01*
X51049444Y-49844835D01*
X51102127Y-49850500D01*
X52897872Y-49850499D01*
X52957483Y-49844091D01*
X53092331Y-49793796D01*
X53207546Y-49707546D01*
X53293796Y-49592331D01*
X53344091Y-49457483D01*
X53350500Y-49397873D01*
X53350499Y-47602128D01*
X53344091Y-47542517D01*
X53325584Y-47492898D01*
X53293797Y-47407671D01*
X53293793Y-47407664D01*
X53207547Y-47292455D01*
X53207544Y-47292452D01*
X53092335Y-47206206D01*
X53092328Y-47206202D01*
X52957482Y-47155908D01*
X52957483Y-47155908D01*
X52897883Y-47149501D01*
X52897881Y-47149500D01*
X52897873Y-47149500D01*
X52897864Y-47149500D01*
X51102129Y-47149500D01*
X51102123Y-47149501D01*
X51042516Y-47155908D01*
X50907671Y-47206202D01*
X50907664Y-47206206D01*
X50792455Y-47292452D01*
X50792452Y-47292455D01*
X50706206Y-47407664D01*
X50706202Y-47407671D01*
X50655908Y-47542517D01*
X50650944Y-47588693D01*
X50649501Y-47602123D01*
X50649500Y-47602135D01*
X46740279Y-47602135D01*
X41611521Y-42473377D01*
X41578036Y-42412054D01*
X41583020Y-42342362D01*
X41598884Y-42312810D01*
X41613673Y-42292455D01*
X41646171Y-42247726D01*
X41739104Y-42065335D01*
X41802361Y-41870650D01*
X41834384Y-41668468D01*
X41834384Y-41463764D01*
X41802361Y-41261581D01*
X41739102Y-41066892D01*
X41705387Y-41000723D01*
X41646171Y-40884506D01*
X41638440Y-40873865D01*
X41525855Y-40718902D01*
X41381097Y-40574144D01*
X41215497Y-40453831D01*
X41215496Y-40453830D01*
X41215494Y-40453829D01*
X41158537Y-40424807D01*
X41033107Y-40360897D01*
X40838418Y-40297638D01*
X40663879Y-40269994D01*
X40636236Y-40265616D01*
X40431532Y-40265616D01*
X40297305Y-40286875D01*
X40228012Y-40277920D01*
X40190227Y-40252083D01*
X30343919Y-30405775D01*
X30310434Y-30344452D01*
X30315418Y-30274760D01*
X30357289Y-30218827D01*
X30357329Y-30218796D01*
X30357331Y-30218796D01*
X30472546Y-30132546D01*
X30547520Y-30032393D01*
X30603451Y-29990525D01*
X30673142Y-29985541D01*
X30724818Y-30010340D01*
X30873160Y-30130465D01*
X31046504Y-30218788D01*
X31234422Y-30269141D01*
X31315222Y-30275500D01*
X31315230Y-30275500D01*
X32294770Y-30275500D01*
X32294778Y-30275500D01*
X32375578Y-30269141D01*
X32563496Y-30218788D01*
X32736840Y-30130465D01*
X32888032Y-30008032D01*
X32978635Y-29896145D01*
X33036121Y-29856436D01*
X33105952Y-29854108D01*
X33165956Y-29889903D01*
X33171353Y-29896133D01*
X33261968Y-30008032D01*
X33413160Y-30130465D01*
X33586504Y-30218788D01*
X33670096Y-30241186D01*
X33729756Y-30277551D01*
X33741099Y-30292064D01*
X33754055Y-30311453D01*
X33762051Y-30323420D01*
X33762052Y-30323421D01*
X49921584Y-46482952D01*
X49921586Y-46482954D01*
X49935621Y-46492331D01*
X49995270Y-46532186D01*
X50044505Y-46565084D01*
X50101080Y-46588518D01*
X50181088Y-46621659D01*
X50297241Y-46644763D01*
X50316468Y-46648587D01*
X50326081Y-46650500D01*
X50326082Y-46650500D01*
X50326083Y-46650500D01*
X50473918Y-46650500D01*
X56437770Y-46650500D01*
X56504809Y-46670185D01*
X56525451Y-46686819D01*
X68721580Y-58882948D01*
X68721584Y-58882951D01*
X68844498Y-58965080D01*
X68844511Y-58965087D01*
X68981082Y-59021656D01*
X68981087Y-59021658D01*
X68981091Y-59021658D01*
X68981092Y-59021659D01*
X69126079Y-59050500D01*
X69126082Y-59050500D01*
X69273917Y-59050500D01*
X72474582Y-59050500D01*
X72541621Y-59070185D01*
X72574900Y-59101615D01*
X72608028Y-59147212D01*
X72608032Y-59147217D01*
X72752786Y-59291971D01*
X72907749Y-59404556D01*
X72918390Y-59412287D01*
X73034607Y-59471503D01*
X73100776Y-59505218D01*
X73100778Y-59505218D01*
X73100781Y-59505220D01*
X73205137Y-59539127D01*
X73295465Y-59568477D01*
X73396557Y-59584488D01*
X73497648Y-59600500D01*
X73497649Y-59600500D01*
X73702351Y-59600500D01*
X73702352Y-59600500D01*
X73904534Y-59568477D01*
X74099219Y-59505220D01*
X74281610Y-59412287D01*
X74374590Y-59344732D01*
X74447213Y-59291971D01*
X74447215Y-59291968D01*
X74447219Y-59291966D01*
X74591966Y-59147219D01*
X74591968Y-59147215D01*
X74591971Y-59147213D01*
X74664313Y-59047641D01*
X74712287Y-58981610D01*
X74805220Y-58799219D01*
X74868477Y-58604534D01*
X74900500Y-58402352D01*
X74900500Y-58197648D01*
X74896893Y-58174875D01*
X74868477Y-57995465D01*
X74805218Y-57800776D01*
X74771503Y-57734607D01*
X74712287Y-57618390D01*
X74662236Y-57549500D01*
X74591971Y-57452786D01*
X74447213Y-57308028D01*
X74398293Y-57272486D01*
X91789500Y-57272486D01*
X91789500Y-57567513D01*
X91821571Y-57811113D01*
X91828007Y-57859993D01*
X91903593Y-58142085D01*
X91904361Y-58144951D01*
X91904364Y-58144961D01*
X92017254Y-58417500D01*
X92017258Y-58417510D01*
X92164761Y-58672993D01*
X92344352Y-58907040D01*
X92344358Y-58907047D01*
X92552952Y-59115641D01*
X92552959Y-59115647D01*
X92787006Y-59295238D01*
X93042489Y-59442741D01*
X93042490Y-59442741D01*
X93042493Y-59442743D01*
X93315048Y-59555639D01*
X93600007Y-59631993D01*
X93892494Y-59670500D01*
X93892501Y-59670500D01*
X94187499Y-59670500D01*
X94187506Y-59670500D01*
X94479993Y-59631993D01*
X94764952Y-59555639D01*
X95037507Y-59442743D01*
X95292994Y-59295238D01*
X95527042Y-59115646D01*
X95735646Y-58907042D01*
X95915238Y-58672994D01*
X96062743Y-58417507D01*
X96175639Y-58144952D01*
X96251993Y-57859993D01*
X96290500Y-57567506D01*
X96290500Y-57272494D01*
X96251993Y-56980007D01*
X96175639Y-56695048D01*
X96171880Y-56685974D01*
X96062745Y-56422499D01*
X96062741Y-56422489D01*
X95915238Y-56167006D01*
X95735647Y-55932959D01*
X95735641Y-55932952D01*
X95527047Y-55724358D01*
X95527040Y-55724352D01*
X95292993Y-55544761D01*
X95037510Y-55397258D01*
X95037500Y-55397254D01*
X94764961Y-55284364D01*
X94764954Y-55284362D01*
X94764952Y-55284361D01*
X94479993Y-55208007D01*
X94431113Y-55201571D01*
X94187513Y-55169500D01*
X94187506Y-55169500D01*
X93892494Y-55169500D01*
X93892486Y-55169500D01*
X93614085Y-55206153D01*
X93600007Y-55208007D01*
X93315048Y-55284361D01*
X93315038Y-55284364D01*
X93042499Y-55397254D01*
X93042489Y-55397258D01*
X92787006Y-55544761D01*
X92552959Y-55724352D01*
X92552952Y-55724358D01*
X92344358Y-55932952D01*
X92344352Y-55932959D01*
X92164761Y-56167006D01*
X92017258Y-56422489D01*
X92017254Y-56422499D01*
X91904364Y-56695038D01*
X91904361Y-56695048D01*
X91854163Y-56882393D01*
X91828008Y-56980004D01*
X91828006Y-56980015D01*
X91789500Y-57272486D01*
X74398293Y-57272486D01*
X74281613Y-57187715D01*
X74281612Y-57187714D01*
X74281610Y-57187713D01*
X74224653Y-57158691D01*
X74099223Y-57094781D01*
X73904534Y-57031522D01*
X73729995Y-57003878D01*
X73702352Y-56999500D01*
X73497648Y-56999500D01*
X73473329Y-57003351D01*
X73295465Y-57031522D01*
X73100776Y-57094781D01*
X72918386Y-57187715D01*
X72752786Y-57308028D01*
X72608032Y-57452782D01*
X72608028Y-57452787D01*
X72574900Y-57498385D01*
X72519571Y-57541051D01*
X72474582Y-57549500D01*
X69562229Y-57549500D01*
X69495190Y-57529815D01*
X69474548Y-57513181D01*
X60363504Y-48402135D01*
X74849500Y-48402135D01*
X74849500Y-50197870D01*
X74849501Y-50197876D01*
X74855908Y-50257483D01*
X74906202Y-50392328D01*
X74906206Y-50392335D01*
X74992452Y-50507544D01*
X74992455Y-50507547D01*
X75107664Y-50593793D01*
X75107671Y-50593797D01*
X75242517Y-50644091D01*
X75242516Y-50644091D01*
X75249444Y-50644835D01*
X75302127Y-50650500D01*
X77097872Y-50650499D01*
X77157483Y-50644091D01*
X77292331Y-50593796D01*
X77407546Y-50507546D01*
X77493796Y-50392331D01*
X77544091Y-50257483D01*
X77550500Y-50197873D01*
X77550499Y-48402128D01*
X77544091Y-48342517D01*
X77527493Y-48298016D01*
X77493797Y-48207671D01*
X77493793Y-48207664D01*
X77407547Y-48092455D01*
X77407544Y-48092452D01*
X77292335Y-48006206D01*
X77292328Y-48006202D01*
X77157482Y-47955908D01*
X77157483Y-47955908D01*
X77097883Y-47949501D01*
X77097881Y-47949500D01*
X77097873Y-47949500D01*
X77097864Y-47949500D01*
X75302129Y-47949500D01*
X75302123Y-47949501D01*
X75242516Y-47955908D01*
X75107671Y-48006202D01*
X75107664Y-48006206D01*
X74992455Y-48092452D01*
X74992452Y-48092455D01*
X74906206Y-48207664D01*
X74906202Y-48207671D01*
X74855908Y-48342517D01*
X74849782Y-48399500D01*
X74849501Y-48402123D01*
X74849500Y-48402135D01*
X60363504Y-48402135D01*
X59454267Y-47492898D01*
X59372673Y-47411304D01*
X62099500Y-47411304D01*
X62099500Y-47588695D01*
X62134103Y-47762658D01*
X62134106Y-47762667D01*
X62201983Y-47926540D01*
X62201990Y-47926553D01*
X62300535Y-48074034D01*
X62300538Y-48074038D01*
X62425961Y-48199461D01*
X62425965Y-48199464D01*
X62573446Y-48298009D01*
X62573459Y-48298016D01*
X62680894Y-48342516D01*
X62737334Y-48365894D01*
X62737336Y-48365894D01*
X62737341Y-48365896D01*
X62911304Y-48400499D01*
X62911307Y-48400500D01*
X62911309Y-48400500D01*
X63088693Y-48400500D01*
X63088694Y-48400499D01*
X63146682Y-48388964D01*
X63262658Y-48365896D01*
X63262661Y-48365894D01*
X63262666Y-48365894D01*
X63426547Y-48298013D01*
X63431107Y-48294965D01*
X63497783Y-48274086D01*
X63565163Y-48292569D01*
X63568867Y-48294948D01*
X63573453Y-48298013D01*
X63573455Y-48298014D01*
X63573457Y-48298015D01*
X63680894Y-48342516D01*
X63737334Y-48365894D01*
X63737336Y-48365894D01*
X63737341Y-48365896D01*
X63911304Y-48400499D01*
X63911307Y-48400500D01*
X63911309Y-48400500D01*
X64088693Y-48400500D01*
X64088694Y-48400499D01*
X64146682Y-48388964D01*
X64262658Y-48365896D01*
X64262661Y-48365894D01*
X64262666Y-48365894D01*
X64426547Y-48298013D01*
X64426556Y-48298007D01*
X64430002Y-48295705D01*
X64430004Y-48295704D01*
X64561755Y-48207669D01*
X64574035Y-48199464D01*
X64699464Y-48074035D01*
X64798013Y-47926547D01*
X64865894Y-47762666D01*
X64900500Y-47588691D01*
X64900500Y-47411309D01*
X64900500Y-47411306D01*
X64900499Y-47411304D01*
X64865896Y-47237341D01*
X64865893Y-47237332D01*
X64798016Y-47073459D01*
X64798009Y-47073446D01*
X64699464Y-46925965D01*
X64699461Y-46925961D01*
X64574038Y-46800538D01*
X64574034Y-46800535D01*
X64426553Y-46701990D01*
X64426540Y-46701983D01*
X64262667Y-46634106D01*
X64262658Y-46634103D01*
X64088694Y-46599500D01*
X64088691Y-46599500D01*
X63911309Y-46599500D01*
X63911306Y-46599500D01*
X63737341Y-46634103D01*
X63737332Y-46634106D01*
X63573459Y-46701983D01*
X63573446Y-46701990D01*
X63568887Y-46705037D01*
X63502208Y-46725912D01*
X63434829Y-46707425D01*
X63431113Y-46705037D01*
X63426553Y-46701990D01*
X63426540Y-46701983D01*
X63262667Y-46634106D01*
X63262658Y-46634103D01*
X63088694Y-46599500D01*
X63088691Y-46599500D01*
X62911309Y-46599500D01*
X62911306Y-46599500D01*
X62737341Y-46634103D01*
X62737332Y-46634106D01*
X62573459Y-46701983D01*
X62573446Y-46701990D01*
X62425965Y-46800535D01*
X62425961Y-46800538D01*
X62300538Y-46925961D01*
X62300535Y-46925965D01*
X62201990Y-47073446D01*
X62201983Y-47073459D01*
X62134106Y-47237332D01*
X62134103Y-47237341D01*
X62099500Y-47411304D01*
X59372673Y-47411304D01*
X57278421Y-45317052D01*
X57278414Y-45317046D01*
X57204729Y-45267812D01*
X57204729Y-45267813D01*
X57155491Y-45234913D01*
X57018917Y-45178343D01*
X57018907Y-45178340D01*
X56873920Y-45149500D01*
X56873918Y-45149500D01*
X50762230Y-45149500D01*
X50695191Y-45129815D01*
X50674549Y-45113181D01*
X35973952Y-30412584D01*
X35940467Y-30351261D01*
X35945451Y-30281569D01*
X35987323Y-30225636D01*
X36052787Y-30201219D01*
X36117929Y-30214419D01*
X36126504Y-30218788D01*
X36314422Y-30269141D01*
X36395222Y-30275500D01*
X36395230Y-30275500D01*
X37374770Y-30275500D01*
X37374778Y-30275500D01*
X37455578Y-30269141D01*
X37643496Y-30218788D01*
X37816840Y-30130465D01*
X37968032Y-30008032D01*
X38090465Y-29856840D01*
X38178788Y-29683496D01*
X38229141Y-29495578D01*
X38235500Y-29414778D01*
X38235500Y-28335222D01*
X38229141Y-28254422D01*
X38178788Y-28066504D01*
X38090465Y-27893160D01*
X37968032Y-27741968D01*
X37917891Y-27701364D01*
X37878181Y-27643879D01*
X37875853Y-27574048D01*
X37911648Y-27514044D01*
X37917881Y-27508643D01*
X37968032Y-27468032D01*
X38090465Y-27316840D01*
X38178788Y-27143496D01*
X38229141Y-26955578D01*
X38235500Y-26874778D01*
X38235500Y-25795222D01*
X38229141Y-25714422D01*
X38178788Y-25526504D01*
X38090465Y-25353160D01*
X38046506Y-25298875D01*
X38019615Y-25234390D01*
X38031857Y-25165601D01*
X38079346Y-25114350D01*
X38147004Y-25096910D01*
X38213350Y-25118817D01*
X38230554Y-25133160D01*
X51213181Y-38115787D01*
X51246666Y-38177110D01*
X51249500Y-38203468D01*
X51249500Y-42025500D01*
X51229815Y-42092539D01*
X51177011Y-42138294D01*
X51125505Y-42149500D01*
X51102132Y-42149500D01*
X51102123Y-42149501D01*
X51042516Y-42155908D01*
X50907671Y-42206202D01*
X50907664Y-42206206D01*
X50792455Y-42292452D01*
X50792452Y-42292455D01*
X50706206Y-42407664D01*
X50706202Y-42407671D01*
X50655908Y-42542517D01*
X50649501Y-42602116D01*
X50649501Y-42602123D01*
X50649500Y-42602135D01*
X50649500Y-44397870D01*
X50649501Y-44397876D01*
X50655908Y-44457483D01*
X50706202Y-44592328D01*
X50706206Y-44592335D01*
X50792452Y-44707544D01*
X50792455Y-44707547D01*
X50907664Y-44793793D01*
X50907671Y-44793797D01*
X51042517Y-44844091D01*
X51042516Y-44844091D01*
X51049444Y-44844835D01*
X51102127Y-44850500D01*
X52897872Y-44850499D01*
X52957483Y-44844091D01*
X53092331Y-44793796D01*
X53207546Y-44707546D01*
X53293796Y-44592331D01*
X53327437Y-44502135D01*
X74749500Y-44502135D01*
X74749500Y-46297870D01*
X74749501Y-46297876D01*
X74755908Y-46357483D01*
X74806202Y-46492328D01*
X74806206Y-46492335D01*
X74892452Y-46607544D01*
X74892455Y-46607547D01*
X75007664Y-46693793D01*
X75007671Y-46693797D01*
X75142517Y-46744091D01*
X75142516Y-46744091D01*
X75149444Y-46744835D01*
X75202127Y-46750500D01*
X76997872Y-46750499D01*
X77057483Y-46744091D01*
X77192331Y-46693796D01*
X77307546Y-46607546D01*
X77393796Y-46492331D01*
X77444091Y-46357483D01*
X77450500Y-46297873D01*
X77450499Y-44502128D01*
X77444091Y-44442517D01*
X77393796Y-44307669D01*
X77393795Y-44307668D01*
X77393793Y-44307664D01*
X77307547Y-44192455D01*
X77307544Y-44192452D01*
X77192335Y-44106206D01*
X77192328Y-44106202D01*
X77057482Y-44055908D01*
X77057483Y-44055908D01*
X76997883Y-44049501D01*
X76997881Y-44049500D01*
X76997873Y-44049500D01*
X76997864Y-44049500D01*
X75202129Y-44049500D01*
X75202123Y-44049501D01*
X75142516Y-44055908D01*
X75007671Y-44106202D01*
X75007664Y-44106206D01*
X74892455Y-44192452D01*
X74892452Y-44192455D01*
X74806206Y-44307664D01*
X74806202Y-44307671D01*
X74755908Y-44442517D01*
X74749501Y-44502116D01*
X74749501Y-44502123D01*
X74749500Y-44502135D01*
X53327437Y-44502135D01*
X53344091Y-44457483D01*
X53350500Y-44397873D01*
X53350499Y-42602128D01*
X53344091Y-42542517D01*
X53339348Y-42529801D01*
X53293797Y-42407671D01*
X53293793Y-42407664D01*
X53207547Y-42292455D01*
X53207544Y-42292452D01*
X53092335Y-42206206D01*
X53092328Y-42206202D01*
X52957482Y-42155908D01*
X52957483Y-42155908D01*
X52897883Y-42149501D01*
X52897881Y-42149500D01*
X52897873Y-42149500D01*
X52897865Y-42149500D01*
X52874500Y-42149500D01*
X52807461Y-42129815D01*
X52761706Y-42077011D01*
X52750500Y-42025500D01*
X52750500Y-39102135D01*
X88649500Y-39102135D01*
X88649500Y-40897870D01*
X88649501Y-40897876D01*
X88655908Y-40957483D01*
X88706202Y-41092328D01*
X88706206Y-41092335D01*
X88792452Y-41207544D01*
X88792455Y-41207547D01*
X88907664Y-41293793D01*
X88907671Y-41293797D01*
X89042517Y-41344091D01*
X89042516Y-41344091D01*
X89049444Y-41344835D01*
X89102127Y-41350500D01*
X90897872Y-41350499D01*
X90957483Y-41344091D01*
X91092331Y-41293796D01*
X91207546Y-41207546D01*
X91293796Y-41092331D01*
X91344091Y-40957483D01*
X91350500Y-40897873D01*
X91350499Y-39102128D01*
X91344091Y-39042517D01*
X91293796Y-38907669D01*
X91293795Y-38907668D01*
X91293793Y-38907664D01*
X91207547Y-38792455D01*
X91207544Y-38792452D01*
X91092335Y-38706206D01*
X91092328Y-38706202D01*
X90957482Y-38655908D01*
X90957483Y-38655908D01*
X90897883Y-38649501D01*
X90897881Y-38649500D01*
X90897873Y-38649500D01*
X90897864Y-38649500D01*
X89102129Y-38649500D01*
X89102123Y-38649501D01*
X89042516Y-38655908D01*
X88907671Y-38706202D01*
X88907664Y-38706206D01*
X88792455Y-38792452D01*
X88792452Y-38792455D01*
X88706206Y-38907664D01*
X88706202Y-38907671D01*
X88655908Y-39042517D01*
X88649501Y-39102116D01*
X88649501Y-39102123D01*
X88649500Y-39102135D01*
X52750500Y-39102135D01*
X52750500Y-37767317D01*
X52721659Y-37622330D01*
X52721658Y-37622329D01*
X52721658Y-37622325D01*
X52665084Y-37485743D01*
X52632186Y-37436508D01*
X52632185Y-37436506D01*
X52582956Y-37362827D01*
X52582952Y-37362822D01*
X45492616Y-30272486D01*
X61789500Y-30272486D01*
X61789500Y-30567513D01*
X61821571Y-30811113D01*
X61828007Y-30859993D01*
X61904361Y-31144951D01*
X61904364Y-31144961D01*
X62017254Y-31417500D01*
X62017258Y-31417510D01*
X62164761Y-31672993D01*
X62344352Y-31907040D01*
X62344358Y-31907047D01*
X62552952Y-32115641D01*
X62552959Y-32115647D01*
X62787006Y-32295238D01*
X63042489Y-32442741D01*
X63042490Y-32442741D01*
X63042493Y-32442743D01*
X63315048Y-32555639D01*
X63600007Y-32631993D01*
X63892494Y-32670500D01*
X63892501Y-32670500D01*
X64187499Y-32670500D01*
X64187506Y-32670500D01*
X64479993Y-32631993D01*
X64764952Y-32555639D01*
X65037507Y-32442743D01*
X65292994Y-32295238D01*
X65527042Y-32115646D01*
X65527047Y-32115641D01*
X65527434Y-32115255D01*
X65735641Y-31907047D01*
X65735646Y-31907042D01*
X65915238Y-31672994D01*
X66062743Y-31417507D01*
X66175639Y-31144952D01*
X66251993Y-30859993D01*
X66290500Y-30567506D01*
X66290500Y-30272494D01*
X66251993Y-29980007D01*
X66175639Y-29695048D01*
X66062743Y-29422493D01*
X66053274Y-29406093D01*
X65915238Y-29167006D01*
X65735647Y-28932959D01*
X65735641Y-28932952D01*
X65527047Y-28724358D01*
X65527040Y-28724352D01*
X65292993Y-28544761D01*
X65188551Y-28484462D01*
X65037510Y-28397258D01*
X65037500Y-28397254D01*
X65000546Y-28381947D01*
X67000000Y-28381947D01*
X67000000Y-28618052D01*
X67036934Y-28851247D01*
X67109897Y-29075802D01*
X67217087Y-29286174D01*
X67277338Y-29369104D01*
X67277340Y-29369105D01*
X67976212Y-28670233D01*
X67987482Y-28712292D01*
X68059890Y-28837708D01*
X68162292Y-28940110D01*
X68287708Y-29012518D01*
X68329765Y-29023787D01*
X67630893Y-29722658D01*
X67713828Y-29782914D01*
X67924197Y-29890102D01*
X68148752Y-29963065D01*
X68148751Y-29963065D01*
X68381948Y-30000000D01*
X68618052Y-30000000D01*
X68851247Y-29963065D01*
X69075802Y-29890102D01*
X69286163Y-29782918D01*
X69286169Y-29782914D01*
X69369104Y-29722658D01*
X69369105Y-29722658D01*
X68670233Y-29023787D01*
X68712292Y-29012518D01*
X68837708Y-28940110D01*
X68940110Y-28837708D01*
X69012518Y-28712292D01*
X69023787Y-28670234D01*
X69722658Y-29369105D01*
X69722658Y-29369104D01*
X69782914Y-29286169D01*
X69782918Y-29286163D01*
X69890102Y-29075802D01*
X69963065Y-28851247D01*
X70000000Y-28618052D01*
X70000000Y-28381947D01*
X73500000Y-28381947D01*
X73500000Y-28618052D01*
X73536934Y-28851247D01*
X73609897Y-29075802D01*
X73717087Y-29286174D01*
X73777338Y-29369104D01*
X73777340Y-29369105D01*
X74476212Y-28670233D01*
X74487482Y-28712292D01*
X74559890Y-28837708D01*
X74662292Y-28940110D01*
X74787708Y-29012518D01*
X74829765Y-29023787D01*
X74130893Y-29722658D01*
X74213828Y-29782914D01*
X74424197Y-29890102D01*
X74648752Y-29963065D01*
X74648751Y-29963065D01*
X74881948Y-30000000D01*
X75118052Y-30000000D01*
X75351247Y-29963065D01*
X75575802Y-29890102D01*
X75786163Y-29782918D01*
X75786169Y-29782914D01*
X75869104Y-29722658D01*
X75869105Y-29722658D01*
X75170233Y-29023787D01*
X75212292Y-29012518D01*
X75337708Y-28940110D01*
X75440110Y-28837708D01*
X75512518Y-28712292D01*
X75523787Y-28670234D01*
X76222658Y-29369105D01*
X76222658Y-29369104D01*
X76282914Y-29286169D01*
X76282918Y-29286163D01*
X76390102Y-29075802D01*
X76463065Y-28851247D01*
X76500000Y-28618052D01*
X76500000Y-28381947D01*
X76463065Y-28148752D01*
X76390102Y-27924197D01*
X76282914Y-27713828D01*
X76222658Y-27630894D01*
X76222658Y-27630893D01*
X75523787Y-28329765D01*
X75512518Y-28287708D01*
X75440110Y-28162292D01*
X75337708Y-28059890D01*
X75212292Y-27987482D01*
X75170234Y-27976212D01*
X75869105Y-27277340D01*
X75869104Y-27277338D01*
X75786174Y-27217087D01*
X75575802Y-27109897D01*
X75351247Y-27036934D01*
X75351248Y-27036934D01*
X75118052Y-27000000D01*
X74881948Y-27000000D01*
X74648752Y-27036934D01*
X74424197Y-27109897D01*
X74213830Y-27217084D01*
X74130894Y-27277340D01*
X74829766Y-27976212D01*
X74787708Y-27987482D01*
X74662292Y-28059890D01*
X74559890Y-28162292D01*
X74487482Y-28287708D01*
X74476212Y-28329766D01*
X73777340Y-27630894D01*
X73717084Y-27713830D01*
X73609897Y-27924197D01*
X73536934Y-28148752D01*
X73500000Y-28381947D01*
X70000000Y-28381947D01*
X69963065Y-28148752D01*
X69890102Y-27924197D01*
X69782914Y-27713828D01*
X69722658Y-27630894D01*
X69722658Y-27630893D01*
X69023787Y-28329765D01*
X69012518Y-28287708D01*
X68940110Y-28162292D01*
X68837708Y-28059890D01*
X68712292Y-27987482D01*
X68670234Y-27976212D01*
X69369105Y-27277340D01*
X69369104Y-27277339D01*
X69286174Y-27217087D01*
X69075802Y-27109897D01*
X68851247Y-27036934D01*
X68851248Y-27036934D01*
X68618052Y-27000000D01*
X68381948Y-27000000D01*
X68148752Y-27036934D01*
X67924197Y-27109897D01*
X67713830Y-27217084D01*
X67630894Y-27277340D01*
X68329766Y-27976212D01*
X68287708Y-27987482D01*
X68162292Y-28059890D01*
X68059890Y-28162292D01*
X67987482Y-28287708D01*
X67976212Y-28329766D01*
X67277340Y-27630894D01*
X67217084Y-27713830D01*
X67109897Y-27924197D01*
X67036934Y-28148752D01*
X67000000Y-28381947D01*
X65000546Y-28381947D01*
X64764961Y-28284364D01*
X64764954Y-28284362D01*
X64764952Y-28284361D01*
X64479993Y-28208007D01*
X64421180Y-28200264D01*
X64187513Y-28169500D01*
X64187506Y-28169500D01*
X63892494Y-28169500D01*
X63892486Y-28169500D01*
X63614085Y-28206153D01*
X63600007Y-28208007D01*
X63404103Y-28260499D01*
X63315048Y-28284361D01*
X63315038Y-28284364D01*
X63042499Y-28397254D01*
X63042489Y-28397258D01*
X62787006Y-28544761D01*
X62552959Y-28724352D01*
X62552952Y-28724358D01*
X62344358Y-28932952D01*
X62344352Y-28932959D01*
X62164761Y-29167006D01*
X62017258Y-29422489D01*
X62017254Y-29422499D01*
X61904364Y-29695038D01*
X61904362Y-29695045D01*
X61904361Y-29695048D01*
X61831114Y-29968414D01*
X61828008Y-29980004D01*
X61828006Y-29980015D01*
X61789500Y-30272486D01*
X45492616Y-30272486D01*
X44757238Y-29537108D01*
X44723753Y-29475785D01*
X44728737Y-29406093D01*
X44770609Y-29350160D01*
X44831036Y-29326207D01*
X44894495Y-29319057D01*
X44894501Y-29319055D01*
X44894509Y-29319055D01*
X45168318Y-29256560D01*
X45433408Y-29163801D01*
X45686445Y-29041945D01*
X45924248Y-28892523D01*
X46143825Y-28717416D01*
X46342416Y-28518825D01*
X46517523Y-28299248D01*
X46666945Y-28061445D01*
X46788801Y-27808408D01*
X46881560Y-27543318D01*
X46944055Y-27269509D01*
X46946370Y-27248969D01*
X46975499Y-26990431D01*
X46975500Y-26990427D01*
X46975500Y-26709572D01*
X46975499Y-26709568D01*
X46944057Y-26430505D01*
X46944054Y-26430487D01*
X46907235Y-26269174D01*
X46881560Y-26156682D01*
X46862000Y-26100783D01*
X46844147Y-26049761D01*
X46830980Y-26012135D01*
X82149500Y-26012135D01*
X82149500Y-27807870D01*
X82149501Y-27807876D01*
X82155908Y-27867483D01*
X82206202Y-28002328D01*
X82206206Y-28002335D01*
X82292452Y-28117544D01*
X82292455Y-28117547D01*
X82407664Y-28203793D01*
X82407671Y-28203797D01*
X82539082Y-28252810D01*
X82595016Y-28294681D01*
X82619433Y-28360145D01*
X82604582Y-28428418D01*
X82583431Y-28456673D01*
X82469889Y-28570215D01*
X82344951Y-28742179D01*
X82248444Y-28931585D01*
X82182753Y-29133760D01*
X82176876Y-29170866D01*
X82149500Y-29343713D01*
X82149500Y-29556287D01*
X82159534Y-29619644D01*
X82179940Y-29748481D01*
X82182754Y-29766243D01*
X82235935Y-29929918D01*
X82248444Y-29968414D01*
X82344951Y-30157820D01*
X82469890Y-30329786D01*
X82620213Y-30480109D01*
X82792179Y-30605048D01*
X82792181Y-30605049D01*
X82792184Y-30605051D01*
X82801493Y-30609794D01*
X82852290Y-30657766D01*
X82869087Y-30725587D01*
X82846552Y-30791722D01*
X82801502Y-30830762D01*
X82792443Y-30835378D01*
X82620540Y-30960272D01*
X82620535Y-30960276D01*
X82470276Y-31110535D01*
X82470272Y-31110540D01*
X82345379Y-31282442D01*
X82248904Y-31471782D01*
X82183242Y-31673870D01*
X82183242Y-31673873D01*
X82172769Y-31740000D01*
X83066988Y-31740000D01*
X83034075Y-31797007D01*
X83000000Y-31924174D01*
X83000000Y-32055826D01*
X83034075Y-32182993D01*
X83066988Y-32240000D01*
X82172769Y-32240000D01*
X82183242Y-32306126D01*
X82183242Y-32306129D01*
X82248904Y-32508217D01*
X82345379Y-32697557D01*
X82470272Y-32869459D01*
X82470276Y-32869464D01*
X82620535Y-33019723D01*
X82620540Y-33019727D01*
X82792442Y-33144620D01*
X82981782Y-33241095D01*
X83183871Y-33306757D01*
X83250000Y-33317231D01*
X83250000Y-32423012D01*
X83307007Y-32455925D01*
X83434174Y-32490000D01*
X83565826Y-32490000D01*
X83692993Y-32455925D01*
X83750000Y-32423012D01*
X83750000Y-33317230D01*
X83816126Y-33306757D01*
X83816129Y-33306757D01*
X84018217Y-33241095D01*
X84207557Y-33144620D01*
X84229452Y-33128713D01*
X88649500Y-33128713D01*
X88649500Y-33341286D01*
X88682753Y-33551239D01*
X88748444Y-33753414D01*
X88844951Y-33942820D01*
X88969890Y-34114786D01*
X89083430Y-34228326D01*
X89116915Y-34289649D01*
X89111931Y-34359341D01*
X89070059Y-34415274D01*
X89039083Y-34432189D01*
X88907669Y-34481203D01*
X88907664Y-34481206D01*
X88792455Y-34567452D01*
X88792452Y-34567455D01*
X88706206Y-34682664D01*
X88706202Y-34682671D01*
X88655908Y-34817517D01*
X88649501Y-34877116D01*
X88649501Y-34877123D01*
X88649500Y-34877135D01*
X88649500Y-36672870D01*
X88649501Y-36672876D01*
X88655908Y-36732483D01*
X88706202Y-36867328D01*
X88706206Y-36867335D01*
X88792452Y-36982544D01*
X88792455Y-36982547D01*
X88907664Y-37068793D01*
X88907671Y-37068797D01*
X89042517Y-37119091D01*
X89042516Y-37119091D01*
X89049444Y-37119835D01*
X89102127Y-37125500D01*
X90897872Y-37125499D01*
X90957483Y-37119091D01*
X91092331Y-37068796D01*
X91207546Y-36982546D01*
X91293796Y-36867331D01*
X91344091Y-36732483D01*
X91350500Y-36672873D01*
X91350499Y-34877128D01*
X91344091Y-34817517D01*
X91293796Y-34682669D01*
X91293795Y-34682668D01*
X91293793Y-34682664D01*
X91207547Y-34567455D01*
X91207544Y-34567452D01*
X91092335Y-34481206D01*
X91092328Y-34481202D01*
X90960917Y-34432189D01*
X90904983Y-34390318D01*
X90880566Y-34324853D01*
X90895418Y-34256580D01*
X90916563Y-34228332D01*
X91030104Y-34114792D01*
X91155051Y-33942816D01*
X91251557Y-33753412D01*
X91317246Y-33551243D01*
X91350500Y-33341287D01*
X91350500Y-33128713D01*
X91317246Y-32918757D01*
X91251557Y-32716588D01*
X91155051Y-32527184D01*
X91155049Y-32527181D01*
X91155048Y-32527179D01*
X91030109Y-32355213D01*
X90879786Y-32204890D01*
X90707820Y-32079951D01*
X90518414Y-31983444D01*
X90518413Y-31983443D01*
X90518412Y-31983443D01*
X90316243Y-31917754D01*
X90316241Y-31917753D01*
X90316240Y-31917753D01*
X90154957Y-31892208D01*
X90106287Y-31884500D01*
X89893713Y-31884500D01*
X89845042Y-31892208D01*
X89683760Y-31917753D01*
X89481585Y-31983444D01*
X89292179Y-32079951D01*
X89120213Y-32204890D01*
X88969890Y-32355213D01*
X88844951Y-32527179D01*
X88748444Y-32716585D01*
X88682753Y-32918760D01*
X88649500Y-33128713D01*
X84229452Y-33128713D01*
X84374236Y-33023523D01*
X84374236Y-33023522D01*
X84379457Y-33019729D01*
X84379464Y-33019723D01*
X84529723Y-32869464D01*
X84529727Y-32869459D01*
X84654620Y-32697557D01*
X84751095Y-32508217D01*
X84816757Y-32306129D01*
X84816757Y-32306126D01*
X84827231Y-32240000D01*
X83933012Y-32240000D01*
X83965925Y-32182993D01*
X84000000Y-32055826D01*
X84000000Y-31924174D01*
X83965925Y-31797007D01*
X83933012Y-31740000D01*
X84827231Y-31740000D01*
X84816757Y-31673873D01*
X84816757Y-31673870D01*
X84751095Y-31471782D01*
X84654620Y-31282442D01*
X84529727Y-31110540D01*
X84529723Y-31110535D01*
X84379464Y-30960276D01*
X84379459Y-30960272D01*
X84207555Y-30835377D01*
X84198500Y-30830763D01*
X84147706Y-30782788D01*
X84130912Y-30714966D01*
X84153451Y-30648832D01*
X84198508Y-30609793D01*
X84207816Y-30605051D01*
X84287007Y-30547515D01*
X84379786Y-30480109D01*
X84379788Y-30480106D01*
X84379792Y-30480104D01*
X84530104Y-30329792D01*
X84530106Y-30329788D01*
X84530109Y-30329786D01*
X84655048Y-30157820D01*
X84655047Y-30157820D01*
X84655051Y-30157816D01*
X84751557Y-29968412D01*
X84817246Y-29766243D01*
X84850500Y-29556287D01*
X84850500Y-29343713D01*
X84817246Y-29133757D01*
X84751557Y-28931588D01*
X84655051Y-28742184D01*
X84655049Y-28742181D01*
X84655048Y-28742179D01*
X84530109Y-28570213D01*
X84416569Y-28456673D01*
X84385220Y-28399262D01*
X92460000Y-28399262D01*
X92460000Y-28600737D01*
X92491518Y-28799735D01*
X92553775Y-28991346D01*
X92553776Y-28991349D01*
X92645248Y-29170869D01*
X92674842Y-29211602D01*
X92674843Y-29211603D01*
X93257037Y-28629408D01*
X93274075Y-28692993D01*
X93339901Y-28807007D01*
X93432993Y-28900099D01*
X93547007Y-28965925D01*
X93610590Y-28982962D01*
X93028395Y-29565155D01*
X93069133Y-29594753D01*
X93248650Y-29686223D01*
X93248653Y-29686224D01*
X93440264Y-29748481D01*
X93639263Y-29780000D01*
X93840737Y-29780000D01*
X94039735Y-29748481D01*
X94231346Y-29686224D01*
X94231349Y-29686223D01*
X94410866Y-29594753D01*
X94451602Y-29565156D01*
X94451602Y-29565155D01*
X93869409Y-28982962D01*
X93932993Y-28965925D01*
X94047007Y-28900099D01*
X94140099Y-28807007D01*
X94205925Y-28692993D01*
X94222962Y-28629409D01*
X94805155Y-29211602D01*
X94805156Y-29211602D01*
X94834753Y-29170866D01*
X94926223Y-28991349D01*
X94926224Y-28991346D01*
X94988481Y-28799735D01*
X95020000Y-28600737D01*
X95020000Y-28399262D01*
X94988481Y-28200264D01*
X94926224Y-28008653D01*
X94926223Y-28008650D01*
X94834753Y-27829133D01*
X94805155Y-27788396D01*
X94805155Y-27788395D01*
X94222962Y-28370589D01*
X94205925Y-28307007D01*
X94140099Y-28192993D01*
X94047007Y-28099901D01*
X93932993Y-28034075D01*
X93869408Y-28017037D01*
X94451603Y-27434843D01*
X94451602Y-27434842D01*
X94410869Y-27405248D01*
X94231349Y-27313776D01*
X94231346Y-27313775D01*
X94039735Y-27251518D01*
X93840737Y-27220000D01*
X93639263Y-27220000D01*
X93440264Y-27251518D01*
X93248653Y-27313775D01*
X93248650Y-27313776D01*
X93069135Y-27405245D01*
X93069133Y-27405246D01*
X93028396Y-27434842D01*
X93028396Y-27434843D01*
X93610591Y-28017037D01*
X93547007Y-28034075D01*
X93432993Y-28099901D01*
X93339901Y-28192993D01*
X93274075Y-28307007D01*
X93257037Y-28370590D01*
X92674843Y-27788396D01*
X92674842Y-27788396D01*
X92645246Y-27829133D01*
X92645245Y-27829135D01*
X92553776Y-28008650D01*
X92553775Y-28008653D01*
X92491518Y-28200264D01*
X92460000Y-28399262D01*
X84385220Y-28399262D01*
X84383084Y-28395350D01*
X84388068Y-28325658D01*
X84429940Y-28269725D01*
X84460915Y-28252810D01*
X84592331Y-28203796D01*
X84707546Y-28117546D01*
X84793796Y-28002331D01*
X84844091Y-27867483D01*
X84850500Y-27807873D01*
X84850499Y-26874783D01*
X84850499Y-26012129D01*
X84850498Y-26012123D01*
X84850497Y-26012116D01*
X84844091Y-25952517D01*
X84824211Y-25899216D01*
X87459500Y-25899216D01*
X87459500Y-26100783D01*
X87491030Y-26299852D01*
X87553312Y-26491539D01*
X87571910Y-26528039D01*
X87644818Y-26671129D01*
X87763289Y-26834190D01*
X87905810Y-26976711D01*
X88068871Y-27095182D01*
X88163691Y-27143495D01*
X88248460Y-27186687D01*
X88342014Y-27217084D01*
X88440149Y-27248970D01*
X88532348Y-27263572D01*
X88639217Y-27280500D01*
X88639222Y-27280500D01*
X88840783Y-27280500D01*
X88937289Y-27265214D01*
X89039851Y-27248970D01*
X89231542Y-27186686D01*
X89411129Y-27095182D01*
X89574190Y-26976711D01*
X89716711Y-26834190D01*
X89835182Y-26671129D01*
X89926686Y-26491542D01*
X89988970Y-26299851D01*
X90013970Y-26142007D01*
X90020500Y-26100783D01*
X90020500Y-25899216D01*
X89991231Y-25714425D01*
X89988970Y-25700149D01*
X89932608Y-25526684D01*
X89926687Y-25508460D01*
X89903806Y-25463553D01*
X89835182Y-25328871D01*
X89716711Y-25165810D01*
X89574190Y-25023289D01*
X89411129Y-24904818D01*
X89231539Y-24813312D01*
X89039852Y-24751030D01*
X88840783Y-24719500D01*
X88840778Y-24719500D01*
X88639222Y-24719500D01*
X88639217Y-24719500D01*
X88440147Y-24751030D01*
X88248460Y-24813312D01*
X88068870Y-24904818D01*
X88018582Y-24941355D01*
X87905810Y-25023289D01*
X87905808Y-25023291D01*
X87905807Y-25023291D01*
X87763291Y-25165807D01*
X87763291Y-25165808D01*
X87763289Y-25165810D01*
X87752126Y-25181175D01*
X87644818Y-25328870D01*
X87553312Y-25508460D01*
X87491030Y-25700147D01*
X87459500Y-25899216D01*
X84824211Y-25899216D01*
X84812969Y-25869075D01*
X84793797Y-25817671D01*
X84793793Y-25817664D01*
X84707547Y-25702455D01*
X84707544Y-25702452D01*
X84592335Y-25616206D01*
X84592328Y-25616202D01*
X84457482Y-25565908D01*
X84457483Y-25565908D01*
X84397883Y-25559501D01*
X84397881Y-25559500D01*
X84397873Y-25559500D01*
X84397864Y-25559500D01*
X82602129Y-25559500D01*
X82602123Y-25559501D01*
X82542516Y-25565908D01*
X82407671Y-25616202D01*
X82407664Y-25616206D01*
X82292455Y-25702452D01*
X82292452Y-25702455D01*
X82206206Y-25817664D01*
X82206202Y-25817671D01*
X82155908Y-25952517D01*
X82149501Y-26012116D01*
X82149501Y-26012123D01*
X82149500Y-26012135D01*
X46830980Y-26012135D01*
X46826763Y-26000083D01*
X46788801Y-25891592D01*
X46666945Y-25638555D01*
X46517523Y-25400752D01*
X46342416Y-25181175D01*
X46143825Y-24982584D01*
X46137462Y-24977510D01*
X46054250Y-24911150D01*
X45924248Y-24807477D01*
X45686445Y-24658055D01*
X45686442Y-24658053D01*
X45433411Y-24536200D01*
X45168329Y-24443443D01*
X45168317Y-24443439D01*
X44894512Y-24380945D01*
X44894494Y-24380942D01*
X44615431Y-24349500D01*
X44615425Y-24349500D01*
X44334575Y-24349500D01*
X44334568Y-24349500D01*
X44055505Y-24380942D01*
X44055487Y-24380945D01*
X43781682Y-24443439D01*
X43781670Y-24443443D01*
X43516588Y-24536200D01*
X43263557Y-24658053D01*
X43025753Y-24807476D01*
X42806175Y-24982583D01*
X42607583Y-25181175D01*
X42432476Y-25400753D01*
X42283053Y-25638557D01*
X42161200Y-25891588D01*
X42068443Y-26156670D01*
X42068439Y-26156682D01*
X42005945Y-26430487D01*
X42005943Y-26430501D01*
X41998792Y-26493965D01*
X41971725Y-26558379D01*
X41914129Y-26597933D01*
X41844292Y-26600070D01*
X41787891Y-26567761D01*
X39184848Y-23964717D01*
X39102033Y-23881902D01*
X66999500Y-23881902D01*
X66999500Y-24118097D01*
X67036446Y-24351368D01*
X67109433Y-24575996D01*
X67151244Y-24658053D01*
X67216657Y-24786433D01*
X67355483Y-24977510D01*
X67522490Y-25144517D01*
X67713567Y-25283343D01*
X67785697Y-25320095D01*
X67924003Y-25390566D01*
X67924005Y-25390566D01*
X67924008Y-25390568D01*
X68044412Y-25429689D01*
X68148631Y-25463553D01*
X68381903Y-25500500D01*
X68381908Y-25500500D01*
X68618097Y-25500500D01*
X68851368Y-25463553D01*
X69075992Y-25390568D01*
X69286433Y-25283343D01*
X69477510Y-25144517D01*
X69644517Y-24977510D01*
X69783343Y-24786433D01*
X69890568Y-24575992D01*
X69963553Y-24351368D01*
X69978643Y-24256093D01*
X70000500Y-24118097D01*
X70000500Y-23881902D01*
X73499500Y-23881902D01*
X73499500Y-24118097D01*
X73536446Y-24351368D01*
X73609433Y-24575996D01*
X73651244Y-24658053D01*
X73716657Y-24786433D01*
X73855483Y-24977510D01*
X74022490Y-25144517D01*
X74213567Y-25283343D01*
X74285697Y-25320095D01*
X74424003Y-25390566D01*
X74424005Y-25390566D01*
X74424008Y-25390568D01*
X74544412Y-25429689D01*
X74648631Y-25463553D01*
X74881903Y-25500500D01*
X74881908Y-25500500D01*
X75118097Y-25500500D01*
X75351368Y-25463553D01*
X75575992Y-25390568D01*
X75786433Y-25283343D01*
X75977510Y-25144517D01*
X76144517Y-24977510D01*
X76283343Y-24786433D01*
X76390568Y-24575992D01*
X76463553Y-24351368D01*
X76478643Y-24256093D01*
X76500500Y-24118097D01*
X76500500Y-23881902D01*
X76463553Y-23648631D01*
X76390566Y-23424003D01*
X76283342Y-23213566D01*
X76144517Y-23022490D01*
X75977510Y-22855483D01*
X75786433Y-22716657D01*
X75699054Y-22672135D01*
X92459500Y-22672135D01*
X92459500Y-24327870D01*
X92459501Y-24327876D01*
X92465908Y-24387483D01*
X92516202Y-24522328D01*
X92516206Y-24522335D01*
X92602452Y-24637544D01*
X92602455Y-24637547D01*
X92717664Y-24723793D01*
X92717671Y-24723797D01*
X92852517Y-24774091D01*
X92852516Y-24774091D01*
X92859444Y-24774835D01*
X92912127Y-24780500D01*
X94567872Y-24780499D01*
X94627483Y-24774091D01*
X94762331Y-24723796D01*
X94877546Y-24637546D01*
X94963796Y-24522331D01*
X95014091Y-24387483D01*
X95020500Y-24327873D01*
X95020499Y-22672128D01*
X95014091Y-22612517D01*
X95012940Y-22609432D01*
X94963797Y-22477671D01*
X94963793Y-22477664D01*
X94877547Y-22362455D01*
X94877544Y-22362452D01*
X94762335Y-22276206D01*
X94762328Y-22276202D01*
X94627482Y-22225908D01*
X94627483Y-22225908D01*
X94567883Y-22219501D01*
X94567881Y-22219500D01*
X94567873Y-22219500D01*
X94567864Y-22219500D01*
X92912129Y-22219500D01*
X92912123Y-22219501D01*
X92852516Y-22225908D01*
X92717671Y-22276202D01*
X92717664Y-22276206D01*
X92602455Y-22362452D01*
X92602452Y-22362455D01*
X92516206Y-22477664D01*
X92516202Y-22477671D01*
X92465908Y-22612517D01*
X92463500Y-22634919D01*
X92459501Y-22672123D01*
X92459500Y-22672135D01*
X75699054Y-22672135D01*
X75575996Y-22609433D01*
X75351368Y-22536446D01*
X75118097Y-22499500D01*
X75118092Y-22499500D01*
X74881908Y-22499500D01*
X74881903Y-22499500D01*
X74648631Y-22536446D01*
X74424003Y-22609433D01*
X74213566Y-22716657D01*
X74104550Y-22795862D01*
X74022490Y-22855483D01*
X74022488Y-22855485D01*
X74022487Y-22855485D01*
X73855485Y-23022487D01*
X73855485Y-23022488D01*
X73855483Y-23022490D01*
X73795862Y-23104550D01*
X73716657Y-23213566D01*
X73609433Y-23424003D01*
X73536446Y-23648631D01*
X73499500Y-23881902D01*
X70000500Y-23881902D01*
X69963553Y-23648631D01*
X69890566Y-23424003D01*
X69783342Y-23213566D01*
X69644517Y-23022490D01*
X69477510Y-22855483D01*
X69286433Y-22716657D01*
X69199054Y-22672135D01*
X69075996Y-22609433D01*
X68851368Y-22536446D01*
X68618097Y-22499500D01*
X68618092Y-22499500D01*
X68381908Y-22499500D01*
X68381903Y-22499500D01*
X68148631Y-22536446D01*
X67924003Y-22609433D01*
X67713566Y-22716657D01*
X67604550Y-22795862D01*
X67522490Y-22855483D01*
X67522488Y-22855485D01*
X67522487Y-22855485D01*
X67355485Y-23022487D01*
X67355485Y-23022488D01*
X67355483Y-23022490D01*
X67295862Y-23104550D01*
X67216657Y-23213566D01*
X67109433Y-23424003D01*
X67036446Y-23648631D01*
X66999500Y-23881902D01*
X39102033Y-23881902D01*
X37937183Y-22717052D01*
X37937176Y-22717046D01*
X37863491Y-22667812D01*
X37863491Y-22667813D01*
X37814253Y-22634913D01*
X37677679Y-22578343D01*
X37677669Y-22578340D01*
X37532682Y-22549500D01*
X37532680Y-22549500D01*
X33373917Y-22549500D01*
X33226082Y-22549500D01*
X33226080Y-22549500D01*
X33081092Y-22578340D01*
X33081082Y-22578343D01*
X32944511Y-22634912D01*
X32944498Y-22634919D01*
X32821584Y-22717048D01*
X32821580Y-22717051D01*
X31222049Y-24316581D01*
X31222045Y-24316585D01*
X31179046Y-24380942D01*
X31174676Y-24387483D01*
X31165926Y-24400579D01*
X31139916Y-24439504D01*
X31139912Y-24439511D01*
X31083343Y-24576082D01*
X31083340Y-24576092D01*
X31054500Y-24721079D01*
X31054500Y-24911150D01*
X31034815Y-24978189D01*
X30986795Y-25021635D01*
X30873161Y-25079534D01*
X30721968Y-25201968D01*
X30631044Y-25314249D01*
X30573556Y-25353961D01*
X30503725Y-25356288D01*
X30443722Y-25320492D01*
X30438313Y-25314249D01*
X30347678Y-25202326D01*
X30196567Y-25079957D01*
X30023315Y-24991682D01*
X29835497Y-24941355D01*
X29754743Y-24935000D01*
X29515000Y-24935000D01*
X29515000Y-25901988D01*
X29457993Y-25869075D01*
X29330826Y-25835000D01*
X29199174Y-25835000D01*
X29072007Y-25869075D01*
X29015000Y-25901988D01*
X29015000Y-24935000D01*
X28775256Y-24935000D01*
X28694502Y-24941355D01*
X28506684Y-24991682D01*
X28333432Y-25079957D01*
X28182324Y-25202324D01*
X28059957Y-25353432D01*
X27971682Y-25526684D01*
X27921355Y-25714502D01*
X27915000Y-25795256D01*
X27915000Y-26085000D01*
X28831988Y-26085000D01*
X28799075Y-26142007D01*
X28765000Y-26269174D01*
X28765000Y-26400826D01*
X28799075Y-26527993D01*
X28831988Y-26585000D01*
X27915000Y-26585000D01*
X27915000Y-26874743D01*
X27921355Y-26955497D01*
X27971682Y-27143315D01*
X28059957Y-27316567D01*
X28129643Y-27402621D01*
X28156535Y-27467108D01*
X28144293Y-27535897D01*
X28107588Y-27579923D01*
X28057455Y-27617452D01*
X28057452Y-27617455D01*
X27971206Y-27732664D01*
X27971202Y-27732671D01*
X27920908Y-27867517D01*
X27914501Y-27927116D01*
X27914500Y-27927135D01*
X27914500Y-29822870D01*
X27914501Y-29822876D01*
X27920908Y-29882483D01*
X27971202Y-30017328D01*
X27971206Y-30017335D01*
X28057452Y-30132544D01*
X28057455Y-30132547D01*
X28172664Y-30218793D01*
X28172671Y-30218797D01*
X28308833Y-30269582D01*
X28364767Y-30311453D01*
X28389184Y-30376917D01*
X28389500Y-30385764D01*
X28389500Y-47651233D01*
X28423143Y-47820366D01*
X28423146Y-47820378D01*
X28489138Y-47979698D01*
X28489145Y-47979711D01*
X28584954Y-48123098D01*
X28584957Y-48123102D01*
X30063181Y-49601325D01*
X30096666Y-49662648D01*
X30099500Y-49689006D01*
X30099500Y-50500001D01*
X30099501Y-50500019D01*
X30110000Y-50602796D01*
X30110001Y-50602799D01*
X30159697Y-50752769D01*
X30165186Y-50769334D01*
X30257288Y-50918656D01*
X30381344Y-51042712D01*
X30465509Y-51094625D01*
X30517125Y-51126462D01*
X30563850Y-51178410D01*
X30575073Y-51247372D01*
X30547229Y-51311455D01*
X30539711Y-51319682D01*
X30431751Y-51427642D01*
X30302187Y-51605974D01*
X30202104Y-51802393D01*
X30202103Y-51802396D01*
X30133985Y-52012047D01*
X30099500Y-52229778D01*
X30099500Y-52450221D01*
X30133985Y-52667952D01*
X30202103Y-52877603D01*
X30202104Y-52877606D01*
X30270122Y-53011096D01*
X30297129Y-53064100D01*
X30302187Y-53074025D01*
X30431752Y-53252358D01*
X30431756Y-53252363D01*
X30587636Y-53408243D01*
X30587641Y-53408247D01*
X30727254Y-53509682D01*
X30769920Y-53565012D01*
X30775899Y-53634625D01*
X30743293Y-53696420D01*
X30727254Y-53710318D01*
X30587641Y-53811752D01*
X30587636Y-53811756D01*
X30431756Y-53967636D01*
X30431752Y-53967641D01*
X30302187Y-54145974D01*
X30202104Y-54342393D01*
X30202103Y-54342396D01*
X30133985Y-54552047D01*
X30099500Y-54769778D01*
X30099500Y-54990221D01*
X30133985Y-55207952D01*
X30202103Y-55417603D01*
X30202104Y-55417606D01*
X30266894Y-55544761D01*
X30297129Y-55604100D01*
X30302187Y-55614025D01*
X30431752Y-55792358D01*
X30431756Y-55792363D01*
X30587636Y-55948243D01*
X30587641Y-55948247D01*
X30727254Y-56049682D01*
X30769920Y-56105012D01*
X30775899Y-56174625D01*
X30743293Y-56236420D01*
X30727254Y-56250318D01*
X30587641Y-56351752D01*
X30587636Y-56351756D01*
X30431756Y-56507636D01*
X30431752Y-56507641D01*
X30302187Y-56685974D01*
X30202104Y-56882393D01*
X30202103Y-56882396D01*
X30133985Y-57092047D01*
X30111817Y-57232012D01*
X30081888Y-57295147D01*
X30022576Y-57332078D01*
X29952714Y-57331080D01*
X29901663Y-57300295D01*
X26518269Y-53916901D01*
X26484784Y-53855578D01*
X26483477Y-53809827D01*
X26500500Y-53702352D01*
X26500500Y-53497648D01*
X26468477Y-53295466D01*
X26454470Y-53252358D01*
X26405218Y-53100776D01*
X26371503Y-53034607D01*
X26312287Y-52918390D01*
X26282654Y-52877603D01*
X26191971Y-52752786D01*
X26047213Y-52608028D01*
X25881613Y-52487715D01*
X25881612Y-52487714D01*
X25881610Y-52487713D01*
X25808028Y-52450221D01*
X25699223Y-52394781D01*
X25504534Y-52331522D01*
X25329995Y-52303878D01*
X25302352Y-52299500D01*
X25097648Y-52299500D01*
X25073329Y-52303351D01*
X24895465Y-52331522D01*
X24700776Y-52394781D01*
X24518386Y-52487715D01*
X24352786Y-52608028D01*
X24208028Y-52752786D01*
X24087715Y-52918386D01*
X23994781Y-53100776D01*
X23931522Y-53295465D01*
X23899500Y-53497648D01*
X18540500Y-53497648D01*
X18540500Y-20544500D01*
X18560185Y-20477461D01*
X18612989Y-20431706D01*
X18664500Y-20420500D01*
X20583655Y-20420500D01*
X20650694Y-20440185D01*
G37*
%TD.AperFunction*%
%TD*%
M02*
