M48
; DRILL file {KiCad 9.0.0} date 2025-03-11T13:16:12+0100
; FORMAT={-:-/ absolute / metric / decimal}
; #@! TF.CreationDate,2025-03-11T13:16:12+01:00
; #@! TF.GenerationSoftware,Kicad,Pcbnew,9.0.0
; #@! TF.FileFunction,MixedPlating,1,2
FMAT,2
METRIC
; #@! TA.AperFunction,Plated,PTH,ComponentDrill
T1C0.400
; #@! TA.AperFunction,Plated,PTH,ViaDrill
T2C0.800
; #@! TA.AperFunction,Plated,PTH,ComponentDrill
T3C1.000
; #@! TA.AperFunction,Plated,PTH,ComponentDrill
T4C1.100
; #@! TA.AperFunction,Plated,PTH,ComponentDrill
T5C1.300
; #@! TA.AperFunction,Plated,PTH,ComponentDrill
T6C1.600
; #@! TA.AperFunction,Plated,PTH,ComponentDrill
T7C2.500
; #@! TA.AperFunction,Plated,PTH,ComponentDrill
T8C3.000
%
G90
G05
T1
X63.0Y-47.5
X64.0Y-47.5
T2
X25.2Y-53.6
X40.534Y-41.566
X45.6Y-74.9
X46.2Y-71.2
X47.5Y-79.6
X58.38Y-78.62
X61.2Y-66.3
X61.5Y-39.0
X66.25Y-66.75
X73.6Y-58.3
T3
X29.265Y-26.335
X29.265Y-28.875
X31.5Y-49.8
X31.5Y-52.34
X31.5Y-54.88
X31.5Y-57.42
X31.5Y-59.96
X31.5Y-62.5
X31.5Y-65.04
X31.805Y-26.335
X31.805Y-28.875
X34.04Y-49.8
X34.04Y-52.34
X34.04Y-54.88
X34.04Y-57.42
X34.04Y-59.96
X34.04Y-62.5
X34.04Y-65.04
X34.345Y-26.335
X34.345Y-28.875
X36.885Y-26.335
X36.885Y-28.875
X52.0Y-43.5
X52.0Y-48.5
X52.5Y-89.5
X60.5Y-89.5
X72.04Y-67.54
X76.1Y-45.4
X76.2Y-49.3
X76.96Y-65.0
X76.96Y-67.54
X79.5Y-65.0
X79.5Y-67.54
X82.04Y-65.0
X82.04Y-67.54
X83.5Y-26.91
X83.5Y-29.45
X83.5Y-31.99
X84.0Y-61.0
X84.58Y-65.0
X84.58Y-67.54
X88.74Y-26.0
X88.74Y-89.0
X90.0Y-33.235
X90.0Y-35.775
X90.0Y-40.0
X93.5Y-74.0
X93.5Y-79.96
X93.5Y-82.5
X93.74Y-23.5
X93.74Y-28.5
X93.74Y-86.5
X93.74Y-91.5
T4
X68.5Y-24.0
X68.5Y-28.5
X69.407Y-79.945
X69.407Y-82.445
X69.407Y-84.945
X75.0Y-24.0
X75.0Y-28.5
X75.638Y-91.175
X78.138Y-91.175
X80.638Y-91.175
T5
X74.888Y-72.195
X74.888Y-76.695
X81.388Y-72.195
X81.388Y-76.695
T6
X71.812Y-77.445
X71.812Y-87.445
X84.462Y-77.445
X84.462Y-87.445
T7
X21.475Y-26.85
X21.475Y-87.85
X44.475Y-26.85
X44.475Y-87.85
T8
X22.04Y-22.42
X22.04Y-92.42
X64.04Y-30.42
X64.04Y-84.42
X94.04Y-57.42
M30
